<?xml version="1.0" encoding="UTF-8" standalone="no"?>
<!-- Created with Inkscape (http://www.inkscape.org/) -->

<svg
   version="1.1"
   id="svg1"
   width="160.86533"
   height="288.064"
   viewBox="0 0 160.86533 288.064"
   sodipodi:docname="iso_CO.pdf"
   xmlns:inkscape="http://www.inkscape.org/namespaces/inkscape"
   xmlns:sodipodi="http://sodipodi.sourceforge.net/DTD/sodipodi-0.dtd"
   xmlns="http://www.w3.org/2000/svg"
   xmlns:svg="http://www.w3.org/2000/svg">
  <defs
     id="defs1" />
  <sodipodi:namedview
     id="namedview1"
     pagecolor="#ffffff"
     bordercolor="#000000"
     borderopacity="0.25"
     inkscape:showpageshadow="2"
     inkscape:pageopacity="0.0"
     inkscape:pagecheckerboard="0"
     inkscape:deskcolor="#d1d1d1">
    <inkscape:page
       x="0"
       y="0"
       inkscape:label="1"
       id="page1"
       width="160.86533"
       height="288.064"
       margin="0"
       bleed="0" />
  </sodipodi:namedview>
  <g
     id="g1"
     inkscape:groupmode="layer"
     inkscape:label="1">
    <path
       id="path1"
       d="m 18.42546,0 c 0,10.17622 -8.24924,18.42546 -18.42546,18.42546 -10.17622,0 -18.42546,-8.24924 -18.42546,-18.42546 0,-10.17622 8.24924,-18.42546 18.42546,-18.42546 10.17622,0 18.42546,8.24924 18.42546,18.42546 z"
       style="fill:#595959;fill-opacity:1;fill-rule:nonzero;stroke:#000000;stroke-width:0.79701;stroke-linecap:butt;stroke-linejoin:miter;stroke-miterlimit:10;stroke-dasharray:none;stroke-opacity:1"
       transform="matrix(1.3333333,0,0,-1.3333333,43.996,94.366667)" />
    <g
       id="g2"
       aria-label="12&#10;C"
       transform="matrix(1.3333333,0,0,1.3333333,33.701333,94.952)">
      <path
         id="path2"
         d="m 2.333375,-4.4288437 c 0,-0.1875 -0.011719,-0.1992188 -0.2109375,-0.1992188 C 1.677125,-4.1944687 1.0443125,-4.18275 0.7630625,-4.18275 v 0.2460938 c 0.1640625,0 0.6210938,0 1.0078125,-0.1875 v 3.5507812 c 0,0.234375 0,0.328125 -0.6914062,0.328125 H 0.8099375 V 8.4375e-4 c 0.12890625,-0.01171875 0.984375,-0.0234375 1.2421875,-0.0234375 0.2109375,0 1.0898438,0.01171875 1.2421875,0.0234375 V -0.24525 H 3.0365 c -0.703125,0 -0.703125,-0.09375 -0.703125,-0.328125 z m 5.1533203,3.1640625 h -0.234375 c -0.023437,0.1523437 -0.082031,0.56249995 -0.1757812,0.63281245 -0.058594,0.0351563 -0.5976563,0.0351563 -0.6914063,0.0351563 H 5.0960703 c 0.7382813,-0.64453115 0.984375,-0.84374995 1.3945313,-1.17187495 0.515625,-0.4101562 0.9960937,-0.84375 0.9960937,-1.5 0,-0.84375 -0.7382812,-1.359375 -1.6289062,-1.359375 -0.8671875,0 -1.453125,0.609375 -1.453125,1.2421875 0,0.3632813 0.3046875,0.3984374 0.375,0.3984374 0.1640625,0 0.375,-0.1171874 0.375,-0.3749999 0,-0.1289062 -0.058594,-0.3632812 -0.421875,-0.3632812 0.2226562,-0.5039063 0.6914062,-0.65625 1.0195312,-0.65625 0.703125,0 1.0664063,0.5507812 1.0664063,1.1132812 0,0.609375 -0.4335938,1.0898438 -0.65625,1.3359375 l -1.6875,1.66406245 c -0.070312,0.0585938 -0.070312,0.0703125 -0.070312,0.26953125 h 2.8828125 z m 0,0"
         style="fill:#ffffff;fill-opacity:1;fill-rule:nonzero;stroke:none" />
      <path
         id="path3"
         d="m 14.813844,2.1863906 c 0,-0.070312 -0.07031,-0.1171875 -0.105469,-0.1171875 -0.246094,0 -0.527344,0.6445313 -1.933594,0.6445313 -1.757812,0 -2.25,-1.0664063 -2.25,-2.56640627 0,-1.47656253 0.539063,-2.55468753 2.167969,-2.55468753 0.890625,0 1.359375,0.3398438 1.628906,0.5625 0.05859,0.046875 0.08203,0.09375 0.152344,0.09375 0.04687,0 0.09375,-0.046875 0.105469,-0.09375 l 0.199219,-1.1015625 c 0,-0.046875 0,-0.082031 -0.08203,-0.1171875 -0.585937,-0.2109375 -1.195312,-0.3515625 -1.96875,-0.3515625 -2.4375,0 -3.6796872,1.1835938 -3.6796872,3.55078128 0,2.44921872 1.2656252,3.58593752 3.6796872,3.58593752 0.855469,0 1.382813,-0.1289063 2.109375,-0.5742188 0.08203,-0.046875 0.05859,-0.1171875 0.05859,-0.1171875 z m 0,0"
         style="fill:#ffffff;fill-opacity:1;fill-rule:nonzero;stroke:none" />
    </g>
    <path
       id="path4"
       d="m 73.08167,0 c 0,10.17622 -8.24924,18.42546 -18.42547,18.42546 -10.17623,0 -18.42547,-8.24924 -18.42547,-18.42546 0,-10.17622 8.24924,-18.42546 18.42547,-18.42546 10.17623,0 18.42547,8.24924 18.42547,18.42546 z"
       style="fill:#b30000;fill-opacity:1;fill-rule:nonzero;stroke:#000000;stroke-width:0.79701;stroke-linecap:butt;stroke-linejoin:miter;stroke-miterlimit:10;stroke-dasharray:none;stroke-opacity:1"
       transform="matrix(1.3333333,0,0,-1.3333333,43.996,94.366667)" />
    <g
       id="g4"
       aria-label="16&#10;O"
       transform="matrix(1.3333333,0,0,1.3333333,105.96667,94.952)">
      <path
         id="path5"
         d="m 2.3306641,-4.4288437 c 0,-0.1875 -0.011719,-0.1992188 -0.2109375,-0.1992188 C 1.6744141,-4.1944687 1.0416016,-4.18275 0.76035156,-4.18275 v 0.2460938 c 0.1640625,0 0.62109374,0 1.00781254,-0.1875 v 3.5507812 c 0,0.234375 0,0.328125 -0.6914063,0.328125 H 0.80722656 V 8.4375e-4 c 0.12890625,-0.01171875 0.98437504,-0.0234375 1.24218754,-0.0234375 0.2109375,0 1.0898437,0.01171875 1.2421875,0.0234375 V -0.24525 H 3.0337891 c -0.703125,0 -0.703125,-0.09375 -0.703125,-0.328125 z m 2.6835937,2.1445312 c 0,-0.5625 0.046875,-1.078125 0.3164063,-1.5117187 0.234375,-0.375 0.609375,-0.6328125 1.0546875,-0.6328125 0.2109375,0 0.4921875,0.058594 0.6328125,0.2460937 -0.1757813,0.011719 -0.3164063,0.1289063 -0.3164063,0.3398438 0,0.1640625 0.1171875,0.328125 0.328125,0.328125 0.1992188,0 0.328125,-0.140625 0.328125,-0.3515625 0,-0.3984375 -0.2929687,-0.7617188 -0.984375,-0.7617188 -0.9960937,0 -2.0273437,0.9140625 -2.0273437,2.4140625 0,1.8046875 0.8554687,2.35546875 1.6171875,2.35546875 0.8554687,0 1.59375,-0.64453125 1.59375,-1.55859375 0,-0.890625 -0.703125,-1.546875 -1.5234375,-1.546875 -0.5507813,0 -0.8671875,0.375 -1.0195313,0.6796875 z m 0.9492188,2.203125 c -0.3515625,0 -0.6210938,-0.19921875 -0.7617188,-0.515625 -0.1054687,-0.19921875 -0.1640625,-0.5507812 -0.1640625,-0.9726562 0,-0.6796875 0.4101563,-1.1953125 0.9609375,-1.1953125 0.328125,0 0.5390625,0.1171875 0.7148438,0.3867187 0.1640625,0.2578125 0.1757812,0.5507813 0.1757812,0.9609375 0,0.3984375 0,0.69140625 -0.1875,0.9609375 -0.1757812,0.24609375 -0.3984375,0.375 -0.7382812,0.375 z m 0,0"
         style="fill:#ffffff;fill-opacity:1;fill-rule:nonzero;stroke:none" />
      <path
         id="path6"
         d="m 15.728125,0.20592188 c 0,-2.00390628 -0.726562,-3.72656248 -3.339844,-3.72656248 -2.753906,0 -3.3398435,1.9101562 -3.3398435,3.72656248 0,1.86328122 0.6445313,3.63281252 3.3398435,3.63281252 2.566407,0 3.339844,-1.5820313 3.339844,-3.63281252 z M 12.388281,3.0418594 c -1.875,0 -1.875,-2.08593752 -1.875,-2.98828127 0,-0.87890625 0,-2.78906253 1.875,-2.78906253 1.875,0 1.875,1.88671878 1.875,2.78906253 0,0.87890625 0,2.98828127 -1.875,2.98828127 z m 0,0"
         style="fill:#ffffff;fill-opacity:1;fill-rule:nonzero;stroke:none" />
    </g>
    <path
       id="path7"
       d="M 18.82396,3.40146 H 35.83223"
       style="fill:none;stroke:#a6a6a6;stroke-width:1.49442;stroke-linecap:butt;stroke-linejoin:miter;stroke-miterlimit:10;stroke-dasharray:none;stroke-opacity:1"
       transform="matrix(1.3333333,0,0,-1.3333333,43.996,94.366667)" />
    <path
       id="path8"
       d="M 18.82396,0 H 35.83223"
       style="fill:none;stroke:#a6a6a6;stroke-width:1.49442;stroke-linecap:butt;stroke-linejoin:miter;stroke-miterlimit:10;stroke-dasharray:none;stroke-opacity:1"
       transform="matrix(1.3333333,0,0,-1.3333333,43.996,94.366667)" />
    <path
       id="path9"
       d="M 18.82396,-3.40146 H 35.83223"
       style="fill:none;stroke:#a6a6a6;stroke-width:1.49442;stroke-linecap:butt;stroke-linejoin:miter;stroke-miterlimit:10;stroke-dasharray:none;stroke-opacity:1"
       transform="matrix(1.3333333,0,0,-1.3333333,43.996,94.366667)" />
    <path
       id="path10"
       d="m 32.25969,38.75789 h -9.86321 c -1.10046,0 -1.99255,-0.89208 -1.99255,-1.99255 V 30.5386 c 0,-1.10046 0.89209,-1.99255 1.99255,-1.99255 h 9.86321 c 1.10046,0 1.99255,0.89209 1.99255,1.99255 v 6.22674 c 0,1.10047 -0.89209,1.99255 -1.99255,1.99255 z"
       style="fill:#e6e6ff;fill-opacity:1;fill-rule:nonzero;stroke:#0000b3;stroke-width:0.3985;stroke-linecap:butt;stroke-linejoin:miter;stroke-miterlimit:10;stroke-dasharray:none;stroke-opacity:1"
       transform="matrix(1.3333333,0,0,-1.3333333,43.996,94.366667)" />
    <path
       id="path11"
       d="m 0.58453906,-0.76239063 c -0.09375,0.09375 -0.09375,0.10546875 -0.09375,0.2578125 v 0.0703125 c 0,0.328125 0.09375,0.433593755 0.43359375,0.433593755 H 3.9946953 c 0.3398438,0 0.4335938,-0.117187505 0.4335938,-0.433593755 v -0.10546875 c 0,-0.140625 0,-0.31640625 -0.1875,-0.3984375 -0.070312,-0.0351563 -0.3515625,-0.0351563 -0.5273438,-0.0351563 -0.1992187,0 -0.4101562,0.0117188 -0.609375,0.0117188 H 1.6509453 L 2.8345391,-2.0748906 c 0.1289062,-0.1171875 0.46875,-0.3984375 0.609375,-0.5273438 0.4921875,-0.4804687 0.984375,-0.9609375 0.984375,-1.7578125 0,-1.0898437 -0.7851563,-2.0625 -2.109375,-2.0625 -0.3164063,0 -0.8203125,0.046875 -1.2539063,0.3984375 -0.0820312,0.058594 -0.49218749,0.3867188 -0.65624999,0.984375 l 0.4453125,0.5742188 c 0.0585938,0.070312 0.0820313,0.1054687 0.15234379,0.1054687 0.082031,0 0.09375,-0.058594 0.1171875,-0.1640625 0.1875,-0.6210937 0.4921875,-0.9960937 1.0664062,-0.9960937 0.6914063,0 0.984375,0.6328125 0.984375,1.1835937 0,0.5742188 -0.3398437,1.171875 -0.8789062,1.7460938 z M 8.7993828,-5.9889531 c 0,-0.2109375 0,-0.2226563 -0.3046875,-0.3398438 -0.234375,-0.09375 -0.4804687,-0.09375 -0.5625,-0.09375 -2.5898437,0 -2.5898437,2.5898438 -2.5898437,3.375 0,0.9257813 0,3.24609377 2.0859375,3.24609377 0.6914062,0 1.125,-0.17578125 1.4882812,-0.5859375 0.46875,-0.515625 0.5273438,-1.03124997 0.5273438,-1.73437497 0,-0.5039063 0,-2.1679688 -1.7460938,-2.1679688 -0.4921875,0 -0.8554687,0.2695313 -1.1015625,0.796875 0.046875,-0.8085937 0.058594,-1.0078125 0.1875,-1.3710937 0.2695313,-0.6796875 0.8554688,-0.7617188 1.171875,-0.7617188 0.1640625,0 0.3867188,0.035156 0.609375,0.1523438 0.058594,0.035156 0.082031,0.058594 0.1289063,0.058594 0.1054687,0 0.1054687,-0.1054687 0.1054687,-0.2460937 z m -1.3710937,5.34374997 c -0.7148438,0 -0.8085938,-0.80859377 -0.8085938,-1.58203127 0,-0.7382812 0.2109375,-1.4179687 0.84375,-1.4179687 0.7265625,0 0.7265625,0.6328125 0.7265625,1.5234375 0,0.8789062 0,1.47656247 -0.7617187,1.47656247 z m 0,0"
       style="fill:#000000;fill-opacity:1;fill-rule:nonzero;stroke:none"
       aria-label="26"
       transform="matrix(1.3333333,0,0,1.3333333,73.857333,53.649333)" />
    <path
       id="path12"
       d="M 21.65881,28.3468 0,18.82396"
       style="fill:none;stroke:#999999;stroke-width:0.3985;stroke-linecap:butt;stroke-linejoin:miter;stroke-miterlimit:10;stroke-dasharray:2.98883, 2.98883;stroke-dashoffset:0;stroke-opacity:1"
       transform="matrix(1.3333333,0,0,-1.3333333,43.996,94.366667)" />
    <path
       id="path13"
       d="M 32.99736,28.3468 54.6562,18.82396"
       style="fill:none;stroke:#999999;stroke-width:0.3985;stroke-linecap:butt;stroke-linejoin:miter;stroke-miterlimit:10;stroke-dasharray:2.98883, 2.98883;stroke-dashoffset:0;stroke-opacity:1"
       transform="matrix(1.3333333,0,0,-1.3333333,43.996,94.366667)" />
    <path
       id="path14"
       d="M 4.8524375,-3.1535937 C 4.6180625,-2.5559375 4.1375938,-1.31375 4.0204063,-0.88015625 3.9266563,-1.2434375 3.5165,-2.3332812 3.3407188,-2.766875 L 2.157125,-5.81375 1.9930625,-6.2239062 H 0.9149375 V -0.00125 h 0.7382813 v -5.5195312 h 0.011719 c 0.1054688,0.4570312 0.6210938,1.7929687 0.7148438,2.0390625 l 0.9960937,2.53124995 c 0.070312,0.17578125 0.234375,0.62109375 0.2929688,0.75 H 4.3485313 L 5.5907188,-3.3528125 c 0.1289062,-0.328125 0.6796875,-1.7460937 0.796875,-2.1679687 V -0.00125 H 7.125875 V -6.2239062 H 6.04775 Z m 6.8906255,0.5625 c 0,-0.890625 -0.65625,-1.546875 -1.535157,-1.546875 -0.5859372,0 -1.019531,0.1523437 -1.4531247,0.3984375 l 0.058594,0.6328125 C 9.2586875,-3.4348437 9.704,-3.56375 10.196188,-3.56375 c 0.503906,0 0.808593,0.3984375 0.808593,0.984375 v 0.375 c -1.5468747,0.035156 -2.5546872,0.4335938 -2.5546872,1.1601563 0,0.42187495 0.2695312,1.1367187 1.0546875,1.1367187 0.1757812,0 0.9609377,-0.01171875 1.5234377,-0.43359375 V -0.00125 h 0.714844 z m -0.738282,1.3359375 c 0,0.1875 0,0.4101562 -0.328125,0.5976562 C 10.454,-0.516875 10.161031,-0.48171875 9.9735313,-0.48171875 9.5165,-0.48171875 9.1415,-0.704375 9.1415,-1.0559375 c 0,-0.6445312 1.746094,-0.6679687 1.863281,-0.6679687 z m 3,-4.875 h -0.855468 v 0.8554687 h 0.855468 z m -0.07031,2.1445312 h -0.714844 v 3.984375 h 0.714844 z m 4.766601,1.3242188 c 0,-0.6679688 -0.175781,-1.4179688 -1.253906,-1.4179688 -0.714844,0 -1.148437,0.4101563 -1.347656,0.6796875 V -4.0325 h -0.691406 v 4.03125 h 0.738281 v -2.1914062 c 0,-0.5859375 0.234375,-1.3007813 0.914062,-1.3007813 0.902344,0 0.902344,0.6328125 0.902344,0.890625 V -0.00125 h 0.738281 z m 5.525391,-3.5625 H 23.370992 V -0.00125 h 0.855469 z M 28.254781,-3.845 C 27.704,-4.1028125 27.282125,-4.1379687 26.918844,-4.1379687 c -0.210938,0 -1.523438,0 -1.523438,1.1835937 0,0.4335938 0.257813,0.703125 0.363281,0.796875 0.339844,0.3046875 0.574219,0.3398438 1.183594,0.4570313 0.28125,0.058594 0.796875,0.1523437 0.796875,0.609375 0,0.58593745 -0.726562,0.58593745 -0.84375,0.58593745 -0.527344,0 -1.042969,-0.17578125 -1.429687,-0.4453125 l -0.117188,0.65625 c 0.539063,0.28125 1.089844,0.38671875 1.546875,0.38671875 0.574219,0 1.511719,-0.1875 1.511719,-1.2539062 0,-0.3046875 -0.128906,-0.6210938 -0.433594,-0.890625 -0.304687,-0.2578125 -0.574219,-0.3164063 -1.136719,-0.421875 -0.316406,-0.058594 -0.773437,-0.140625 -0.773437,-0.5625 0,-0.5273438 0.644531,-0.5273438 0.773437,-0.5273438 0.65625,0 1.042969,0.1992188 1.300782,0.3398438 z m 4.69336,1.875 c 0,-1.1835937 -0.890625,-2.1679687 -2.027344,-2.1679687 -1.113281,0 -2.027344,0.9726562 -2.027344,2.1679687 0,1.18359375 0.9375,2.0625 2.027344,2.0625 1.113281,0 2.027344,-0.90234375 2.027344,-2.0625 z m -2.015625,1.453125 c -0.691407,0 -1.300782,-0.5390625 -1.300782,-1.546875 0,-1.0429687 0.679688,-1.4882812 1.289063,-1.4882812 0.644531,0 1.289062,0.4570312 1.289062,1.4882812 0,1.0429688 -0.632812,1.546875 -1.277343,1.546875 z m 3.914062,-2.90625 h 1.300781 v -0.5625 h -1.300781 v -1.1367187 h -0.65625 v 1.1367187 h -0.785156 v 0.5625 h 0.761719 v 2.296875 c 0,0.52734375 0.117187,1.21875 0.761718,1.21875 0.398438,0 0.867188,-0.0703125 1.371094,-0.328125 l -0.152344,-0.5625 c -0.234375,0.17578125 -0.550781,0.28125 -0.832031,0.28125 -0.351562,0 -0.46875,-0.3046875 -0.46875,-0.7734375 z M 40.881734,-1.97 c 0,-1.1835937 -0.890625,-2.1679687 -2.027343,-2.1679687 -1.113282,0 -2.027344,0.9726562 -2.027344,2.1679687 0,1.18359375 0.9375,2.0625 2.027344,2.0625 1.113281,0 2.027343,-0.90234375 2.027343,-2.0625 z m -2.015625,1.453125 c -0.691406,0 -1.300781,-0.5390625 -1.300781,-1.546875 0,-1.0429687 0.679688,-1.4882812 1.289063,-1.4882812 0.644531,0 1.289062,0.4570312 1.289062,1.4882812 0,1.0429688 -0.632812,1.546875 -1.277344,1.546875 z m 3.788086,0.10546875 C 42.98232,-0.095 43.439352,0.0925 43.896383,0.0925 c 0.914062,0 1.699219,-0.87890625 1.699219,-2.0976562 0,-1.0664063 -0.5625,-2.0742188 -1.429688,-2.0742188 -0.257812,0 -0.925781,0.046875 -1.535156,0.5273438 V -3.985625 h -0.726563 v 5.71875 h 0.75 z m 0,-2.56640625 C 42.771383,-3.141875 43.099508,-3.47 43.615133,-3.47 c 0.667969,0 1.230469,0.6328125 1.230469,1.4765625 0,0.8671875 -0.621094,1.51171875 -1.324219,1.51171875 -0.28125,0 -0.609375,-0.1171875 -0.867188,-0.56249995 z M 50.499898,-1.97 c 0,-1.1835937 -0.890625,-2.1679687 -2.027343,-2.1679687 -1.113282,0 -2.027344,0.9726562 -2.027344,2.1679687 0,1.18359375 0.9375,2.0625 2.027344,2.0625 1.113281,0 2.027343,-0.90234375 2.027343,-2.0625 z m -2.015625,1.453125 c -0.691406,0 -1.300781,-0.5390625 -1.300781,-1.546875 0,-1.0429687 0.679688,-1.4882812 1.289063,-1.4882812 0.644531,0 1.289062,0.4570312 1.289062,1.4882812 0,1.0429688 -0.632812,1.546875 -1.277344,1.546875 z m 3.75293,-5.7070312 H 51.522359 V -0.00125 h 0.714844 z M 57.308492,-1.97 c 0,-1.1835937 -0.890625,-2.1679687 -2.027344,-2.1679687 -1.113281,0 -2.027343,0.9726562 -2.027343,2.1679687 0,1.18359375 0.9375,2.0625 2.027343,2.0625 1.113282,0 2.027344,-0.90234375 2.027344,-2.0625 z m -2.015625,1.453125 c -0.691406,0 -1.300781,-0.5390625 -1.300781,-1.546875 0,-1.0429687 0.679687,-1.4882812 1.289062,-1.4882812 0.644532,0 1.289063,0.4570312 1.289063,1.4882812 0,1.0429688 -0.632813,1.546875 -1.277344,1.546875 z m 6.670899,-3.5625 c -0.175782,0 -0.773438,0 -1.441407,0.28125 -0.128906,-0.09375 -0.46875,-0.28125 -0.890625,-0.28125 -0.820312,0 -1.476562,0.6679688 -1.476562,1.4648438 0,0.2226562 0.05859,0.5507812 0.304687,0.9023437 -0.164062,0.2226563 -0.257812,0.4921875 -0.257812,0.73828125 0,0.2578125 0.09375,0.50390625 0.222656,0.6796875 -0.46875,0.29296875 -0.574219,0.6796875 -0.574219,0.92578125 0,0.65625 0.878907,1.21875 2.039063,1.21875 1.160156,0 2.039062,-0.5507812 2.039062,-1.21875 0,-1.25390625 -1.488281,-1.265625 -1.875,-1.265625 h -0.832031 c -0.117187,0 -0.515625,0 -0.515625,-0.46875 0,-0.1757812 0.03516,-0.234375 0.08203,-0.3046875 0.234375,0.1640625 0.539063,0.2578125 0.84375,0.2578125 0.832032,0 1.488282,-0.6679687 1.488282,-1.4648437 0,-0.3046875 -0.09375,-0.5507813 -0.234375,-0.796875 -0.03516,-0.046875 -0.03516,-0.046875 -0.03516,-0.058594 0,-0.046875 0.433594,-0.046875 0.550782,-0.046875 0.07031,0 0.410156,0 0.667968,0.035156 z m -2.332032,2.390625 c -0.410156,0 -0.808593,-0.2578125 -0.808593,-0.9257812 0,-0.7265625 0.457031,-0.9257813 0.808593,-0.9257813 0.421875,0 0.820313,0.2578125 0.820313,0.9257813 0,0.7265625 -0.457031,0.9257812 -0.820313,0.9257812 z m 0.421875,1.734375 c 0.1875,0 1.21875,0 1.21875,0.5859375 0,0.3984375 -0.65625,0.6796875 -1.371093,0.6796875 -0.703125,0 -1.382813,-0.2578125 -1.382813,-0.6796875 0,-0.0234375 0,-0.5859375 0.691406,-0.5859375 z m 6.166993,-4.03125 H 65.48232 v 2.5898438 c 0,0.72656245 -0.5625,0.96093745 -1.101562,0.96093745 -0.644531,0 -0.714844,-0.19921875 -0.714844,-0.58593745 V -3.985625 h -0.738281 v 3.01171875 c 0,0.76171875 0.304687,1.06640625 0.9375,1.06640625 0.527344,0 1.21875,-0.15234375 1.640625,-0.52734375 V -0.00125 h 0.714844 z M 70.793844,-1.97 c 0,-0.2695312 -0.01172,-0.9492187 -0.363281,-1.4882812 -0.375,-0.5625 -0.949219,-0.6796875 -1.289063,-0.6796875 -1.042969,0 -1.863281,0.9609375 -1.863281,2.109375 0,1.1835937 0.878906,2.1210937 1.992187,2.1210937 0.433594,0 0.949219,-0.10546875 1.476563,-0.43359375 l -0.05859,-0.62109375 c -0.5625,0.41015625 -1.089844,0.48046875 -1.40625,0.48046875 -0.738281,0 -1.3125,-0.65624995 -1.347656,-1.48828125 z m -2.800781,-0.5273437 c 0.140625,-0.5742188 0.585937,-1.0546875 1.148437,-1.0546875 0.328125,0 0.9375,0.1523437 1.113281,1.0546875 z m 0,0"
       style="fill:#000000;fill-opacity:1;fill-rule:nonzero;stroke:none"
       aria-label="MainIsotopologue"
       transform="matrix(1.3333333,0,0,1.3333333,33.061333,31.626667)" />
    <path
       id="path15"
       d="m 18.42546,-74.49889 c 0,10.17624 -8.24924,18.42548 -18.42546,18.42548 -10.17622,0 -18.42546,-8.24924 -18.42546,-18.42548 0,-10.17624 8.24924,-18.42546 18.42546,-18.42546 10.17622,0 18.42546,8.24922 18.42546,18.42546 z"
       style="fill:#404040;fill-opacity:1;fill-rule:nonzero;stroke:#000000;stroke-width:0.79701;stroke-linecap:butt;stroke-linejoin:miter;stroke-miterlimit:10;stroke-dasharray:none;stroke-opacity:1"
       transform="matrix(1.3333333,0,0,-1.3333333,43.996,94.366667)" />
    <g
       id="g15"
       aria-label="13&#10;C"
       transform="matrix(1.3333333,0,0,1.3333333,33.701333,194.28267)">
      <path
         id="path16"
         d="m 2.333375,-4.43075 c 0,-0.1875 -0.011719,-0.1992187 -0.2109375,-0.1992187 -0.4453125,0.4335937 -1.078125,0.4453125 -1.359375,0.4453125 v 0.2460937 c 0.1640625,0 0.6210938,0 1.0078125,-0.1875 v 3.55078125 c 0,0.234375 0,0.328125 -0.6914062,0.328125 H 0.8099375 V -0.0010625 C 0.93884375,-0.01278125 1.7943125,-0.0245 2.052125,-0.0245 c 0.2109375,0 1.0898438,0.01171875 1.2421875,0.0234375 V -0.24715625 H 3.0365 c -0.703125,0 -0.703125,-0.09375 -0.703125,-0.328125 z m 3.5361328,2.0976563 c 0.5507813,0 0.9375,0.375 0.9375,1.125 0,0.86718745 -0.5039062,1.12499995 -0.9023437,1.12499995 -0.28125,0 -0.890625,-0.08203125 -1.1835938,-0.4921875 C 5.0491953,-0.587 5.1195078,-0.821375 5.1195078,-0.962 c 0,-0.2226562 -0.1640625,-0.3867187 -0.3867187,-0.3867187 -0.1875,0 -0.3867188,0.1171875 -0.3867188,0.4101562 0,0.65625 0.7265625,1.078125 1.5703125,1.078125 0.9726563,0 1.640625,-0.64453125 1.640625,-1.3476562 0,-0.5390625 -0.4453125,-1.0898438 -1.21875,-1.2421875 0.7382813,-0.2695313 0.9960938,-0.796875 0.9960938,-1.21875 0,-0.5507813 -0.6328125,-0.9609375 -1.40625,-0.9609375 -0.7734375,0 -1.359375,0.375 -1.359375,0.9375 0,0.234375 0.1523437,0.3632812 0.3632812,0.3632812 0.2109375,0 0.3515625,-0.1640625 0.3515625,-0.3515625 0,-0.1992187 -0.140625,-0.3515625 -0.3515625,-0.3632812 0.234375,-0.3046875 0.7148438,-0.3867188 0.9726563,-0.3867188 0.3164062,0 0.7617187,0.1523438 0.7617187,0.7617188 0,0.2929687 -0.1054687,0.609375 -0.28125,0.8320312 -0.234375,0.2578125 -0.421875,0.28125 -0.7734375,0.2929688 -0.1757812,0.023437 -0.1875,0.023437 -0.2226562,0.023437 -0.011719,0 -0.070312,0.011719 -0.070312,0.09375 0,0.09375 0.058594,0.09375 0.1757812,0.09375 z m 0,0"
         style="fill:#ffffff;fill-opacity:1;fill-rule:nonzero;stroke:none" />
      <path
         id="path17"
         d="m 14.813844,2.1874141 c 0,-0.070312 -0.07031,-0.1171875 -0.105469,-0.1171875 -0.246094,0 -0.527344,0.6445312 -1.933594,0.6445312 -1.757812,0 -2.25,-1.0664062 -2.25,-2.56640624 0,-1.47656246 0.539063,-2.55468746 2.167969,-2.55468746 0.890625,0 1.359375,0.3398437 1.628906,0.5625 0.05859,0.046875 0.08203,0.09375 0.152344,0.09375 0.04687,0 0.09375,-0.046875 0.105469,-0.09375 l 0.199219,-1.1015625 c 0,-0.046875 0,-0.082031 -0.08203,-0.1171875 -0.585937,-0.2109375 -1.195312,-0.3515625 -1.96875,-0.3515625 -2.4375,0 -3.6796872,1.1835937 -3.6796872,3.55078121 0,2.44921879 1.2656252,3.58593749 3.6796872,3.58593749 0.855469,0 1.382813,-0.1289062 2.109375,-0.5742187 0.08203,-0.046875 0.05859,-0.1171875 0.05859,-0.1171875 z m 0,0"
         style="fill:#ffffff;fill-opacity:1;fill-rule:nonzero;stroke:none" />
    </g>
    <path
       id="path18"
       d="m 73.08167,-74.49889 c 0,10.17624 -8.24924,18.42548 -18.42547,18.42548 -10.17623,0 -18.42547,-8.24924 -18.42547,-18.42548 0,-10.17624 8.24924,-18.42546 18.42547,-18.42546 10.17623,0 18.42547,8.24922 18.42547,18.42546 z"
       style="fill:#e60000;fill-opacity:1;fill-rule:nonzero;stroke:#000000;stroke-width:0.79701;stroke-linecap:butt;stroke-linejoin:miter;stroke-miterlimit:10;stroke-dasharray:none;stroke-opacity:1"
       transform="matrix(1.3333333,0,0,-1.3333333,43.996,94.366667)" />
    <g
       id="g18"
       aria-label="18&#10;O"
       transform="matrix(1.3333333,0,0,1.3333333,105.96667,194.28267)">
      <path
         id="path19"
         d="m 2.3306641,-4.43075 c 0,-0.1875 -0.011719,-0.1992187 -0.2109375,-0.1992187 -0.4453125,0.4335937 -1.078125,0.4453125 -1.35937504,0.4453125 v 0.2460937 c 0.1640625,0 0.62109374,0 1.00781254,-0.1875 v 3.55078125 c 0,0.234375 0,0.328125 -0.6914063,0.328125 H 0.80722656 V -0.0010625 C 0.93613281,-0.01278125 1.7916016,-0.0245 2.0494141,-0.0245 c 0.2109375,0 1.0898437,0.01171875 1.2421875,0.0234375 V -0.24715625 H 3.0337891 c -0.703125,0 -0.703125,-0.09375 -0.703125,-0.328125 z m 4.1132812,1.9101563 c 0.5507813,-0.2578125 0.890625,-0.5859375 0.890625,-1.0664063 0,-0.6796875 -0.703125,-1.0429687 -1.3710937,-1.0429687 -0.7734375,0 -1.3945313,0.5039062 -1.3945313,1.1601562 0,0.328125 0.1523438,0.5625 0.2695313,0.703125 0.1289062,0.1523438 0.1757812,0.1757813 0.5859375,0.421875 -0.3867188,0.1640625 -1.078125,0.5390625 -1.078125,1.2773438 0,0.77343745 0.8085937,1.2070312 1.59375,1.2070312 0.890625,0 1.6171875,-0.5625 1.6171875,-1.3242187 0,-0.4570313 -0.2695313,-0.84375 -0.6796875,-1.078125 C 6.7837891,-2.321375 6.5494141,-2.462 6.4439453,-2.5205937 Z m -1.1367187,-0.65625 c -0.1757813,-0.1054688 -0.375,-0.2929688 -0.375,-0.5507813 0,-0.4453125 0.515625,-0.703125 1.0078125,-0.703125 0.5507812,0 1.03125,0.3398438 1.03125,0.84375 0,0.6210938 -0.7265625,0.9257813 -0.7382813,0.9257813 -0.011719,0 -0.035156,0 -0.082031,-0.035156 z m 0.3398437,0.9609375 0.9609375,0.5507812 c 0.1757813,0.1054688 0.5273438,0.3164063 0.5273438,0.7265625 0,0.52734375 -0.5742188,0.85546875 -1.171875,0.85546875 -0.6445313,0 -1.1953125,-0.41015625 -1.1953125,-0.98437495 0,-0.515625 0.3867187,-0.9140625 0.8789062,-1.1484375 z m 0,0"
         style="fill:#ffffff;fill-opacity:1;fill-rule:nonzero;stroke:none" />
      <path
         id="path20"
         d="m 15.728125,0.20694531 c 0,-2.00390621 -0.726562,-3.72656251 -3.339844,-3.72656251 -2.753906,0 -3.3398435,1.9101563 -3.3398435,3.72656251 0,1.86328129 0.6445313,3.63281249 3.3398435,3.63281249 2.566407,0 3.339844,-1.5820312 3.339844,-3.63281249 z M 12.388281,3.0428828 c -1.875,0 -1.875,-2.08593749 -1.875,-2.98828124 0,-0.87890625 0,-2.78906246 1.875,-2.78906246 1.875,0 1.875,1.88671871 1.875,2.78906246 0,0.87890625 0,2.98828124 -1.875,2.98828124 z m 0,0"
         style="fill:#ffffff;fill-opacity:1;fill-rule:nonzero;stroke:none" />
    </g>
    <path
       id="path21"
       d="M 18.82396,-71.09741 H 35.83223"
       style="fill:none;stroke:#a6a6a6;stroke-width:1.49442;stroke-linecap:butt;stroke-linejoin:miter;stroke-miterlimit:10;stroke-dasharray:none;stroke-opacity:1"
       transform="matrix(1.3333333,0,0,-1.3333333,43.996,94.366667)" />
    <path
       id="path22"
       d="M 18.82396,-74.49889 H 35.83223"
       style="fill:none;stroke:#a6a6a6;stroke-width:1.49442;stroke-linecap:butt;stroke-linejoin:miter;stroke-miterlimit:10;stroke-dasharray:none;stroke-opacity:1"
       transform="matrix(1.3333333,0,0,-1.3333333,43.996,94.366667)" />
    <path
       id="path23"
       d="M 18.82396,-77.90036 H 35.83223"
       style="fill:none;stroke:#a6a6a6;stroke-width:1.49442;stroke-linecap:butt;stroke-linejoin:miter;stroke-miterlimit:10;stroke-dasharray:none;stroke-opacity:1"
       transform="matrix(1.3333333,0,0,-1.3333333,43.996,94.366667)" />
    <path
       id="path24"
       d="m 32.25969,-103.04494 h -9.86321 c -1.10046,0 -1.99255,-0.89207 -1.99255,-1.99255 v -6.22673 c 0,-1.10047 0.89209,-1.99255 1.99255,-1.99255 h 9.86321 c 1.10046,0 1.99255,0.89208 1.99255,1.99255 v 6.22673 c 0,1.10048 -0.89209,1.99255 -1.99255,1.99255 z"
       style="fill:#e6e6ff;fill-opacity:1;fill-rule:nonzero;stroke:#0000b3;stroke-width:0.3985;stroke-linecap:butt;stroke-linejoin:miter;stroke-miterlimit:10;stroke-dasharray:none;stroke-opacity:1"
       transform="matrix(1.3333333,0,0,-1.3333333,43.996,94.366667)" />
    <path
       id="path25"
       d="m 0.85407031,-4.9794062 c 0.0820313,0.1171875 0.1171875,0.1171875 0.140625,0.1171875 0.0585938,0 0.0820313,-0.035156 0.12890629,-0.1054688 0.4570312,-0.65625 1.0898437,-0.65625 1.2070312,-0.65625 0.5742188,0 0.65625,0.3046875 0.65625,0.7382813 0,0.1289062 0,0.5625 -0.28125,0.9023437 -0.2109375,0.2460938 -0.4335937,0.2695313 -0.703125,0.28125 -0.1054687,0.011719 -0.2695312,0.023437 -0.3046875,0.035156 -0.058594,0.023437 -0.058594,0.082031 -0.058594,0.2226562 v 0.1640625 c 0,0.234375 0.011719,0.2460938 0.2460937,0.2460938 h 0.3867188 c 0.8203125,0 0.9140625,0.5039062 0.9140625,1.1953125 0,0.5976562 -0.058594,1.19531245 -0.8789063,1.19531245 -0.28125,0 -0.9492187,-0.0585938 -1.54687499,-0.63281245 -0.0820313,-0.082031 -0.09375,-0.082031 -0.12890625,-0.082031 -0.0820313,0 -0.10546875,0.082031 -0.1171875,0.09375 0,0.011719 -0.10546875,0.57421875 -0.10546875,0.62109375 0,0.1171875 0.77343749,0.84375 1.94531249,0.84375 1.546875,0 2.15625,-0.83203125 2.15625,-2.01562495 0,-0.8085938 -0.4335937,-1.359375 -1.2421875,-1.5585938 0.7265625,-0.3984375 0.9726563,-0.984375 0.9726563,-1.4882812 0,-1.4414063 -1.2890625,-1.5585938 -1.8632813,-1.5585938 -1.2304687,0 -1.82812499,0.8789063 -1.82812499,0.9492188 0,0.058594 0.046875,0.1289062 0.0585938,0.140625 z M 8.3423516,-3.3505 c 0.8554687,-0.2929687 0.9609375,-0.9140625 0.9609375,-1.3242187 0,-1.3125 -0.84375,-1.7460938 -1.9101563,-1.7460938 -0.9726562,0 -1.9101562,0.3515625 -1.9101562,1.7460938 0,0.4804687 0.1523437,1.0546875 0.9609375,1.3242187 -0.9257813,0.2578125 -1.1015625,0.9726563 -1.1015625,1.5351563 0,1.3945312 0.75,2.01562495 2.0507812,2.01562495 1.3476563,0 2.0507813,-0.6796875 2.0507813,-2.01562495 0,-0.8203125 -0.3867188,-1.3359375 -1.1015625,-1.5351563 z M 7.3931328,-3.678625 c -0.75,0 -0.7617187,-0.4453125 -0.7617187,-0.984375 0,-0.6210937 0.046875,-0.9609375 0.7617187,-0.9609375 0.703125,0 0.7617188,0.328125 0.7617188,0.9609375 0,0.5273438 0,0.984375 -0.7617188,0.984375 z m 0,3.03515625 c -0.7851562,0 -0.796875,-0.50390625 -0.796875,-1.19531245 0,-0.5859375 0,-1.1953125 0.796875,-1.1953125 0.796875,0 0.796875,0.609375 0.796875,1.1953125 0,0.6796875 -0.011719,1.19531245 -0.796875,1.19531245 z m 0,0"
       style="fill:#000000;fill-opacity:1;fill-rule:nonzero;stroke:none"
       aria-label="38"
       transform="matrix(1.3333333,0,0,1.3333333,73.857333,242.71733)" />
    <path
       id="path26"
       d="M 21.65881,-102.84567 0,-93.32286"
       style="fill:none;stroke:#999999;stroke-width:0.3985;stroke-linecap:butt;stroke-linejoin:miter;stroke-miterlimit:10;stroke-dasharray:2.98883, 2.98883;stroke-dashoffset:0;stroke-opacity:1"
       transform="matrix(1.3333333,0,0,-1.3333333,43.996,94.366667)" />
    <path
       id="path27"
       d="m 32.99736,-102.84567 21.65884,9.52281"
       style="fill:none;stroke:#999999;stroke-width:0.3985;stroke-linecap:butt;stroke-linejoin:miter;stroke-miterlimit:10;stroke-dasharray:2.98883, 2.98883;stroke-dashoffset:0;stroke-opacity:1"
       transform="matrix(1.3333333,0,0,-1.3333333,43.996,94.366667)" />
    <path
       id="path28"
       d="M 4.8522813,-3.1527969 C 4.6179063,-2.5551406 4.1374375,-1.3129531 4.02025,-0.87935938 3.9265,-1.2426406 3.5163438,-2.3324844 3.3405625,-2.7660781 L 2.1569688,-5.8129531 1.9929063,-6.2231094 H 0.91478125 V -4.53125e-4 H 1.6530625 V -5.5199844 h 0.011719 C 1.77025,-5.0629531 2.285875,-3.7270156 2.379625,-3.4809219 l 0.9960938,2.53125002 c 0.070312,0.17578125 0.234375,0.62109375 0.2929687,0.75 H 4.348375 L 5.5905625,-3.3520156 C 5.7194688,-3.6801406 6.27025,-5.0981094 6.3874375,-5.5199844 V -4.53125e-4 H 7.1257188 V -6.2231094 H 6.0475938 Z M 9.5749375,-6.1293594 H 8.7194688 v 0.8554688 H 9.5749375 Z M 9.504625,-3.9848281 H 8.7897813 V -4.53125e-4 H 9.504625 Z m 4.766602,1.3242187 c 0,-0.6679687 -0.175782,-1.4179687 -1.253907,-1.4179687 -0.714843,0 -1.148437,0.4101562 -1.347656,0.6796875 v -0.6328125 h -0.691406 v 4.031249975 h 0.738281 V -2.1918594 c 0,-0.5859375 0.234375,-1.3007812 0.914063,-1.3007812 0.902343,0 0.902343,0.6328125 0.902343,0.890625 v 2.601562475 h 0.738282 z m 5.065429,0.6914063 c 0,-1.1835938 -0.890625,-2.1679688 -2.027343,-2.1679688 -1.113282,0 -2.027344,0.9726563 -2.027344,2.1679688 0,1.18359372 0.9375,2.06249997 2.027344,2.06249997 1.113281,0 2.027343,-0.90234375 2.027343,-2.06249997 z m -2.015625,1.45312497 c -0.691406,0 -1.300781,-0.53906247 -1.300781,-1.54687497 0,-1.0429688 0.679688,-1.4882813 1.289063,-1.4882813 0.644531,0 1.289062,0.4570313 1.289062,1.4882813 0,1.0429687 -0.632812,1.54687497 -1.277344,1.54687497 z m 3.503907,-1.39453127 c 0,-0.9375 0.726562,-1.5117187 1.546875,-1.5234375 v -0.6445312 c -0.644532,0.011719 -1.242188,0.328125 -1.605469,0.8554687 v -0.8085937 h -0.667969 v 4.031249975 h 0.726563 z m 6.471679,-4.3125 h -0.855469 v 6.222656275 h 0.855469 z m 4.025391,2.3789063 c -0.550781,-0.2578125 -0.972656,-0.2929688 -1.335938,-0.2929688 -0.210937,0 -1.523437,0 -1.523437,1.1835938 0,0.4335937 0.257812,0.703125 0.363281,0.796875 0.339844,0.3046875 0.574219,0.3398437 1.183594,0.4570312 0.28125,0.058594 0.796875,0.1523438 0.796875,0.609375 0,0.58593752 -0.726563,0.58593752 -0.84375,0.58593752 -0.527344,0 -1.042969,-0.17578125 -1.429688,-0.4453125 l -0.117187,0.65625 c 0.539062,0.28125 1.089844,0.38671875 1.546875,0.38671875 0.574219,0 1.511719,-0.1875 1.511719,-1.25390627 0,-0.3046875 -0.128907,-0.6210937 -0.433594,-0.890625 -0.304688,-0.2578125 -0.574219,-0.3164062 -1.136719,-0.421875 -0.316406,-0.058594 -0.773437,-0.140625 -0.773437,-0.5625 0,-0.5273437 0.644531,-0.5273437 0.773437,-0.5273437 0.65625,0 1.042969,0.1992187 1.300781,0.3398437 z m 4.693359,1.875 c 0,-1.1835938 -0.890625,-2.1679688 -2.027344,-2.1679688 -1.113281,0 -2.027343,0.9726563 -2.027343,2.1679688 0,1.18359372 0.9375,2.06249997 2.027343,2.06249997 1.113282,0 2.027344,-0.90234375 2.027344,-2.06249997 z m -2.015625,1.45312497 c -0.691406,0 -1.300781,-0.53906247 -1.300781,-1.54687497 0,-1.0429688 0.679687,-1.4882813 1.289062,-1.4882813 0.644532,0 1.289063,0.4570313 1.289063,1.4882813 0,1.0429687 -0.632813,1.54687497 -1.277344,1.54687497 z m 3.916992,-2.90624997 h 1.300782 v -0.5625 h -1.300782 v -1.1367188 h -0.65625 v 1.1367188 h -0.785156 v 0.5625 h 0.761719 v 2.296875 c 0,0.52734372 0.117187,1.21874997 0.761719,1.21874997 0.398437,0 0.867187,-0.0703125 1.371093,-0.328125 l -0.152343,-0.5625 c -0.234375,0.17578125 -0.550782,0.28125 -0.832032,0.28125 -0.351562,0 -0.46875,-0.3046875 -0.46875,-0.77343747 z m 6.032227,1.453125 c 0,-1.1835938 -0.890625,-2.1679688 -2.027344,-2.1679688 -1.113281,0 -2.027344,0.9726563 -2.027344,2.1679688 0,1.18359372 0.9375,2.06249997 2.027344,2.06249997 1.113281,0 2.027344,-0.90234375 2.027344,-2.06249997 z m -2.015625,1.45312497 c -0.691406,0 -1.300781,-0.53906247 -1.300781,-1.54687497 0,-1.0429688 0.679687,-1.4882813 1.289062,-1.4882813 0.644531,0 1.289063,0.4570313 1.289063,1.4882813 0,1.0429687 -0.632813,1.54687497 -1.277344,1.54687497 z m 3.788086,0.10546875 c 0.328125,0.31640625 0.785156,0.50390625 1.242187,0.50390625 0.914063,0 1.699219,-0.87890625 1.699219,-2.09765627 0,-1.0664062 -0.5625,-2.0742187 -1.429687,-2.0742187 -0.257813,0 -0.925782,0.046875 -1.535157,0.5273437 v -0.4335937 h -0.726562 v 5.71875 h 0.75 z m 0,-2.56640622 c 0.117187,-0.1640625 0.445312,-0.4921875 0.960937,-0.4921875 0.667969,0 1.230469,0.6328125 1.230469,1.4765625 0,0.8671875 -0.621094,1.51171872 -1.324219,1.51171872 -0.28125,0 -0.609375,-0.1171875 -0.867187,-0.56250002 z m 7.848633,1.0078125 c 0,-1.1835938 -0.890625,-2.1679688 -2.027344,-2.1679688 -1.113281,0 -2.027344,0.9726563 -2.027344,2.1679688 0,1.18359372 0.9375,2.06249997 2.027344,2.06249997 1.113281,0 2.027344,-0.90234375 2.027344,-2.06249997 z m -2.015625,1.45312497 c -0.691407,0 -1.300782,-0.53906247 -1.300782,-1.54687497 0,-1.0429688 0.679688,-1.4882813 1.289063,-1.4882813 0.644531,0 1.289062,0.4570313 1.289062,1.4882813 0,1.0429687 -0.632812,1.54687497 -1.277343,1.54687497 z m 3.752929,-5.70703127 h -0.714843 v 6.222656275 h 0.714843 z m 5.071289,4.2539063 c 0,-1.1835938 -0.890625,-2.1679688 -2.027343,-2.1679688 -1.113282,0 -2.027344,0.9726563 -2.027344,2.1679688 0,1.18359372 0.9375,2.06249997 2.027344,2.06249997 1.113281,0 2.027343,-0.90234375 2.027343,-2.06249997 z m -2.015625,1.45312497 c -0.691406,0 -1.300781,-0.53906247 -1.300781,-1.54687497 0,-1.0429688 0.679688,-1.4882813 1.289063,-1.4882813 0.644531,0 1.289062,0.4570313 1.289062,1.4882813 0,1.0429687 -0.632812,1.54687497 -1.277344,1.54687497 z m 6.667969,-3.56249997 c -0.175781,0 -0.773437,0 -1.441406,0.28125 -0.128906,-0.09375 -0.46875,-0.28125 -0.890625,-0.28125 -0.820313,0 -1.476563,0.6679687 -1.476563,1.4648437 0,0.2226563 0.05859,0.5507813 0.304688,0.9023438 -0.164063,0.2226562 -0.257813,0.4921875 -0.257813,0.73828122 0,0.2578125 0.09375,0.50390625 0.222657,0.6796875 -0.46875,0.292968755 -0.574219,0.6796875 -0.574219,0.92578125 0,0.65625003 0.878906,1.21875003 2.039062,1.21875003 1.160157,0 2.039063,-0.5507813 2.039063,-1.21875003 0,-1.25390625 -1.488281,-1.265625 -1.875,-1.265625 h -0.832031 c -0.117188,0 -0.515625,0 -0.515625,-0.46874997 0,-0.1757813 0.03516,-0.234375 0.08203,-0.3046875 0.234375,0.1640625 0.539062,0.2578125 0.84375,0.2578125 0.832031,0 1.488281,-0.6679688 1.488281,-1.4648438 0,-0.3046875 -0.09375,-0.5507812 -0.234375,-0.796875 -0.03516,-0.046875 -0.03516,-0.046875 -0.03516,-0.058594 0,-0.046875 0.433594,-0.046875 0.550781,-0.046875 0.07031,0 0.410156,0 0.667969,0.035156 z m -2.332031,2.390625 c -0.410156,0 -0.808594,-0.2578125 -0.808594,-0.9257813 0,-0.7265625 0.457031,-0.9257812 0.808594,-0.9257812 0.421875,0 0.820312,0.2578125 0.820312,0.9257812 0,0.7265625 -0.457031,0.9257813 -0.820312,0.9257813 z m 0.421875,1.73437497 c 0.1875,0 1.21875,0 1.21875,0.5859375 0,0.39843753 -0.65625,0.67968753 -1.371094,0.67968753 -0.703125,0 -1.382812,-0.2578125 -1.382812,-0.67968753 0,-0.0234375 0,-0.5859375 0.691406,-0.5859375 z m 6.166992,-4.03124997 h -0.738281 v 2.5898437 c 0,0.72656252 -0.5625,0.96093752 -1.101563,0.96093752 -0.644531,0 -0.714843,-0.19921875 -0.714843,-0.58593752 v -2.9648437 h -0.738282 v 3.01171872 c 0,0.76171875 0.304688,1.06640625 0.9375,1.06640625 0.527344,0 1.21875,-0.15234375 1.640625,-0.52734375 v 0.433593755 h 0.714844 z m 4.573242,2.015625 c 0,-0.2695313 -0.01172,-0.9492188 -0.363281,-1.4882813 -0.375,-0.5625 -0.949219,-0.6796875 -1.289062,-0.6796875 -1.042969,0 -1.863282,0.9609375 -1.863282,2.109375 0,1.18359377 0.878907,2.12109377 1.992188,2.12109377 0.433594,0 0.949219,-0.10546875 1.476562,-0.43359375 l -0.05859,-0.62109375 c -0.5625,0.41015625 -1.089844,0.48046875 -1.40625,0.48046875 -0.738282,0 -1.3125,-0.65625002 -1.347657,-1.48828122 z m -2.800781,-0.5273438 c 0.140625,-0.5742187 0.585938,-1.0546875 1.148438,-1.0546875 0.328125,0 0.9375,0.1523438 1.113281,1.0546875 z m 0,0"
       style="fill:#000000;fill-opacity:1;fill-rule:nonzero;stroke:none"
       aria-label="MinorIsotopologue"
       transform="matrix(1.3333333,0,0,1.3333333,31.014667,262.41467)" />
  </g>
</svg>
