<?xml version="1.0" encoding="UTF-8" standalone="no"?>
<!-- Created with Inkscape (http://www.inkscape.org/) -->

<svg
   version="1.1"
   id="svg1"
   width="627.62665"
   height="293.30933"
   viewBox="0 0 627.62665 293.30933"
   sodipodi:docname="marvel_algorithm.pdf"
   xmlns:inkscape="http://www.inkscape.org/namespaces/inkscape"
   xmlns:sodipodi="http://sodipodi.sourceforge.net/DTD/sodipodi-0.dtd"
   xmlns="http://www.w3.org/2000/svg"
   xmlns:svg="http://www.w3.org/2000/svg">
  <defs
     id="defs1" />
  <sodipodi:namedview
     id="namedview1"
     pagecolor="#ffffff"
     bordercolor="#000000"
     borderopacity="0.25"
     inkscape:showpageshadow="2"
     inkscape:pageopacity="0.0"
     inkscape:pagecheckerboard="0"
     inkscape:deskcolor="#d1d1d1">
    <inkscape:page
       x="0"
       y="0"
       inkscape:label="1"
       id="page1"
       width="627.62665"
       height="293.30933"
       margin="0"
       bleed="0" />
  </sodipodi:namedview>
  <g
     id="g1"
     inkscape:groupmode="layer"
     inkscape:label="1">
    <path
       id="path1"
       d="m 83.33475,147.30981 h -95.80249 c -5.50236,0 -9.96277,-4.46041 -9.96277,-9.96276 V -42.5202 c 0,-5.50235 4.46041,-9.96277 9.96277,-9.96277 h 95.80249 c 5.50235,0 9.96277,4.46042 9.96277,9.96277 v 179.86725 c 0,5.50235 -4.46042,9.96276 -9.96277,9.96276 z"
       style="fill:#ffcccc;fill-opacity:1;fill-rule:nonzero;stroke:none"
       transform="matrix(1.3333333,0,0,-1.3333333,43.190667,210.04933)" />
    <path
       id="path2"
       d="m 227.73756,147.44727 h -89.80137 c -5.50235,0 -9.96277,-4.46042 -9.96277,-9.96277 V -42.5202 c 0,-5.50235 4.46042,-9.96277 9.96277,-9.96277 h 89.80137 c 5.50235,0 9.96277,4.46042 9.96277,9.96277 v 180.0047 c 0,5.50235 -4.46042,9.96277 -9.96277,9.96277 z"
       style="fill:#ffe6cc;fill-opacity:1;fill-rule:nonzero;stroke:none"
       transform="matrix(1.3333333,0,0,-1.3333333,43.190667,210.04933)" />
    <path
       id="path3"
       d="M 418.40721,147.5765 H 281.85207 c -5.50237,0 -9.96277,-4.4604 -9.96277,-9.96276 V -42.5202 c 0,-5.50235 4.4604,-9.96277 9.96277,-9.96277 h 136.55514 c 5.50235,0 9.96277,4.46042 9.96277,9.96277 v 180.13394 c 0,5.50236 -4.46042,9.96276 -9.96277,9.96276 z"
       style="fill:#e6ffe6;fill-opacity:1;fill-rule:nonzero;stroke:none"
       transform="matrix(1.3333333,0,0,-1.3333333,43.190667,210.04933)" />
    <path
       id="path4"
       d="M 2.8487266,-5.8463047 V 0.00135156 H 4.5245078 V -8.4713047 H 3.4112266 c -0.2695313,0.9960938 -1.1367188,1.5117188 -2.60156254,1.5117188 v 1.1132812 z m 6.3544921,4.1015625 H 7.41025 v 1.74609376 h 1.7929687 z m 7.6230473,-2.0039062 h 4.171875 v -1.5 h -4.171875 v -1.96875 h 4.5 v -1.5 h -6.292969 v 8.71874996 h 6.503906 V -1.4986484 h -4.710937 z m 9.474609,0.5039062 2.109375,-3.2109375 h -2.015625 l -1.03125,1.9453125 -1.054688,-1.9453125 h -2.015625 l 2.109375,3.2109375 -2.15625,3.24609376 h 2.015625 L 25.363375,-2.0025547 26.4415,0.00135156 h 2.015625 z m 4.769531,-3.2109375 h -1.675781 v 9.0585938 h 1.675781 v -3.36328129 c 0.410156,0.71484375 0.984375,1.04296875 1.792969,1.04296875 1.558594,0 2.695312,-1.45312496 2.695312,-3.41015626 0,-0.9140625 -0.257812,-1.8164062 -0.691406,-2.4140625 -0.421875,-0.609375 -1.230469,-1.0195312 -2.003906,-1.0195312 -0.808594,0 -1.382813,0.3515625 -1.792969,1.0664062 z m 1.40625,1.2890625 c 0.855469,0 1.417969,0.8320313 1.417969,2.0625 0,1.171875 -0.585938,1.9921875 -1.417969,1.9921875 -0.832031,0 -1.40625,-0.8085937 -1.40625,-2.015625 0,-1.2070312 0.574219,-2.0390625 1.40625,-2.0390625 z m 9.791016,2.4609375 c 0.02344,-0.140625 0.02344,-0.1992187 0.02344,-0.28125 0,-0.6445312 -0.105468,-1.2421875 -0.257812,-1.6992187 -0.433594,-1.171875 -1.464844,-1.875 -2.777344,-1.875 -1.851562,0 -2.988281,1.3359375 -2.988281,3.5039062 0,2.06250001 1.125,3.32812501 2.953125,3.32812501 1.453125,0 2.625,-0.8203125 2.988281,-2.08593751 h -1.640625 c -0.210937,0.515625 -0.667969,0.8085938 -1.289062,0.8085938 -0.46875,0 -0.855469,-0.1992188 -1.089844,-0.5625 -0.164063,-0.234375 -0.222656,-0.5273438 -0.246094,-1.1367188 z m -4.300781,-1.1015625 c 0.105468,-0.984375 0.527343,-1.4765625 1.265625,-1.4765625 0.421875,0 0.808593,0.1992188 1.042968,0.5390625 0.152344,0.234375 0.234375,0.4921875 0.269532,0.9375 z m 5.440429,-2.6484375 v 6.45703126 h 1.675782 V -3.4322422 c 0,-0.9726562 0.492187,-1.4648437 1.476562,-1.4648437 0.175781,0 0.292969,0.011719 0.515625,0.046875 v -1.6992188 c -0.09375,-0.011719 -0.152344,-0.011719 -0.199219,-0.011719 -0.761718,0 -1.429687,0.5039062 -1.792968,1.3710937 V -6.45568 Z m 6.372071,0 h -1.675782 v 6.45703126 h 1.675782 z m 0,-2.2617187 h -1.675782 v 1.5 h 1.675782 z m 1.564453,2.2617187 v 6.45703126 h 1.675781 V -3.8658359 c 0,-0.796875 0.433594,-1.2773438 1.148437,-1.2773438 0.5625,0 0.902344,0.328125 0.902344,0.84375 v 4.30078126 h 1.675781 V -3.8658359 c 0,-0.796875 0.433594,-1.2773438 1.148438,-1.2773438 0.5625,0 0.914062,0.328125 0.914062,0.84375 V 0.00135156 H 60.47275 V -4.5689609 c 0,-1.2539063 -0.761719,-1.9921875 -2.050781,-1.9921875 -0.808594,0 -1.382813,0.28125 -1.886719,0.9609375 -0.316406,-0.609375 -0.960938,-0.9609375 -1.757813,-0.9609375 -0.738281,0 -1.21875,0.2460937 -1.769531,0.9140625 v -0.8085938 z m 16.171875,3.75 c 0.02344,-0.140625 0.02344,-0.1992187 0.02344,-0.28125 0,-0.6445312 -0.105469,-1.2421875 -0.257812,-1.6992187 -0.433594,-1.171875 -1.464844,-1.875 -2.777344,-1.875 -1.851563,0 -2.988281,1.3359375 -2.988281,3.5039062 0,2.06250001 1.125,3.32812501 2.953125,3.32812501 1.453125,0 2.625,-0.8203125 2.988281,-2.08593751 H 65.8165 c -0.210938,0.515625 -0.667969,0.8085938 -1.289063,0.8085938 -0.46875,0 -0.855468,-0.1992188 -1.089843,-0.5625 -0.164063,-0.234375 -0.222657,-0.5273438 -0.246094,-1.1367188 z m -4.300782,-1.1015625 c 0.105469,-0.984375 0.527344,-1.4765625 1.265625,-1.4765625 0.421875,0 0.808594,0.1992188 1.042969,0.5390625 0.152344,0.234375 0.234375,0.4921875 0.269531,0.9375 z m 5.44043,-2.6484375 v 6.45703126 h 1.675781 V -3.8658359 c 0,-0.7734375 0.539063,-1.2773438 1.347657,-1.2773438 0.726562,0 1.078125,0.3984375 1.078125,1.1601563 v 3.98437496 h 1.675781 V -4.3228672 c 0,-1.4296875 -0.785156,-2.2382812 -2.167969,-2.2382812 -0.867187,0 -1.453125,0.328125 -1.933594,1.0429687 v -0.9375 z m 10.151367,0.1289063 h -0.9375 v -1.7226563 h -1.664062 v 1.7226563 h -0.832031 v 1.1132812 h 0.832031 v 3.9726563 c 0,1.01953121 0.539062,1.51171871 1.628906,1.51171871 0.375,0 0.679688,-0.0351562 0.972656,-0.12890625 V -1.0298984 c -0.164062,0.023437 -0.257812,0.0351562 -0.386718,0.0351562 -0.433594,0 -0.550782,-0.1289062 -0.550782,-0.703125 v -3.515625 h 0.9375 z m 6.641602,6.12890621 c -0.292969,-0.28125 -0.375,-0.45703125 -0.375,-0.796875 V -4.5806797 c 0,-1.3125 -0.902344,-1.9804687 -2.648438,-1.9804687 -1.734375,0 -2.648437,0.7382812 -2.753906,2.2382812 h 1.617188 c 0.08203,-0.6679687 0.351562,-0.890625 1.171875,-0.890625 0.65625,0 0.972656,0.2226563 0.972656,0.6445313 0,0.2226562 -0.105469,0.4101562 -0.28125,0.5039062 -0.234375,0.1171875 -0.234375,0.1171875 -1.054688,0.2578125 l -0.667968,0.1171875 c -1.277344,0.2109375 -1.898438,0.8671875 -1.898438,2.0273438 0,0.5507812 0.152344,1.00781246 0.445313,1.32421871 0.375,0.38671875 0.9375,0.609375 1.511718,0.609375 0.714844,0 1.371094,-0.3046875 1.957032,-0.9140625 0,0.328125 0.03516,0.45703125 0.1875,0.64453125 h 1.816406 z M 83.432711,-2.5884922 c 0,0.9609375 -0.480469,1.5117188 -1.324219,1.5117188 -0.5625,0 -0.914062,-0.2929688 -0.914062,-0.7734375 0,-0.5039063 0.269531,-0.7382813 0.960937,-0.890625 l 0.574219,-0.1054688 c 0.445312,-0.082031 0.515625,-0.1054687 0.703125,-0.1992187 z m 4.87793,-6.1289062 h -1.675782 v 8.71874996 h 1.675782 z M 17.44443,6.7279141 h 2.542968 v -1.5 h -6.984375 v 1.5 h 2.648438 v 7.2187499 h 1.792969 z m 2.493164,0.7617187 v 6.4570312 h 1.675781 V 10.51307 c 0,-0.9726559 0.492187,-1.4648434 1.476562,-1.4648434 0.175782,0 0.292969,0.011719 0.515625,0.046875 V 7.3958828 c -0.09375,-0.011719 -0.152343,-0.011719 -0.199218,-0.011719 -0.761719,0 -1.429688,0.5039062 -1.792969,1.3710937 V 7.4896328 Z M 30.09482,13.747445 c -0.292968,-0.28125 -0.375,-0.457031 -0.375,-0.796875 V 9.3646328 c 0,-1.3125 -0.902343,-1.9804687 -2.648437,-1.9804687 -1.734375,0 -2.648438,0.7382812 -2.753906,2.2382812 h 1.617187 c 0.08203,-0.6679687 0.351563,-0.890625 1.171875,-0.890625 0.65625,0 0.972656,0.2226563 0.972656,0.6445313 0,0.2226562 -0.105468,0.4101562 -0.28125,0.5039062 C 27.56357,9.9974453 27.56357,9.9974453 26.743258,10.13807 l -0.667969,0.117188 c -1.277344,0.210937 -1.898437,0.867187 -1.898437,2.027344 0,0.550781 0.152343,1.007812 0.445312,1.324218 0.375,0.386719 0.9375,0.609375 1.511719,0.609375 0.714844,0 1.371094,-0.304687 1.957031,-0.914062 0,0.328125 0.03516,0.457031 0.1875,0.644531 H 30.09482 Z M 28.079195,11.35682 c 0,0.960938 -0.480468,1.511719 -1.324218,1.511719 -0.5625,0 -0.914063,-0.292969 -0.914063,-0.773437 0,-0.503907 0.269531,-0.738282 0.960938,-0.890625 l 0.574218,-0.105469 c 0.445313,-0.08203 0.515625,-0.105469 0.703125,-0.199219 z m 3.155274,-3.8671872 v 6.4570312 h 1.675781 v -3.867187 c 0,-0.7734379 0.539062,-1.2773442 1.347656,-1.2773442 0.726563,0 1.078125,0.3984375 1.078125,1.1601563 v 3.9843749 h 1.675781 V 9.6224453 c 0,-1.4296875 -0.785156,-2.2382812 -2.167968,-2.2382812 -0.867188,0 -1.453125,0.328125 -1.933594,1.0429687 v -0.9375 z m 12.588867,2.0859375 c -0.02344,-1.3710937 -1.078125,-2.1914062 -2.8125,-2.1914062 -1.628906,0 -2.648438,0.8203125 -2.648438,2.15625 0,0.421875 0.128907,0.7968749 0.363282,1.0429689 0.222656,0.234375 0.421875,0.339844 1.042968,0.539062 l 2.003907,0.621094 c 0.410156,0.140625 0.5625,0.269531 0.5625,0.527344 0,0.398437 -0.46875,0.632812 -1.242188,0.632812 -0.433594,0 -0.785156,-0.08203 -0.996094,-0.222656 -0.175781,-0.128906 -0.257812,-0.269531 -0.328125,-0.609375 h -1.628906 c 0.04687,1.40625 1.078125,2.144531 3.046875,2.144531 0.890625,0 1.570313,-0.1875 2.050781,-0.574218 0.480469,-0.375 0.761719,-0.972657 0.761719,-1.605469 0,-0.84375 -0.410156,-1.382813 -1.265625,-1.628906 L 40.624117,9.7982266 c -0.46875,-0.140625 -0.585937,-0.234375 -0.585937,-0.5039063 0,-0.3515625 0.375,-0.5976562 0.960937,-0.5976562 0.808594,0 1.195313,0.2929687 1.207031,0.8789062 z m 3.084961,-2.0859375 h -1.675781 v 6.4570312 h 1.675781 z m 0,-2.2617187 h -1.675781 v 1.5 h 1.675781 z m 4.450195,2.390625 h -0.9375 V 5.8958828 H 48.75693 v 1.7226563 h -0.832032 v 1.1132812 h 0.832032 v 3.9726567 c 0,1.019531 0.539062,1.511718 1.628906,1.511718 0.375,0 0.679687,-0.03516 0.972656,-0.128906 v -1.171875 c -0.164062,0.02344 -0.257812,0.03516 -0.386719,0.03516 -0.433593,0 -0.550781,-0.128906 -0.550781,-0.703125 V 8.7318203 h 0.9375 z m 2.856445,-0.1289063 h -1.675781 v 6.4570312 h 1.675781 z m 0,-2.2617187 h -1.675781 v 1.5 h 1.675781 z m 4.447266,2.15625 c -1.96875,0 -3.175781,1.3007812 -3.175781,3.4218749 0,2.121094 1.207031,3.410156 3.1875,3.410156 1.957031,0 3.1875,-1.300781 3.1875,-3.363281 0,-2.1914062 -1.183594,-3.4687499 -3.199219,-3.4687499 z m 0.01172,1.3476562 c 0.925781,0 1.523437,0.8320313 1.523437,2.0976567 0,1.207031 -0.621093,2.039062 -1.523437,2.039062 -0.902344,0 -1.511719,-0.832031 -1.511719,-2.0625 0,-1.2304687 0.609375,-2.0742187 1.511719,-2.0742187 z m 4.444336,-1.2421875 v 6.4570312 h 1.675781 v -3.867187 c 0,-0.7734379 0.539063,-1.2773442 1.347656,-1.2773442 0.726563,0 1.078125,0.3984375 1.078125,1.1601563 v 3.9843749 h 1.675782 V 9.6224453 c 0,-1.4296875 -0.785157,-2.2382812 -2.167969,-2.2382812 -0.867188,0 -1.453125,0.328125 -1.933594,1.0429687 v -0.9375 z m 12.591797,2.0859375 c -0.02344,-1.3710937 -1.078125,-2.1914062 -2.8125,-2.1914062 -1.628907,0 -2.648438,0.8203125 -2.648438,2.15625 0,0.421875 0.128906,0.7968749 0.363281,1.0429689 0.222657,0.234375 0.421875,0.339844 1.042969,0.539062 l 2.003906,0.621094 c 0.410157,0.140625 0.5625,0.269531 0.5625,0.527344 0,0.398437 -0.46875,0.632812 -1.242187,0.632812 -0.433594,0 -0.785156,-0.08203 -0.996094,-0.222656 -0.175781,-0.128906 -0.257812,-0.269531 -0.328125,-0.609375 h -1.628906 c 0.04687,1.40625 1.078125,2.144531 3.046875,2.144531 0.890625,0 1.570312,-0.1875 2.050781,-0.574218 0.480469,-0.375 0.761719,-0.972657 0.761719,-1.605469 0,-0.84375 -0.410156,-1.382813 -1.265625,-1.628906 L 72.510836,9.7982266 c -0.46875,-0.140625 -0.585938,-0.234375 -0.585938,-0.5039063 0,-0.3515625 0.375,-0.5976562 0.960938,-0.5976562 0.808594,0 1.195312,0.2929687 1.207031,0.8789062 z m 0,0"
       style="fill:#000000;fill-opacity:1;fill-rule:nonzero;stroke:none"
       aria-label="1.Experimental&#10;Transitions"
       transform="matrix(1.3333333,0,0,1.3333333,30.994667,42.978667)" />
    <g
       id="g4"
       aria-label="–SourceA"
       transform="matrix(0.93333333,0,0,0.93333333,65.373333,88.674667)">
      <path
         id="path5"
         d="m 5.5430804,-3.095904 h -5.62500004 v 1.0379464 H 5.5430804 Z m 0,0"
         style="fill:#0000b3;fill-opacity:1;fill-rule:nonzero;stroke:none" />
      <path
         id="path6"
         d="m 14.252623,-5.1215737 c -0.01674,-1.4397321 -0.987723,-2.2600446 -2.661831,-2.2600446 -1.590401,0 -2.5781246,0.8203125 -2.5781246,2.1261161 0,0.8872768 0.46875,1.4564732 1.4229906,1.7075893 l 1.791295,0.46875 c 0.920759,0.234375 1.339286,0.6026785 1.339286,1.171875 0,0.4017857 -0.200893,0.7868303 -0.518973,1.00446424 -0.284599,0.20089286 -0.736608,0.31808036 -1.339286,0.31808036 -0.78683,0 -1.322545,-0.18415179 -1.657366,-0.6026786 C 9.7660156,-1.5055022 9.6488281,-1.8570647 9.6655692,-2.3090737 H 8.7950335 c 0,0.6696429 0.1339286,1.1049108 0.4185268,1.50669647 0.5022321,0.66964285 1.3392857,1.03794643 2.4441967,1.03794643 0.870535,0 1.57366,-0.20089286 2.04241,-0.56919643 0.485491,-0.38504465 0.786831,-1.03794647 0.786831,-1.65736607 0,-0.9040179 -0.552456,-1.5569196 -1.540179,-1.8247768 l -1.824777,-0.4854911 c -0.870535,-0.234375 -1.1886157,-0.5189732 -1.1886157,-1.0714285 0,-0.7366072 0.6529017,-1.2220982 1.6238837,-1.2220982 1.155134,0 1.808036,0.5189732 1.808036,1.4732142 z m 3.415178,-0.251116 c -1.473214,0 -2.360491,1.0546875 -2.360491,2.7957589 0,1.7578125 0.887277,2.8125 2.360491,2.8125 1.473215,0 2.360491,-1.0546875 2.360491,-2.7622768 0,-1.8080357 -0.853794,-2.8459821 -2.360491,-2.8459821 z m 0,0.7700893 c 0.9375,0 1.506697,0.7700892 1.506697,2.0591517 0,1.2220983 -0.585938,2.00892861 -1.506697,2.00892861 -0.920759,0 -1.489955,-0.77008931 -1.489955,-2.04241071 0,-1.2388393 0.569196,-2.0256696 1.489955,-2.0256696 z m 7.629744,4.6037946 v -5.2232143 h -0.837054 v 2.9631697 c 0,1.0714285 -0.552455,1.75781245 -1.422991,1.75781245 -0.652902,0 -1.071429,-0.40178571 -1.071429,-1.02120535 v -3.6997768 h -0.820312 v 4.0345982 c 0,0.85379467 0.636161,1.4229911 1.657366,1.4229911 0.770089,0 1.25558,-0.26785715 1.741071,-0.95424108 V 0.0011942 Z m 1.422991,-5.2232143 v 5.2232143 h 0.837053 v -2.7120536 c 0,-0.7366071 0.184152,-1.2388393 0.585938,-1.5234375 0.267857,-0.1841518 0.502232,-0.251116 1.088169,-0.251116 v -0.8537947 c -0.133928,-0.016741 -0.200892,-0.033482 -0.31808,-0.033482 -0.535714,0 -0.954241,0.3180803 -1.422991,1.1049107 V -5.22202 Z m 7.315848,1.7578125 c -0.03348,-0.5022321 -0.15067,-0.8370536 -0.351563,-1.1216518 -0.351562,-0.485491 -0.970982,-0.7868303 -1.707589,-0.7868303 -1.40625,0 -2.327009,1.1216518 -2.327009,2.8459821 0,1.69084822 0.904018,2.7622768 2.310268,2.7622768 1.25558,0 2.042411,-0.75334822 2.142857,-2.0256696 h -0.837053 c -0.133929,0.83705352 -0.569197,1.25558031 -1.272322,1.25558031 -0.920759,0 -1.473214,-0.75334821 -1.473214,-1.99218751 0,-1.2890625 0.535714,-2.0758928 1.439732,-2.0758928 0.703125,0 1.138393,0.4185267 1.238839,1.1383928 z m 5.398995,1.1383929 c 0,-0.8035715 -0.05022,-1.2723215 -0.200892,-1.6741072 -0.334822,-0.8537946 -1.138393,-1.3727678 -2.109375,-1.3727678 -1.456474,0 -2.393974,1.1216518 -2.393974,2.829241 0,1.7243304 0.904018,2.7790179 2.360491,2.7790179 1.205358,0 2.02567,-0.68638393 2.243304,-1.8247768 h -0.837054 c -0.234375,0.68638394 -0.703125,1.05468751 -1.372767,1.05468751 -0.518974,0 -0.970983,-0.234375 -1.255581,-0.68638391 -0.200893,-0.2845982 -0.267857,-0.5859375 -0.267857,-1.1049107 z m -3.816964,-0.686384 c 0.06696,-0.954241 0.652902,-1.5904017 1.489956,-1.5904017 0.820312,0 1.439732,0.6863839 1.439732,1.5401785 0,0.016741 0,0.033482 0,0.050223 z m 11.743862,0.8370536 0.753348,2.1763393 h 1.037946 l -2.561384,-7.265625 h -1.188616 l -2.594866,7.265625 h 0.987724 l 0.770089,-2.1763393 z m -0.251116,-0.7868303 h -2.310268 l 1.188616,-3.2979911 z m 0,0"
         style="fill:#0000b3;fill-opacity:1;fill-rule:nonzero;stroke:none" />
    </g>
    <g
       id="g6"
       aria-label="–SourceB"
       transform="matrix(0.93333333,0,0,0.93333333,65.373333,100.01333)">
      <path
         id="path7"
         d="m 5.5430804,-3.0988281 h -5.62500004 v 1.0379464 H 5.5430804 Z m 0,0"
         style="fill:#b30000;fill-opacity:1;fill-rule:nonzero;stroke:none" />
      <path
         id="path8"
         d="m 14.252623,-5.1244978 c -0.01674,-1.4397321 -0.987723,-2.2600446 -2.661831,-2.2600446 -1.590401,0 -2.5781246,0.8203125 -2.5781246,2.1261161 0,0.8872767 0.46875,1.4564732 1.4229906,1.7075892 l 1.791295,0.46875 c 0.920759,0.234375 1.339286,0.6026786 1.339286,1.171875 0,0.4017858 -0.200893,0.7868304 -0.518973,1.00446433 -0.284599,0.20089286 -0.736608,0.31808036 -1.339286,0.31808036 -0.78683,0 -1.322545,-0.18415179 -1.657366,-0.60267859 C 9.7660156,-1.5084263 9.6488281,-1.8599888 9.6655692,-2.3119978 H 8.7950335 c 0,0.6696429 0.1339286,1.1049107 0.4185268,1.50669646 0.5022321,0.66964286 1.3392857,1.03794643 2.4441967,1.03794643 0.870535,0 1.57366,-0.20089286 2.04241,-0.56919643 0.485491,-0.38504464 0.786831,-1.03794646 0.786831,-1.65736606 0,-0.9040179 -0.552456,-1.5569197 -1.540179,-1.8247768 l -1.824777,-0.4854911 c -0.870535,-0.234375 -1.1886157,-0.5189732 -1.1886157,-1.0714285 0,-0.7366072 0.6529017,-1.2220983 1.6238837,-1.2220983 1.155134,0 1.808036,0.5189733 1.808036,1.4732143 z m 3.415178,-0.251116 c -1.473214,0 -2.360491,1.0546875 -2.360491,2.7957589 0,1.75781249 0.887277,2.81249999 2.360491,2.81249999 1.473215,0 2.360491,-1.0546875 2.360491,-2.76227679 0,-1.8080357 -0.853794,-2.8459821 -2.360491,-2.8459821 z m 0,0.7700892 c 0.9375,0 1.506697,0.7700893 1.506697,2.0591518 0,1.2220982 -0.585938,2.0089286 -1.506697,2.0089286 -0.920759,0 -1.489955,-0.7700893 -1.489955,-2.0424107 0,-1.2388393 0.569196,-2.0256697 1.489955,-2.0256697 z m 7.629744,4.60379469 V -5.2249442 h -0.837054 v 2.9631696 c 0,1.0714286 -0.552455,1.75781255 -1.422991,1.75781255 -0.652902,0 -1.071429,-0.40178572 -1.071429,-1.02120535 v -3.6997768 h -0.820312 v 4.0345982 c 0,0.85379466 0.636161,1.42299109 1.657366,1.42299109 0.770089,0 1.25558,-0.26785714 1.741071,-0.95424107 v 0.71986607 z m 1.422991,-5.22321429 v 5.22321429 h 0.837053 V -2.7137835 c 0,-0.7366071 0.184152,-1.2388393 0.585938,-1.5234375 0.267857,-0.1841518 0.502232,-0.2511161 1.088169,-0.2511161 v -0.8537946 c -0.133928,-0.016741 -0.200892,-0.033482 -0.31808,-0.033482 -0.535714,0 -0.954241,0.3180803 -1.422991,1.1049107 v -0.9542411 z m 7.315848,1.7578125 c -0.03348,-0.5022321 -0.15067,-0.8370536 -0.351563,-1.1216518 -0.351562,-0.4854911 -0.970982,-0.7868303 -1.707589,-0.7868303 -1.40625,0 -2.327009,1.1216517 -2.327009,2.8459821 0,1.69084822 0.904018,2.76227679 2.310268,2.76227679 1.25558,0 2.042411,-0.75334822 2.142857,-2.02566969 h -0.837053 c -0.133929,0.83705362 -0.569197,1.2555804 -1.272322,1.2555804 -0.920759,0 -1.473214,-0.7533482 -1.473214,-1.9921875 0,-1.2890625 0.535714,-2.0758929 1.439732,-2.0758929 0.703125,0 1.138393,0.4185268 1.238839,1.1383929 z m 5.398995,1.1383929 c 0,-0.8035715 -0.05022,-1.2723215 -0.200892,-1.6741072 -0.334822,-0.8537946 -1.138393,-1.3727678 -2.109375,-1.3727678 -1.456474,0 -2.393974,1.1216517 -2.393974,2.829241 0,1.72433039 0.904018,2.77901789 2.360491,2.77901789 1.205358,0 2.02567,-0.68638393 2.243304,-1.82477679 h -0.837054 c -0.234375,0.68638393 -0.703125,1.0546875 -1.372767,1.0546875 -0.518974,0 -0.970983,-0.234375 -1.255581,-0.6863839 -0.200893,-0.2845982 -0.267857,-0.5859375 -0.267857,-1.1049107 z m -3.816964,-0.686384 c 0.06696,-0.954241 0.652902,-1.5904018 1.489956,-1.5904018 0.820312,0 1.439732,0.686384 1.439732,1.5401786 0,0.016741 0,0.033482 0,0.050223 z m 7.80971,3.01339289 h 3.28125 c 0.686384,0 1.188616,-0.18415179 1.573661,-0.60267857 0.368303,-0.38504465 0.569196,-0.90401782 0.569196,-1.47321432 0,-0.8705357 -0.401786,-1.40625 -1.322545,-1.7578125 0.652902,-0.3180803 1.004465,-0.8537946 1.004465,-1.5904018 0,-0.5189732 -0.200893,-0.9877232 -0.585938,-1.3225446 -0.368303,-0.3515625 -0.870535,-0.5189732 -1.57366,-0.5189732 h -2.946429 z m 0.920759,-4.13504469 v -2.3102678 h 1.791295 c 0.518973,0 0.820312,0.066964 1.071428,0.2678571 0.251116,0.1841518 0.385045,0.4854911 0.385045,0.8872768 0,0.3850447 -0.133929,0.703125 -0.385045,0.9040179 -0.251116,0.1841518 -0.552455,0.251116 -1.071428,0.251116 z m 0,3.31473219 V -3.3164621 h 2.260045 c 0.452008,0 0.753348,0.1004465 0.970982,0.3515625 0.217634,0.217634 0.334821,0.5357143 0.334821,0.9040179 0,0.3515625 -0.117187,0.6696429 -0.334821,0.8872768 -0.217634,0.25111606 -0.518974,0.35156249 -0.970982,0.35156249 z m 0,0"
         style="fill:#b30000;fill-opacity:1;fill-rule:nonzero;stroke:none" />
    </g>
    <path
       id="path9"
       d="m 11.33855,-42.5202 v 23.19005"
       style="fill:none;stroke:#0000b3;stroke-width:1.19553;stroke-linecap:butt;stroke-linejoin:miter;stroke-miterlimit:10;stroke-dasharray:none;stroke-opacity:1"
       transform="matrix(1.3333333,0,0,-1.3333333,43.190667,210.04933)" />
    <path
       id="path10"
       d="M 6.66628,0 1.93044,1.79556 3.5108,0 1.93044,-1.79556 Z"
       style="fill:#0000b3;fill-opacity:1;fill-rule:nonzero;stroke:#0000b3;stroke-width:1.19553;stroke-linecap:butt;stroke-linejoin:miter;stroke-miterlimit:10;stroke-dasharray:none;stroke-opacity:1"
       transform="matrix(0,-1.3333333,-1.3333333,0,58.308733,240.10547)" />
    <g
       id="g10"
       aria-label="T&#10;1"
       transform="matrix(1.3333333,0,0,1.3333333,43.045333,250.46533)">
      <path
         id="path11"
         d="M 3.43475,-4.5120859 H 5.0988125 L 5.216,-5.0863047 H 1.2199063 L 1.1027188,-4.5120859 H 2.7785 L 1.8175625,-3.671875e-4 h 0.65625 z m 0,0"
         style="fill:#0000b3;fill-opacity:1;fill-rule:nonzero;stroke:none" />
      <path
         id="path12"
         d="m 5.5499844,-1.4124766 v 2.5195313 h 0.4335937 v -3.5273438 h -0.28125 c -0.1523437,0.5390625 -0.2578125,0.609375 -0.9375,0.703125 v 0.3046875 z m 0,0"
         style="fill:#0000b3;fill-opacity:1;fill-rule:nonzero;stroke:none" />
    </g>
    <path
       id="path13"
       d="M 28.3468,28.3468 V 57.20612"
       style="fill:none;stroke:#0000b3;stroke-width:1.19553;stroke-linecap:butt;stroke-linejoin:miter;stroke-miterlimit:10;stroke-dasharray:none;stroke-opacity:1"
       transform="matrix(1.3333333,0,0,-1.3333333,43.190667,210.04933)" />
    <path
       id="path14"
       d="M 6.66628,0 1.93044,1.79556 3.5108,0 1.93044,-1.79556 Z"
       style="fill:#0000b3;fill-opacity:1;fill-rule:nonzero;stroke:#0000b3;stroke-width:1.19553;stroke-linecap:butt;stroke-linejoin:miter;stroke-miterlimit:10;stroke-dasharray:none;stroke-opacity:1"
       transform="matrix(0,-1.3333333,-1.3333333,0,80.9864,138.05708)" />
    <g
       id="g14"
       aria-label="T&#10;2"
       transform="matrix(1.3333333,0,0,1.3333333,65.722667,152.19733)">
      <path
         id="path15"
         d="M 3.4335859,-4.5103047 H 5.0976484 L 5.2148359,-5.0845234 H 1.2187422 L 1.1015547,-4.5103047 H 2.7773359 L 1.8163984,0.00141406 h 0.65625 z m 0,0"
         style="fill:#0000b3;fill-opacity:1;fill-rule:nonzero;stroke:none" />
      <path
         id="path16"
         d="M 6.7792891,0.67524219 H 4.9277266 c 0.035156,-0.29296875 0.1992187,-0.46875 0.6328125,-0.7265625 l 0.4921875,-0.26953125 c 0.5039062,-0.26953125 0.75,-0.6328125 0.75,-1.06640624 0,-0.2929688 -0.1171875,-0.5625 -0.328125,-0.7617188 -0.2109375,-0.1875 -0.46875,-0.2695312 -0.796875,-0.2695312 -0.4570313,0 -0.7851563,0.1523437 -0.984375,0.4570312 -0.1171875,0.1875 -0.1757813,0.4101563 -0.1875,0.7617188 h 0.4453125 c 0.011719,-0.234375 0.035156,-0.3867188 0.1054687,-0.4921875 0.1054688,-0.2226563 0.3398438,-0.3515625 0.5976563,-0.3515625 0.3984375,0 0.703125,0.2929687 0.703125,0.6679687 0,0.28125 -0.1640625,0.51562504 -0.4804688,0.69140629 l -0.4570312,0.26953125 c -0.7382813,0.41015625 -0.9492188,0.75 -0.9960938,1.52343746 h 2.3554688 z m 0,0"
         style="fill:#0000b3;fill-opacity:1;fill-rule:nonzero;stroke:none" />
    </g>
    <path
       id="path17"
       d="M 42.5202,-14.17339 V 23.19003"
       style="fill:none;stroke:#b30000;stroke-width:1.19553;stroke-linecap:butt;stroke-linejoin:miter;stroke-miterlimit:10;stroke-dasharray:none;stroke-opacity:1"
       transform="matrix(1.3333333,0,0,-1.3333333,43.190667,210.04933)" />
    <path
       id="path18"
       d="M 6.66628,0 1.93044,1.79556 3.5108,0 1.93044,-1.79556 Z"
       style="fill:#b30000;fill-opacity:1;fill-rule:nonzero;stroke:#b30000;stroke-width:1.19553;stroke-linecap:butt;stroke-linejoin:miter;stroke-miterlimit:10;stroke-dasharray:none;stroke-opacity:1"
       transform="matrix(0,-1.3333333,-1.3333333,0,99.884267,183.41187)" />
    <g
       id="g18"
       aria-label="T&#10;4"
       transform="matrix(1.3333333,0,0,1.3333333,84.621333,203.22133)">
      <path
         id="path19"
         d="M 3.4334141,-4.5107266 H 5.0974766 L 5.2146641,-5.0849453 H 1.2185703 L 1.1013828,-4.5107266 H 2.7771641 L 1.8162266,9.921875e-4 h 0.65625 z m 0,0"
         style="fill:#b30000;fill-opacity:1;fill-rule:nonzero;stroke:none" />
      <path
         id="path20"
         d="M 5.8884922,0.26466406 V 1.1084141 H 6.3220859 V 0.26466406 h 0.5273438 v -0.3984375 H 6.3220859 V -2.4189297 H 6.0056797 l -1.6054688,2.21484376 v 0.46875 z m 0,-0.3984375 H 4.7869297 L 5.8884922,-1.6806484 Z m 0,0"
         style="fill:#b30000;fill-opacity:1;fill-rule:nonzero;stroke:none" />
    </g>
    <path
       id="path21"
       d="M 62.36288,-42.5202 V 23.19003"
       style="fill:none;stroke:#b30000;stroke-width:1.19553;stroke-linecap:butt;stroke-linejoin:miter;stroke-miterlimit:10;stroke-dasharray:none;stroke-opacity:1"
       transform="matrix(1.3333333,0,0,-1.3333333,43.190667,210.04933)" />
    <path
       id="path22"
       d="M 6.66628,0 1.93044,1.79556 3.5108,0 1.93044,-1.79556 Z"
       style="fill:#b30000;fill-opacity:1;fill-rule:nonzero;stroke:#b30000;stroke-width:1.19553;stroke-linecap:butt;stroke-linejoin:miter;stroke-miterlimit:10;stroke-dasharray:none;stroke-opacity:1"
       transform="matrix(0,-1.3333333,-1.3333333,0,126.34117,183.41187)" />
    <g
       id="g22"
       aria-label="T&#10;5"
       transform="matrix(1.3333333,0,0,1.3333333,111.07733,222.12533)">
      <path
         id="path23"
         d="M 3.4341875,-4.5119688 H 5.09825 L 5.2154375,-5.0861875 H 1.2193438 L 1.1021563,-4.5119688 H 2.7779375 L 1.817,-2.5e-4 h 0.65625 z m 0,0"
         style="fill:#b30000;fill-opacity:1;fill-rule:nonzero;stroke:none" />
      <path
         id="path24"
         d="M 6.6275469,-2.5109922 H 4.8111406 l -0.2695312,1.92187501 h 0.4101562 c 0.1992188,-0.24609375 0.375,-0.328125 0.6445313,-0.328125 0.46875,0 0.7734375,0.31640625 0.7734375,0.84375 0,0.50390625 -0.2929688,0.8203125 -0.7734375,0.8203125 -0.3867188,0 -0.6210938,-0.19921875 -0.7265625,-0.59765625 H 4.4361406 c 0.058594,0.29296875 0.1054688,0.43359375 0.2109375,0.5625 0.1992188,0.26953125 0.5625,0.42187504 0.9609375,0.42187504 0.7148438,0 1.2070313,-0.51562504 1.2070313,-1.26562504 0,-0.703125 -0.4570313,-1.17187496 -1.1367188,-1.17187496 -0.2578125,0 -0.4570312,0.058594 -0.65625,0.2109375 l 0.140625,-0.984375 h 1.4648438 z m 0,0"
         style="fill:#b30000;fill-opacity:1;fill-rule:nonzero;stroke:none" />
    </g>
    <path
       id="path25"
       d="M 82.20555,-14.17339 V 57.20612"
       style="fill:none;stroke:#b30000;stroke-width:1.19553;stroke-linecap:butt;stroke-linejoin:miter;stroke-miterlimit:10;stroke-dasharray:none;stroke-opacity:1"
       transform="matrix(1.3333333,0,0,-1.3333333,43.190667,210.04933)" />
    <path
       id="path26"
       d="M 6.66628,0 1.93044,1.79556 3.5108,0 1.93044,-1.79556 Z"
       style="fill:#b30000;fill-opacity:1;fill-rule:nonzero;stroke:#b30000;stroke-width:1.19553;stroke-linecap:butt;stroke-linejoin:miter;stroke-miterlimit:10;stroke-dasharray:none;stroke-opacity:1"
       transform="matrix(0,-1.3333333,-1.3333333,0,152.79807,138.05708)" />
    <g
       id="g26"
       aria-label="T&#10;3"
       transform="matrix(1.3333333,0,0,1.3333333,137.53333,180.48933)">
      <path
         id="path27"
         d="M 3.4349609,-4.5125078 H 5.0990234 L 5.2162109,-5.0867266 H 1.2201172 L 1.1029297,-4.5125078 H 2.7787109 L 1.8177734,-7.890625e-4 h 0.65625 z m 0,0"
         style="fill:#b30000;fill-opacity:1;fill-rule:nonzero;stroke:none" />
      <path
         id="path28"
         d="m 5.3626953,-0.51055469 h 0.058594 l 0.1757812,-0.0117188 c 0.4921875,0 0.7382813,0.22265625 0.7382813,0.64453125 0,0.4453125 -0.28125,0.71484375 -0.7382813,0.71484375 -0.46875,0 -0.703125,-0.24609375 -0.7382812,-0.76171875 h -0.433594 c 0.011719,0.29296875 0.070312,0.46875 0.1523438,0.6328125 0.1757812,0.33984374 0.5273437,0.51562494 1.0078125,0.51562494 0.7265625,0 1.1953125,-0.43359369 1.1953125,-1.10156244 0,-0.4453125 -0.1757813,-0.703125 -0.5976563,-0.84375 0.328125,-0.12890625 0.4921875,-0.37499996 0.4921875,-0.72656256 0,-0.609375 -0.3984375,-0.9726562 -1.078125,-0.9726562 -0.703125,0 -1.0898437,0.3867187 -1.1015625,1.1367188 h 0.4335938 c 0.011719,-0.2109375 0.035156,-0.328125 0.082031,-0.4453125 0.1054688,-0.1875 0.3164063,-0.3164063 0.5976563,-0.3164063 0.3867187,0 0.6210937,0.234375 0.6210937,0.609375 0,0.2460938 -0.09375,0.3984375 -0.28125,0.48046876 -0.1289062,0.046875 -0.28125,0.0703125 -0.5859375,0.0703125 z m 0,0"
         style="fill:#b30000;fill-opacity:1;fill-rule:nonzero;stroke:none" />
    </g>
    <path
       id="path29"
       d="M 6.117625,-1.4986484 H 2.5316875 c 0.2226563,-0.4453125 0.4804688,-0.6914063 1.7226563,-1.59375 1.4765625,-1.078125 1.8984375,-1.7226563 1.8984375,-2.8710938 0,-1.640625 -1.125,-2.6835937 -2.90625,-2.6835937 -1.7460938,0 -2.7773438,1.03125 -2.7773438,2.8242187 0,0.070312 0,0.1757813 0.0117188,0.3046875 h 1.59375 v -0.28125 c 0,-0.9375 0.4453125,-1.4882812 1.21875,-1.4882812 0.7382812,0 1.1953125,0.515625 1.1953125,1.359375 0,0.9375 -0.3046875,1.3007812 -2.1679688,2.625 -1.44140625,0.984375 -1.875,1.734375 -1.95703125,3.30468746 H 6.117625 Z M 9.2025859,-1.7447422 H 7.4096172 V 0.00135156 H 9.2025859 Z M 22.239695,-5.7642734 c -0.05859,-0.75 -0.222656,-1.2304688 -0.585937,-1.7226563 -0.667969,-0.8789062 -1.746094,-1.3710937 -3.046875,-1.3710937 -2.472656,0 -3.996094,1.7578125 -3.996094,4.5820312 0,2.8007813 1.511719,4.54687501 3.9375,4.54687501 2.167969,0 3.621094,-1.25390625 3.726563,-3.24609371 h -1.746094 c -0.105469,1.1132812 -0.820313,1.7460937 -1.921875,1.7460937 -1.394531,0 -2.203125,-1.125 -2.203125,-3.0234375 0,-1.921875 0.84375,-3.0703125 2.261719,-3.0703125 0.621093,0 1.136718,0.2109375 1.464843,0.6328125 0.1875,0.234375 0.292969,0.46875 0.398438,0.9257813 z m 4.072266,-0.796875 c -1.96875,0 -3.175781,1.3007812 -3.175781,3.421875 0,2.1210937 1.207031,3.41015621 3.1875,3.41015621 1.957031,0 3.1875,-1.30078121 3.1875,-3.36328121 0,-2.1914063 -1.183594,-3.46875 -3.199219,-3.46875 z m 0.01172,1.3476562 c 0.925781,0 1.523437,0.8320313 1.523437,2.0976563 0,1.2070312 -0.621094,2.0390625 -1.523437,2.0390625 -0.902344,0 -1.511719,-0.8320313 -1.511719,-2.0625 0,-1.2304688 0.609375,-2.0742188 1.511719,-2.0742188 z m 4.447265,-1.2421875 v 6.45703126 h 1.675782 V -3.8658359 c 0,-0.7734375 0.539062,-1.2773438 1.347656,-1.2773438 0.726562,0 1.078125,0.3984375 1.078125,1.1601563 V 0.00135156 H 36.54829 V -4.3228672 c 0,-1.4296875 -0.785156,-2.2382812 -2.167969,-2.2382812 -0.867187,0 -1.453125,0.328125 -1.933593,1.0429687 v -0.9375 z m 7.303711,0 v 6.45703126 h 1.675782 V -3.8658359 c 0,-0.7734375 0.539062,-1.2773438 1.347656,-1.2773438 0.726562,0 1.078125,0.3984375 1.078125,1.1601563 V 0.00135156 H 43.852 V -4.3228672 c 0,-1.4296875 -0.785156,-2.2382812 -2.167969,-2.2382812 -0.867187,0 -1.453125,0.328125 -1.933593,1.0429687 v -0.9375 z m 12.811524,3.75 c 0.02344,-0.140625 0.02344,-0.1992187 0.02344,-0.28125 0,-0.6445312 -0.105469,-1.2421875 -0.257812,-1.6992187 -0.433594,-1.171875 -1.464844,-1.875 -2.777344,-1.875 -1.851563,0 -2.988281,1.3359375 -2.988281,3.5039062 0,2.06250001 1.125,3.32812501 2.953125,3.32812501 1.453125,0 2.625,-0.8203125 2.988281,-2.08593751 h -1.640625 c -0.210938,0.515625 -0.667969,0.8085938 -1.289063,0.8085938 -0.46875,0 -0.855468,-0.1992188 -1.089843,-0.5625 -0.164063,-0.234375 -0.222657,-0.5273438 -0.246094,-1.1367188 z m -4.300782,-1.1015625 c 0.105469,-0.984375 0.527344,-1.4765625 1.265625,-1.4765625 0.421875,0 0.808594,0.1992188 1.042969,0.5390625 0.152344,0.234375 0.234375,0.4921875 0.269531,0.9375 z m 10.924805,-0.234375 c -0.117187,-1.5703125 -1.171875,-2.5195312 -2.777344,-2.5195312 -1.921875,0 -3.046875,1.265625 -3.046875,3.46875 0,2.12109371 1.113282,3.36328121 3.023438,3.36328121 1.558594,0 2.648437,-0.9609375 2.800781,-2.50781251 h -1.59375 c -0.222656,0.84375 -0.550781,1.1601563 -1.195312,1.1601563 -0.855469,0 -1.371094,-0.7617188 -1.371094,-2.015625 0,-0.609375 0.128906,-1.1835938 0.328125,-1.5703125 0.1875,-0.3515625 0.5625,-0.5507813 1.042969,-0.5507813 0.679687,0 0.996093,0.328125 1.195312,1.171875 z m 4.010742,-2.2851562 h -0.9375 v -1.7226563 h -1.664062 v 1.7226563 h -0.832031 v 1.1132812 h 0.832031 v 3.9726563 c 0,1.01953121 0.539062,1.51171871 1.628906,1.51171871 0.375,0 0.679688,-0.0351562 0.972656,-0.12890625 V -1.0298984 c -0.164062,0.023437 -0.257812,0.0351562 -0.386718,0.0351562 -0.433594,0 -0.550782,-0.1289062 -0.550782,-0.703125 v -3.515625 h 0.9375 z m 7.303711,0 h -0.9375 v -1.7226563 h -1.664062 v 1.7226563 h -0.832031 v 1.1132812 h 0.832031 v 3.9726563 c 0,1.01953121 0.539062,1.51171871 1.628906,1.51171871 0.375,0 0.679688,-0.0351562 0.972656,-0.12890625 V -1.0298984 c -0.164062,0.023437 -0.257812,0.0351562 -0.386718,0.0351562 -0.433594,0 -0.550782,-0.1289062 -0.550782,-0.703125 v -3.515625 h 0.9375 z m 1.180664,-2.390625 v 8.71874996 h 1.675782 V -3.8658359 c 0,-0.75 0.539062,-1.2773438 1.289062,-1.2773438 0.363281,0 0.644531,0.140625 0.84375,0.3984375 0.140625,0.2109375 0.1875,0.3867188 0.1875,0.796875 v 3.94921876 h 1.675781 V -4.3228672 c 0,-0.8085937 -0.222656,-1.3828125 -0.65625,-1.7460937 -0.375,-0.3164063 -0.914062,-0.4921875 -1.453125,-0.4921875 -0.820312,0 -1.417968,0.3398437 -1.886718,1.0429687 v -3.1992187 z m 12.764649,6.0117187 c 0.02344,-0.140625 0.02344,-0.1992187 0.02344,-0.28125 0,-0.6445312 -0.105468,-1.2421875 -0.257812,-1.6992187 -0.433594,-1.171875 -1.464844,-1.875 -2.777344,-1.875 -1.851562,0 -2.988281,1.3359375 -2.988281,3.5039062 0,2.06250001 1.125,3.32812501 2.953125,3.32812501 1.453125,0 2.625,-0.8203125 2.988281,-2.08593751 H 81.07075 c -0.210937,0.515625 -0.667969,0.8085938 -1.289062,0.8085938 -0.46875,0 -0.855469,-0.1992188 -1.089844,-0.5625 -0.164063,-0.234375 -0.222656,-0.5273438 -0.246094,-1.1367188 z m -4.300781,-1.1015625 c 0.105468,-0.984375 0.527343,-1.4765625 1.265625,-1.4765625 0.421875,0 0.808593,0.1992188 1.042968,0.5390625 0.152344,0.234375 0.234375,0.4921875 0.269532,0.9375 z M 24.223094,13.946664 h 1.792969 V 5.2279141 H 24.223094 V 11.157602 L 20.766063,5.2279141 h -1.839844 v 8.7187499 h 1.792969 V 7.9232266 Z m 8.783203,-2.707031 c 0.02344,-0.140625 0.02344,-0.199219 0.02344,-0.28125 0,-0.644531 -0.105468,-1.2421877 -0.257812,-1.6992189 -0.433594,-1.171875 -1.464844,-1.875 -2.777344,-1.875 -1.851562,0 -2.988281,1.3359375 -2.988281,3.5039059 0,2.0625 1.125,3.328125 2.953125,3.328125 1.453125,0 2.625,-0.820312 2.988281,-2.085937 h -1.640625 c -0.210937,0.515625 -0.667969,0.808594 -1.289062,0.808594 -0.46875,0 -0.855469,-0.199219 -1.089844,-0.5625 -0.164063,-0.234375 -0.222656,-0.527344 -0.246094,-1.136719 z M 28.705516,10.13807 c 0.105468,-0.9843747 0.527343,-1.4765622 1.265625,-1.4765622 0.421875,0 0.808593,0.1992188 1.042968,0.5390625 0.152344,0.234375 0.234375,0.4921875 0.269532,0.9374997 z m 8.288086,-2.5195309 h -0.9375 V 5.8958828 h -1.664063 v 1.7226563 h -0.832031 v 1.1132812 h 0.832031 v 3.9726567 c 0,1.019531 0.539063,1.511718 1.628906,1.511718 0.375,0 0.679688,-0.03516 0.972657,-0.128906 v -1.171875 c -0.164063,0.02344 -0.257813,0.03516 -0.386719,0.03516 -0.433594,0 -0.550781,-0.128906 -0.550781,-0.703125 V 8.7318203 h 0.9375 z m 7.708007,6.3281249 1.828125,-6.4570312 H 44.795359 L 43.822703,12.01307 42.850047,7.4896328 H 41.174266 L 40.201609,12.01307 39.170359,7.4896328 h -1.734375 l 1.816407,6.4570312 h 1.722656 l 1.03125,-4.5585937 0.960937,4.5585937 z M 50.03657,7.3841641 c -1.96875,0 -3.175781,1.3007812 -3.175781,3.4218749 0,2.121094 1.207031,3.410156 3.1875,3.410156 1.957031,0 3.1875,-1.300781 3.1875,-3.363281 0,-2.1914062 -1.183594,-3.4687499 -3.199219,-3.4687499 z m 0.01172,1.3476562 c 0.925781,0 1.523438,0.8320313 1.523438,2.0976567 0,1.207031 -0.621094,2.039062 -1.523438,2.039062 -0.902344,0 -1.511719,-0.832031 -1.511719,-2.0625 0,-1.2304687 0.609375,-2.0742187 1.511719,-2.0742187 z m 4.447266,-1.2421875 v 6.4570312 h 1.675781 V 10.51307 c 0,-0.9726559 0.492187,-1.4648434 1.476562,-1.4648434 0.175782,0 0.292969,0.011719 0.515625,0.046875 V 7.3958828 c -0.09375,-0.011719 -0.152343,-0.011719 -0.199218,-0.011719 -0.761719,0 -1.429688,0.5039062 -1.792969,1.3710937 v -1.265625 z m 6.27832,2.5078125 V 5.2279141 h -1.675781 v 8.7187499 h 1.675781 V 11.82557 l 0.667969,-0.726562 1.546875,2.847656 h 1.957031 l -2.355469,-4.0195312 2.203125,-2.4375 H 62.89497 Z m 0,0"
       style="fill:#000000;fill-opacity:1;fill-rule:nonzero;stroke:none"
       aria-label="2.Connectthe&#10;Network"
       transform="matrix(1.3333333,0,0,1.3333333,231.53067,42.978667)" />
    <path
       id="path30"
       d="m 179.2729,-21.2601 c 0,1.94557 -1.57714,3.52273 -3.52272,3.52273 -1.94555,0 -3.52272,-1.57716 -3.52272,-3.52273 0,-1.94556 1.57717,-3.52272 3.52272,-3.52272 1.94558,0 3.52272,1.57716 3.52272,3.52272 z"
       style="fill:#333333;fill-opacity:1;fill-rule:nonzero;stroke:none"
       transform="matrix(1.3333333,0,0,-1.3333333,43.190667,210.04933)" />
    <path
       id="path31"
       d="m 2.7428047,-7.0675234 c -0.65625,0 -1.2539063,0.2929687 -1.6289063,0.7851562 -0.45703121,0.609375 -0.67968746,1.5585938 -0.67968746,2.859375 0,2.390625 0.79687496,3.65625001 2.30859376,3.65625001 1.4882812,0 2.3085937,-1.26562501 2.3085937,-3.58593751 0,-1.3828125 -0.2226562,-2.296875 -0.6914062,-2.9296875 C 3.9967109,-6.7862734 3.4107734,-7.0675234 2.7428047,-7.0675234 Z m 0,0.7851562 c 0.9492187,0 1.40625,0.9492188 1.40625,2.8476563 0,2.0039062 -0.4570313,2.92968746 -1.4296875,2.92968746 -0.9257813,0 -1.3945313,-0.97265626 -1.3945313,-2.90624996 0,-1.9335938 0.46875,-2.8710938 1.4179688,-2.8710938 z m 7.9218753,-0.984375 c -0.9960941,1.3125 -1.6289066,3.1171875 -1.6289066,4.6875 0,1.5703125 0.6328125,3.38671876 1.6289066,4.6875 h 0.539062 c -0.867187,-1.41796874 -1.3593748,-3.09374999 -1.3593748,-4.6875 0,-1.5820312 0.4921878,-3.2695312 1.3593748,-4.6875 z m 8.027343,3.4335938 h -3.035156 v 0.8085937 h 2.214844 v 0.1992188 c 0,1.3007812 -0.960938,2.23828121 -2.285156,2.23828121 -0.738282,0 -1.40625,-0.26953125 -1.828125,-0.73828121 -0.480469,-0.515625 -0.773438,-1.3828125 -0.773438,-2.2851563 0,-1.78125 1.019531,-2.953125 2.554688,-2.953125 1.101562,0 1.898437,0.5625 2.097656,1.5 h 0.949219 c -0.257813,-1.4765625 -1.371094,-2.3203125 -3.035157,-2.3203125 -0.890625,0 -1.605468,0.234375 -2.167968,0.703125 -0.84375,0.6914063 -1.324219,1.8164063 -1.324219,3.1289063 0,2.2265625 1.371094,3.78515621 3.328125,3.78515621 0.984375,0 1.78125,-0.375 2.484375,-1.16015625 l 0.234375,0.9609375 h 0.585937 z m 1.376954,-1.3828125 v 5.21484371 h 0.832031 V -2.7081484 c 0,-0.75 0.1875,-1.2421875 0.585937,-1.5234375 0.257813,-0.1875 0.515625,-0.2578125 1.089844,-0.2578125 v -0.8554688 c -0.140625,-0.011719 -0.210937,-0.023437 -0.316406,-0.023437 -0.539063,0 -0.949219,0.3164063 -1.429688,1.0898438 v -0.9375 z m 5.332031,-0.1523438 c -1.464844,0 -2.34375,1.0429688 -2.34375,2.8007813 0,1.74609371 0.867187,2.80078121 2.355469,2.80078121 1.464843,0 2.367187,-1.0546875 2.367187,-2.76562501 0,-1.8046875 -0.867187,-2.8359375 -2.378906,-2.8359375 z m 0.01172,0.7617188 c 0.9375,0 1.5,0.7734375 1.5,2.0625 0,1.2304687 -0.585938,2.00390621 -1.5,2.00390621 -0.925782,0 -1.488282,-0.76171871 -1.488282,-2.02734371 0,-1.2539063 0.5625,-2.0390625 1.488282,-2.0390625 z m 7.625976,4.60546871 V -5.2159609 h -0.832031 v 2.953125 c 0,1.0664062 -0.550781,1.75781246 -1.417969,1.75781246 -0.65625,0 -1.078125,-0.3984375 -1.078125,-1.01953126 v -3.6914062 h -0.832031 v 4.0195312 c 0,0.86718751 0.65625,1.42968751 1.664062,1.42968751 0.773438,0 1.253907,-0.26953125 1.746094,-0.9609375 v 0.7265625 z M 34.47718,-5.2159609 v 5.21484371 h 0.832031 V -2.8839297 c 0,-1.0664062 0.5625,-1.7578125 1.417969,-1.7578125 0.65625,0 1.066406,0.3984375 1.066406,1.0195313 v 3.62109371 h 0.832031 V -3.9503359 c 0,-0.8671875 -0.644531,-1.4179688 -1.652344,-1.4179688 -0.773437,0 -1.277343,0.2929688 -1.734375,1.0195313 v -0.8671875 z m 9.767578,-2.0507813 h -0.832031 v 2.7070313 c -0.351563,-0.5273438 -0.902344,-0.8085938 -1.605469,-0.8085938 -1.347656,0 -2.238281,1.078125 -2.238281,2.7421875 0,1.76953126 0.867187,2.85937501 2.273437,2.85937501 0.714844,0 1.21875,-0.26953125 1.664063,-0.92578125 v 0.69140625 h 0.738281 z m -2.296875,2.671875 c 0.902344,0 1.464844,0.796875 1.464844,2.0390625 0,1.2070313 -0.574219,2.00390626 -1.453125,2.00390626 -0.914063,0 -1.523438,-0.80859376 -1.523438,-2.01562496 0,-1.21875 0.609375,-2.0273438 1.511719,-2.0273438 z m 3.829101,6.703125 c 0.996094,-1.30078124 1.628907,-3.1171875 1.628907,-4.6757812 0,-1.5820313 -0.632813,-3.3867188 -1.628907,-4.6992188 h -0.550781 c 0.878906,1.4296875 1.371094,3.1054688 1.371094,4.6992188 0,1.58203121 -0.492188,3.26953121 -1.371094,4.6757812 z m 0,0"
       style="fill:#000000;fill-opacity:1;fill-rule:nonzero;stroke:none"
       aria-label="0(Ground)"
       transform="matrix(1.3333333,0,0,1.3333333,245.40933,257.84133)" />
    <path
       id="path32"
       d="m 150.9261,7.08669 c 0,1.94555 -1.57716,3.52271 -3.52272,3.52271 -1.94557,0 -3.52273,-1.57716 -3.52273,-3.52271 0,-1.94558 1.57716,-3.52273 3.52273,-3.52273 1.94556,0 3.52272,1.57715 3.52272,3.52273 z"
       style="fill:#333333;fill-opacity:1;fill-rule:nonzero;stroke:none"
       transform="matrix(1.3333333,0,0,-1.3333333,43.190667,210.04933)" />
    <path
       id="path33"
       d="m 213.28899,49.6069 c 0,1.94557 -1.57715,3.52272 -3.52272,3.52272 -1.94556,0 -3.52272,-1.57715 -3.52272,-3.52272 0,-1.94555 1.57716,-3.52272 3.52272,-3.52272 1.94557,0 3.52272,1.57717 3.52272,3.52272 z"
       style="fill:#333333;fill-opacity:1;fill-rule:nonzero;stroke:none"
       transform="matrix(1.3333333,0,0,-1.3333333,43.190667,210.04933)" />
    <path
       id="path34"
       d="m 179.2729,83.62299 c 0,1.94557 -1.57714,3.52271 -3.52272,3.52271 -1.94555,0 -3.52272,-1.57714 -3.52272,-3.52271 0,-1.94556 1.57717,-3.52272 3.52272,-3.52272 1.94558,0 3.52272,1.57716 3.52272,3.52272 z"
       style="fill:#333333;fill-opacity:1;fill-rule:nonzero;stroke:none"
       transform="matrix(1.3333333,0,0,-1.3333333,43.190667,210.04933)" />
    <path
       id="path35"
       d="M 173.11842,-18.62827 153.68008,0.80728"
       style="fill:none;stroke:#0000b3;stroke-width:1.19553;stroke-linecap:butt;stroke-linejoin:miter;stroke-miterlimit:10;stroke-dasharray:none;stroke-opacity:1"
       transform="matrix(1.3333333,0,0,-1.3333333,43.190667,210.04933)" />
    <path
       id="path36"
       d="M 6.66628,0 1.93044,1.79556 3.5108,0 1.93044,-1.79556 Z"
       style="fill:#0000b3;fill-opacity:1;fill-rule:nonzero;stroke:#0000b3;stroke-width:1.19553;stroke-linecap:butt;stroke-linejoin:miter;stroke-miterlimit:10;stroke-dasharray:none;stroke-opacity:1"
       transform="matrix(-0.94242667,-0.94313333,-0.94313333,0.94242667,251.12444,212.00224)" />
    <g
       id="g36"
       aria-label="T&#10;1"
       transform="matrix(1.3333333,0,0,1.3333333,244.984,220.70133)">
      <path
         id="path37"
         d="m 2.4612188,-3.2213125 h 1.1835937 l 0.082031,-0.4101563 H 0.86746875 L 0.7854375,-3.2213125 H 1.9924688 L 1.3010625,0.00134375 h 0.46875 z m 0,0"
         style="fill:#0000b3;fill-opacity:1;fill-rule:nonzero;stroke:none" />
      <path
         id="path38"
         d="M 4.3332891,-0.72521875 V 1.7943125 h 0.4335937 v -3.5273438 h -0.28125 c -0.1523437,0.5390625 -0.2578125,0.609375 -0.9375,0.703125 v 0.30468755 z m 0,0"
         style="fill:#0000b3;fill-opacity:1;fill-rule:nonzero;stroke:none" />
    </g>
    <path
       id="path39"
       d="M 207.13445,52.23874 182.0284,77.34479"
       style="fill:none;stroke:#0000b3;stroke-width:1.19553;stroke-linecap:butt;stroke-linejoin:miter;stroke-miterlimit:10;stroke-dasharray:none;stroke-opacity:1"
       transform="matrix(1.3333333,0,0,-1.3333333,43.190667,210.04933)" />
    <path
       id="path40"
       d="M 6.66628,0 1.93044,1.79556 3.5108,0 1.93044,-1.79556 Z"
       style="fill:#0000b3;fill-opacity:1;fill-rule:nonzero;stroke:#0000b3;stroke-width:1.19553;stroke-linecap:butt;stroke-linejoin:miter;stroke-miterlimit:10;stroke-dasharray:none;stroke-opacity:1"
       transform="matrix(-0.9428,-0.9428,-0.9428,0.9428,288.92344,109.9512)" />
    <g
       id="g40"
       aria-label="T&#10;2"
       transform="matrix(1.3333333,0,0,1.3333333,305.42267,122.43467)">
      <path
         id="path41"
         d="m 2.4603437,-3.2234609 h 1.1835938 l 0.082031,-0.4101563 H 0.86659375 L 0.7845625,-3.2234609 H 1.9915937 L 1.3001875,-8.046875e-4 h 0.46875 z m 0,0"
         style="fill:#0000b3;fill-opacity:1;fill-rule:nonzero;stroke:none" />
      <path
         id="path42"
         d="M 5.5628828,1.3585703 H 3.7113203 C 3.7464766,1.0656016 3.9105391,0.88982031 4.3441328,0.63200781 L 4.8363203,0.36247656 c 0.5039063,-0.26953125 0.75,-0.6328125 0.75,-1.06640625 0,-0.29296875 -0.1171875,-0.56250001 -0.328125,-0.76171871 -0.2109375,-0.1875 -0.46875,-0.2695313 -0.796875,-0.2695313 -0.4570312,0 -0.7851562,0.1523438 -0.984375,0.4570313 -0.1171875,0.1875 -0.1757812,0.41015621 -0.1875,0.76171871 h 0.4453125 c 0.011719,-0.234375 0.035156,-0.38671875 0.1054688,-0.49218751 0.1054687,-0.2226562 0.3398437,-0.3515625 0.5976562,-0.3515625 0.3984375,0 0.703125,0.2929688 0.703125,0.66796876 0,0.28125 -0.1640625,0.515625 -0.4804687,0.6914062525 L 4.2035078,0.26872656 C 3.4652266,0.67888281 3.2542891,1.0187266 3.2074141,1.7921641 h 2.3554687 z m 0,0"
         style="fill:#0000b3;fill-opacity:1;fill-rule:nonzero;stroke:none" />
    </g>
    <path
       id="path43"
       d="m 177.36072,-17.90483 28.56364,59.50778"
       style="fill:none;stroke:#b30000;stroke-width:1.19553;stroke-linecap:butt;stroke-linejoin:miter;stroke-miterlimit:10;stroke-dasharray:none;stroke-opacity:1"
       transform="matrix(1.3333333,0,0,-1.3333333,43.190667,210.04933)" />
    <path
       id="path44"
       d="M 6.66628,0 1.93044,1.79556 3.5108,0 1.93044,-1.79556 Z"
       style="fill:#b30000;fill-opacity:1;fill-rule:nonzero;stroke:#b30000;stroke-width:1.19553;stroke-linecap:butt;stroke-linejoin:miter;stroke-miterlimit:10;stroke-dasharray:none;stroke-opacity:1"
       transform="matrix(0.57694667,-1.20196,-1.20196,-0.57694667,315.9034,158.43935)" />
    <g
       id="g44"
       aria-label="T&#10;5"
       transform="matrix(1.3333333,0,0,1.3333333,305.42267,192.36267)">
      <path
         id="path45"
         d="m 2.4603437,-3.2221953 h 1.1835938 l 0.082031,-0.4101563 H 0.86659375 L 0.7845625,-3.2221953 H 1.9915937 L 1.3001875,4.609375e-4 h 0.46875 z m 0,0"
         style="fill:#b30000;fill-opacity:1;fill-rule:nonzero;stroke:none" />
      <path
         id="path46"
         d="M 5.4105391,-1.8276641 H 3.5941328 L 3.3246016,0.09421094 h 0.4101562 c 0.1992188,-0.24609375 0.375,-0.328125 0.6445313,-0.328125 0.46875,0 0.7734375,0.31640625 0.7734375,0.84375 0,0.50390626 -0.2929688,0.82031246 -0.7734375,0.82031246 -0.3867188,0 -0.6210938,-0.1992187 -0.7265625,-0.59765621 H 3.2191328 c 0.058594,0.29296871 0.1054688,0.43359371 0.2109375,0.56250001 0.1992188,0.2695312 0.5625,0.421875 0.9609375,0.421875 0.7148438,0 1.2070313,-0.515625 1.2070313,-1.26562501 0,-0.703125 -0.4570313,-1.171875 -1.1367188,-1.171875 -0.2578125,0 -0.4570312,0.0585938 -0.65625,0.2109375 l 0.140625,-0.98437499 h 1.4648438 z m 0,0"
         style="fill:#b30000;fill-opacity:1;fill-rule:nonzero;stroke:none" />
    </g>
    <path
       id="path47"
       d="m 148.69603,10.57677 23.97069,64.72064"
       style="fill:none;stroke:#b30000;stroke-width:1.19553;stroke-linecap:butt;stroke-linejoin:miter;stroke-miterlimit:10;stroke-dasharray:none;stroke-opacity:1"
       transform="matrix(1.3333333,0,0,-1.3333333,43.190667,210.04933)" />
    <path
       id="path48"
       d="M 6.66628,0 1.93044,1.79556 3.5108,0 1.93044,-1.79556 Z"
       style="fill:#b30000;fill-opacity:1;fill-rule:nonzero;stroke:#b30000;stroke-width:1.19553;stroke-linecap:butt;stroke-linejoin:miter;stroke-miterlimit:10;stroke-dasharray:none;stroke-opacity:1"
       transform="matrix(0.46302667,-1.2502667,-1.2502667,-0.46302667,271.92573,113.66853)" />
    <g
       id="g48"
       aria-label="T&#10;3"
       transform="matrix(1.3333333,0,0,1.3333333,244.984,150.72533)">
      <path
         id="path49"
         d="m 2.4612188,-3.2217344 h 1.1835937 l 0.082031,-0.4101562 H 0.86746875 L 0.7854375,-3.2217344 H 1.9924688 L 1.3010625,9.21875e-4 h 0.46875 z m 0,0"
         style="fill:#b30000;fill-opacity:1;fill-rule:nonzero;stroke:none" />
      <path
         id="path50"
         d="m 4.1457891,0.17670312 h 0.058594 l 0.1757813,-0.0117188 c 0.4921875,0 0.7382812,0.22265625 0.7382812,0.64453125 0,0.44531243 -0.28125,0.71484373 -0.7382812,0.71484373 -0.46875,0 -0.703125,-0.2460937 -0.7382813,-0.76171873 h -0.433594 c 0.011719,0.29296883 0.070312,0.46874993 0.1523437,0.63281243 0.1757813,0.3398438 0.5273438,0.515625 1.0078125,0.515625 0.7265625,0 1.1953125,-0.4335937 1.1953125,-1.10156243 0,-0.4453125 -0.1757812,-0.703125 -0.5976562,-0.84375 0.328125,-0.12890625 0.4921875,-0.375 0.4921875,-0.7265625 0,-0.60937497 -0.3984375,-0.97265617 -1.078125,-0.97265617 -0.703125,0 -1.0898438,0.3867187 -1.1015625,1.13671867 h 0.4335937 c 0.011719,-0.2109375 0.035156,-0.328125 0.082031,-0.44531247 0.1054687,-0.1875 0.3164062,-0.3164063 0.5976562,-0.3164063 0.3867188,0 0.6210938,0.234375 0.6210938,0.60937502 0,0.24609375 -0.09375,0.3984375 -0.28125,0.48046875 -0.1289063,0.046875 -0.28125,0.0703125 -0.5859375,0.0703125 z m 0,0"
         style="fill:#b30000;fill-opacity:1;fill-rule:nonzero;stroke:none" />
    </g>
    <path
       id="path51"
       d="m 150.47842,9.18329 51.95237,35.42216"
       style="fill:none;stroke:#b30000;stroke-width:1.19553;stroke-linecap:butt;stroke-linejoin:miter;stroke-miterlimit:10;stroke-dasharray:none;stroke-opacity:1"
       transform="matrix(1.3333333,0,0,-1.3333333,43.190667,210.04933)" />
    <path
       id="path52"
       d="M 6.66628,0 1.93044,1.79556 3.5108,0 1.93044,-1.79556 Z"
       style="fill:#b30000;fill-opacity:1;fill-rule:nonzero;stroke:#b30000;stroke-width:1.19553;stroke-linecap:butt;stroke-linejoin:miter;stroke-miterlimit:10;stroke-dasharray:none;stroke-opacity:1"
       transform="matrix(1.1015867,-0.75108,-0.75108,-1.1015867,309.56017,152.98783)" />
    <g
       id="g52"
       aria-label="T&#10;4"
       transform="matrix(1.3333333,0,0,1.3333333,277.09333,164.63867)">
      <path
         id="path53"
         d="M 2.46125,-3.2241172 H 3.6448437 L 3.726875,-3.6342734 H 0.8675 L 0.7854687,-3.2241172 H 1.9925 l -0.6914063,3.22265626 h 0.46875 z m 0,0"
         style="fill:#b30000;fill-opacity:1;fill-rule:nonzero;stroke:none" />
      <path
         id="path54"
         d="m 4.6731641,0.9506875 v 0.84375 h 0.4335937 v -0.84375 H 5.6341016 V 0.55225 H 5.1067578 V -1.7329063 H 4.7903516 L 3.1848828,0.4819375 v 0.46875 z m 0,-0.3984375 H 3.5716016 l 1.1015625,-1.546875 z m 0,0"
         style="fill:#b30000;fill-opacity:1;fill-rule:nonzero;stroke:none" />
    </g>
    <path
       id="path55"
       d="m 2.5901875,-3.7856406 c 0.5859375,0 0.703125,0.011719 0.984375,0.082031 0.5625,0.1523438 0.9257812,0.6445313 0.9257812,1.265625 0,0.7382813 -0.5273437,1.2773438 -1.265625,1.2773438 -0.7851562,0 -1.21875,-0.4570313 -1.265625,-1.3242188 H 0.35190625 c 0.0117188,1.69921877 1.11328125,2.75390627 2.84765625,2.75390627 1.8046875,0 2.9648437,-1.0546875 2.9648437,-2.70703127 0,-0.9960937 -0.421875,-1.640625 -1.3828125,-2.109375 0.7851563,-0.4804687 1.1132813,-1.0195312 1.1132813,-1.8046875 0,-1.40625 -1.0546875,-2.296875 -2.6953125,-2.296875 -0.9609375,0 -1.78125,0.328125 -2.25,0.9492188 -0.33984375,0.421875 -0.4921875,0.9960937 -0.4921875,1.7460937 v 0.140625 H 2.00425 c 0.011719,-0.4453125 0.046875,-0.6796875 0.140625,-0.890625 0.1523437,-0.375 0.5273437,-0.5976562 1.0195312,-0.5976562 0.6679688,0 1.0546875,0.3984375 1.0546875,1.1132812 0,0.84375 -0.4921875,1.2773438 -1.4765625,1.2773438 H 2.5901875 Z m 6.6123047,2.0390625 H 7.4095234 v 1.746093725 h 1.7929688 z m 12.1347658,-4.3125 c 0,-0.796875 -0.175781,-1.3242188 -0.609375,-1.8046875 -0.585938,-0.6445313 -1.546875,-0.9960938 -2.8125,-0.9960938 -2.085938,0 -3.292969,0.984375 -3.292969,2.6835938 0,1.3476562 0.679688,2.0039062 2.449219,2.34375 l 1.21875,0.234375 c 1.195312,0.2226562 1.640625,0.5625 1.640625,1.265625 0,0.7265625 -0.667969,1.171875 -1.757813,1.171875 -1.21875,0 -1.898437,-0.515625 -1.957031,-1.4414063 H 14.47007 c 0.105469,1.86328127 1.382813,2.87109377 3.609375,2.87109377 2.238282,0 3.574219,-1.04296875 3.574219,-2.81249997 0,-1.3828125 -0.691406,-2.0976563 -2.308594,-2.4023438 l -1.359375,-0.2695312 c -1.289062,-0.2460938 -1.652343,-0.5039063 -1.652343,-1.1367188 0,-0.65625 0.585937,-1.0664062 1.5,-1.0664062 1.136718,0 1.769531,0.46875 1.828125,1.359375 z m 4.318359,-0.5039063 c -1.96875,0 -3.175781,1.3007813 -3.175781,3.421875 0,2.1210938 1.207031,3.41015627 3.1875,3.41015627 1.957031,0 3.1875,-1.30078127 3.1875,-3.36328127 0,-2.1914062 -1.183594,-3.46875 -3.199219,-3.46875 z m 0.01172,1.3476563 c 0.925781,0 1.523437,0.8320312 1.523437,2.0976562 0,1.2070313 -0.621093,2.0390625 -1.523437,2.0390625 -0.902344,0 -1.511719,-0.8320312 -1.511719,-2.0625 0,-1.2304687 0.609375,-2.0742187 1.511719,-2.0742187 z m 6.166992,-3.5039063 h -1.675781 v 8.718750025 h 1.675781 z m 5.036133,8.718750025 2.226562,-6.457031225 h -1.769531 l -1.300781,4.7226562 -1.40625,-4.7226562 H 32.85093 l 2.261718,6.457031225 z m 8.71875,-2.707031225 c 0.02344,-0.140625 0.02344,-0.1992188 0.02344,-0.28125 0,-0.6445313 -0.105468,-1.2421875 -0.257812,-1.6992188 -0.433594,-1.171875 -1.464844,-1.875 -2.777344,-1.875 -1.851562,0 -2.988281,1.3359375 -2.988281,3.5039063 0,2.06249997 1.125,3.32812497 2.953125,3.32812497 1.453125,0 2.625,-0.8203125 2.988281,-2.08593747 h -1.640625 c -0.210937,0.515625 -0.667969,0.8085937 -1.289062,0.8085937 -0.46875,0 -0.855469,-0.1992187 -1.089844,-0.5625 -0.164063,-0.234375 -0.222656,-0.5273437 -0.246094,-1.1367187 z M 41.28843,-3.8090781 c 0.105468,-0.984375 0.527343,-1.4765625 1.265625,-1.4765625 0.421875,0 0.808593,0.1992187 1.042968,0.5390625 0.152344,0.234375 0.234375,0.4921875 0.269532,0.9375 z m 9.530273,3.808593725 h 1.675781 V -8.7192344 h -1.675781 v 3.1054688 c -0.421875,-0.6445313 -0.984375,-0.9492188 -1.78125,-0.9492188 -1.535156,0 -2.707031,1.4765625 -2.707031,3.4335938 0,0.8671875 0.257812,1.7578125 0.691406,2.37890622 0.433594,0.62109375 1.230469,1.01953125 2.015625,1.01953125 0.796875,0 1.359375,-0.29296875 1.78125,-0.92578125 z M 49.412453,-5.1684531 c 0.84375,0 1.40625,0.8320312 1.40625,2.0625 0,1.171875 -0.574219,1.9804687 -1.40625,1.9804687 -0.84375,0 -1.417969,-0.8203125 -1.417969,-2.0039062 0,-1.1953125 0.574219,-2.0390625 1.417969,-2.0390625 z m 9.949219,-3.5507813 h -1.792969 v 8.718750025 h 5.964844 V -1.5004844 h -4.171875 z m 10.807617,6.0117188 c 0.02344,-0.140625 0.02344,-0.1992188 0.02344,-0.28125 0,-0.6445313 -0.105469,-1.2421875 -0.257813,-1.6992188 -0.433594,-1.171875 -1.464844,-1.875 -2.777344,-1.875 -1.851562,0 -2.988281,1.3359375 -2.988281,3.5039063 0,2.06249997 1.125,3.32812497 2.953125,3.32812497 1.453125,0 2.625,-0.8203125 2.988281,-2.08593747 H 68.47007 c -0.210937,0.515625 -0.667968,0.8085937 -1.289062,0.8085937 -0.46875,0 -0.855469,-0.1992187 -1.089844,-0.5625 -0.164062,-0.234375 -0.222656,-0.5273437 -0.246094,-1.1367187 z m -4.300781,-1.1015625 c 0.105469,-0.984375 0.527344,-1.4765625 1.265625,-1.4765625 0.421875,0 0.808594,0.1992187 1.042969,0.5390625 0.152343,0.234375 0.234375,0.4921875 0.269531,0.9375 z M 74.56382,-4.84375e-4 76.790383,-6.4575156 h -1.769531 l -1.300782,4.7226562 -1.40625,-4.7226562 h -1.769531 l 2.261719,6.457031225 z M 83.2855,-2.7075156 c 0.02344,-0.140625 0.02344,-0.1992188 0.02344,-0.28125 0,-0.6445313 -0.105468,-1.2421875 -0.257812,-1.6992188 -0.433594,-1.171875 -1.464844,-1.875 -2.777344,-1.875 -1.851562,0 -2.988281,1.3359375 -2.988281,3.5039063 0,2.06249997 1.125,3.32812497 2.953125,3.32812497 1.453125,0 2.625,-0.8203125 2.988281,-2.08593747 h -1.640625 c -0.210937,0.515625 -0.667969,0.8085937 -1.289062,0.8085937 -0.46875,0 -0.855469,-0.1992187 -1.089844,-0.5625 -0.164063,-0.234375 -0.222656,-0.5273437 -0.246094,-1.1367187 z m -4.300781,-1.1015625 c 0.105468,-0.984375 0.527343,-1.4765625 1.265625,-1.4765625 0.421875,0 0.808593,0.1992187 1.042968,0.5390625 0.152344,0.234375 0.234375,0.4921875 0.269532,0.9375 z m 7.163086,-4.9101563 h -1.675782 v 8.718750025 h 1.675782 z m 6.884765,4.3476563 c -0.02344,-1.3710938 -1.078125,-2.1914063 -2.8125,-2.1914063 -1.628906,0 -2.648437,0.8203125 -2.648437,2.15625 0,0.421875 0.128906,0.796875 0.363281,1.0429688 0.222656,0.234375 0.421875,0.3398437 1.042969,0.5390625 l 2.003906,0.6210937 c 0.410156,0.140625 0.5625,0.2695313 0.5625,0.5273438 0,0.3984375 -0.46875,0.6328125 -1.242187,0.6328125 -0.433594,0 -0.785157,-0.082031 -0.996094,-0.2226563 -0.175781,-0.1289062 -0.257813,-0.2695312 -0.328125,-0.609375 h -1.628906 c 0.04687,1.40625002 1.078125,2.14453127 3.046875,2.14453127 0.890625,0 1.570312,-0.1875 2.050781,-0.57421875 0.480469,-0.375 0.761719,-0.97265622 0.761719,-1.60546872 0,-0.84375 -0.410157,-1.3828125 -1.265625,-1.6289063 l -2.109375,-0.609375 c -0.46875,-0.140625 -0.585938,-0.234375 -0.585938,-0.5039062 0,-0.3515625 0.375,-0.5976563 0.960938,-0.5976563 0.808593,0 1.195312,0.2929688 1.207031,0.8789063 z M 25.002297,5.2290078 c -1.371094,2.0742188 -1.945313,3.7265625 -1.945313,5.5546872 0,1.839844 0.574219,3.492188 1.945313,5.554688 h 1.195312 c -1.265625,-2.460938 -1.675781,-3.796875 -1.675781,-5.554688 0,-1.7460934 0.410156,-3.1171872 1.675781,-5.5546872 z M 33.88218,13.947758 35.710305,7.4907266 H 33.97593 L 33.003273,12.014164 32.030617,7.4907266 H 30.354836 L 29.38218,12.014164 28.35093,7.4907266 h -1.734375 l 1.816406,6.4570314 h 1.722656 l 1.03125,-4.5585939 0.960938,4.5585939 z M 38.344094,5.4165078 35.883156,14.11182 h 0.796875 L 39.152687,5.4165078 Z M 48.97593,13.947758 V 7.4907266 h -1.675782 v 4.0429684 c 0,0.761719 -0.539062,1.265625 -1.347656,1.265625 -0.714844,0 -1.078125,-0.386718 -1.078125,-1.160156 V 7.4907266 h -1.675781 v 4.5000004 c 0,1.417968 0.785156,2.226562 2.167969,2.226562 0.867187,0 1.453125,-0.316406 1.933593,-1.03125 v 0.761719 z m 1.584961,-6.4570314 v 6.4570314 h 1.675781 V 10.08057 c 0,-0.7734372 0.539062,-1.2773434 1.347656,-1.2773434 0.726563,0 1.078125,0.3984375 1.078125,1.1601562 v 3.9843752 h 1.675781 V 9.6235391 c 0,-1.4296875 -0.785156,-2.2382813 -2.167968,-2.2382813 -0.867188,0 -1.453125,0.328125 -1.933594,1.0429688 v -0.9375 z M 63.348977,9.9047891 C 63.231789,8.3344766 62.177102,7.3852578 60.571633,7.3852578 c -1.921875,0 -3.046875,1.265625 -3.046875,3.4687502 0,2.121094 1.113281,3.363281 3.023437,3.363281 1.558594,0 2.648438,-0.960937 2.800782,-2.507812 h -1.59375 c -0.222657,0.84375 -0.550782,1.160156 -1.195313,1.160156 -0.855469,0 -1.371094,-0.761719 -1.371094,-2.015625 0,-0.609375 0.128907,-1.1835939 0.328125,-1.5703127 0.1875,-0.3515625 0.5625,-0.5507812 1.042969,-0.5507812 0.679688,0 0.996094,0.328125 1.195313,1.171875 z m 2.967773,2.2968749 h -1.792969 v 1.746094 h 1.792969 z m 2.223633,4.136719 c 1.382812,-2.0625 1.957031,-3.714844 1.957031,-5.542969 0,-1.8398437 -0.574219,-3.4921874 -1.957031,-5.5664062 H 67.34507 c 1.277344,2.4726563 1.675782,3.8085938 1.675782,5.5664062 0,1.746094 -0.398438,3.105469 -1.675782,5.542969 z m 0,0"
       style="fill:#000000;fill-opacity:1;fill-rule:nonzero;stroke:none"
       aria-label="3.SolvedLevels&#10;(w/unc.)"
       transform="matrix(1.3333333,0,0,1.3333333,453.20267,42.805333)" />
    <path
       id="path56"
       d="m 318.90173,-21.2601 h 56.69362"
       style="fill:none;stroke:#333333;stroke-width:1.59404;stroke-linecap:round;stroke-linejoin:miter;stroke-miterlimit:10;stroke-dasharray:none;stroke-opacity:1"
       transform="matrix(1.3333333,0,0,-1.3333333,43.190667,210.04933)" />
    <g
       id="g56"
       aria-label="E=0.00"
       transform="matrix(1.3333333,0,0,1.3333333,549.468,242.14667)">
      <path
         id="path57"
         d="M 2.0279063,-2.6471094 H 5.18025 l 0.140625,-0.65625 H 2.1685313 l 0.3984375,-1.8515625 h 3.28125 l 0.140625,-0.65625 h -4.03125 L 0.71540625,0.00132812 H 4.8872813 l 0.1289062,-0.65625 H 1.6060313 Z m 0,0"
         style="fill:#333333;fill-opacity:1;fill-rule:nonzero;stroke:none" />
      <path
         id="path58"
         d="M 12.67732,-2.8111719 H 8.8218516 v 0.5625 H 12.67732 Z m 0,1.3710938 H 8.8218516 v 0.56249997 H 12.67732 Z m 4.945313,-4.2070313 c -0.527344,0 -1.007813,0.234375 -1.300781,0.6210938 -0.363282,0.4921875 -0.550782,1.2539062 -0.550782,2.296875 0,1.89843747 0.644532,2.91796872 1.851563,2.91796872 1.195312,0 1.851562,-1.01953125 1.851562,-2.87109372 0,-1.1015625 -0.175781,-1.8398438 -0.550781,-2.34375 -0.292969,-0.3984375 -0.761719,-0.6210938 -1.300781,-0.6210938 z m 0,0.6210938 c 0.761719,0 1.136719,0.7617187 1.136719,2.2734375 0,1.6054687 -0.375,2.35546872 -1.148438,2.35546872 -0.75,0 -1.125,-0.78515622 -1.125,-2.33203122 0,-1.5351563 0.375,-2.296875 1.136719,-2.296875 z m 3.761719,4.19531247 H 20.55232 v 0.83203125 h 0.832032 z m 2.882812,-4.81640627 c -0.527344,0 -1.007812,0.234375 -1.300781,0.6210938 -0.363281,0.4921875 -0.550781,1.2539062 -0.550781,2.296875 0,1.89843747 0.644531,2.91796872 1.851562,2.91796872 1.195313,0 1.851563,-1.01953125 1.851563,-2.87109372 0,-1.1015625 -0.175782,-1.8398438 -0.550782,-2.34375 -0.292968,-0.3984375 -0.761718,-0.6210938 -1.300781,-0.6210938 z m 0,0.6210938 c 0.761719,0 1.136719,0.7617187 1.136719,2.2734375 0,1.6054687 -0.375,2.35546872 -1.148438,2.35546872 -0.75,0 -1.125,-0.78515622 -1.125,-2.33203122 0,-1.5351563 0.375,-2.296875 1.136719,-2.296875 z m 4.432617,-0.6210938 c -0.527344,0 -1.007812,0.234375 -1.300781,0.6210938 -0.363281,0.4921875 -0.550781,1.2539062 -0.550781,2.296875 0,1.89843747 0.644531,2.91796872 1.851562,2.91796872 1.195313,0 1.851563,-1.01953125 1.851563,-2.87109372 0,-1.1015625 -0.175782,-1.8398438 -0.550782,-2.34375 -0.292968,-0.3984375 -0.761718,-0.6210938 -1.300781,-0.6210938 z m 0,0.6210938 c 0.761719,0 1.136719,0.7617187 1.136719,2.2734375 0,1.6054687 -0.375,2.35546872 -1.148438,2.35546872 -0.75,0 -1.125,-0.78515622 -1.125,-2.33203122 0,-1.5351563 0.375,-2.296875 1.136719,-2.296875 z m 0,0"
         style="fill:#333333;fill-opacity:1;fill-rule:nonzero;stroke:none" />
    </g>
    <path
       id="path59"
       d="m 318.90173,21.2601 h 56.69362"
       style="fill:none;stroke:#333333;stroke-width:1.59404;stroke-linecap:round;stroke-linejoin:miter;stroke-miterlimit:10;stroke-dasharray:none;stroke-opacity:1"
       transform="matrix(1.3333333,0,0,-1.3333333,43.190667,210.04933)" />
    <g
       id="g59"
       aria-label="E=105.4"
       transform="matrix(1.3333333,0,0,1.3333333,549.468,185.45467)">
      <path
         id="path60"
         d="M 2.0279063,-2.6495938 H 5.18025 l 0.140625,-0.65625 H 2.1685313 l 0.3984375,-1.8515625 h 3.28125 l 0.140625,-0.65625 h -4.03125 L 0.71540625,-0.00115625 H 4.8872813 l 0.1289062,-0.65625 H 1.6060313 Z m 0,0"
         style="fill:#333333;fill-opacity:1;fill-rule:nonzero;stroke:none" />
      <path
         id="path61"
         d="M 12.67732,-2.8136563 H 8.8218516 v 0.5625 H 12.67732 Z m 0,1.3710938 H 8.8218516 v 0.5625 H 12.67732 Z m 4.816407,-2.578125 v 4.01953125 h 0.703125 V -5.6495938 H 17.73982 c -0.257812,0.8671875 -0.410156,0.984375 -1.5,1.125 v 0.5039063 z m 4.558593,-1.6289063 c -0.527343,0 -1.007812,0.234375 -1.300781,0.6210938 -0.363281,0.4921875 -0.550781,1.2539062 -0.550781,2.296875 0,1.8984375 0.644531,2.91796875 1.851562,2.91796875 1.195313,0 1.851563,-1.01953125 1.851563,-2.87109375 0,-1.1015625 -0.175781,-1.8398438 -0.550781,-2.34375 -0.292969,-0.3984375 -0.761719,-0.6210938 -1.300782,-0.6210938 z m 0,0.6210938 c 0.761719,0 1.136719,0.7617187 1.136719,2.2734375 0,1.6054687 -0.375,2.35546875 -1.148437,2.35546875 -0.75,0 -1.125,-0.78515625 -1.125,-2.33203125 0,-1.5351563 0.375,-2.296875 1.136718,-2.296875 z m 6.038086,-0.6210938 h -2.917969 l -0.421875,3.0703125 h 0.644532 C 25.723219,-2.966 25.99275,-3.106625 26.426344,-3.106625 c 0.761718,0 1.242187,0.5273437 1.242187,1.359375 0,0.80859375 -0.46875,1.3125 -1.242187,1.3125 -0.609375,0 -0.984375,-0.31640625 -1.148438,-0.9492188 h -0.703125 c 0.09375,0.4570313 0.175781,0.67968755 0.339844,0.89062505 0.316406,0.43359375 0.890625,0.6796875 1.535156,0.6796875 1.136719,0 1.933594,-0.83203125 1.933594,-2.02734375 0,-1.1132813 -0.738281,-1.8867188 -1.828125,-1.8867188 -0.398438,0 -0.714844,0.1054688 -1.042969,0.3515625 l 0.222656,-1.5820312 h 2.355469 z m 2.15625,4.8164063 h -0.832031 v 0.83203125 h 0.832031 z m 3.295899,-0.5273438 v 1.35937505 H 34.24568 V -1.3605313 h 0.84375 V -1.981625 h -0.84375 v -3.6679688 h -0.515625 l -2.566407,3.5507813 v 0.7382812 z m 0,-0.6210937 h -1.769532 l 1.769532,-2.4726563 z m 0,0"
         style="fill:#333333;fill-opacity:1;fill-rule:nonzero;stroke:none" />
    </g>
    <path
       id="path62"
       d="m 318.90173,29.76422 h 56.69362"
       style="fill:none;stroke:#333333;stroke-width:1.59404;stroke-linecap:round;stroke-linejoin:miter;stroke-miterlimit:10;stroke-dasharray:none;stroke-opacity:1"
       transform="matrix(1.3333333,0,0,-1.3333333,43.190667,210.04933)" />
    <g
       id="g62"
       aria-label="E=180.7"
       transform="matrix(1.3333333,0,0,1.3333333,549.468,174.116)">
      <path
         id="path63"
         d="M 2.0279063,-2.6475469 H 5.18025 l 0.140625,-0.65625 H 2.1685313 l 0.3984375,-1.8515625 h 3.28125 l 0.140625,-0.65625 h -4.03125 L 0.71540625,8.90625e-4 H 4.8872813 L 5.0161875,-0.65535938 H 1.6060313 Z m 0,0"
         style="fill:#333333;fill-opacity:1;fill-rule:nonzero;stroke:none" />
      <path
         id="path64"
         d="M 12.67732,-2.8116094 H 8.8218516 v 0.5625 H 12.67732 Z m 0,1.3710938 H 8.8218516 v 0.56249997 H 12.67732 Z m 4.816407,-2.578125 V 8.90625e-4 h 0.703125 V -5.6475469 H 17.73982 c -0.257812,0.8671875 -0.410156,0.984375 -1.5,1.125 v 0.5039063 z m 5.484375,1.0429687 c 0.585937,-0.3515625 0.773437,-0.6328125 0.773437,-1.171875 0,-0.8789062 -0.691406,-1.5 -1.699219,-1.5 -0.996093,0 -1.699218,0.6210938 -1.699218,1.5 0,0.5273438 0.1875,0.8203125 0.761718,1.171875 -0.644531,0.3164063 -0.960937,0.7851563 -0.960937,1.40625 0,1.03125002 0.785156,1.75781252 1.898437,1.75781252 1.113282,0 1.898438,-0.7265625 1.898438,-1.74609372 0,-0.6328125 -0.316406,-1.1015625 -0.972656,-1.4179688 z M 22.05232,-5.0264531 c 0.597657,0 0.984375,0.3515625 0.984375,0.9023437 0,0.5273438 -0.398437,0.8789063 -0.984375,0.8789063 -0.585937,0 -0.984375,-0.3515625 -0.984375,-0.890625 0,-0.5390625 0.398438,-0.890625 0.984375,-0.890625 z m 0,2.3671875 c 0.703125,0 1.183594,0.4453125 1.183594,1.1015625 0,0.67968747 -0.480469,1.12499997 -1.195312,1.12499997 -0.691407,0 -1.171875,-0.45703125 -1.171875,-1.12499997 0,-0.65625 0.480468,-1.1015625 1.183593,-1.1015625 z m 4.432617,-2.9882813 c -0.527343,0 -1.007812,0.234375 -1.300781,0.6210938 -0.363281,0.4921875 -0.550781,1.2539062 -0.550781,2.296875 0,1.89843747 0.644531,2.91796872 1.851562,2.91796872 1.195313,0 1.851563,-1.01953125 1.851563,-2.87109372 0,-1.1015625 -0.175781,-1.8398438 -0.550781,-2.34375 C 27.49275,-5.4248906 27.024,-5.6475469 26.484937,-5.6475469 Z m 0,0.6210938 c 0.761719,0 1.136719,0.7617187 1.136719,2.2734375 0,1.6054687 -0.375,2.35546872 -1.148437,2.35546872 -0.75,0 -1.125,-0.78515622 -1.125,-2.33203122 0,-1.5351563 0.375,-2.296875 1.136718,-2.296875 z m 3.761719,4.19531247 H 29.414625 V 8.90625e-4 h 0.832031 z M 35.08943,-5.6475469 h -3.785157 v 0.6914063 h 3.058594 c -1.347656,1.921875 -1.898437,3.1054687 -2.320312,4.957031225 h 0.75 C 33.097242,-1.8037969 33.812086,-3.3623906 35.08943,-5.0616094 Z m 0,0"
         style="fill:#333333;fill-opacity:1;fill-rule:nonzero;stroke:none" />
    </g>
    <path
       id="path65"
       d="m 318.90173,49.6069 h 56.69362"
       style="fill:none;stroke:#333333;stroke-width:1.59404;stroke-linecap:round;stroke-linejoin:miter;stroke-miterlimit:10;stroke-dasharray:none;stroke-opacity:1"
       transform="matrix(1.3333333,0,0,-1.3333333,43.190667,210.04933)" />
    <g
       id="g65"
       aria-label="E=250.2"
       transform="matrix(1.3333333,0,0,1.3333333,549.468,147.65867)">
      <path
         id="path66"
         d="M 2.0279063,-2.6473203 H 5.18025 l 0.140625,-0.65625 H 2.1685313 l 0.3984375,-1.8515625 h 3.28125 l 0.140625,-0.65625 h -4.03125 L 0.71540625,0.00111719 H 4.8872813 l 0.1289062,-0.65625 H 1.6060313 Z m 0,0"
         style="fill:#333333;fill-opacity:1;fill-rule:nonzero;stroke:none" />
      <path
         id="path67"
         d="M 12.67732,-2.8113828 H 8.8218516 v 0.5625 H 12.67732 Z m 0,1.3710937 H 8.8218516 v 0.56250004 H 12.67732 Z m 6.785157,0.75000004 h -2.976563 c 0.08203,-0.46875004 0.328125,-0.76171874 1.019531,-1.16015624 l 0.796875,-0.4335938 c 0.796875,-0.4335937 1.195313,-1.0195312 1.195313,-1.7109375 0,-0.46875 -0.1875,-0.9023437 -0.515625,-1.2070312 -0.339844,-0.3046875 -0.75,-0.4453125 -1.289063,-0.4453125 -0.714843,0 -1.253906,0.2578125 -1.558593,0.7265625 -0.199219,0.3046875 -0.292969,0.65625 -0.304688,1.2304687 h 0.703125 c 0.02344,-0.375 0.07031,-0.609375 0.164063,-0.796875 0.1875,-0.3398437 0.550781,-0.5507812 0.972656,-0.5507812 0.632812,0 1.113281,0.4570312 1.113281,1.0664062 0,0.4453125 -0.257812,0.8203125 -0.761719,1.1132813 l -0.738281,0.4101562 c -1.171875,0.6679688 -1.511719,1.2070313 -1.582031,2.44921879 h 3.761719 z M 23.657789,-5.6473203 H 20.73982 l -0.421875,3.0703125 h 0.644532 c 0.328125,-0.3867188 0.597656,-0.5273438 1.03125,-0.5273438 0.761718,0 1.242187,0.5273438 1.242187,1.359375 0,0.80859379 -0.46875,1.31250004 -1.242187,1.31250004 -0.609375,0 -0.984375,-0.31640625 -1.148438,-0.94921874 h -0.703125 c 0.09375,0.45703124 0.175781,0.67968749 0.339844,0.89062499 0.316406,0.43359375 0.890625,0.6796875 1.535156,0.6796875 1.136719,0 1.933594,-0.83203125 1.933594,-2.02734379 0,-1.1132812 -0.738281,-1.8867187 -1.828125,-1.8867187 -0.398438,0 -0.714844,0.1054687 -1.042969,0.3515625 l 0.222656,-1.5820313 h 2.355469 z m 2.827148,0 c -0.527343,0 -1.007812,0.234375 -1.300781,0.6210937 -0.363281,0.4921875 -0.550781,1.2539063 -0.550781,2.296875 0,1.89843754 0.644531,2.91796879 1.851562,2.91796879 1.195313,0 1.851563,-1.01953125 1.851563,-2.87109379 0,-1.1015625 -0.175781,-1.8398437 -0.550781,-2.34375 C 27.49275,-5.4246641 27.024,-5.6473203 26.484937,-5.6473203 Z m 0,0.6210937 c 0.761719,0 1.136719,0.7617188 1.136719,2.2734375 0,1.6054688 -0.375,2.35546879 -1.148437,2.35546879 -0.75,0 -1.125,-0.78515629 -1.125,-2.33203129 0,-1.5351562 0.375,-2.296875 1.136718,-2.296875 z m 3.761719,4.19531254 h -0.832031 v 0.83203125 h 0.832031 z m 4.725586,0.140625 H 31.99568 c 0.08203,-0.46875004 0.328125,-0.76171874 1.019531,-1.16015624 l 0.796875,-0.4335938 c 0.796875,-0.4335937 1.195312,-1.0195312 1.195312,-1.7109375 0,-0.46875 -0.1875,-0.9023437 -0.515625,-1.2070312 -0.339843,-0.3046875 -0.75,-0.4453125 -1.289062,-0.4453125 -0.714844,0 -1.253906,0.2578125 -1.558594,0.7265625 -0.199219,0.3046875 -0.292969,0.65625 -0.304687,1.2304687 h 0.703125 c 0.02344,-0.375 0.07031,-0.609375 0.164062,-0.796875 0.1875,-0.3398437 0.550781,-0.5507812 0.972656,-0.5507812 0.632813,0 1.113282,0.4570312 1.113282,1.0664062 0,0.4453125 -0.257813,0.8203125 -0.761719,1.1132813 l -0.738281,0.4101562 c -1.171875,0.6679688 -1.511719,1.2070313 -1.582032,2.44921879 h 3.761719 z m 0,0"
         style="fill:#333333;fill-opacity:1;fill-rule:nonzero;stroke:none" />
    </g>
    <path
       id="path68"
       d="m 318.90173,83.62299 h 56.69362"
       style="fill:none;stroke:#333333;stroke-width:1.59404;stroke-linecap:round;stroke-linejoin:miter;stroke-miterlimit:10;stroke-dasharray:none;stroke-opacity:1"
       transform="matrix(1.3333333,0,0,-1.3333333,43.190667,210.04933)" />
    <g
       id="g68"
       aria-label="E=310.9"
       transform="matrix(1.3333333,0,0,1.3333333,549.468,102.30533)">
      <path
         id="path69"
         d="M 2.0279063,-2.6489219 H 5.18025 l 0.140625,-0.65625 H 2.1685313 l 0.3984375,-1.8515625 h 3.28125 l 0.140625,-0.65625 h -4.03125 L 0.71540625,-4.84375e-4 H 4.8872813 L 5.0161875,-0.65673438 H 1.6060313 Z m 0,0"
         style="fill:#333333;fill-opacity:1;fill-rule:nonzero;stroke:none" />
      <path
         id="path70"
         d="M 12.67732,-2.8129844 H 8.8218516 v 0.5625 H 12.67732 Z m 0,1.3710938 H 8.8218516 v 0.56249997 H 12.67732 Z m 4.511719,-1.1484375 h 0.09375 l 0.292969,-0.011719 c 0.773437,0 1.171875,0.3515625 1.171875,1.03125 0,0.71484377 -0.445313,1.13671877 -1.171875,1.13671877 -0.761719,0 -1.136719,-0.38671875 -1.183594,-1.20703127 h -0.703125 c 0.02344,0.4570313 0.105469,0.75000002 0.246094,1.00781252 0.28125,0.5390625 0.84375,0.8203125 1.617187,0.8203125 1.160157,0 1.910157,-0.703125 1.910157,-1.76953122 0,-0.7148438 -0.28125,-1.1132813 -0.960938,-1.3476563 0.527344,-0.1992187 0.796875,-0.5976562 0.796875,-1.171875 0,-0.9609375 -0.644531,-1.546875 -1.722656,-1.546875 -1.136719,0 -1.746094,0.6210938 -1.769531,1.828125 h 0.703125 c 0,-0.3515625 0.03516,-0.5390625 0.128906,-0.7148437 0.152344,-0.3046875 0.503906,-0.5039063 0.949219,-0.5039063 0.621093,0 0.996093,0.375 0.996093,0.9726563 0,0.3984375 -0.152343,0.6328125 -0.457031,0.7617187 -0.1875,0.082031 -0.445312,0.1054688 -0.9375,0.1171875 z m 4.734375,-1.4296875 v 4.019531225 h 0.703125 V -5.6489219 h -0.457031 c -0.257813,0.8671875 -0.410156,0.984375 -1.5,1.125 v 0.5039063 z m 4.561523,-1.6289063 c -0.527343,0 -1.007812,0.234375 -1.300781,0.6210938 -0.363281,0.4921875 -0.550781,1.2539062 -0.550781,2.296875 0,1.89843747 0.644531,2.91796872 1.851562,2.91796872 1.195313,0 1.851563,-1.01953125 1.851563,-2.87109372 0,-1.1015625 -0.175781,-1.8398438 -0.550781,-2.34375 C 27.49275,-5.4262656 27.024,-5.6489219 26.484937,-5.6489219 Z m 0,0.6210938 c 0.761719,0 1.136719,0.7617187 1.136719,2.2734375 0,1.6054687 -0.375,2.35546872 -1.148437,2.35546872 -0.75,0 -1.125,-0.78515622 -1.125,-2.33203122 0,-1.5351563 0.375,-2.296875 1.136718,-2.296875 z m 3.761719,4.19531247 h -0.832031 v 0.832031255 h 0.832031 z m 1.116211,-0.45703127 c 0.140625,0.92578127 0.738281,1.47656252 1.605469,1.47656252 0.621094,0 1.183594,-0.3046875 1.511719,-0.80859375 0.363281,-0.55078127 0.515625,-1.24218747 0.515625,-2.27343747 0,-0.9492188 -0.140625,-1.546875 -0.480469,-2.0507813 -0.304688,-0.4570312 -0.796875,-0.703125 -1.417969,-0.703125 -1.078125,0 -1.851562,0.796875 -1.851562,1.8984375 0,1.0546875 0.714843,1.7929688 1.734375,1.7929688 0.539062,0 0.925781,-0.1875 1.289062,-0.6210938 0,1.3710938 -0.457031,2.14453127 -1.253906,2.14453127 -0.492188,0 -0.84375,-0.31640625 -0.949219,-0.85546877 z m 1.722656,-3.75 c 0.65625,0 1.148438,0.5390625 1.148438,1.2773438 0,0.6914062 -0.492188,1.1835937 -1.171875,1.1835937 -0.679688,0 -1.101563,-0.46875 -1.101563,-1.21875 0,-0.7265625 0.480469,-1.2421875 1.125,-1.2421875 z m 0,0"
         style="fill:#333333;fill-opacity:1;fill-rule:nonzero;stroke:none" />
    </g>
    <path
       id="path71"
       d="M 296.22421,-28.3468 V 96.1499"
       style="fill:none;stroke:#808080;stroke-width:0.3985;stroke-linecap:butt;stroke-linejoin:miter;stroke-miterlimit:10;stroke-dasharray:none;stroke-opacity:1"
       transform="matrix(1.3333333,0,0,-1.3333333,43.190667,210.04933)" />
    <path
       id="path72"
       d="M 4.21463,0 0.64343,1.34572 1.8178,0 0.64343,-1.34572 Z"
       style="fill:#808080;fill-opacity:1;fill-rule:nonzero;stroke:#808080;stroke-width:0.3985;stroke-linecap:butt;stroke-linejoin:miter;stroke-miterlimit:10;stroke-dasharray:none;stroke-opacity:1"
       transform="matrix(0,-1.3333333,-1.3333333,0,438.15628,84.140373)" />
    <path
       id="path73"
       d="M 3.7736406,-1.7457813 4.3712969,3.125e-4 h 0.8320312 l -2.0390625,-5.8125 H 2.2033281 l -2.06249998,5.8125 H 0.92598437 L 1.5353594,-1.7457813 Z M 3.5744219,-2.366875 H 1.7228594 L 2.6720781,-5.0153125 Z M 5.74825,-5.8121875 v 5.8125 H 6.3459062 V -0.53875 c 0.3164063,0.4921875 0.7382813,0.7265625 1.3242188,0.7265625 1.0898437,0 1.8164062,-0.90234375 1.8164062,-2.296875 0,-1.3476563 -0.6914062,-2.1914063 -1.7929687,-2.1914063 -0.5742188,0 -0.9726563,0.2226563 -1.2890625,0.6914063 v -2.203125 z m 1.8164062,2.1445312 c 0.75,0 1.21875,0.6445313 1.21875,1.640625 0,0.9492188 -0.4921875,1.59375005 -1.21875,1.59375005 -0.6914062,0 -1.1601562,-0.64453125 -1.1601562,-1.61718755 0,-0.984375 0.46875,-1.6171875 1.1601562,-1.6171875 z m 5.6748048,0.65625 c -0.01172,-0.8203125 -0.550781,-1.2890625 -1.511719,-1.2890625 -0.972656,0 -1.605469,0.5039063 -1.605469,1.2773438 0,0.65625 0.339844,0.9726562 1.324219,1.2070312 l 0.621094,0.1523438 c 0.457031,0.1054687 0.644531,0.28125 0.644531,0.5859375 0,0.38671875 -0.386719,0.64453125 -0.972656,0.64453125 -0.363281,0 -0.65625,-0.10546875 -0.832031,-0.28125 -0.105469,-0.1171875 -0.152344,-0.234375 -0.1875,-0.52734375 h -0.703125 c 0.03516,0.9609375 0.574218,1.4296875 1.664062,1.4296875 1.054688,0 1.722656,-0.52734375 1.722656,-1.3242188 0,-0.6210937 -0.351562,-0.9726562 -1.183593,-1.171875 l -0.632813,-0.140625 c -0.539062,-0.1289062 -0.773437,-0.3046875 -0.773437,-0.5976562 0,-0.3867188 0.339843,-0.6328125 0.890625,-0.6328125 0.527343,0 0.820312,0.234375 0.832031,0.6679687 z m 2.660156,-1.2890625 c -1.171875,0 -1.886719,0.84375 -1.886719,2.25 0,1.3945313 0.703125,2.2382813 1.898438,2.2382813 1.171875,0 1.886719,-0.84375 1.886719,-2.2148438 0,-1.4414062 -0.691407,-2.2734375 -1.898438,-2.2734375 z m 0.01172,0.6210938 c 0.75,0 1.195312,0.609375 1.195312,1.6523437 0,0.9726563 -0.46875,1.59375005 -1.195312,1.59375005 -0.75,0 -1.195313,-0.60937505 -1.195313,-1.61718755 0,-1.0078125 0.445313,-1.6289062 1.195313,-1.6289062 z m 3.459961,-2.1328125 h -0.667969 v 5.8125 h 0.667969 z m 4.40625,5.8125 v -4.171875 h -0.667969 v 2.3671875 c 0,0.84375 -0.445312,1.40625 -1.136719,1.40625 -0.527343,0 -0.855468,-0.31640625 -0.855468,-0.8203125 v -2.953125 h -0.667969 v 3.2109375 c 0,0.703125 0.515625,1.1484375 1.335937,1.1484375 0.609375,0 0.996094,-0.22265625 1.394532,-0.7734375 V 3.125e-4 Z m 2.613281,-4.171875 H 25.699422 V -5.32 h -0.65625 v 1.1484375 h -0.5625 V -3.6325 h 0.5625 v 3.15234375 c 0,0.421875 0.28125,0.66796875 0.796875,0.66796875 0.164062,0 0.328125,-0.0234375 0.550781,-0.0585938 v -0.5625 c -0.09375,0.0234375 -0.199219,0.0351563 -0.316406,0.0351563 -0.292969,0 -0.375,-0.0820313 -0.375,-0.375 V -3.6325 h 0.691406 z m 4.280274,2.3085937 c 0,-0.6445312 -0.04687,-1.0195312 -0.164063,-1.3359375 -0.28125,-0.6796875 -0.914062,-1.1015625 -1.699219,-1.1015625 -1.160156,0 -1.910156,0.9023438 -1.910156,2.2734375 0,1.3710938 0.726563,2.2148438 1.898438,2.2148438 0.960937,0 1.617187,-0.55078125 1.78125,-1.453125 h -0.667969 c -0.175781,0.55078125 -0.550781,0.83203125 -1.089844,0.83203125 -0.421875,0 -0.785156,-0.1875 -1.007812,-0.5390625 C 27.659383,-1.2067188 27.600789,-1.4528125 27.58907,-1.8629688 Z m -3.058594,-0.5390625 c 0.04687,-0.7734375 0.527344,-1.2773437 1.195312,-1.2773437 0.644532,0 1.148438,0.5390625 1.148438,1.2304687 0,0.011719 0,0.023437 0,0.046875 z m 7.069336,-0.2460937 h 3.164062 v -0.65625 h -3.164062 v -1.8515625 h 3.292968 v -0.65625 h -4.03125 v 5.8125 h 4.171875 v -0.65625 h -3.433593 z m 4.423828,-1.5234375 v 4.171875 h 0.667969 v -2.3085938 c 0,-0.84375 0.445312,-1.40625 1.125,-1.40625 0.527343,0 0.867187,0.3164063 0.867187,0.8203125 V 3.125e-4 h 0.65625 v -3.1523438 c 0,-0.6914062 -0.515625,-1.1484375 -1.324219,-1.1484375 -0.621093,0 -1.019531,0.2460938 -1.382812,0.8320313 v -0.703125 z m 7.959961,2.3085937 c 0,-0.6445312 -0.04687,-1.0195312 -0.164063,-1.3359375 -0.28125,-0.6796875 -0.914062,-1.1015625 -1.699218,-1.1015625 -1.160157,0 -1.910157,0.9023438 -1.910157,2.2734375 0,1.3710938 0.726563,2.2148438 1.898438,2.2148438 0.960937,0 1.617187,-0.55078125 1.78125,-1.453125 h -0.667969 c -0.175781,0.55078125 -0.550781,0.83203125 -1.089844,0.83203125 -0.421875,0 -0.785156,-0.1875 -1.007812,-0.5390625 C 44.053914,-1.2067188 43.99532,-1.4528125 43.983602,-1.8629688 Z M 44.00704,-2.4020313 c 0.04687,-0.7734375 0.527344,-1.2773437 1.195313,-1.2773437 0.644531,0 1.148437,0.5390625 1.148437,1.2304687 0,0.011719 0,0.023437 0,0.046875 z m 3.949219,-1.7695312 v 4.171875 h 0.667969 v -2.1679688 c 0,-0.5976562 0.152343,-0.984375 0.46875,-1.21875 0.210937,-0.1523437 0.410156,-0.1992187 0.867187,-0.2109375 v -0.6679687 c -0.105469,-0.023437 -0.164062,-0.035156 -0.246094,-0.035156 -0.433593,0 -0.761718,0.2578125 -1.148437,0.8789063 v -0.75 z m 5.384765,0 v 0.5976562 c -0.328125,-0.4921875 -0.738281,-0.7265625 -1.277343,-0.7265625 -1.054688,0 -1.769532,0.9257813 -1.769532,2.2851563 0,0.6796875 0.175782,1.2421875 0.527344,1.640625 0.304688,0.3515625 0.75,0.5625 1.195313,0.5625 0.515625,0 0.890625,-0.22265625 1.265625,-0.75 V -0.35125 c 0,0.5625 -0.07031,0.9140625 -0.246094,1.13671875 -0.175781,0.24609375 -0.515625,0.39843745 -0.925781,0.39843745 -0.292969,0 -0.574219,-0.082031 -0.75,-0.2226562 C 51.208211,0.83234375 51.137898,0.726875 51.102742,0.48078125 h -0.679687 c 0.07031,0.78515625 0.691406,1.25390625 1.664062,1.25390625 0.621094,0 1.160156,-0.1992188 1.429688,-0.5273438 0.316406,-0.3867187 0.445312,-0.91406245 0.445312,-1.8867187 v -3.4921875 z m -1.207031,0.4921875 c 0.726563,0 1.148438,0.609375 1.148438,1.6523437 0,0.9960938 -0.433594,1.59375005 -1.136719,1.59375005 -0.726563,0 -1.160156,-0.60937505 -1.160156,-1.61718755 0,-1.0078125 0.445312,-1.6289062 1.148437,-1.6289062 z m 5.452149,-0.4921875 -1.160157,3.24609375 -1.066406,-3.24609375 H 54.656453 L 56.062703,0.01203125 55.804891,0.68 c -0.105469,0.29296875 -0.257813,0.3984375 -0.527344,0.3984375 -0.105469,0 -0.210938,-0.011719 -0.351563,-0.046875 v 0.5976562 c 0.128907,0.082031 0.269532,0.1054688 0.445313,0.1054688 0.210937,0 0.445312,-0.070312 0.621094,-0.1992188 0.210937,-0.1523437 0.328125,-0.328125 0.457031,-0.65624995 l 1.851562,-5.05078125 z m 0,0"
       style="fill:#808080;fill-opacity:1;fill-rule:nonzero;stroke:none"
       aria-label="AbsoluteEnergy"
       transform="matrix(0,-1.3333333,1.3333333,0,431.09333,201.78933)" />
    <path
       id="path74"
       d="m 98.478,47.42337 18.11189,0.03643"
       style="fill:none;stroke:#a6a6a6;stroke-width:1.59404;stroke-linecap:butt;stroke-linejoin:miter;stroke-miterlimit:10;stroke-dasharray:none;stroke-opacity:1"
       transform="matrix(1.3333333,0,0,-1.3333333,43.190667,210.04933)" />
    <path
       id="path75"
       d="M 7.89215,0 2.57367,2.02063 4.3573,0 2.57367,-2.02063 Z"
       style="fill:#a6a6a6;fill-opacity:1;fill-rule:nonzero;stroke:#a6a6a6;stroke-width:1.59404;stroke-linecap:butt;stroke-linejoin:miter;stroke-miterlimit:10;stroke-dasharray:none;stroke-opacity:1"
       transform="matrix(1.3332933,-0.00266667,-0.00266667,-1.3332933,193.36561,146.78017)" />
    <path
       id="path76"
       d="m 242.88081,47.49164 17.62496,0.03396"
       style="fill:none;stroke:#a6a6a6;stroke-width:1.59404;stroke-linecap:butt;stroke-linejoin:miter;stroke-miterlimit:10;stroke-dasharray:none;stroke-opacity:1"
       transform="matrix(1.3333333,0,0,-1.3333333,43.190667,210.04933)" />
    <path
       id="path77"
       d="M 7.89215,0 2.57367,2.02063 4.3573,0 2.57367,-2.02063 Z"
       style="fill:#a6a6a6;fill-opacity:1;fill-rule:nonzero;stroke:#a6a6a6;stroke-width:1.59404;stroke-linecap:butt;stroke-linejoin:miter;stroke-miterlimit:10;stroke-dasharray:none;stroke-opacity:1"
       transform="matrix(1.3332933,-0.00252,-0.00252,-1.3332933,385.25343,146.69183)" />
  </g>
</svg>
