<?xml version="1.0" encoding="UTF-8" standalone="no"?>
<!-- Created with Inkscape (http://www.inkscape.org/) -->

<svg
   version="1.1"
   id="svg1"
   width="226.17999"
   height="289.12668"
   viewBox="0 0 226.17999 289.12668"
   sodipodi:docname="iso_CO2.pdf"
   xmlns:inkscape="http://www.inkscape.org/namespaces/inkscape"
   xmlns:sodipodi="http://sodipodi.sourceforge.net/DTD/sodipodi-0.dtd"
   xmlns="http://www.w3.org/2000/svg"
   xmlns:svg="http://www.w3.org/2000/svg">
  <defs
     id="defs1" />
  <sodipodi:namedview
     id="namedview1"
     pagecolor="#ffffff"
     bordercolor="#000000"
     borderopacity="0.25"
     inkscape:showpageshadow="2"
     inkscape:pageopacity="0.0"
     inkscape:pagecheckerboard="0"
     inkscape:deskcolor="#d1d1d1">
    <inkscape:page
       x="0"
       y="0"
       inkscape:label="1"
       id="page1"
       width="226.17999"
       height="289.12668"
       margin="0"
       bleed="0" />
  </sodipodi:namedview>
  <g
     id="g1"
     inkscape:groupmode="layer"
     inkscape:label="1">
    <path
       id="path1"
       d="m 18.42546,0 c 0,10.17622 -8.24924,18.42546 -18.42546,18.42546 -10.17622,0 -18.42546,-8.24924 -18.42546,-18.42546 0,-10.17622 8.24924,-18.42546 18.42546,-18.42546 10.17622,0 18.42546,8.24924 18.42546,18.42546 z"
       style="fill:#b30000;fill-opacity:1;fill-rule:nonzero;stroke:#000000;stroke-width:0.79701;stroke-linecap:butt;stroke-linejoin:miter;stroke-miterlimit:10;stroke-dasharray:none;stroke-opacity:1"
       transform="matrix(1.3333333,0,0,-1.3333333,43.996,100.56667)" />
    <g
       id="g2"
       aria-label="16&#10;O"
       transform="matrix(1.3333333,0,0,1.3333333,33.092,101.15333)">
      <path
         id="path2"
         d="m 2.3333438,-4.4304297 c 0,-0.1875 -0.011719,-0.1992187 -0.2109375,-0.1992187 -0.4453125,0.4335937 -1.078125,0.4453125 -1.35937505,0.4453125 v 0.2460937 c 0.1640625,0 0.62109375,0 1.00781255,-0.1875 v 3.55078126 c 0,0.234375 0,0.328125 -0.6914063,0.328125 H 0.80990625 V -7.421875e-4 C 0.9388125,-0.01246094 1.7942813,-0.02417969 2.0520938,-0.02417969 c 0.2109375,0 1.0898437,0.01171875 1.2421875,0.0234375025 V -0.24683594 H 3.0364688 c -0.703125,0 -0.703125,-0.09375 -0.703125,-0.328125 z m 2.680664,2.1445313 c 0,-0.5625 0.046875,-1.078125 0.3164063,-1.5117188 0.234375,-0.375 0.609375,-0.6328125 1.0546875,-0.6328125 0.2109375,0 0.4921875,0.058594 0.6328125,0.2460938 -0.1757813,0.011719 -0.3164063,0.1289062 -0.3164063,0.3398437 0,0.1640625 0.1171875,0.328125 0.328125,0.328125 0.1992188,0 0.328125,-0.140625 0.328125,-0.3515625 0,-0.3984375 -0.2929687,-0.7617187 -0.984375,-0.7617187 -0.9960937,0 -2.0273437,0.9140625 -2.0273437,2.4140625 0,1.80468746 0.8554687,2.35546871 1.6171875,2.35546871 0.8554687,0 1.59375,-0.64453125 1.59375,-1.55859371 0,-0.890625 -0.703125,-1.546875 -1.5234375,-1.546875 -0.5507813,0 -0.8671875,0.375 -1.0195313,0.6796875 z m 0.9492188,2.20312496 c -0.3515625,0 -0.6210938,-0.19921875 -0.7617188,-0.515625 C 5.0960391,-0.79761719 5.0374453,-1.1491797 5.0374453,-1.5710547 c 0,-0.6796875 0.4101563,-1.1953125 0.9609375,-1.1953125 0.328125,0 0.5390625,0.1171875 0.7148438,0.3867188 0.1640625,0.2578125 0.1757812,0.5507812 0.1757812,0.9609375 0,0.3984375 0,0.69140621 -0.1875,0.96093746 -0.1757812,0.24609375 -0.3984375,0.375 -0.7382812,0.375 z m 0,0"
         style="fill:#ffffff;fill-opacity:1;fill-rule:nonzero;stroke:none" />
      <path
         id="path3"
         d="m 15.730805,0.20433594 c 0,-2.00390624 -0.726563,-3.72656254 -3.339844,-3.72656254 -2.7539063,0 -3.3398438,1.9101563 -3.3398438,3.72656254 0,1.86328126 0.6445312,3.63281246 3.3398438,3.63281246 2.566406,0 3.339844,-1.5820312 3.339844,-3.63281246 z M 12.390961,3.0402734 c -1.875,0 -1.875,-2.08593746 -1.875,-2.98828121 0,-0.87890625 0,-2.78906249 1.875,-2.78906249 1.875,0 1.875,1.88671874 1.875,2.78906249 0,0.87890625 0,2.98828121 -1.875,2.98828121 z m 0,0"
         style="fill:#ffffff;fill-opacity:1;fill-rule:nonzero;stroke:none" />
    </g>
    <path
       id="path4"
       d="m 70.2468,0 c 0,10.17622 -8.24923,18.42546 -18.42547,18.42546 C 41.6451,18.42546 33.39586,10.17622 33.39586,0 c 0,-10.17622 8.24924,-18.42546 18.42547,-18.42546 10.17624,0 18.42547,8.24924 18.42547,18.42546 z"
       style="fill:#595959;fill-opacity:1;fill-rule:nonzero;stroke:#000000;stroke-width:0.79701;stroke-linecap:butt;stroke-linejoin:miter;stroke-miterlimit:10;stroke-dasharray:none;stroke-opacity:1"
       transform="matrix(1.3333333,0,0,-1.3333333,43.996,100.56667)" />
    <g
       id="g4"
       aria-label="12&#10;C"
       transform="matrix(1.3333333,0,0,1.3333333,102.796,101.15333)">
      <path
         id="path5"
         d="m 2.3326875,-4.4304297 c 0,-0.1875 -0.011719,-0.1992187 -0.2109375,-0.1992187 -0.4453125,0.4335937 -1.078125,0.4453125 -1.359375,0.4453125 v 0.2460937 c 0.1640625,0 0.6210938,0 1.0078125,-0.1875 v 3.55078126 c 0,0.234375 0,0.328125 -0.6914062,0.328125 H 0.80925 V -7.421875e-4 C 0.93815625,-0.01246094 1.793625,-0.02417969 2.0514375,-0.02417969 c 0.2109375,0 1.0898438,0.01171875 1.2421875,0.0234375025 V -0.24683594 H 3.0358125 c -0.703125,0 -0.703125,-0.09375 -0.703125,-0.328125 z m 5.1533203,3.1640625 h -0.234375 c -0.023437,0.1523438 -0.082031,0.56250001 -0.1757812,0.63281251 -0.058594,0.0351563 -0.5976563,0.0351563 -0.6914063,0.0351563 H 5.0953828 c 0.7382813,-0.64453131 0.984375,-0.84375001 1.3945313,-1.17187501 0.515625,-0.4101563 0.9960937,-0.84375 0.9960937,-1.5 0,-0.8437499 -0.7382812,-1.3593749 -1.6289062,-1.3593749 -0.8671875,0 -1.453125,0.609375 -1.453125,1.2421874 0,0.3632812 0.3046875,0.3984375 0.375,0.3984375 0.1640625,0 0.375,-0.1171875 0.375,-0.375 0,-0.1289063 -0.058594,-0.3632813 -0.421875,-0.3632813 0.2226562,-0.5039061 0.6914062,-0.65625 1.0195312,-0.65625 0.703125,0 1.0664063,0.5507813 1.0664063,1.1132813 0,0.609375 -0.4335938,1.0898437 -0.65625,1.3359375 l -1.6875,1.66406251 c -0.070312,0.0585937 -0.070312,0.0703125 -0.070312,0.2695312525 h 2.8828125 z m 0,0"
         style="fill:#ffffff;fill-opacity:1;fill-rule:nonzero;stroke:none" />
      <path
         id="path6"
         d="m 14.816086,2.1848047 c 0,-0.070312 -0.07031,-0.1171875 -0.105469,-0.1171875 -0.246094,0 -0.527344,0.6445312 -1.933594,0.6445312 -1.757812,0 -2.25,-1.0664062 -2.25,-2.56640621 0,-1.47656249 0.539063,-2.55468749 2.167969,-2.55468749 0.890625,0 1.359375,0.3398437 1.628906,0.5625 0.05859,0.046875 0.08203,0.09375 0.152344,0.09375 0.04687,0 0.09375,-0.046875 0.105469,-0.09375 l 0.199219,-1.1015625 c 0,-0.046875 0,-0.082031 -0.08203,-0.1171875 -0.585937,-0.2109375 -1.195312,-0.3515625 -1.96875,-0.3515625 -2.4375,0 -3.6796871,1.1835937 -3.6796871,3.55078124 0,2.44921876 1.2656251,3.58593746 3.6796871,3.58593746 0.855469,0 1.382813,-0.1289062 2.109375,-0.5742187 0.08203,-0.046875 0.05859,-0.1171875 0.05859,-0.1171875 z m 0,0"
         style="fill:#ffffff;fill-opacity:1;fill-rule:nonzero;stroke:none" />
    </g>
    <path
       id="path7"
       d="m 122.06815,0 c 0,10.17622 -8.24924,18.42546 -18.42548,18.42546 -10.17624,0 -18.42546,-8.24924 -18.42546,-18.42546 0,-10.17622 8.24922,-18.42546 18.42546,-18.42546 10.17624,0 18.42548,8.24924 18.42548,18.42546 z"
       style="fill:#b30000;fill-opacity:1;fill-rule:nonzero;stroke:#000000;stroke-width:0.79701;stroke-linecap:butt;stroke-linejoin:miter;stroke-miterlimit:10;stroke-dasharray:none;stroke-opacity:1"
       transform="matrix(1.3333333,0,0,-1.3333333,43.996,100.56667)" />
    <g
       id="g7"
       aria-label="16&#10;O"
       transform="matrix(1.3333333,0,0,1.3333333,171.28133,101.15333)">
      <path
         id="path8"
         d="m 2.3319687,-4.4304297 c 0,-0.1875 -0.011719,-0.1992187 -0.2109375,-0.1992187 -0.4453125,0.4335937 -1.078125,0.4453125 -1.35937495,0.4453125 v 0.2460937 c 0.1640625,0 0.62109375,0 1.00781245,-0.1875 v 3.55078126 c 0,0.234375 0,0.328125 -0.6914062,0.328125 H 0.80853125 V -7.421875e-4 C 0.9374375,-0.01246094 1.7929062,-0.02417969 2.0507187,-0.02417969 c 0.2109375,0 1.0898438,0.01171875 1.2421875,0.0234375025 V -0.24683594 H 3.0350937 c -0.703125,0 -0.703125,-0.09375 -0.703125,-0.328125 z m 2.6835938,2.1445313 c 0,-0.5625 0.046875,-1.078125 0.3164062,-1.5117188 0.234375,-0.375 0.609375,-0.6328125 1.0546875,-0.6328125 0.2109375,0 0.4921875,0.058594 0.6328125,0.2460938 -0.1757812,0.011719 -0.3164062,0.1289062 -0.3164062,0.3398437 0,0.1640625 0.1171875,0.328125 0.328125,0.328125 0.1992187,0 0.328125,-0.140625 0.328125,-0.3515625 0,-0.3984375 -0.2929688,-0.7617187 -0.984375,-0.7617187 -0.9960938,0 -2.0273438,0.9140625 -2.0273438,2.4140625 0,1.80468746 0.8554688,2.35546871 1.6171875,2.35546871 0.8554688,0 1.59375,-0.64453125 1.59375,-1.55859371 0,-0.890625 -0.703125,-1.546875 -1.5234375,-1.546875 -0.5507812,0 -0.8671875,0.375 -1.0195312,0.6796875 z m 0.9492187,2.20312496 c -0.3515625,0 -0.6210937,-0.19921875 -0.7617187,-0.515625 C 5.0975937,-0.79761719 5.039,-1.1491797 5.039,-1.5710547 c 0,-0.6796875 0.4101562,-1.1953125 0.9609375,-1.1953125 0.328125,0 0.5390625,0.1171875 0.7148437,0.3867188 0.1640625,0.2578125 0.1757813,0.5507812 0.1757813,0.9609375 0,0.3984375 0,0.69140621 -0.1875,0.96093746 -0.1757813,0.24609375 -0.3984375,0.375 -0.7382813,0.375 z m 0,0"
         style="fill:#ffffff;fill-opacity:1;fill-rule:nonzero;stroke:none" />
      <path
         id="path9"
         d="m 15.72943,0.20433594 c 0,-2.00390624 -0.726563,-3.72656254 -3.339844,-3.72656254 -2.7539063,0 -3.3398438,1.9101563 -3.3398438,3.72656254 0,1.86328126 0.6445312,3.63281246 3.3398438,3.63281246 2.566406,0 3.339844,-1.5820312 3.339844,-3.63281246 z M 12.389586,3.0402734 c -1.875,0 -1.875,-2.08593746 -1.875,-2.98828121 0,-0.87890625 0,-2.78906249 1.875,-2.78906249 1.875,0 1.875,1.88671874 1.875,2.78906249 0,0.87890625 0,2.98828121 -1.875,2.98828121 z m 0,0"
         style="fill:#ffffff;fill-opacity:1;fill-rule:nonzero;stroke:none" />
    </g>
    <path
       id="path10"
       d="m 18.82396,0 h 14.1734"
       style="fill:none;stroke:#a6a6a6;stroke-width:4.98138;stroke-linecap:butt;stroke-linejoin:miter;stroke-miterlimit:10;stroke-dasharray:none;stroke-opacity:1"
       transform="matrix(1.3333333,0,0,-1.3333333,43.996,100.56667)" />
    <path
       id="path11"
       d="m 18.82396,0 h 14.1734"
       style="fill:none;stroke:#ffffff;stroke-width:1.99255;stroke-linecap:butt;stroke-linejoin:miter;stroke-miterlimit:10;stroke-dasharray:none;stroke-opacity:1"
       transform="matrix(1.3333333,0,0,-1.3333333,43.996,100.56667)" />
    <path
       id="path12"
       d="M 70.64531,0 H 84.8187"
       style="fill:none;stroke:#a6a6a6;stroke-width:4.98138;stroke-linecap:butt;stroke-linejoin:miter;stroke-miterlimit:10;stroke-dasharray:none;stroke-opacity:1"
       transform="matrix(1.3333333,0,0,-1.3333333,43.996,100.56667)" />
    <path
       id="path13"
       d="M 70.64531,0 H 84.8187"
       style="fill:none;stroke:#ffffff;stroke-width:1.99255;stroke-linecap:butt;stroke-linejoin:miter;stroke-miterlimit:10;stroke-dasharray:none;stroke-opacity:1"
       transform="matrix(1.3333333,0,0,-1.3333333,43.996,100.56667)" />
    <path
       id="path14"
       d="M 59.21872,43.40845 H 44.42395 c -1.10048,0 -1.99255,-0.89208 -1.99255,-1.99255 v -6.22674 c 0,-1.10046 0.89207,-1.99255 1.99255,-1.99255 h 14.79477 c 1.10048,0 1.99255,0.89209 1.99255,1.99255 v 6.22674 c 0,1.10047 -0.89207,1.99255 -1.99255,1.99255 z"
       style="fill:#e6e6ff;fill-opacity:1;fill-rule:nonzero;stroke:#0000b3;stroke-width:0.3985;stroke-linecap:butt;stroke-linejoin:miter;stroke-miterlimit:10;stroke-dasharray:none;stroke-opacity:1"
       transform="matrix(1.3333333,0,0,-1.3333333,43.996,100.56667)" />
    <path
       id="path15"
       d="m 3.8671094,-5.9889531 c 0,-0.2109375 0,-0.2226563 -0.3046875,-0.3398438 -0.234375,-0.09375 -0.4804688,-0.09375 -0.5625,-0.09375 -2.58984377,0 -2.58984377,2.5898438 -2.58984377,3.375 0,0.9257813 0,3.24609377 2.08593747,3.24609377 0.6914063,0 1.125,-0.17578125 1.4882813,-0.5859375 0.46875,-0.515625 0.5273437,-1.03124997 0.5273437,-1.73437497 0,-0.5039063 0,-2.1679688 -1.7460937,-2.1679688 -0.4921875,0 -0.8554688,0.2695313 -1.1015625,0.796875 0.046875,-0.8085937 0.058594,-1.0078125 0.1875,-1.3710937 0.2695312,-0.6796875 0.8554687,-0.7617188 1.171875,-0.7617188 0.1640625,0 0.3867187,0.035156 0.609375,0.1523438 0.058594,0.035156 0.082031,0.058594 0.1289062,0.058594 0.1054688,0 0.1054688,-0.1054687 0.1054688,-0.2460937 z m -1.3710938,5.34374997 c -0.7148437,0 -0.8085937,-0.80859377 -0.8085937,-1.58203127 0,-0.7382812 0.2109375,-1.4179687 0.84375,-1.4179687 0.7265625,0 0.7265625,0.6328125 0.7265625,1.5234375 0,0.8789062 0,1.47656247 -0.7617188,1.47656247 z m 3.0205078,-0.1171875 c -0.09375,0.09375 -0.09375,0.10546875 -0.09375,0.2578125 v 0.0703125 c 0,0.328125 0.09375,0.433593755 0.4335938,0.433593755 h 3.0703125 c 0.3398437,0 0.4335937,-0.117187505 0.4335937,-0.433593755 v -0.10546875 c 0,-0.140625 0,-0.31640625 -0.1875,-0.3984375 -0.070312,-0.0351563 -0.3515625,-0.0351563 -0.5273437,-0.0351563 -0.1992188,0 -0.4101563,0.0117188 -0.609375,0.0117188 H 6.5829297 L 7.7665234,-2.0748906 c 0.1289063,-0.1171875 0.46875,-0.3984375 0.609375,-0.5273438 0.4921875,-0.4804687 0.984375,-0.9609375 0.984375,-1.7578125 0,-1.0898437 -0.7851562,-2.0625 -2.109375,-2.0625 -0.3164062,0 -0.8203125,0.046875 -1.2539062,0.3984375 -0.082031,0.058594 -0.4921875,0.3867188 -0.65625,0.984375 l 0.4453125,0.5742188 c 0.058594,0.070312 0.082031,0.1054687 0.1523437,0.1054687 0.082031,0 0.09375,-0.058594 0.1171875,-0.1640625 0.1875,-0.6210937 0.4921875,-0.9960937 1.0664063,-0.9960937 0.6914062,0 0.984375,0.6328125 0.984375,1.1835937 0,0.5742188 -0.3398438,1.171875 -0.8789063,1.7460938 z M 13.731367,-5.9889531 c 0,-0.2109375 0,-0.2226563 -0.304687,-0.3398438 -0.234375,-0.09375 -0.480469,-0.09375 -0.5625,-0.09375 -2.589844,0 -2.589844,2.5898438 -2.589844,3.375 0,0.9257813 0,3.24609377 2.085937,3.24609377 0.691407,0 1.125,-0.17578125 1.488282,-0.5859375 0.46875,-0.515625 0.527343,-1.03124997 0.527343,-1.73437497 0,-0.5039063 0,-2.1679688 -1.746093,-2.1679688 -0.492188,0 -0.855469,0.2695313 -1.101563,0.796875 0.04687,-0.8085937 0.05859,-1.0078125 0.1875,-1.3710937 0.269531,-0.6796875 0.855469,-0.7617188 1.171875,-0.7617188 0.164063,0 0.386719,0.035156 0.609375,0.1523438 0.05859,0.035156 0.08203,0.058594 0.128906,0.058594 0.105469,0 0.105469,-0.1054687 0.105469,-0.2460937 z m -1.371094,5.34374997 c -0.714843,0 -0.808593,-0.80859377 -0.808593,-1.58203127 0,-0.7382812 0.210937,-1.4179687 0.84375,-1.4179687 0.726562,0 0.726562,0.6328125 0.726562,1.5234375 0,0.8789062 0,1.47656247 -0.761719,1.47656247 z m 0,0"
       style="fill:#000000;fill-opacity:1;fill-rule:nonzero;stroke:none"
       aria-label="626"
       transform="matrix(1.3333333,0,0,1.3333333,103.22667,53.649333)" />
    <path
       id="path16"
       d="M 43.31721,32.99736 0,18.82396"
       style="fill:none;stroke:#999999;stroke-width:0.3985;stroke-linecap:butt;stroke-linejoin:miter;stroke-miterlimit:10;stroke-dasharray:2.98883, 2.98883;stroke-dashoffset:0;stroke-opacity:1"
       transform="matrix(1.3333333,0,0,-1.3333333,43.996,100.56667)" />
    <path
       id="path17"
       d="M 51.82133,32.99736 V 18.82396"
       style="fill:none;stroke:#999999;stroke-width:0.3985;stroke-linecap:butt;stroke-linejoin:miter;stroke-miterlimit:10;stroke-dasharray:2.98883, 2.98883;stroke-dashoffset:0;stroke-opacity:1"
       transform="matrix(1.3333333,0,0,-1.3333333,43.996,100.56667)" />
    <path
       id="path18"
       d="m 60.32545,32.99736 43.31722,-14.1734"
       style="fill:none;stroke:#999999;stroke-width:0.3985;stroke-linecap:butt;stroke-linejoin:miter;stroke-miterlimit:10;stroke-dasharray:2.98883, 2.98883;stroke-dashoffset:0;stroke-opacity:1"
       transform="matrix(1.3333333,0,0,-1.3333333,43.996,100.56667)" />
    <path
       id="path19"
       d="m 18.42546,-65.99475 c 0,10.17624 -8.24924,18.42548 -18.42546,18.42548 -10.17622,0 -18.42546,-8.24924 -18.42546,-18.42548 0,-10.17622 8.24924,-18.42546 18.42546,-18.42546 10.17622,0 18.42546,8.24924 18.42546,18.42546 z"
       style="fill:#b35900;fill-opacity:1;fill-rule:nonzero;stroke:#000000;stroke-width:0.79701;stroke-linecap:butt;stroke-linejoin:miter;stroke-miterlimit:10;stroke-dasharray:none;stroke-opacity:1"
       transform="matrix(1.3333333,0,0,-1.3333333,43.996,100.56667)" />
    <g
       id="g19"
       aria-label="17&#10;O"
       transform="matrix(1.3333333,0,0,1.3333333,33.092,189.14533)">
      <path
         id="path20"
         d="m 2.3333438,-4.4302891 c 0,-0.1875 -0.011719,-0.1992187 -0.2109375,-0.1992187 -0.4453125,0.4335937 -1.078125,0.4453125 -1.35937505,0.4453125 v 0.2460937 c 0.1640625,0 0.62109375,0 1.00781255,-0.1875 v 3.55078129 c 0,0.234375 0,0.328125 -0.6914063,0.328125 H 0.80990625 V -6.015625e-4 C 0.9388125,-0.01232031 1.7942813,-0.02403906 2.0520938,-0.02403906 c 0.2109375,0 1.0898437,0.01171875 1.2421875,0.0234374975 V -0.24669531 H 3.0364688 c -0.703125,0 -0.703125,-0.09375 -0.703125,-0.328125 z m 5.3642578,0.2226563 c 0.070312,-0.09375 0.070312,-0.1054688 0.070312,-0.28125 h -1.828125 c -0.2695313,0 -0.3515625,-0.011719 -0.5976563,-0.035156 -0.3632812,-0.023437 -0.3867187,-0.070312 -0.3984375,-0.1875 H 4.6976016 l -0.234375,1.4882813 h 0.234375 c 0.011719,-0.1054688 0.082031,-0.5625 0.1992187,-0.6328125 0.046875,-0.046875 0.609375,-0.046875 0.7148438,-0.046875 h 1.5234375 c -0.2226563,0.2929687 -0.5742188,0.7265625 -0.7265625,0.9257812 -0.9140625,1.1953125 -0.9960938,2.30859379 -0.9960938,2.71875004 0,0.0820313 0,0.3984375 0.328125,0.3984375 0.3398438,0 0.3398438,-0.31640625 0.3398438,-0.41015625 v -0.26953125 c 0,-1.35937504 0.2695312,-1.98046874 0.5742187,-2.35546874 z m 0,0"
         style="fill:#ffffff;fill-opacity:1;fill-rule:nonzero;stroke:none" />
      <path
         id="path21"
         d="m 15.730805,0.20447656 c 0,-2.00390626 -0.726563,-3.72656246 -3.339844,-3.72656246 -2.7539063,0 -3.3398438,1.9101562 -3.3398438,3.72656246 0,1.86328124 0.6445312,3.63281254 3.3398438,3.63281254 2.566406,0 3.339844,-1.5820313 3.339844,-3.63281254 z M 12.390961,3.0404141 c -1.875,0 -1.875,-2.08593754 -1.875,-2.98828129 0,-0.87890625 0,-2.78906251 1.875,-2.78906251 1.875,0 1.875,1.88671876 1.875,2.78906251 0,0.87890625 0,2.98828129 -1.875,2.98828129 z m 0,0"
         style="fill:#ffffff;fill-opacity:1;fill-rule:nonzero;stroke:none" />
    </g>
    <path
       id="path22"
       d="m 70.2468,-65.99475 c 0,10.17624 -8.24923,18.42548 -18.42547,18.42548 -10.17623,0 -18.42547,-8.24924 -18.42547,-18.42548 0,-10.17622 8.24924,-18.42546 18.42547,-18.42546 10.17624,0 18.42547,8.24924 18.42547,18.42546 z"
       style="fill:#404040;fill-opacity:1;fill-rule:nonzero;stroke:#000000;stroke-width:0.79701;stroke-linecap:butt;stroke-linejoin:miter;stroke-miterlimit:10;stroke-dasharray:none;stroke-opacity:1"
       transform="matrix(1.3333333,0,0,-1.3333333,43.996,100.56667)" />
    <g
       id="g22"
       aria-label="13&#10;C"
       transform="matrix(1.3333333,0,0,1.3333333,102.796,189.14533)">
      <path
         id="path23"
         d="m 2.3326875,-4.4302891 c 0,-0.1875 -0.011719,-0.1992187 -0.2109375,-0.1992187 -0.4453125,0.4335937 -1.078125,0.4453125 -1.359375,0.4453125 v 0.2460937 c 0.1640625,0 0.6210938,0 1.0078125,-0.1875 v 3.55078129 c 0,0.234375 0,0.328125 -0.6914062,0.328125 H 0.80925 V -6.015625e-4 C 0.93815625,-0.01232031 1.793625,-0.02403906 2.0514375,-0.02403906 c 0.2109375,0 1.0898438,0.01171875 1.2421875,0.0234374975 V -0.24669531 H 3.0358125 c -0.703125,0 -0.703125,-0.09375 -0.703125,-0.328125 z m 3.5361328,2.0976563 c 0.5507813,0 0.9375,0.375 0.9375,1.125 0,0.86718749 -0.5039062,1.12499999 -0.9023437,1.12499999 -0.28125,0 -0.890625,-0.08203125 -1.1835938,-0.4921875 0.328125,-0.0117188 0.3984375,-0.24609375 0.3984375,-0.38671875 0,-0.22265624 -0.1640625,-0.38671874 -0.3867187,-0.38671874 -0.1875,0 -0.3867188,0.1171875 -0.3867188,0.41015624 0,0.65625 0.7265625,1.078125 1.5703125,1.078125 0.9726563,0 1.640625,-0.64453125 1.640625,-1.34765624 0,-0.5390625 -0.4453125,-1.0898438 -1.21875,-1.2421875 0.7382813,-0.2695313 0.9960938,-0.796875 0.9960938,-1.21875 0,-0.5507813 -0.6328125,-0.9609375 -1.40625,-0.9609375 -0.7734375,0 -1.359375,0.375 -1.359375,0.9375 0,0.234375 0.1523437,0.3632812 0.3632812,0.3632812 0.2109375,0 0.3515625,-0.1640625 0.3515625,-0.3515625 0,-0.1992187 -0.140625,-0.3515625 -0.3515625,-0.3632812 0.234375,-0.3046875 0.7148438,-0.3867188 0.9726563,-0.3867188 0.3164062,0 0.7617187,0.1523438 0.7617187,0.7617188 0,0.2929687 -0.1054687,0.609375 -0.28125,0.8320312 -0.234375,0.2578125 -0.421875,0.28125 -0.7734375,0.2929688 -0.1757812,0.023437 -0.1875,0.023437 -0.2226562,0.023437 -0.011719,0 -0.070312,0.011719 -0.070312,0.09375 0,0.09375 0.058594,0.09375 0.1757812,0.09375 z m 0,0"
         style="fill:#ffffff;fill-opacity:1;fill-rule:nonzero;stroke:none" />
      <path
         id="path24"
         d="m 14.816086,2.1849453 c 0,-0.070312 -0.07031,-0.1171875 -0.105469,-0.1171875 -0.246094,0 -0.527344,0.6445313 -1.933594,0.6445313 -1.757812,0 -2.25,-1.0664063 -2.25,-2.56640629 0,-1.47656251 0.539063,-2.55468751 2.167969,-2.55468751 0.890625,0 1.359375,0.3398438 1.628906,0.5625 0.05859,0.046875 0.08203,0.09375 0.152344,0.09375 0.04687,0 0.09375,-0.046875 0.105469,-0.09375 l 0.199219,-1.1015625 c 0,-0.046875 0,-0.082031 -0.08203,-0.1171875 -0.585937,-0.2109375 -1.195312,-0.3515625 -1.96875,-0.3515625 -2.4375,0 -3.6796871,1.1835938 -3.6796871,3.55078126 0,2.44921874 1.2656251,3.58593754 3.6796871,3.58593754 0.855469,0 1.382813,-0.1289063 2.109375,-0.5742188 0.08203,-0.046875 0.05859,-0.1171875 0.05859,-0.1171875 z m 0,0"
         style="fill:#ffffff;fill-opacity:1;fill-rule:nonzero;stroke:none" />
    </g>
    <path
       id="path25"
       d="m 122.06815,-65.99475 c 0,10.17624 -8.24924,18.42548 -18.42548,18.42548 -10.17624,0 -18.42546,-8.24924 -18.42546,-18.42548 0,-10.17622 8.24922,-18.42546 18.42546,-18.42546 10.17624,0 18.42548,8.24924 18.42548,18.42546 z"
       style="fill:#e60000;fill-opacity:1;fill-rule:nonzero;stroke:#000000;stroke-width:0.79701;stroke-linecap:butt;stroke-linejoin:miter;stroke-miterlimit:10;stroke-dasharray:none;stroke-opacity:1"
       transform="matrix(1.3333333,0,0,-1.3333333,43.996,100.56667)" />
    <g
       id="g25"
       aria-label="18&#10;O"
       transform="matrix(1.3333333,0,0,1.3333333,171.28133,189.14533)">
      <path
         id="path26"
         d="m 2.3319687,-4.4302891 c 0,-0.1875 -0.011719,-0.1992187 -0.2109375,-0.1992187 -0.4453125,0.4335937 -1.078125,0.4453125 -1.35937495,0.4453125 v 0.2460937 c 0.1640625,0 0.62109375,0 1.00781245,-0.1875 v 3.55078129 c 0,0.234375 0,0.328125 -0.6914062,0.328125 H 0.80853125 V -6.015625e-4 C 0.9374375,-0.01232031 1.7929062,-0.02403906 2.0507187,-0.02403906 c 0.2109375,0 1.0898438,0.01171875 1.2421875,0.0234374975 V -0.24669531 H 3.0350937 c -0.703125,0 -0.703125,-0.09375 -0.703125,-0.328125 z M 6.44525,-2.5201328 c 0.5507812,-0.2578125 0.890625,-0.5859375 0.890625,-1.0664063 0,-0.6796875 -0.703125,-1.0429687 -1.3710938,-1.0429687 -0.7734375,0 -1.3945312,0.5039062 -1.3945312,1.1601562 0,0.328125 0.1523437,0.5625 0.2695312,0.703125 0.1289063,0.1523438 0.1757813,0.1757813 0.5859375,0.421875 -0.3867187,0.1640625 -1.078125,0.5390625 -1.078125,1.2773438 0,0.77343749 0.8085938,1.20703124 1.59375,1.20703124 0.890625,0 1.6171875,-0.5625 1.6171875,-1.32421874 0,-0.4570313 -0.2695312,-0.84375 -0.6796875,-1.078125 -0.09375,-0.058594 -0.328125,-0.1992188 -0.4335937,-0.2578125 z m -1.1367188,-0.65625 c -0.1757812,-0.1054688 -0.375,-0.2929688 -0.375,-0.5507813 0,-0.4453125 0.515625,-0.703125 1.0078125,-0.703125 0.5507813,0 1.03125,0.3398438 1.03125,0.84375 0,0.6210938 -0.7265625,0.9257813 -0.7382812,0.9257813 -0.011719,0 -0.035156,0 -0.082031,-0.035156 z m 0.3398438,0.9609375 0.9609375,0.5507812 c 0.1757812,0.1054688 0.5273437,0.3164063 0.5273437,0.72656254 0,0.52734375 -0.5742187,0.85546875 -1.171875,0.85546875 -0.6445312,0 -1.1953125,-0.41015625 -1.1953125,-0.98437499 0,-0.515625 0.3867188,-0.9140625 0.8789063,-1.1484375 z m 0,0"
         style="fill:#ffffff;fill-opacity:1;fill-rule:nonzero;stroke:none" />
      <path
         id="path27"
         d="m 15.72943,0.20447656 c 0,-2.00390626 -0.726563,-3.72656246 -3.339844,-3.72656246 -2.7539063,0 -3.3398438,1.9101562 -3.3398438,3.72656246 0,1.86328124 0.6445312,3.63281254 3.3398438,3.63281254 2.566406,0 3.339844,-1.5820313 3.339844,-3.63281254 z M 12.389586,3.0404141 c -1.875,0 -1.875,-2.08593754 -1.875,-2.98828129 0,-0.87890625 0,-2.78906251 1.875,-2.78906251 1.875,0 1.875,1.88671876 1.875,2.78906251 0,0.87890625 0,2.98828129 -1.875,2.98828129 z m 0,0"
         style="fill:#ffffff;fill-opacity:1;fill-rule:nonzero;stroke:none" />
    </g>
    <path
       id="path28"
       d="m 18.82396,-65.99475 h 14.1734"
       style="fill:none;stroke:#a6a6a6;stroke-width:4.98138;stroke-linecap:butt;stroke-linejoin:miter;stroke-miterlimit:10;stroke-dasharray:none;stroke-opacity:1"
       transform="matrix(1.3333333,0,0,-1.3333333,43.996,100.56667)" />
    <path
       id="path29"
       d="m 18.82396,-65.99475 h 14.1734"
       style="fill:none;stroke:#ffffff;stroke-width:1.99255;stroke-linecap:butt;stroke-linejoin:miter;stroke-miterlimit:10;stroke-dasharray:none;stroke-opacity:1"
       transform="matrix(1.3333333,0,0,-1.3333333,43.996,100.56667)" />
    <path
       id="path30"
       d="M 70.64531,-65.99475 H 84.8187"
       style="fill:none;stroke:#a6a6a6;stroke-width:4.98138;stroke-linecap:butt;stroke-linejoin:miter;stroke-miterlimit:10;stroke-dasharray:none;stroke-opacity:1"
       transform="matrix(1.3333333,0,0,-1.3333333,43.996,100.56667)" />
    <path
       id="path31"
       d="M 70.64531,-65.99475 H 84.8187"
       style="fill:none;stroke:#ffffff;stroke-width:1.99255;stroke-linecap:butt;stroke-linejoin:miter;stroke-miterlimit:10;stroke-dasharray:none;stroke-opacity:1"
       transform="matrix(1.3333333,0,0,-1.3333333,43.996,100.56667)" />
    <path
       id="path32"
       d="M 59.21872,-99.19136 H 44.42395 c -1.10048,0 -1.99255,-0.89209 -1.99255,-1.99255 v -6.22673 c 0,-1.10048 0.89207,-1.99256 1.99255,-1.99256 h 14.79477 c 1.10048,0 1.99255,0.89208 1.99255,1.99256 v 6.22673 c 0,1.10046 -0.89207,1.99255 -1.99255,1.99255 z"
       style="fill:#e6e6ff;fill-opacity:1;fill-rule:nonzero;stroke:#0000b3;stroke-width:0.3985;stroke-linecap:butt;stroke-linejoin:miter;stroke-miterlimit:10;stroke-dasharray:none;stroke-opacity:1"
       transform="matrix(1.3333333,0,0,-1.3333333,43.996,100.56667)" />
    <path
       id="path33"
       d="m 3.2928906,-5.2607813 c -2.015625,2.2148438 -2.015625,4.47656255 -2.015625,4.9335938 0,0.28125 0.070312,0.421875 0.4335938,0.421875 h 0.4101562 c 0.1523438,0 0.4335938,0 0.4335938,-0.33984375 0.023437,-2.22656255 0.8085937,-3.85546875 1.8867187,-5.20312505 0.070312,-0.09375 0.070312,-0.1640625 0.070312,-0.328125 0,-0.1875 0,-0.4335937 -0.375,-0.4453125 -0.3046875,-0.011719 -2.109375,-0.011719 -2.5546875,-0.011719 h -0.5625 c -0.43359372,0 -0.60937497,0 -0.60937497,0.4335937 v 0.1171875 c 0,0.140625 0,0.3164063 0.1875,0.3984375 0.0703125,0.035156 0.36328125,0.035156 0.55078127,0.035156 0.2109375,0 0.421875,-0.011719 0.6210937,-0.011719 z m 2.4931641,0.28125 c 0.082031,0.1171875 0.1171875,0.1171875 0.140625,0.1171875 0.058594,0 0.082031,-0.035156 0.1289062,-0.1054687 0.4570313,-0.65625 1.0898438,-0.65625 1.2070313,-0.65625 0.5742187,0 0.65625,0.3046875 0.65625,0.7382812 0,0.1289063 0,0.5625 -0.28125,0.9023438 -0.2109375,0.2460937 -0.4335938,0.2695312 -0.703125,0.28125 -0.1054688,0.011719 -0.2695313,0.023437 -0.3046875,0.035156 -0.058594,0.023437 -0.058594,0.082031 -0.058594,0.2226563 v 0.1640625 c 0,0.234375 0.011719,0.2460937 0.2460938,0.2460937 h 0.3867187 c 0.8203125,0 0.9140625,0.5039063 0.9140625,1.1953125 0,0.5976563 -0.058594,1.19531255 -0.8789062,1.19531255 -0.28125,0 -0.9492188,-0.0585938 -1.546875,-0.63281255 -0.082031,-0.082031 -0.09375,-0.082031 -0.1289063,-0.082031 -0.082031,0 -0.1054687,0.082031 -0.1171875,0.09375 0,0.011719 -0.1054687,0.57421875 -0.1054687,0.62109375 0,0.1171875 0.7734375,0.84375 1.9453125,0.84375 1.546875,0 2.15625,-0.83203125 2.15625,-2.01562505 0,-0.8085937 -0.4335938,-1.359375 -1.2421875,-1.5585937 0.7265625,-0.3984375 0.9726562,-0.984375 0.9726562,-1.4882813 0,-1.4414062 -1.2890625,-1.5585937 -1.8632812,-1.5585937 -1.2304688,0 -1.828125,0.8789062 -1.828125,0.9492187 0,0.058594 0.046875,0.1289063 0.058594,0.140625 z m 7.4882813,1.6289063 c 0.855469,-0.2929688 0.960937,-0.9140625 0.960937,-1.3242188 0,-1.3125 -0.84375,-1.7460937 -1.910156,-1.7460937 -0.972656,0 -1.910156,0.3515625 -1.910156,1.7460937 0,0.4804688 0.152344,1.0546875 0.960937,1.3242188 -0.925781,0.2578125 -1.101562,0.9726562 -1.101562,1.5351562 0,1.3945313 0.75,2.01562505 2.050781,2.01562505 1.347656,0 2.050781,-0.6796875 2.050781,-2.01562505 0,-0.8203125 -0.386718,-1.3359375 -1.101562,-1.5351562 z M 12.325117,-3.67875 c -0.75,0 -0.761719,-0.4453125 -0.761719,-0.984375 0,-0.6210938 0.04687,-0.9609375 0.761719,-0.9609375 0.703125,0 0.761719,0.328125 0.761719,0.9609375 0,0.5273437 0,0.984375 -0.761719,0.984375 z m 0,3.03515625 c -0.785156,0 -0.796875,-0.50390625 -0.796875,-1.19531255 0,-0.5859375 0,-1.1953125 0.796875,-1.1953125 0.796875,0 0.796875,0.609375 0.796875,1.1953125 0,0.6796875 -0.01172,1.19531255 -0.796875,1.19531255 z m 0,0"
       style="fill:#000000;fill-opacity:1;fill-rule:nonzero;stroke:none"
       aria-label="738"
       transform="matrix(1.3333333,0,0,1.3333333,103.22667,243.78)" />
    <path
       id="path34"
       d="M 44.73463,-98.99211 0,-84.81871"
       style="fill:none;stroke:#999999;stroke-width:0.3985;stroke-linecap:butt;stroke-linejoin:miter;stroke-miterlimit:10;stroke-dasharray:2.98883, 2.98883;stroke-dashoffset:0;stroke-opacity:1"
       transform="matrix(1.3333333,0,0,-1.3333333,43.996,100.56667)" />
    <path
       id="path35"
       d="m 51.82133,-98.99211 v 14.1734"
       style="fill:none;stroke:#999999;stroke-width:0.3985;stroke-linecap:butt;stroke-linejoin:miter;stroke-miterlimit:10;stroke-dasharray:2.98883, 2.98883;stroke-dashoffset:0;stroke-opacity:1"
       transform="matrix(1.3333333,0,0,-1.3333333,43.996,100.56667)" />
    <path
       id="path36"
       d="m 58.90802,-98.99211 44.73465,14.1734"
       style="fill:none;stroke:#999999;stroke-width:0.3985;stroke-linecap:butt;stroke-linejoin:miter;stroke-miterlimit:10;stroke-dasharray:2.98883, 2.98883;stroke-dashoffset:0;stroke-opacity:1"
       transform="matrix(1.3333333,0,0,-1.3333333,43.996,100.56667)" />
    <path
       id="path37"
       d="M 4.851625,-3.1535937 C 4.61725,-2.5559375 4.1367813,-1.31375 4.0195938,-0.88015625 3.9258438,-1.2434375 3.5156875,-2.3332812 3.3399063,-2.766875 L 2.1563125,-5.81375 1.99225,-6.2239062 H 0.914125 V -0.00125 h 0.7382813 v -5.5195312 h 0.011719 c 0.1054688,0.4570312 0.6210938,1.7929687 0.7148438,2.0390625 l 0.9960937,2.53124995 c 0.070312,0.17578125 0.234375,0.62109375 0.2929688,0.75 H 4.3477188 L 5.5899063,-3.3528125 c 0.1289062,-0.328125 0.6796875,-1.7460937 0.796875,-2.1679687 V -0.00125 h 0.7382812 v -6.2226562 h -1.078125 z m 6.893555,0.5625 c 0,-0.890625 -0.65625,-1.546875 -1.535157,-1.546875 -0.5859371,0 -1.0195308,0.1523437 -1.4531246,0.3984375 l 0.058594,0.6328125 c 0.4453125,-0.328125 0.890625,-0.4570313 1.3828126,-0.4570313 0.503906,0 0.808593,0.3984375 0.808593,0.984375 v 0.375 c -1.5468744,0.035156 -2.5546869,0.4335938 -2.5546869,1.1601563 0,0.42187495 0.2695313,1.1367187 1.0546875,1.1367187 0.1757813,0 0.9609374,-0.01171875 1.5234374,-0.43359375 V -0.00125 h 0.714844 z m -0.738282,1.3359375 c 0,0.1875 0,0.4101562 -0.328125,0.5976562 -0.222656,0.140625 -0.515625,0.17578125 -0.7031246,0.17578125 -0.4570312,0 -0.8320312,-0.22265625 -0.8320312,-0.57421875 0,-0.6445312 1.7460938,-0.6679687 1.8632808,-0.6679687 z m 2.997071,-4.875 H 13.1485 v 0.8554687 h 0.855469 z m -0.07031,2.1445312 h -0.714843 v 3.984375 h 0.714843 z m 4.766602,1.3242188 c 0,-0.6679688 -0.175781,-1.4179688 -1.253906,-1.4179688 -0.714844,0 -1.148438,0.4101563 -1.347657,0.6796875 V -4.0325 h -0.691406 v 4.03125 h 0.738281 v -2.1914062 c 0,-0.5859375 0.234375,-1.3007813 0.914063,-1.3007813 0.902344,0 0.902344,0.6328125 0.902344,0.890625 V -0.00125 h 0.738281 z m 5.52832,-3.5625 H 23.373109 V -0.00125 h 0.855469 z M 28.253969,-3.845 c -0.550781,-0.2578125 -0.972656,-0.2929687 -1.335938,-0.2929687 -0.210937,0 -1.523437,0 -1.523437,1.1835937 0,0.4335938 0.257812,0.703125 0.363281,0.796875 0.339844,0.3046875 0.574219,0.3398438 1.183594,0.4570313 0.28125,0.058594 0.796875,0.1523437 0.796875,0.609375 0,0.58593745 -0.726563,0.58593745 -0.84375,0.58593745 -0.527344,0 -1.042969,-0.17578125 -1.429688,-0.4453125 l -0.117187,0.65625 c 0.539062,0.28125 1.089844,0.38671875 1.546875,0.38671875 0.574219,0 1.511719,-0.1875 1.511719,-1.2539062 0,-0.3046875 -0.128907,-0.6210938 -0.433594,-0.890625 -0.304688,-0.2578125 -0.574219,-0.3164063 -1.136719,-0.421875 -0.316406,-0.058594 -0.773437,-0.140625 -0.773437,-0.5625 0,-0.5273438 0.644531,-0.5273438 0.773437,-0.5273438 0.65625,0 1.042969,0.1992188 1.300781,0.3398438 z m 4.693359,1.875 c 0,-1.1835937 -0.890625,-2.1679687 -2.027344,-2.1679687 -1.113281,0 -2.027343,0.9726562 -2.027343,2.1679687 0,1.18359375 0.9375,2.0625 2.027343,2.0625 1.113282,0 2.027344,-0.90234375 2.027344,-2.0625 z m -2.015625,1.453125 c -0.691406,0 -1.300781,-0.5390625 -1.300781,-1.546875 0,-1.0429687 0.679687,-1.4882812 1.289062,-1.4882812 0.644532,0 1.289063,0.4570312 1.289063,1.4882812 0,1.0429688 -0.632813,1.546875 -1.277344,1.546875 z m 3.916992,-2.90625 h 1.300782 v -0.5625 h -1.300782 v -1.1367187 h -0.65625 v 1.1367187 h -0.785156 v 0.5625 h 0.761719 v 2.296875 c 0,0.52734375 0.117187,1.21875 0.761719,1.21875 0.398437,0 0.867187,-0.0703125 1.371093,-0.328125 l -0.152343,-0.5625 c -0.234375,0.17578125 -0.550782,0.28125 -0.832032,0.28125 -0.351562,0 -0.46875,-0.3046875 -0.46875,-0.7734375 z M 40.880922,-1.97 c 0,-1.1835937 -0.890625,-2.1679687 -2.027344,-2.1679687 -1.113281,0 -2.027344,0.9726562 -2.027344,2.1679687 0,1.18359375 0.9375,2.0625 2.027344,2.0625 1.113281,0 2.027344,-0.90234375 2.027344,-2.0625 z m -2.015625,1.453125 c -0.691406,0 -1.300781,-0.5390625 -1.300781,-1.546875 0,-1.0429687 0.679687,-1.4882812 1.289062,-1.4882812 0.644531,0 1.289063,0.4570312 1.289063,1.4882812 0,1.0429688 -0.632813,1.546875 -1.277344,1.546875 z m 3.788086,0.10546875 C 42.981508,-0.095 43.438539,0.0925 43.89557,0.0925 c 0.914063,0 1.699219,-0.87890625 1.699219,-2.0976562 0,-1.0664063 -0.5625,-2.0742188 -1.429687,-2.0742188 -0.257813,0 -0.925782,0.046875 -1.535157,0.5273438 V -3.985625 h -0.726562 v 5.71875 h 0.75 z m 0,-2.56640625 C 42.77057,-3.141875 43.098695,-3.47 43.61432,-3.47 c 0.667969,0 1.230469,0.6328125 1.230469,1.4765625 0,0.8671875 -0.621094,1.51171875 -1.324219,1.51171875 -0.28125,0 -0.609375,-0.1171875 -0.867187,-0.56249995 z M 50.502016,-1.97 c 0,-1.1835937 -0.890625,-2.1679687 -2.027344,-2.1679687 -1.113281,0 -2.027344,0.9726562 -2.027344,2.1679687 0,1.18359375 0.9375,2.0625 2.027344,2.0625 1.113281,0 2.027344,-0.90234375 2.027344,-2.0625 z m -2.015625,1.453125 c -0.691407,0 -1.300782,-0.5390625 -1.300782,-1.546875 0,-1.0429687 0.679688,-1.4882812 1.289063,-1.4882812 0.644531,0 1.289062,0.4570312 1.289062,1.4882812 0,1.0429688 -0.632812,1.546875 -1.277343,1.546875 z M 52.23932,-6.2239062 H 51.524477 V -0.00125 H 52.23932 Z M 57.310609,-1.97 c 0,-1.1835937 -0.890625,-2.1679687 -2.027343,-2.1679687 -1.113282,0 -2.027344,0.9726562 -2.027344,2.1679687 0,1.18359375 0.9375,2.0625 2.027344,2.0625 1.113281,0 2.027343,-0.90234375 2.027343,-2.0625 z m -2.015625,1.453125 c -0.691406,0 -1.300781,-0.5390625 -1.300781,-1.546875 0,-1.0429687 0.679688,-1.4882812 1.289063,-1.4882812 0.644531,0 1.289062,0.4570312 1.289062,1.4882812 0,1.0429688 -0.632812,1.546875 -1.277344,1.546875 z m 6.667969,-3.5625 c -0.175781,0 -0.773437,0 -1.441406,0.28125 -0.128906,-0.09375 -0.46875,-0.28125 -0.890625,-0.28125 -0.820313,0 -1.476563,0.6679688 -1.476563,1.4648438 0,0.2226562 0.05859,0.5507812 0.304688,0.9023437 -0.164063,0.2226563 -0.257813,0.4921875 -0.257813,0.73828125 0,0.2578125 0.09375,0.50390625 0.222657,0.6796875 -0.46875,0.29296875 -0.574219,0.6796875 -0.574219,0.92578125 0,0.65625 0.878906,1.21875 2.039062,1.21875 1.160157,0 2.039063,-0.5507812 2.039063,-1.21875 0,-1.25390625 -1.488281,-1.265625 -1.875,-1.265625 h -0.832031 c -0.117188,0 -0.515625,0 -0.515625,-0.46875 0,-0.1757812 0.03516,-0.234375 0.08203,-0.3046875 0.234375,0.1640625 0.539062,0.2578125 0.84375,0.2578125 0.832031,0 1.488281,-0.6679687 1.488281,-1.4648437 0,-0.3046875 -0.09375,-0.5507813 -0.234375,-0.796875 -0.03516,-0.046875 -0.03516,-0.046875 -0.03516,-0.058594 0,-0.046875 0.433594,-0.046875 0.550781,-0.046875 0.07031,0 0.410156,0 0.667969,0.035156 z m -2.332031,2.390625 c -0.410156,0 -0.808594,-0.2578125 -0.808594,-0.9257812 0,-0.7265625 0.457031,-0.9257813 0.808594,-0.9257813 0.421875,0 0.820312,0.2578125 0.820312,0.9257813 0,0.7265625 -0.457031,0.9257812 -0.820312,0.9257812 z m 0.421875,1.734375 c 0.1875,0 1.21875,0 1.21875,0.5859375 0,0.3984375 -0.65625,0.6796875 -1.371094,0.6796875 -0.703125,0 -1.382812,-0.2578125 -1.382812,-0.6796875 0,-0.0234375 0,-0.5859375 0.691406,-0.5859375 z m 6.166992,-4.03125 h -0.738281 v 2.5898438 c 0,0.72656245 -0.5625,0.96093745 -1.101563,0.96093745 -0.644531,0 -0.714843,-0.19921875 -0.714843,-0.58593745 V -3.985625 H 62.92682 v 3.01171875 c 0,0.76171875 0.304688,1.06640625 0.9375,1.06640625 0.527344,0 1.21875,-0.15234375 1.640625,-0.52734375 V -0.00125 h 0.714844 z M 70.793031,-1.97 c 0,-0.2695312 -0.01172,-0.9492187 -0.363281,-1.4882812 -0.375,-0.5625 -0.949219,-0.6796875 -1.289062,-0.6796875 -1.042969,0 -1.863282,0.9609375 -1.863282,2.109375 0,1.1835937 0.878907,2.1210937 1.992188,2.1210937 0.433594,0 0.949219,-0.10546875 1.476562,-0.43359375 l -0.05859,-0.62109375 c -0.5625,0.41015625 -1.089844,0.48046875 -1.40625,0.48046875 -0.738282,0 -1.3125,-0.65624995 -1.347657,-1.48828125 z M 67.99225,-2.4973437 c 0.140625,-0.5742188 0.585938,-1.0546875 1.148438,-1.0546875 0.328125,0 0.9375,0.1523437 1.113281,1.0546875 z m 0,0"
       style="fill:#000000;fill-opacity:1;fill-rule:nonzero;stroke:none"
       aria-label="MainIsotopologue"
       transform="matrix(1.3333333,0,0,1.3333333,65.718667,31.626667)" />
    <path
       id="path38"
       d="M 4.8524687,-3.1529219 C 4.6180937,-2.5552656 4.137625,-1.3130781 4.0204375,-0.87948438 3.9266875,-1.2427656 3.5165313,-2.3326094 3.34075,-2.7662031 L 2.1571563,-5.8130781 1.9930937,-6.2232344 H 0.91496875 V -5.78125e-4 H 1.65325 V -5.5201094 h 0.011719 c 0.1054688,0.4570313 0.6210938,1.7929688 0.7148438,2.0390625 l 0.9960938,2.53125002 c 0.070312,0.17578125 0.234375,0.62109375 0.2929687,0.75 H 4.3485625 L 5.59075,-3.3521406 c 0.1289062,-0.328125 0.6796875,-1.7460938 0.796875,-2.1679688 V -5.78125e-4 H 7.1259062 V -6.2232344 H 6.0477812 Z M 9.575125,-6.1294844 H 8.7196563 v 0.8554688 H 9.575125 Z M 9.504813,-3.9849531 H 8.7899688 v 3.984374975 h 0.7148437 z m 4.766602,1.3242187 c 0,-0.6679687 -0.175781,-1.4179687 -1.253906,-1.4179687 -0.714844,0 -1.148439,0.4101562 -1.347657,0.6796875 v -0.6328125 h -0.691407 v 4.031249975 h 0.738282 V -2.1919844 c 0,-0.5859375 0.234375,-1.3007812 0.914062,-1.3007812 0.902344,0 0.902344,0.6328125 0.902344,0.890625 v 2.601562475 h 0.738281 z m 5.06543,0.6914063 c 0,-1.1835938 -0.890625,-2.1679688 -2.027344,-2.1679688 -1.113281,0 -2.027344,0.9726563 -2.027344,2.1679688 0,1.18359372 0.9375,2.06249997 2.027344,2.06249997 1.113281,0 2.027344,-0.90234375 2.027344,-2.06249997 z m -2.015625,1.45312497 c -0.691408,0 -1.300783,-0.53906247 -1.300783,-1.54687497 0,-1.0429688 0.679688,-1.4882813 1.289063,-1.4882813 0.644531,0 1.289062,0.4570313 1.289062,1.4882813 0,1.0429687 -0.632812,1.54687497 -1.277342,1.54687497 z m 3.503906,-1.39453127 c 0,-0.9375 0.726562,-1.5117187 1.546875,-1.5234375 v -0.6445312 c -0.644531,0.011719 -1.242188,0.328125 -1.605469,0.8554687 v -0.8085937 h -0.667969 v 4.031249975 h 0.726563 z m 6.47168,-4.3125 h -0.855469 v 6.222656275 h 0.855469 z m 4.025389,2.3789063 c -0.550781,-0.2578125 -0.972656,-0.2929688 -1.335937,-0.2929688 -0.210938,0 -1.523438,0 -1.523438,1.1835938 0,0.4335937 0.257813,0.703125 0.363282,0.796875 0.339843,0.3046875 0.574218,0.3398437 1.183593,0.4570312 0.28125,0.058594 0.796875,0.1523438 0.796875,0.609375 0,0.58593752 -0.726562,0.58593752 -0.84375,0.58593752 -0.527343,0 -1.042968,-0.17578125 -1.429687,-0.4453125 l -0.117188,0.65625 c 0.539063,0.28125 1.089844,0.38671875 1.546875,0.38671875 0.574219,0 1.511719,-0.1875 1.511719,-1.25390627 0,-0.3046875 -0.128906,-0.6210937 -0.433594,-0.890625 -0.304687,-0.2578125 -0.574218,-0.3164062 -1.136718,-0.421875 -0.316407,-0.058594 -0.773437,-0.140625 -0.773437,-0.5625 0,-0.5273437 0.644531,-0.5273437 0.773437,-0.5273437 0.65625,0 1.042968,0.1992187 1.300782,0.3398437 z m 4.69336,1.875 c 0,-1.1835938 -0.890625,-2.1679688 -2.027344,-2.1679688 -1.113281,0 -2.027344,0.9726563 -2.027344,2.1679688 0,1.18359372 0.9375,2.06249997 2.027344,2.06249997 1.113281,0 2.027344,-0.90234375 2.027344,-2.06249997 z m -2.015625,1.45312497 c -0.691407,0 -1.300782,-0.53906247 -1.300782,-1.54687497 0,-1.0429688 0.679688,-1.4882813 1.289063,-1.4882813 0.644531,0 1.289062,0.4570313 1.289062,1.4882813 0,1.0429687 -0.632812,1.54687497 -1.277343,1.54687497 z m 3.916992,-2.90624997 h 1.300781 v -0.5625 h -1.300781 v -1.1367188 h -0.65625 v 1.1367188 h -0.785156 v 0.5625 h 0.761718 v 2.296875 c 0,0.52734372 0.117188,1.21874997 0.761719,1.21874997 0.398438,0 0.867188,-0.0703125 1.371094,-0.328125 l -0.152344,-0.5625 c -0.234375,0.17578125 -0.550781,0.28125 -0.832031,0.28125 -0.351563,0 -0.46875,-0.3046875 -0.46875,-0.77343747 z m 6.032226,1.453125 c 0,-1.1835938 -0.890625,-2.1679688 -2.027343,-2.1679688 -1.113282,0 -2.027344,0.9726563 -2.027344,2.1679688 0,1.18359372 0.9375,2.06249997 2.027344,2.06249997 1.113281,0 2.027343,-0.90234375 2.027343,-2.06249997 z m -2.015625,1.45312497 c -0.691406,0 -1.300781,-0.53906247 -1.300781,-1.54687497 0,-1.0429688 0.679688,-1.4882813 1.289063,-1.4882813 0.644531,0 1.289062,0.4570313 1.289062,1.4882813 0,1.0429687 -0.632812,1.54687497 -1.277344,1.54687497 z m 3.788086,0.10546875 c 0.328125,0.31640625 0.785157,0.50390625 1.242188,0.50390625 0.914062,0 1.699219,-0.87890625 1.699219,-2.09765627 0,-1.0664062 -0.5625,-2.0742187 -1.429688,-2.0742187 -0.257812,0 -0.925781,0.046875 -1.535156,0.5273437 v -0.4335937 h -0.726563 v 5.71875 h 0.75 z m 0,-2.56640622 c 0.117188,-0.1640625 0.445313,-0.4921875 0.960938,-0.4921875 0.667969,0 1.230469,0.6328125 1.230469,1.4765625 0,0.8671875 -0.621094,1.51171872 -1.324219,1.51171872 -0.28125,0 -0.609375,-0.1171875 -0.867188,-0.56250002 z m 7.857422,1.0078125 c 0,-1.1835938 -0.890625,-2.1679688 -2.027344,-2.1679688 -1.113281,0 -2.027343,0.9726563 -2.027343,2.1679688 0,1.18359372 0.9375,2.06249997 2.027343,2.06249997 1.113282,0 2.027344,-0.90234375 2.027344,-2.06249997 z m -2.015625,1.45312497 c -0.691406,0 -1.300781,-0.53906247 -1.300781,-1.54687497 0,-1.0429688 0.679687,-1.4882813 1.289062,-1.4882813 0.644532,0 1.289063,0.4570313 1.289063,1.4882813 0,1.0429687 -0.632813,1.54687497 -1.277344,1.54687497 z m 3.75293,-5.70703127 h -0.714844 v 6.222656275 h 0.714844 z m 5.0625,4.2539063 c 0,-1.1835938 -0.890625,-2.1679688 -2.027344,-2.1679688 -1.113281,0 -2.027344,0.9726563 -2.027344,2.1679688 0,1.18359372 0.9375,2.06249997 2.027344,2.06249997 1.113281,0 2.027344,-0.90234375 2.027344,-2.06249997 z m -2.015625,1.45312497 c -0.691406,0 -1.300781,-0.53906247 -1.300781,-1.54687497 0,-1.0429688 0.679687,-1.4882813 1.289062,-1.4882813 0.644531,0 1.289063,0.4570313 1.289063,1.4882813 0,1.0429687 -0.632813,1.54687497 -1.277344,1.54687497 z M 65.03118,-4.0787031 c -0.175782,0 -0.773438,0 -1.441407,0.28125 -0.128906,-0.09375 -0.46875,-0.28125 -0.890625,-0.28125 -0.820312,0 -1.476562,0.6679687 -1.476562,1.4648437 0,0.2226563 0.05859,0.5507813 0.304687,0.9023438 -0.164062,0.2226562 -0.257812,0.4921875 -0.257812,0.73828122 0,0.2578125 0.09375,0.50390625 0.222656,0.6796875 -0.46875,0.292968755 -0.574219,0.6796875 -0.574219,0.92578125 0,0.65625003 0.878907,1.21875003 2.039063,1.21875003 1.160156,0 2.039062,-0.5507813 2.039062,-1.21875003 0,-1.25390625 -1.488281,-1.265625 -1.875,-1.265625 h -0.832031 c -0.117187,0 -0.515625,0 -0.515625,-0.46874997 0,-0.1757813 0.03516,-0.234375 0.08203,-0.3046875 0.234375,0.1640625 0.539063,0.2578125 0.84375,0.2578125 0.832032,0 1.488282,-0.6679688 1.488282,-1.4648438 0,-0.3046875 -0.09375,-0.5507812 -0.234375,-0.796875 -0.03516,-0.046875 -0.03516,-0.046875 -0.03516,-0.058594 0,-0.046875 0.433594,-0.046875 0.550782,-0.046875 0.07031,0 0.410156,0 0.667968,0.035156 z m -2.332032,2.390625 c -0.410156,0 -0.808593,-0.2578125 -0.808593,-0.9257813 0,-0.7265625 0.457031,-0.9257812 0.808593,-0.9257812 0.421875,0 0.820313,0.2578125 0.820313,0.9257812 0,0.7265625 -0.457031,0.9257813 -0.820313,0.9257813 z m 0.421875,1.73437497 c 0.1875,0 1.21875,0 1.21875,0.5859375 0,0.39843753 -0.65625,0.67968753 -1.371093,0.67968753 -0.703125,0 -1.382813,-0.2578125 -1.382813,-0.67968753 0,-0.0234375 0,-0.5859375 0.691406,-0.5859375 z m 6.166993,-4.03124997 h -0.738282 v 2.5898437 c 0,0.72656252 -0.5625,0.96093752 -1.101562,0.96093752 -0.644531,0 -0.714844,-0.19921875 -0.714844,-0.58593752 v -2.9648437 h -0.738281 v 3.01171872 c 0,0.76171875 0.304687,1.06640625 0.9375,1.06640625 0.527344,0 1.21875,-0.15234375 1.640625,-0.52734375 v 0.433593755 h 0.714844 z m 4.573242,2.015625 c 0,-0.2695313 -0.01172,-0.9492188 -0.363281,-1.4882813 -0.375,-0.5625 -0.949219,-0.6796875 -1.289063,-0.6796875 -1.042969,0 -1.863281,0.9609375 -1.863281,2.109375 0,1.18359377 0.878906,2.12109377 1.992187,2.12109377 0.433594,0 0.949219,-0.10546875 1.476563,-0.43359375 l -0.05859,-0.62109375 c -0.5625,0.41015625 -1.089844,0.48046875 -1.40625,0.48046875 -0.738281,0 -1.3125,-0.65625002 -1.347656,-1.48828122 z m -2.800781,-0.5273438 c 0.140625,-0.5742187 0.585937,-1.0546875 1.148437,-1.0546875 0.328125,0 0.9375,0.1523438 1.113281,1.0546875 z m 0,0"
       style="fill:#000000;fill-opacity:1;fill-rule:nonzero;stroke:none"
       aria-label="MinorIsotopologue"
       transform="matrix(1.3333333,0,0,1.3333333,63.670667,263.47733)" />
  </g>
</svg>
