<?xml version="1.0" encoding="UTF-8" standalone="no"?>
<!-- Created with Inkscape (http://www.inkscape.org/) -->

<svg
   version="1.1"
   id="svg1"
   width="344.82532"
   height="200.22667"
   viewBox="0 0 344.82532 200.22667"
   sodipodi:docname="CO_CN_NO.pdf"
   xmlns:inkscape="http://www.inkscape.org/namespaces/inkscape"
   xmlns:sodipodi="http://sodipodi.sourceforge.net/DTD/sodipodi-0.dtd"
   xmlns="http://www.w3.org/2000/svg"
   xmlns:svg="http://www.w3.org/2000/svg">
  <defs
     id="defs1" />
  <sodipodi:namedview
     id="namedview1"
     pagecolor="#ffffff"
     bordercolor="#000000"
     borderopacity="0.25"
     inkscape:showpageshadow="2"
     inkscape:pageopacity="0.0"
     inkscape:pagecheckerboard="0"
     inkscape:deskcolor="#d1d1d1">
    <inkscape:page
       x="0"
       y="0"
       inkscape:label="1"
       id="page1"
       width="344.82532"
       height="200.22667"
       margin="0"
       bleed="0" />
  </sodipodi:namedview>
  <g
     id="g1"
     inkscape:groupmode="layer"
     inkscape:label="1">
    <path
       id="path1"
       d="m 18.42546,0 c 0,10.17622 -8.24924,18.42546 -18.42546,18.42546 -10.17622,0 -18.42546,-8.24924 -18.42546,-18.42546 0,-10.17622 8.24924,-18.42546 18.42546,-18.42546 10.17622,0 18.42546,8.24924 18.42546,18.42546 z"
       style="fill:#595959;fill-opacity:1;fill-rule:nonzero;stroke:#000000;stroke-width:0.79701;stroke-linecap:butt;stroke-linejoin:miter;stroke-miterlimit:10;stroke-dasharray:none;stroke-opacity:1"
       transform="matrix(1.3333333,0,0,-1.3333333,135.976,43.996)" />
    <g
       id="g2"
       aria-label="12&#10;C"
       transform="matrix(1.3333333,0,0,1.3333333,125.68,44.581333)">
      <path
         id="path2"
         d="m 2.3317969,-4.4291641 c 0,-0.1875 -0.011719,-0.1992187 -0.2109375,-0.1992187 -0.4453125,0.4335937 -1.078125,0.4453125 -1.35937503,0.4453125 v 0.2460937 c 0.1640625,0 0.62109373,0 1.00781253,-0.1875 v 3.55078129 c 0,0.234375 0,0.328125 -0.6914063,0.328125 H 0.80835937 V 5.234375e-4 C 0.93726562,-0.01119531 1.7927344,-0.02291406 2.0505469,-0.02291406 c 0.2109375,0 1.0898437,0.01171875 1.2421875,0.0234374975 V -0.24557031 H 3.0349219 c -0.703125,0 -0.703125,-0.09375 -0.703125,-0.328125 z m 5.15625,3.1640625 h -0.234375 c -0.023437,0.1523438 -0.082031,0.56250004 -0.1757813,0.63281254 -0.058594,0.0351563 -0.5976562,0.0351563 -0.6914062,0.0351563 H 5.0974219 c 0.7382812,-0.64453134 0.984375,-0.84375004 1.3945312,-1.17187504 0.515625,-0.4101563 0.9960938,-0.84375 0.9960938,-1.5 0,-0.8437499 -0.7382813,-1.3593749 -1.6289063,-1.3593749 -0.8671875,0 -1.453125,0.609375 -1.453125,1.2421874 0,0.3632812 0.3046875,0.3984375 0.375,0.3984375 0.1640625,0 0.375,-0.1171875 0.375,-0.375 0,-0.1289063 -0.058594,-0.3632813 -0.421875,-0.3632813 0.2226563,-0.5039061 0.6914063,-0.65625 1.0195313,-0.65625 0.703125,0 1.0664062,0.5507813 1.0664062,1.1132813 0,0.609375 -0.4335937,1.0898437 -0.65625,1.3359375 l -1.6875,1.66406254 c -0.070312,0.0585938 -0.070312,0.0703125 -0.070312,0.2695312475 h 2.8828125 z m 0,0"
         style="fill:#ffffff;fill-opacity:1;fill-rule:nonzero;stroke:none" />
      <path
         id="path3"
         d="m 14.815195,2.1860703 c 0,-0.070312 -0.07031,-0.1171875 -0.105468,-0.1171875 -0.246094,0 -0.527344,0.6445313 -1.933594,0.6445313 -1.757813,0 -2.25,-1.0664063 -2.25,-2.56640629 0,-1.47656251 0.539062,-2.55468751 2.167969,-2.55468751 0.890625,0 1.359375,0.3398438 1.628906,0.5625 0.05859,0.046875 0.08203,0.09375 0.152344,0.09375 0.04687,0 0.09375,-0.046875 0.105468,-0.09375 l 0.199219,-1.1015625 c 0,-0.046875 0,-0.082031 -0.08203,-0.1171875 -0.585938,-0.2109375 -1.195313,-0.3515625 -1.96875,-0.3515625 -2.4375,0 -3.6796877,1.1835938 -3.6796877,3.55078126 0,2.44921874 1.2656247,3.58593754 3.6796877,3.58593754 0.855469,0 1.382812,-0.1289063 2.109375,-0.5742188 0.08203,-0.046875 0.05859,-0.1171875 0.05859,-0.1171875 z m 0,0"
         style="fill:#ffffff;fill-opacity:1;fill-rule:nonzero;stroke:none" />
    </g>
    <path
       id="path4"
       d="m 73.08167,0 c 0,10.17622 -8.24924,18.42546 -18.42547,18.42546 -10.17623,0 -18.42547,-8.24924 -18.42547,-18.42546 0,-10.17622 8.24924,-18.42546 18.42547,-18.42546 10.17623,0 18.42547,8.24924 18.42547,18.42546 z"
       style="fill:#e60000;fill-opacity:1;fill-rule:nonzero;stroke:#000000;stroke-width:0.79701;stroke-linecap:butt;stroke-linejoin:miter;stroke-miterlimit:10;stroke-dasharray:none;stroke-opacity:1"
       transform="matrix(1.3333333,0,0,-1.3333333,135.976,43.996)" />
    <g
       id="g4"
       aria-label="16&#10;O"
       transform="matrix(1.3333333,0,0,1.3333333,197.94533,44.581333)">
      <path
         id="path5"
         d="m 2.3320156,-4.4291641 c 0,-0.1875 -0.011719,-0.1992187 -0.2109375,-0.1992187 -0.4453125,0.4335937 -1.078125,0.4453125 -1.35937498,0.4453125 v 0.2460937 c 0.1640625,0 0.62109378,0 1.00781248,-0.1875 v 3.55078129 c 0,0.234375 0,0.328125 -0.6914062,0.328125 H 0.80857812 V 5.234375e-4 C 0.93748437,-0.01119531 1.7929531,-0.02291406 2.0507656,-0.02291406 c 0.2109375,0 1.0898438,0.01171875 1.2421875,0.0234374975 V -0.24557031 H 3.0351406 c -0.703125,0 -0.703125,-0.09375 -0.703125,-0.328125 z m 2.6835938,2.1445313 c 0,-0.5625 0.046875,-1.078125 0.3164062,-1.5117188 0.234375,-0.375 0.609375,-0.6328125 1.0546875,-0.6328125 0.2109375,0 0.4921875,0.058594 0.6328125,0.2460938 -0.1757812,0.011719 -0.3164062,0.1289062 -0.3164062,0.3398437 0,0.1640625 0.1171875,0.328125 0.328125,0.328125 0.1992187,0 0.328125,-0.140625 0.328125,-0.3515625 0,-0.3984375 -0.2929688,-0.7617187 -0.984375,-0.7617187 -0.9960938,0 -2.0273438,0.9140625 -2.0273438,2.4140625 0,1.80468749 0.8554688,2.35546874 1.6171875,2.35546874 0.8554688,0 1.59375,-0.64453125 1.59375,-1.55859374 0,-0.890625 -0.703125,-1.546875 -1.5234375,-1.546875 -0.5507812,0 -0.8671875,0.375 -1.0195312,0.6796875 z m 0.9492187,2.20312499 c -0.3515625,0 -0.6210937,-0.19921875 -0.7617187,-0.515625 C 5.0976406,-0.79635156 5.0390469,-1.1479141 5.0390469,-1.5697891 c 0,-0.6796875 0.4101562,-1.1953125 0.9609375,-1.1953125 0.328125,0 0.5390625,0.1171875 0.7148437,0.3867188 0.1640625,0.2578125 0.1757813,0.5507812 0.1757813,0.9609375 0,0.3984375 0,0.69140624 -0.1875,0.96093749 -0.1757813,0.24609375 -0.3984375,0.375 -0.7382813,0.375 z m 0,0"
         style="fill:#ffffff;fill-opacity:1;fill-rule:nonzero;stroke:none" />
      <path
         id="path6"
         d="m 15.729477,0.20560156 c 0,-2.00390626 -0.726563,-3.72656246 -3.339844,-3.72656246 -2.7539064,0 -3.3398439,1.9101562 -3.3398439,3.72656246 0,1.86328124 0.6445312,3.63281254 3.3398439,3.63281254 2.566406,0 3.339844,-1.5820313 3.339844,-3.63281254 z M 12.389633,3.0415391 c -1.875,0 -1.875,-2.08593754 -1.875,-2.98828129 0,-0.87890625 0,-2.78906251 1.875,-2.78906251 1.875,0 1.875,1.88671876 1.875,2.78906251 0,0.87890625 0,2.98828129 -1.875,2.98828129 z m 0,0"
         style="fill:#ffffff;fill-opacity:1;fill-rule:nonzero;stroke:none" />
    </g>
    <path
       id="path7"
       d="M 18.82396,3.40146 H 35.83223"
       style="fill:none;stroke:#a6a6a6;stroke-width:1.49442;stroke-linecap:butt;stroke-linejoin:miter;stroke-miterlimit:10;stroke-dasharray:none;stroke-opacity:1"
       transform="matrix(1.3333333,0,0,-1.3333333,135.976,43.996)" />
    <path
       id="path8"
       d="M 18.82396,0 H 35.83223"
       style="fill:none;stroke:#a6a6a6;stroke-width:1.49442;stroke-linecap:butt;stroke-linejoin:miter;stroke-miterlimit:10;stroke-dasharray:none;stroke-opacity:1"
       transform="matrix(1.3333333,0,0,-1.3333333,135.976,43.996)" />
    <path
       id="path9"
       d="M 18.82396,-3.40146 H 35.83223"
       style="fill:none;stroke:#a6a6a6;stroke-width:1.49442;stroke-linecap:butt;stroke-linejoin:miter;stroke-miterlimit:10;stroke-dasharray:none;stroke-opacity:1"
       transform="matrix(1.3333333,0,0,-1.3333333,135.976,43.996)" />
    <path
       id="path10"
       d="m 4.09618,-84.1776 c 0,10.17623 -8.24921,18.42546 -18.42545,18.42546 -10.17624,0 -18.42546,-8.24923 -18.42546,-18.42546 0,-10.17624 8.24922,-18.42547 18.42546,-18.42547 10.17624,0 18.42545,8.24923 18.42545,18.42547 z"
       style="fill:#3680c4;fill-opacity:1;fill-rule:nonzero;stroke:#000000;stroke-width:0.79701;stroke-linecap:butt;stroke-linejoin:miter;stroke-miterlimit:10;stroke-dasharray:none;stroke-opacity:1"
       transform="matrix(1.3333333,0,0,-1.3333333,135.976,43.996)" />
    <g
       id="g10"
       aria-label="14&#10;N"
       transform="matrix(1.3333333,0,0,1.3333333,105.96667,156.816)">
      <path
         id="path11"
         d="m 2.3306641,-4.4293828 c 0,-0.1875 -0.011719,-0.1992188 -0.2109375,-0.1992188 -0.4453125,0.4335938 -1.078125,0.4453125 -1.35937504,0.4453125 v 0.2460938 c 0.1640625,0 0.62109374,0 1.00781254,-0.1875 v 3.55078124 c 0,0.234375 0,0.328125 -0.6914063,0.328125 H 0.80722656 V 3.046875e-4 C 0.93613281,-0.01141406 1.7916016,-0.02313281 2.0494141,-0.02313281 c 0.2109375,0 1.0898437,0.01171875 1.2421875,0.0234374975 V -0.24578906 H 3.0337891 c -0.703125,0 -0.703125,-0.09375 -0.703125,-0.328125 z m 5.3320312,3.28125 V -1.3942266 H 6.8892578 v -3.1054687 c 0,-0.1523438 0,-0.1992188 -0.1523437,-0.1992188 -0.09375,0 -0.1171875,0 -0.1875,0.09375 l -2.3085938,3.2109375 v 0.2460938 h 2.0507813 v 0.57421874 c 0,0.234375 0,0.328125 -0.5625,0.328125 h -0.1875 V 3.046875e-4 C 5.8931641,-0.01141406 6.3384766,-0.02313281 6.5845703,-0.02313281 c 0.2578125,0 0.703125,0.01171875 1.0546875,0.0234374975 V -0.24578906 h -0.1875 c -0.5625,0 -0.5625,-0.09375 -0.5625,-0.328125 V -1.1481328 Z M 6.3384766,-3.9489141 v 2.5546875 H 4.4986328 Z m 0,0"
         style="fill:#ffffff;fill-opacity:1;fill-rule:nonzero;stroke:none" />
      <path
         id="path12"
         d="M 11.4625,-2.9000859 C 11.251563,-3.2985234 10.946875,-3.2985234 10.747656,-3.2985234 H 9.821875 c -0.3515625,0 -0.4804687,0.1054687 -0.4804687,0.4804687 v 5.953125 c 0,0.3632813 0.1171875,0.4804688 0.4804687,0.4804688 h 0.269531 c 0.375,0 0.480469,-0.1289063 0.480469,-0.4804688 v -5.2265625 h 0.01172 l 2.742187,5.3085938 c 0.199219,0.3984375 0.503907,0.3984375 0.703125,0.3984375 h 0.925782 c 0.375,0 0.480468,-0.1289063 0.480468,-0.4804688 v -5.953125 c 0,-0.3164062 -0.07031,-0.4804687 -0.480468,-0.4804687 h -0.269532 c -0.375,0 -0.480468,0.1289062 -0.480468,0.4804687 v 5.2265625 h -0.01172 z m 0,0"
         style="fill:#ffffff;fill-opacity:1;fill-rule:nonzero;stroke:none" />
    </g>
    <path
       id="path13"
       d="m -50.56001,-84.1776 c 0,10.17623 -8.24922,18.42546 -18.42546,18.42546 -10.17624,0 -18.42548,-8.24923 -18.42548,-18.42546 0,-10.17624 8.24924,-18.42547 18.42548,-18.42547 10.17624,0 18.42546,8.24923 18.42546,18.42547 z"
       style="fill:#595959;fill-opacity:1;fill-rule:nonzero;stroke:#000000;stroke-width:0.79701;stroke-linecap:butt;stroke-linejoin:miter;stroke-miterlimit:10;stroke-dasharray:none;stroke-opacity:1"
       transform="matrix(1.3333333,0,0,-1.3333333,135.976,43.996)" />
    <g
       id="g13"
       aria-label="12&#10;C"
       transform="matrix(1.3333333,0,0,1.3333333,33.701333,156.816)">
      <path
         id="path14"
         d="m 2.333375,-4.4293828 c 0,-0.1875 -0.011719,-0.1992188 -0.2109375,-0.1992188 -0.4453125,0.4335938 -1.078125,0.4453125 -1.359375,0.4453125 v 0.2460938 c 0.1640625,0 0.6210937,0 1.0078125,-0.1875 v 3.55078124 c 0,0.234375 0,0.328125 -0.6914063,0.328125 H 0.8099375 V 3.046875e-4 C 0.93884375,-0.01141406 1.7943125,-0.02313281 2.052125,-0.02313281 c 0.2109375,0 1.0898437,0.01171875 1.2421875,0.0234374975 V -0.24578906 H 3.0365 c -0.703125,0 -0.703125,-0.09375 -0.703125,-0.328125 z m 5.1533203,3.1640625 h -0.234375 c -0.023437,0.1523437 -0.082031,0.56249999 -0.1757812,0.63281249 -0.058594,0.0351563 -0.5976563,0.0351563 -0.6914063,0.0351563 H 5.0960703 c 0.7382813,-0.64453119 0.984375,-0.84374999 1.3945313,-1.17187499 0.515625,-0.4101562 0.9960937,-0.8437501 0.9960937,-1.5000001 0,-0.8437499 -0.7382812,-1.3593749 -1.6289062,-1.3593749 -0.8671875,0 -1.453125,0.609375 -1.453125,1.2421874 0,0.3632814 0.3046875,0.3984375 0.375,0.3984375 0.1640625,0 0.375,-0.1171875 0.375,-0.375 0,-0.1289061 -0.058594,-0.3632811 -0.421875,-0.3632811 0.2226562,-0.5039063 0.6914062,-0.65625 1.0195312,-0.65625 0.703125,0 1.0664063,0.5507811 1.0664063,1.1132811 0,0.609375 -0.4335938,1.0898438 -0.65625,1.3359376 l -1.6875,1.66406249 c -0.070312,0.0585938 -0.070312,0.0703125 -0.070312,0.2695312475 h 2.8828125 z m 0,0"
         style="fill:#ffffff;fill-opacity:1;fill-rule:nonzero;stroke:none" />
      <path
         id="path15"
         d="m 14.813844,2.1858516 c 0,-0.070312 -0.07031,-0.1171875 -0.105469,-0.1171875 -0.246094,0 -0.527344,0.6445312 -1.933594,0.6445312 -1.757812,0 -2.25,-1.0664062 -2.25,-2.56640624 0,-1.47656246 0.539063,-2.55468746 2.167969,-2.55468746 0.890625,0 1.359375,0.3398437 1.628906,0.5625 0.05859,0.046875 0.08203,0.09375 0.152344,0.09375 0.04687,0 0.09375,-0.046875 0.105469,-0.09375 l 0.199218,-1.1015625 c 0,-0.046875 0,-0.082031 -0.08203,-0.1171875 -0.585937,-0.2109375 -1.195312,-0.3515625 -1.96875,-0.3515625 -2.4375,0 -3.6796873,1.1835937 -3.6796873,3.55078121 0,2.44921879 1.2656253,3.58593749 3.6796873,3.58593749 0.855469,0 1.382813,-0.1289062 2.109375,-0.5742187 0.08203,-0.046875 0.05859,-0.1171875 0.05859,-0.1171875 z m 0,0"
         style="fill:#ffffff;fill-opacity:1;fill-rule:nonzero;stroke:none" />
    </g>
    <path
       id="path16"
       d="m -50.1615,-80.77612 h 17.00826"
       style="fill:none;stroke:#a6a6a6;stroke-width:1.49442;stroke-linecap:butt;stroke-linejoin:miter;stroke-miterlimit:10;stroke-dasharray:none;stroke-opacity:1"
       transform="matrix(1.3333333,0,0,-1.3333333,135.976,43.996)" />
    <path
       id="path17"
       d="m -50.1615,-84.1776 h 17.00826"
       style="fill:none;stroke:#a6a6a6;stroke-width:1.49442;stroke-linecap:butt;stroke-linejoin:miter;stroke-miterlimit:10;stroke-dasharray:none;stroke-opacity:1"
       transform="matrix(1.3333333,0,0,-1.3333333,135.976,43.996)" />
    <path
       id="path18"
       d="m -50.1615,-87.57907 h 17.00826"
       style="fill:none;stroke:#a6a6a6;stroke-width:1.49442;stroke-linecap:butt;stroke-linejoin:miter;stroke-miterlimit:10;stroke-dasharray:none;stroke-opacity:1"
       transform="matrix(1.3333333,0,0,-1.3333333,135.976,43.996)" />
    <path
       id="path19"
       d="m 87.41093,-84.1776 c 0,10.17623 -8.24923,18.42546 -18.42547,18.42546 -10.17624,0 -18.42546,-8.24923 -18.42546,-18.42546 0,-10.17624 8.24922,-18.42547 18.42546,-18.42547 10.17624,0 18.42547,8.24923 18.42547,18.42547 z"
       style="fill:#3680c4;fill-opacity:1;fill-rule:nonzero;stroke:#000000;stroke-width:0.79701;stroke-linecap:butt;stroke-linejoin:miter;stroke-miterlimit:10;stroke-dasharray:none;stroke-opacity:1"
       transform="matrix(1.3333333,0,0,-1.3333333,135.976,43.996)" />
    <g
       id="g19"
       aria-label="14&#10;N"
       transform="matrix(1.3333333,0,0,1.3333333,217.05067,156.81733)">
      <path
         id="path20"
         d="m 2.3321172,-4.4303828 c 0,-0.1875 -0.011719,-0.1992188 -0.2109375,-0.1992188 -0.4453125,0.4335938 -1.078125,0.4453125 -1.35937501,0.4453125 v 0.2460938 c 0.1640625,0 0.62109371,0 1.00781251,-0.1875 v 3.55078124 c 0,0.234375 0,0.328125 -0.6914063,0.328125 H 0.80867969 V -6.953125e-4 C 0.93758594,-0.01241406 1.7930547,-0.02413281 2.0508672,-0.02413281 c 0.2109375,0 1.0898437,0.01171875 1.2421875,0.0234374975 V -0.24678906 H 3.0352422 c -0.703125,0 -0.703125,-0.09375 -0.703125,-0.328125 z m 5.3320312,3.28125 V -1.3952266 H 6.8907109 v -3.1054687 c 0,-0.1523438 0,-0.1992188 -0.1523437,-0.1992188 -0.09375,0 -0.1171875,0 -0.1875,0.09375 l -2.3085938,3.2109375 v 0.2460938 h 2.0507813 v 0.57421874 c 0,0.234375 0,0.328125 -0.5625,0.328125 h -0.1875 V -6.953125e-4 C 5.8946172,-0.01241406 6.3399297,-0.02413281 6.5860234,-0.02413281 c 0.2578125,0 0.703125,0.01171875 1.0546875,0.0234374975 V -0.24678906 h -0.1875 c -0.5625,0 -0.5625,-0.09375 -0.5625,-0.328125 V -1.1491328 Z M 6.3399297,-3.9499141 v 2.5546875 H 4.5000859 Z m 0,0"
         style="fill:#ffffff;fill-opacity:1;fill-rule:nonzero;stroke:none" />
      <path
         id="path21"
         d="M 11.463953,-2.9010859 C 11.253016,-3.2995234 10.948328,-3.2995234 10.749109,-3.2995234 H 9.8233281 c -0.3515625,0 -0.4804687,0.1054687 -0.4804687,0.4804687 v 5.953125 c 0,0.3632813 0.1171875,0.4804688 0.4804687,0.4804688 h 0.2695309 c 0.375,0 0.480469,-0.1289063 0.480469,-0.4804688 v -5.2265625 h 0.01172 l 2.742187,5.3085938 c 0.199219,0.3984375 0.503907,0.3984375 0.703125,0.3984375 h 0.925782 c 0.375,0 0.480468,-0.1289063 0.480468,-0.4804688 v -5.953125 c 0,-0.3164062 -0.07031,-0.4804687 -0.480468,-0.4804687 H 14.68661 c -0.375,0 -0.480468,0.1289062 -0.480468,0.4804687 v 5.2265625 h -0.01172 z m 0,0"
         style="fill:#ffffff;fill-opacity:1;fill-rule:nonzero;stroke:none" />
    </g>
    <path
       id="path22"
       d="m 142.06714,-84.1776 c 0,10.17623 -8.24924,18.42546 -18.42548,18.42546 -10.17624,0 -18.42546,-8.24923 -18.42546,-18.42546 0,-10.17624 8.24922,-18.42547 18.42546,-18.42547 10.17624,0 18.42548,8.24923 18.42548,18.42547 z"
       style="fill:#e60000;fill-opacity:1;fill-rule:nonzero;stroke:#000000;stroke-width:0.79701;stroke-linecap:butt;stroke-linejoin:miter;stroke-miterlimit:10;stroke-dasharray:none;stroke-opacity:1"
       transform="matrix(1.3333333,0,0,-1.3333333,135.976,43.996)" />
    <g
       id="g22"
       aria-label="16&#10;O"
       transform="matrix(1.3333333,0,0,1.3333333,289.92533,156.81733)">
      <path
         id="path23"
         d="m 2.3323672,-4.4303828 c 0,-0.1875 -0.011719,-0.1992188 -0.2109375,-0.1992188 -0.4453125,0.4335938 -1.078125,0.4453125 -1.35937501,0.4453125 v 0.2460938 c 0.1640625,0 0.62109371,0 1.00781251,-0.1875 v 3.55078124 c 0,0.234375 0,0.328125 -0.6914063,0.328125 H 0.80892969 V -6.953125e-4 C 0.93783594,-0.01241406 1.7933047,-0.02413281 2.0511172,-0.02413281 c 0.2109375,0 1.0898437,0.01171875 1.2421875,0.0234374975 V -0.24678906 H 3.0354922 c -0.703125,0 -0.703125,-0.09375 -0.703125,-0.328125 z m 2.6835937,2.1445312 c 0,-0.5625 0.046875,-1.078125 0.3164063,-1.5117187 0.234375,-0.375 0.609375,-0.6328125 1.0546875,-0.6328125 0.2109375,0 0.4921875,0.058594 0.6328125,0.2460937 -0.1757813,0.011719 -0.3164063,0.1289063 -0.3164063,0.3398438 0,0.1640625 0.1171875,0.328125 0.328125,0.328125 0.1992188,0 0.328125,-0.140625 0.328125,-0.3515625 0,-0.3984375 -0.2929687,-0.7617188 -0.984375,-0.7617188 -0.9960937,0 -2.0273437,0.9140625 -2.0273437,2.4140625 0,1.80468754 0.8554687,2.35546879 1.6171875,2.35546879 0.8554687,0 1.59375,-0.64453125 1.59375,-1.55859379 0,-0.890625 -0.703125,-1.546875 -1.5234375,-1.546875 -0.5507813,0 -0.8671875,0.375 -1.0195313,0.6796875 z m 0.9492188,2.20312504 c -0.3515625,0 -0.6210938,-0.19921875 -0.7617188,-0.515625 C 5.0979922,-0.79757031 5.0393984,-1.1491328 5.0393984,-1.5710078 c 0,-0.6796875 0.4101563,-1.1953125 0.9609375,-1.1953125 0.328125,0 0.5390625,0.1171875 0.7148438,0.3867187 0.1640625,0.2578125 0.1757812,0.5507813 0.1757812,0.9609375 0,0.3984375 0,0.69140629 -0.1875,0.96093754 -0.1757812,0.24609375 -0.3984375,0.375 -0.7382812,0.375 z m 0,0"
         style="fill:#ffffff;fill-opacity:1;fill-rule:nonzero;stroke:none" />
      <path
         id="path24"
         d="m 15.729828,0.20438281 c 0,-2.00390621 -0.726562,-3.72656251 -3.339844,-3.72656251 -2.7539059,0 -3.3398434,1.9101563 -3.3398434,3.72656251 0,1.86328129 0.6445313,3.63281249 3.3398434,3.63281249 2.566407,0 3.339844,-1.5820312 3.339844,-3.63281249 z M 12.389984,3.0403203 c -1.875,0 -1.875,-2.08593749 -1.875,-2.98828124 0,-0.87890625 0,-2.78906246 1.875,-2.78906246 1.875,0 1.875,1.88671871 1.875,2.78906246 0,0.87890625 0,2.98828124 -1.875,2.98828124 z m 0,0"
         style="fill:#ffffff;fill-opacity:1;fill-rule:nonzero;stroke:none" />
    </g>
    <path
       id="path25"
       d="m 87.80943,-80.77612 h 17.00826"
       style="fill:none;stroke:#a6a6a6;stroke-width:1.49442;stroke-linecap:butt;stroke-linejoin:miter;stroke-miterlimit:10;stroke-dasharray:none;stroke-opacity:1"
       transform="matrix(1.3333333,0,0,-1.3333333,135.976,43.996)" />
    <path
       id="path26"
       d="m 87.80943,-84.1776 h 17.00826"
       style="fill:none;stroke:#a6a6a6;stroke-width:1.49442;stroke-linecap:butt;stroke-linejoin:miter;stroke-miterlimit:10;stroke-dasharray:2.98883, 2.98883;stroke-dashoffset:0;stroke-opacity:1"
       transform="matrix(1.3333333,0,0,-1.3333333,135.976,43.996)" />
    <path
       id="path27"
       d="m 87.80943,-87.57907 h 17.00826"
       style="fill:none;stroke:#a6a6a6;stroke-width:1.49442;stroke-linecap:butt;stroke-linejoin:miter;stroke-miterlimit:10;stroke-dasharray:none;stroke-opacity:1"
       transform="matrix(1.3333333,0,0,-1.3333333,135.976,43.996)" />
    <path
       id="path28"
       d="m 66.5872,-14.55858 45.12346,-55.06044"
       style="fill:none;stroke:#ff8000;stroke-width:0.79701;stroke-linecap:butt;stroke-linejoin:miter;stroke-miterlimit:10;stroke-dasharray:2.98883, 2.98883;stroke-dashoffset:0;stroke-opacity:1"
       transform="matrix(1.3333333,0,0,-1.3333333,135.976,43.996)" />
    <path
       id="path29"
       d="M -11.93098,-14.55858 -57.05447,-69.61902"
       style="fill:none;stroke:#ff8000;stroke-width:0.79701;stroke-linecap:butt;stroke-linejoin:miter;stroke-miterlimit:10;stroke-dasharray:2.98883, 2.98883;stroke-dashoffset:0;stroke-opacity:1"
       transform="matrix(1.3333333,0,0,-1.3333333,135.976,43.996)" />
    <path
       id="path30"
       d="M 4.49469,-84.1776 H 50.16148"
       style="fill:none;stroke:#ff8000;stroke-width:0.79701;stroke-linecap:butt;stroke-linejoin:miter;stroke-miterlimit:10;stroke-dasharray:2.98883, 2.98883;stroke-dashoffset:0;stroke-opacity:1"
       transform="matrix(1.3333333,0,0,-1.3333333,135.976,43.996)" />
  </g>
</svg>
