<?xml version="1.0" encoding="UTF-8" standalone="no"?>
<!-- Created with Inkscape (http://www.inkscape.org/) -->

<svg
   version="1.1"
   id="svg1"
   width="289.58401"
   height="286.65332"
   viewBox="0 0 289.58401 286.65332"
   sodipodi:docname="CO2_OCS_CS2.pdf"
   xmlns:inkscape="http://www.inkscape.org/namespaces/inkscape"
   xmlns:sodipodi="http://sodipodi.sourceforge.net/DTD/sodipodi-0.dtd"
   xmlns="http://www.w3.org/2000/svg"
   xmlns:svg="http://www.w3.org/2000/svg">
  <defs
     id="defs1" />
  <sodipodi:namedview
     id="namedview1"
     pagecolor="#ffffff"
     bordercolor="#000000"
     borderopacity="0.25"
     inkscape:showpageshadow="2"
     inkscape:pageopacity="0.0"
     inkscape:pagecheckerboard="0"
     inkscape:deskcolor="#d1d1d1">
    <inkscape:page
       x="0"
       y="0"
       inkscape:label="1"
       id="page1"
       width="289.58401"
       height="286.65332"
       margin="0"
       bleed="0" />
  </sodipodi:namedview>
  <g
     id="g1"
     inkscape:groupmode="layer"
     inkscape:label="1">
    <path
       id="path1"
       d="m 18.42546,0 c 0,10.17622 -8.24924,18.42546 -18.42546,18.42546 -10.17622,0 -18.42546,-8.24924 -18.42546,-18.42546 0,-10.17622 8.24924,-18.42546 18.42546,-18.42546 10.17622,0 18.42546,8.24924 18.42546,18.42546 z"
       style="fill:#595959;fill-opacity:1;fill-rule:nonzero;stroke:#000000;stroke-width:0.79701;stroke-linecap:butt;stroke-linejoin:miter;stroke-miterlimit:10;stroke-dasharray:none;stroke-opacity:1"
       transform="matrix(1.3333333,0,0,-1.3333333,144.792,43.996)" />
    <g
       id="g2"
       aria-label="12&#10;C"
       transform="matrix(1.3333333,0,0,1.3333333,134.49733,44.582667)">
      <path
         id="path2"
         d="m 2.3311016,-4.4301641 c 0,-0.1875 -0.011719,-0.1992187 -0.2109375,-0.1992187 -0.4453125,0.4335937 -1.078125,0.4453125 -1.35937504,0.4453125 v 0.2460937 c 0.1640625,0 0.62109374,0 1.00781254,-0.1875 v 3.55078129 c 0,0.234375 0,0.328125 -0.6914063,0.328125 H 0.80766406 V -4.765625e-4 C 0.93657031,-0.01219531 1.7920391,-0.02391406 2.0498516,-0.02391406 c 0.2109375,0 1.0898437,0.01171875 1.2421875,0.0234374975 V -0.24657031 H 3.0342266 c -0.703125,0 -0.703125,-0.09375 -0.703125,-0.328125 z m 5.15625,3.1640625 h -0.234375 c -0.023437,0.1523438 -0.082031,0.56250004 -0.1757813,0.63281254 -0.058594,0.0351563 -0.5976562,0.0351563 -0.6914062,0.0351563 H 5.0967266 C 5.8350078,-1.242664 6.0811016,-1.4418827 6.4912578,-1.7700077 c 0.515625,-0.4101564 0.9960938,-0.8437501 0.9960938,-1.5000001 0,-0.8437499 -0.7382813,-1.3593749 -1.6289063,-1.3593749 -0.8671875,0 -1.453125,0.609375 -1.453125,1.2421875 0,0.3632812 0.3046875,0.3984375 0.375,0.3984375 0.1640625,0 0.375,-0.1171875 0.375,-0.375 0,-0.1289063 -0.058594,-0.3632813 -0.421875,-0.3632813 0.2226563,-0.5039062 0.6914063,-0.65625 1.0195313,-0.65625 0.703125,0 1.0664062,0.5507812 1.0664062,1.1132812 0,0.609375 -0.4335937,1.0898437 -0.65625,1.3359375 l -1.6875,1.66406254 c -0.070312,0.0585938 -0.070312,0.0703125 -0.070312,0.2695312475 h 2.8828125 z m 0,0"
         style="fill:#ffffff;fill-opacity:1;fill-rule:nonzero;stroke:none" />
      <path
         id="path3"
         d="m 14.8145,2.1850703 c 0,-0.070312 -0.07031,-0.1171875 -0.105469,-0.1171875 -0.246093,0 -0.527343,0.6445313 -1.933593,0.6445313 -1.757813,0 -2.25,-1.0664063 -2.25,-2.56640629 0,-1.47656251 0.539062,-2.55468751 2.167968,-2.55468751 0.890625,0 1.359375,0.3398438 1.628907,0.5625 0.05859,0.046875 0.08203,0.09375 0.152343,0.09375 0.04687,0 0.09375,-0.046875 0.105469,-0.09375 l 0.199219,-1.1015625 c 0,-0.046875 0,-0.082031 -0.08203,-0.1171875 -0.585938,-0.2109375 -1.195313,-0.3515625 -1.96875,-0.3515625 -2.4375,0 -3.679688,1.1835938 -3.679688,3.55078126 0,2.44921874 1.265625,3.58593754 3.679688,3.58593754 0.855468,0 1.382812,-0.1289063 2.109375,-0.5742188 0.08203,-0.046875 0.05859,-0.1171875 0.05859,-0.1171875 z m 0,0"
         style="fill:#ffffff;fill-opacity:1;fill-rule:nonzero;stroke:none" />
    </g>
    <path
       id="path4"
       d="m 73.08167,0 c 0,10.17622 -8.24924,18.42546 -18.42547,18.42546 -10.17623,0 -18.42547,-8.24924 -18.42547,-18.42546 0,-10.17622 8.24924,-18.42546 18.42547,-18.42546 10.17623,0 18.42547,8.24924 18.42547,18.42546 z"
       style="fill:#e60000;fill-opacity:1;fill-rule:nonzero;stroke:#000000;stroke-width:0.79701;stroke-linecap:butt;stroke-linejoin:miter;stroke-miterlimit:10;stroke-dasharray:none;stroke-opacity:1"
       transform="matrix(1.3333333,0,0,-1.3333333,144.792,43.996)" />
    <g
       id="g4"
       aria-label="16&#10;O"
       transform="matrix(1.3333333,0,0,1.3333333,206.76267,44.582667)">
      <path
         id="path5"
         d="m 2.3313203,-4.4301641 c 0,-0.1875 -0.011719,-0.1992187 -0.2109375,-0.1992187 -0.4453125,0.4335937 -1.078125,0.4453125 -1.35937499,0.4453125 v 0.2460937 c 0.1640625,0 0.62109379,0 1.00781249,-0.1875 v 3.55078129 c 0,0.234375 0,0.328125 -0.6914062,0.328125 H 0.80788281 V -4.765625e-4 C 0.93678906,-0.01219531 1.7922578,-0.02391406 2.0500703,-0.02391406 c 0.2109375,0 1.0898438,0.01171875 1.2421875,0.0234374975 V -0.24657031 H 3.0344453 c -0.703125,0 -0.703125,-0.09375 -0.703125,-0.328125 z m 2.6835938,2.1445313 c 0,-0.5625 0.046875,-1.078125 0.3164062,-1.5117188 0.234375,-0.375 0.609375,-0.6328125 1.0546875,-0.6328125 0.2109375,0 0.4921875,0.058594 0.6328125,0.2460938 -0.1757812,0.011719 -0.3164062,0.1289062 -0.3164062,0.3398437 0,0.1640625 0.1171875,0.328125 0.328125,0.328125 0.1992187,0 0.328125,-0.140625 0.328125,-0.3515625 0,-0.3984375 -0.2929688,-0.7617187 -0.984375,-0.7617187 -0.9960938,0 -2.0273438,0.9140625 -2.0273438,2.4140625 0,1.80468749 0.8554688,2.35546874 1.6171875,2.35546874 0.8554688,0 1.59375,-0.64453125 1.59375,-1.55859374 0,-0.890625 -0.703125,-1.546875 -1.5234375,-1.546875 -0.5507812,0 -0.8671875,0.375 -1.0195312,0.6796875 z m 0.9492187,2.20312499 c -0.3515625,0 -0.6210937,-0.19921875 -0.7617187,-0.515625 C 5.0969453,-0.79735156 5.0383516,-1.1489141 5.0383516,-1.5707891 c 0,-0.6796875 0.4101562,-1.1953125 0.9609375,-1.1953125 0.328125,0 0.5390625,0.1171875 0.7148437,0.3867188 0.1640625,0.2578125 0.1757813,0.5507812 0.1757813,0.9609375 0,0.3984375 0,0.69140624 -0.1875,0.96093749 -0.1757813,0.24609375 -0.3984375,0.375 -0.7382813,0.375 z m 0,0"
         style="fill:#ffffff;fill-opacity:1;fill-rule:nonzero;stroke:none" />
      <path
         id="path6"
         d="m 15.728781,0.20460156 c 0,-2.00390626 -0.726562,-3.72656246 -3.339844,-3.72656246 -2.7539058,0 -3.3398433,1.9101562 -3.3398433,3.72656246 0,1.86328124 0.6445313,3.63281254 3.3398433,3.63281254 2.566407,0 3.339844,-1.5820313 3.339844,-3.63281254 z M 12.388937,3.0405391 c -1.875,0 -1.875,-2.08593754 -1.875,-2.98828129 0,-0.87890625 0,-2.78906251 1.875,-2.78906251 1.875,0 1.875,1.88671876 1.875,2.78906251 0,0.87890625 0,2.98828129 -1.875,2.98828129 z m 0,0"
         style="fill:#ffffff;fill-opacity:1;fill-rule:nonzero;stroke:none" />
    </g>
    <path
       id="path7"
       d="m -36.23073,0 c 0,10.17622 -8.24924,18.42546 -18.42547,18.42546 -10.17623,0 -18.42547,-8.24924 -18.42547,-18.42546 0,-10.17622 8.24924,-18.42546 18.42547,-18.42546 10.17623,0 18.42547,8.24924 18.42547,18.42546 z"
       style="fill:#e60000;fill-opacity:1;fill-rule:nonzero;stroke:#000000;stroke-width:0.79701;stroke-linecap:butt;stroke-linejoin:miter;stroke-miterlimit:10;stroke-dasharray:none;stroke-opacity:1"
       transform="matrix(1.3333333,0,0,-1.3333333,144.792,43.996)" />
    <g
       id="g7"
       aria-label="16&#10;O"
       transform="matrix(1.3333333,0,0,1.3333333,61.014667,44.582667)">
      <path
         id="path8"
         d="m 2.33275,-4.4301641 c 0,-0.1875 -0.011719,-0.1992187 -0.2109375,-0.1992187 -0.4453125,0.4335937 -1.078125,0.4453125 -1.359375,0.4453125 v 0.2460937 c 0.1640625,0 0.6210937,0 1.0078125,-0.1875 v 3.55078129 c 0,0.234375 0,0.328125 -0.6914063,0.328125 H 0.8093125 V -4.765625e-4 C 0.93821875,-0.01219531 1.7936875,-0.02391406 2.0515,-0.02391406 c 0.2109375,0 1.0898437,0.01171875 1.2421875,0.0234374975 V -0.24657031 H 3.035875 c -0.703125,0 -0.703125,-0.09375 -0.703125,-0.328125 z m 2.6806641,2.1445313 c 0,-0.5625 0.046875,-1.078125 0.3164062,-1.5117188 0.234375,-0.375 0.609375,-0.6328125 1.0546875,-0.6328125 0.2109375,0 0.4921875,0.058594 0.6328125,0.2460938 -0.1757812,0.011719 -0.3164062,0.1289062 -0.3164062,0.3398437 0,0.1640625 0.1171875,0.328125 0.328125,0.328125 0.1992187,0 0.328125,-0.140625 0.328125,-0.3515625 0,-0.3984375 -0.2929688,-0.7617187 -0.984375,-0.7617187 -0.9960938,0 -2.0273438,0.9140625 -2.0273438,2.4140625 0,1.80468749 0.8554688,2.35546874 1.6171875,2.35546874 0.8554688,0 1.59375,-0.64453125 1.59375,-1.55859374 0,-0.890625 -0.703125,-1.546875 -1.5234375,-1.546875 -0.5507812,0 -0.8671875,0.375 -1.0195312,0.6796875 z m 0.9492187,2.20312499 c -0.3515625,0 -0.6210937,-0.19921875 -0.7617187,-0.515625 C 5.0954453,-0.79735156 5.0368516,-1.1489141 5.0368516,-1.5707891 c 0,-0.6796875 0.4101562,-1.1953125 0.9609375,-1.1953125 0.328125,0 0.5390625,0.1171875 0.7148437,0.3867188 0.1640625,0.2578125 0.1757813,0.5507812 0.1757813,0.9609375 0,0.3984375 0,0.69140624 -0.1875,0.96093749 -0.1757813,0.24609375 -0.3984375,0.375 -0.7382813,0.375 z m 0,0"
         style="fill:#ffffff;fill-opacity:1;fill-rule:nonzero;stroke:none" />
      <path
         id="path9"
         d="m 15.730211,0.20460156 c 0,-2.00390626 -0.726563,-3.72656246 -3.339844,-3.72656246 -2.7539061,0 -3.3398436,1.9101562 -3.3398436,3.72656246 0,1.86328124 0.6445313,3.63281254 3.3398436,3.63281254 2.566406,0 3.339844,-1.5820313 3.339844,-3.63281254 z M 12.390367,3.0405391 c -1.875,0 -1.875,-2.08593754 -1.875,-2.98828129 0,-0.87890625 0,-2.78906251 1.875,-2.78906251 1.875,0 1.875,1.88671876 1.875,2.78906251 0,0.87890625 0,2.98828129 -1.875,2.98828129 z m 0,0"
         style="fill:#ffffff;fill-opacity:1;fill-rule:nonzero;stroke:none" />
    </g>
    <path
       id="path10"
       d="M 18.82396,3.40146 H 35.83223"
       style="fill:none;stroke:#a6a6a6;stroke-width:1.49442;stroke-linecap:butt;stroke-linejoin:miter;stroke-miterlimit:10;stroke-dasharray:none;stroke-opacity:1"
       transform="matrix(1.3333333,0,0,-1.3333333,144.792,43.996)" />
    <path
       id="path11"
       d="M 18.82396,-3.40146 H 35.83223"
       style="fill:none;stroke:#a6a6a6;stroke-width:1.49442;stroke-linecap:butt;stroke-linejoin:miter;stroke-miterlimit:10;stroke-dasharray:none;stroke-opacity:1"
       transform="matrix(1.3333333,0,0,-1.3333333,144.792,43.996)" />
    <path
       id="path12"
       d="M -18.82396,3.40146 H -35.83223"
       style="fill:none;stroke:#a6a6a6;stroke-width:1.49442;stroke-linecap:butt;stroke-linejoin:miter;stroke-miterlimit:10;stroke-dasharray:none;stroke-opacity:1"
       transform="matrix(1.3333333,0,0,-1.3333333,144.792,43.996)" />
    <path
       id="path13"
       d="M -18.82396,-3.40146 H -35.83223"
       style="fill:none;stroke:#a6a6a6;stroke-width:1.49442;stroke-linecap:butt;stroke-linejoin:miter;stroke-miterlimit:10;stroke-dasharray:none;stroke-opacity:1"
       transform="matrix(1.3333333,0,0,-1.3333333,144.792,43.996)" />
    <path
       id="path14"
       d="m -36.23073,-74.49889 c 0,10.17624 -8.24924,18.42548 -18.42547,18.42548 -10.17623,0 -18.42547,-8.24924 -18.42547,-18.42548 0,-10.17624 8.24924,-18.42546 18.42547,-18.42546 10.17623,0 18.42547,8.24922 18.42547,18.42546 z"
       style="fill:#e60000;fill-opacity:1;fill-rule:nonzero;stroke:#000000;stroke-width:0.79701;stroke-linecap:butt;stroke-linejoin:miter;stroke-miterlimit:10;stroke-dasharray:none;stroke-opacity:1"
       transform="matrix(1.3333333,0,0,-1.3333333,144.792,43.996)" />
    <g
       id="g14"
       aria-label="16&#10;O"
       transform="matrix(1.3333333,0,0,1.3333333,61.014667,143.91333)">
      <path
         id="path15"
         d="m 2.33275,-4.4291406 c 0,-0.1875 -0.011719,-0.1992188 -0.2109375,-0.1992188 -0.4453125,0.4335938 -1.078125,0.4453125 -1.359375,0.4453125 v 0.2460938 c 0.1640625,0 0.6210937,0 1.0078125,-0.1875 v 3.55078122 c 0,0.234375 0,0.328125 -0.6914063,0.328125 H 0.8093125 V 5.46875e-4 C 0.93821875,-0.01117188 1.7936875,-0.02289063 2.0515,-0.02289063 c 0.2109375,0 1.0898437,0.01171875 1.2421875,0.023437505 V -0.24554688 H 3.035875 c -0.703125,0 -0.703125,-0.09375 -0.703125,-0.328125 z m 2.6806641,2.1445312 c 0,-0.5625 0.046875,-1.078125 0.3164062,-1.5117187 0.234375,-0.375 0.609375,-0.6328125 1.0546875,-0.6328125 0.2109375,0 0.4921875,0.058594 0.6328125,0.2460937 -0.1757812,0.011719 -0.3164062,0.1289063 -0.3164062,0.3398438 0,0.1640625 0.1171875,0.328125 0.328125,0.328125 0.1992187,0 0.328125,-0.140625 0.328125,-0.3515625 0,-0.3984375 -0.2929688,-0.7617188 -0.984375,-0.7617188 -0.9960938,0 -2.0273438,0.9140625 -2.0273438,2.4140625 0,1.80468752 0.8554688,2.35546877 1.6171875,2.35546877 0.8554688,0 1.59375,-0.64453125 1.59375,-1.55859377 0,-0.890625 -0.703125,-1.546875 -1.5234375,-1.546875 -0.5507812,0 -0.8671875,0.375 -1.0195312,0.6796875 z m 0.9492187,2.20312502 c -0.3515625,0 -0.6210937,-0.19921875 -0.7617187,-0.515625 C 5.0954453,-0.79632813 5.0368516,-1.1478906 5.0368516,-1.5697656 c 0,-0.6796875 0.4101562,-1.1953125 0.9609375,-1.1953125 0.328125,0 0.5390625,0.1171875 0.7148437,0.3867187 0.1640625,0.2578125 0.1757813,0.5507813 0.1757813,0.9609375 0,0.3984375 0,0.69140627 -0.1875,0.96093752 -0.1757813,0.24609375 -0.3984375,0.375 -0.7382813,0.375 z m 0,0"
         style="fill:#ffffff;fill-opacity:1;fill-rule:nonzero;stroke:none" />
      <path
         id="path16"
         d="m 15.730211,0.205625 c 0,-2.0039063 -0.726563,-3.7265625 -3.339844,-3.7265625 -2.7539061,0 -3.3398436,1.9101562 -3.3398436,3.7265625 0,1.8632812 0.6445313,3.6328125 3.3398436,3.6328125 2.566406,0 3.339844,-1.5820313 3.339844,-3.6328125 z m -3.339844,2.8359375 c -1.875,0 -1.875,-2.0859375 -1.875,-2.98828125 0,-0.87890625 0,-2.78906255 1.875,-2.78906255 1.875,0 1.875,1.8867188 1.875,2.78906255 0,0.87890625 0,2.98828125 -1.875,2.98828125 z m 0,0"
         style="fill:#ffffff;fill-opacity:1;fill-rule:nonzero;stroke:none" />
    </g>
    <path
       id="path17"
       d="m 18.42546,-74.49889 c 0,10.17624 -8.24924,18.42548 -18.42546,18.42548 -10.17622,0 -18.42546,-8.24924 -18.42546,-18.42548 0,-10.17624 8.24924,-18.42546 18.42546,-18.42546 10.17622,0 18.42546,8.24922 18.42546,18.42546 z"
       style="fill:#595959;fill-opacity:1;fill-rule:nonzero;stroke:#000000;stroke-width:0.79701;stroke-linecap:butt;stroke-linejoin:miter;stroke-miterlimit:10;stroke-dasharray:none;stroke-opacity:1"
       transform="matrix(1.3333333,0,0,-1.3333333,144.792,43.996)" />
    <g
       id="g17"
       aria-label="12&#10;C"
       transform="matrix(1.3333333,0,0,1.3333333,134.49733,143.91333)">
      <path
         id="path18"
         d="m 2.3311016,-4.4291406 c 0,-0.1875 -0.011719,-0.1992188 -0.2109375,-0.1992188 -0.4453125,0.4335938 -1.078125,0.4453125 -1.35937504,0.4453125 v 0.2460938 c 0.1640625,0 0.62109374,0 1.00781254,-0.1875 v 3.55078122 c 0,0.234375 0,0.328125 -0.6914063,0.328125 H 0.80766406 V 5.46875e-4 C 0.93657031,-0.01117188 1.7920391,-0.02289063 2.0498516,-0.02289063 c 0.2109375,0 1.0898437,0.01171875 1.2421875,0.023437505 V -0.24554688 H 3.0342266 c -0.703125,0 -0.703125,-0.09375 -0.703125,-0.328125 z m 5.15625,3.1640625 h -0.234375 c -0.023437,0.1523437 -0.082031,0.56249997 -0.1757813,0.63281247 -0.058594,0.0351563 -0.5976562,0.0351563 -0.6914062,0.0351563 H 5.0967266 c 0.7382812,-0.64453117 0.984375,-0.84375007 1.3945312,-1.17187507 0.515625,-0.4101562 0.9960938,-0.84375 0.9960938,-1.5 0,-0.8437499 -0.7382813,-1.3593749 -1.6289063,-1.3593749 -0.8671875,0 -1.453125,0.609375 -1.453125,1.2421874 0,0.3632813 0.3046875,0.3984375 0.375,0.3984375 0.1640625,0 0.375,-0.1171875 0.375,-0.375 0,-0.1289062 -0.058594,-0.3632812 -0.421875,-0.3632812 0.2226563,-0.5039062 0.6914063,-0.6562499 1.0195313,-0.6562499 0.703125,0 1.0664062,0.5507812 1.0664062,1.1132812 0,0.609375 -0.4335937,1.0898438 -0.65625,1.3359375 l -1.6875,1.66406247 c -0.070312,0.0585938 -0.070312,0.0703125 -0.070312,0.269531255 h 2.8828125 z m 0,0"
         style="fill:#ffffff;fill-opacity:1;fill-rule:nonzero;stroke:none" />
      <path
         id="path19"
         d="m 14.8145,2.1860937 c 0,-0.070312 -0.07031,-0.1171875 -0.105469,-0.1171875 -0.246093,0 -0.527343,0.6445313 -1.933593,0.6445313 -1.757813,0 -2.25,-1.0664063 -2.25,-2.56640625 0,-1.47656255 0.539062,-2.55468755 2.167968,-2.55468755 0.890625,0 1.359375,0.3398438 1.628907,0.5625 0.05859,0.046875 0.08203,0.09375 0.152343,0.09375 0.04687,0 0.09375,-0.046875 0.105469,-0.09375 l 0.199219,-1.1015625 c 0,-0.046875 0,-0.082031 -0.08203,-0.1171875 -0.585938,-0.2109375 -1.195313,-0.3515625 -1.96875,-0.3515625 -2.4375,0 -3.679688,1.1835938 -3.679688,3.5507813 0,2.4492187 1.265625,3.5859375 3.679688,3.5859375 0.855468,0 1.382812,-0.1289063 2.109375,-0.5742188 0.08203,-0.046875 0.05859,-0.1171875 0.05859,-0.1171875 z m 0,0"
         style="fill:#ffffff;fill-opacity:1;fill-rule:nonzero;stroke:none" />
    </g>
    <path
       id="path20"
       d="m 73.08167,-74.49889 c 0,10.17624 -8.24924,18.42548 -18.42547,18.42548 -10.17623,0 -18.42547,-8.24924 -18.42547,-18.42548 0,-10.17624 8.24924,-18.42546 18.42547,-18.42546 10.17623,0 18.42547,8.24922 18.42547,18.42546 z"
       style="fill:#dfbb03;fill-opacity:1;fill-rule:nonzero;stroke:#000000;stroke-width:0.79701;stroke-linecap:butt;stroke-linejoin:miter;stroke-miterlimit:10;stroke-dasharray:none;stroke-opacity:1"
       transform="matrix(1.3333333,0,0,-1.3333333,144.792,43.996)" />
    <g
       id="g20"
       aria-label="32&#10;S"
       transform="matrix(1.3333333,0,0,1.3333333,207.98,143.91333)">
      <path
         id="path21"
         d="m 1.8987891,-2.3314844 c 0.5507812,0 0.9375,0.375 0.9375,1.125 0,0.86718752 -0.5039063,1.12500002 -0.9023438,1.12500002 -0.28125,0 -0.890625,-0.08203125 -1.18359374,-0.4921875 0.32812504,-0.0117188 0.39843754,-0.24609375 0.39843754,-0.38671875 0,-0.22265627 -0.16406254,-0.38671877 -0.38671879,-0.38671877 -0.1875,0 -0.38671875,0.1171875 -0.38671875,0.41015627 0,0.65625 0.72656254,1.078125 1.57031254,1.078125 0.9726562,0 1.640625,-0.64453125 1.640625,-1.34765627 0,-0.5390625 -0.4453125,-1.0898437 -1.21875,-1.2421875 0.7382812,-0.2695312 0.9960937,-0.796875 0.9960937,-1.21875 0,-0.5507812 -0.6328125,-0.9609375 -1.40625,-0.9609375 -0.7734375,0 -1.35937499,0.375 -1.35937499,0.9375 0,0.234375 0.15234375,0.3632813 0.36328125,0.3632813 0.21093754,0 0.35156254,-0.1640625 0.35156254,-0.3515625 0,-0.1992188 -0.140625,-0.3515625 -0.35156254,-0.3632813 0.23437504,-0.3046875 0.71484374,-0.3867187 0.97265624,-0.3867187 0.3164063,0 0.7617188,0.1523437 0.7617188,0.7617187 0,0.2929688 -0.1054688,0.609375 -0.28125,0.8320313 -0.234375,0.2578125 -0.421875,0.28125 -0.7734375,0.2929687 -0.1757813,0.023437 -0.1875,0.023437 -0.2226563,0.023437 -0.011719,0 -0.070312,0.011719 -0.070312,0.09375 0,0.09375 0.058594,0.09375 0.1757813,0.09375 z m 5.5898437,1.0664063 h -0.234375 c -0.023437,0.1523437 -0.082031,0.56249997 -0.1757812,0.63281247 -0.058594,0.0351563 -0.5976563,0.0351563 -0.6914063,0.0351563 H 5.0980078 c 0.7382813,-0.64453117 0.984375,-0.84374997 1.3945313,-1.17187507 0.515625,-0.4101562 0.9960937,-0.84375 0.9960937,-1.5 0,-0.8437499 -0.7382812,-1.3593749 -1.6289062,-1.3593749 -0.8671875,0 -1.453125,0.609375 -1.453125,1.2421874 0,0.3632813 0.3046875,0.3984375 0.375,0.3984375 0.1640625,0 0.375,-0.1171875 0.375,-0.375 0,-0.1289062 -0.058594,-0.3632812 -0.421875,-0.3632812 0.2226562,-0.5039062 0.6914062,-0.6562499 1.0195312,-0.6562499 0.703125,0 1.0664063,0.5507812 1.0664063,1.1132812 0,0.609375 -0.4335938,1.0898438 -0.65625,1.3359375 l -1.6875,1.66406247 c -0.070312,0.0585938 -0.070312,0.0703125 -0.070312,0.269531255 h 2.8828125 z m 0,0"
         style="fill:#ffffff;fill-opacity:1;fill-rule:nonzero;stroke:none" />
      <path
         id="path22"
         d="m 11.136094,-0.77875 c -0.222656,-0.046875 -0.84375,-0.28125 -0.84375,-0.84375 0,-0.84375 0.84375,-0.8671875 1.183594,-0.8671875 0.5625,0 1.054687,0.1289062 1.546875,0.609375 0.164062,0.1523437 0.164062,0.1523437 0.210937,0.1523437 0.05859,0 0.105469,-0.023437 0.140625,-0.1757812 l 0.152344,-0.8671875 c 0.01172,-0.082031 0.01172,-0.09375 0.01172,-0.1289063 0,-0.082031 -0.01172,-0.09375 -0.257813,-0.2226562 -0.703125,-0.3398438 -1.289062,-0.3984375 -1.804687,-0.3984375 -0.878907,0 -2.4257817,0.2109375 -2.4257817,2.0742187 0,0.7148438 0.3632812,1.17187505 0.5507812,1.3710938 C 10.116563,0.44 10.585313,0.53375 11.35875,0.72125 c 0.5625,0.12890625 0.773438,0.17578125 0.996094,0.375 0.105469,0.09375 0.304687,0.3046875 0.304687,0.6914062 0,0.9257813 -0.855468,0.9609375 -1.183593,0.9609375 -0.832032,0 -1.5585942,-0.3398437 -2.0625005,-0.7851562 C 9.29625,1.84625 9.2728125,1.84625 9.2376563,1.84625 c -0.058594,0 -0.1054688,0.023437 -0.140625,0.1757812 L 8.9446875,2.8892187 c -0.011719,0.082031 -0.011719,0.09375 -0.011719,0.1289063 0,0.2109375 1.03125,0.5625 1.0781255,0.5859375 0.667969,0.2109375 1.207031,0.234375 1.464844,0.234375 1.5,0 2.4375,-0.6679688 2.4375,-2.2148438 0,-1.1132812 -0.832032,-1.9570312 -1.828125,-2.17968745 z m 0,0"
         style="fill:#ffffff;fill-opacity:1;fill-rule:nonzero;stroke:none" />
    </g>
    <path
       id="path23"
       d="M -18.82396,-71.09741 H -35.83223"
       style="fill:none;stroke:#a6a6a6;stroke-width:1.49442;stroke-linecap:butt;stroke-linejoin:miter;stroke-miterlimit:10;stroke-dasharray:none;stroke-opacity:1"
       transform="matrix(1.3333333,0,0,-1.3333333,144.792,43.996)" />
    <path
       id="path24"
       d="M -18.82396,-77.90036 H -35.83223"
       style="fill:none;stroke:#a6a6a6;stroke-width:1.49442;stroke-linecap:butt;stroke-linejoin:miter;stroke-miterlimit:10;stroke-dasharray:none;stroke-opacity:1"
       transform="matrix(1.3333333,0,0,-1.3333333,144.792,43.996)" />
    <path
       id="path25"
       d="M 18.82396,-71.09741 H 35.83223"
       style="fill:none;stroke:#a6a6a6;stroke-width:1.49442;stroke-linecap:butt;stroke-linejoin:miter;stroke-miterlimit:10;stroke-dasharray:none;stroke-opacity:1"
       transform="matrix(1.3333333,0,0,-1.3333333,144.792,43.996)" />
    <path
       id="path26"
       d="M 18.82396,-77.90036 H 35.83223"
       style="fill:none;stroke:#a6a6a6;stroke-width:1.49442;stroke-linecap:butt;stroke-linejoin:miter;stroke-miterlimit:10;stroke-dasharray:none;stroke-opacity:1"
       transform="matrix(1.3333333,0,0,-1.3333333,144.792,43.996)" />
    <path
       id="path27"
       d="m -36.23073,-148.99777 c 0,10.17624 -8.24924,18.42546 -18.42547,18.42546 -10.17623,0 -18.42547,-8.24922 -18.42547,-18.42546 0,-10.17624 8.24924,-18.42548 18.42547,-18.42548 10.17623,0 18.42547,8.24924 18.42547,18.42548 z"
       style="fill:#dfbb03;fill-opacity:1;fill-rule:nonzero;stroke:#000000;stroke-width:0.79701;stroke-linecap:butt;stroke-linejoin:miter;stroke-miterlimit:10;stroke-dasharray:none;stroke-opacity:1"
       transform="matrix(1.3333333,0,0,-1.3333333,144.792,43.996)" />
    <g
       id="g27"
       aria-label="32&#10;S"
       transform="matrix(1.3333333,0,0,1.3333333,62.232,243.24267)">
      <path
         id="path28"
         d="m 1.8972891,-2.3323906 c 0.5507812,0 0.9375,0.375 0.9375,1.125 0,0.86718748 -0.5039063,1.12499998 -0.9023438,1.12499998 -0.28125,0 -0.890625,-0.08203125 -1.18359374,-0.4921875 0.32812504,-0.0117188 0.39843754,-0.24609375 0.39843754,-0.38671875 0,-0.22265623 -0.16406254,-0.38671873 -0.38671879,-0.38671873 -0.1875,0 -0.38671875,0.1171875 -0.38671875,0.41015623 0,0.65625 0.72656254,1.078125 1.57031254,1.078125 0.9726562,0 1.640625,-0.64453125 1.640625,-1.34765623 0,-0.5390625 -0.4453125,-1.0898438 -1.21875,-1.2421875 0.7382812,-0.2695313 0.9960937,-0.796875 0.9960937,-1.21875 0,-0.5507813 -0.6328125,-0.9609375 -1.40625,-0.9609375 -0.7734375,0 -1.35937499,0.375 -1.35937499,0.9375 0,0.234375 0.15234375,0.3632812 0.36328125,0.3632812 0.21093754,0 0.35156254,-0.1640625 0.35156254,-0.3515625 0,-0.1992187 -0.140625,-0.3515625 -0.35156254,-0.3632812 0.23437504,-0.3046875 0.71484374,-0.3867188 0.97265624,-0.3867188 0.3164063,0 0.7617188,0.1523438 0.7617188,0.7617188 0,0.2929687 -0.1054688,0.609375 -0.28125,0.8320312 -0.234375,0.2578125 -0.421875,0.28125 -0.7734375,0.2929688 -0.1757813,0.023437 -0.1875,0.023437 -0.2226563,0.023437 -0.011719,0 -0.070312,0.011719 -0.070312,0.09375 0,0.09375 0.058594,0.09375 0.1757813,0.09375 z m 5.5898437,1.0664062 h -0.234375 c -0.023437,0.1523438 -0.082031,0.56250003 -0.1757812,0.63281253 -0.058594,0.0351563 -0.5976563,0.0351563 -0.6914063,0.0351563 H 5.0965078 c 0.7382813,-0.64453133 0.984375,-0.84374993 1.3945313,-1.17187493 0.515625,-0.4101564 0.9960937,-0.8437501 0.9960937,-1.5000001 0,-0.8437499 -0.7382812,-1.3593749 -1.6289062,-1.3593749 -0.8671875,0 -1.453125,0.609375 -1.453125,1.2421875 0,0.3632812 0.3046875,0.3984375 0.375,0.3984375 0.1640625,0 0.375,-0.1171875 0.375,-0.375 0,-0.1289063 -0.058594,-0.3632813 -0.421875,-0.3632813 0.2226562,-0.5039062 0.6914062,-0.65625 1.0195312,-0.65625 0.703125,0 1.0664063,0.5507812 1.0664063,1.1132812 0,0.609375 -0.4335938,1.0898437 -0.65625,1.3359375 l -1.6875,1.66406253 c -0.070312,0.0585938 -0.070312,0.0703125 -0.070312,0.269531245 h 2.8828125 z m 0,0"
         style="fill:#ffffff;fill-opacity:1;fill-rule:nonzero;stroke:none" />
      <path
         id="path29"
         d="m 11.137523,-0.77965625 c -0.222656,-0.046875 -0.84375,-0.28124995 -0.84375,-0.84374995 0,-0.84375 0.84375,-0.8671875 1.183594,-0.8671875 0.5625,0 1.054688,0.1289062 1.546875,0.609375 0.164063,0.1523437 0.164063,0.1523437 0.210938,0.1523437 0.05859,0 0.105468,-0.023437 0.140625,-0.1757812 l 0.152343,-0.8671875 c 0.01172,-0.082031 0.01172,-0.09375 0.01172,-0.1289063 0,-0.082031 -0.01172,-0.09375 -0.257812,-0.2226562 -0.703125,-0.3398438 -1.289063,-0.3984375 -1.804688,-0.3984375 -0.878906,0 -2.4257811,0.2109375 -2.4257811,2.0742187 0,0.71484375 0.3632813,1.171875 0.5507813,1.37109375 0.5156248,0.515625 0.9843748,0.609375 1.7578128,0.796875 0.5625,0.12890625 0.773437,0.17578125 0.996093,0.37500005 0.105469,0.09375 0.304688,0.3046875 0.304688,0.6914062 0,0.9257813 -0.855469,0.9609375 -1.183594,0.9609375 -0.832031,0 -1.5585936,-0.3398437 -2.0624998,-0.7851562 C 9.2976797,1.8453438 9.2742422,1.8453438 9.2390859,1.8453438 c -0.058594,0 -0.1054687,0.023437 -0.140625,0.1757812 L 8.9461172,2.8883125 c -0.011719,0.082031 -0.011719,0.09375 -0.011719,0.1289063 0,0.2109375 1.03125,0.5625 1.0781248,0.5859375 0.667969,0.2109375 1.207032,0.234375 1.464844,0.234375 1.5,0 2.4375,-0.6679688 2.4375,-2.2148438 0,-1.11328125 -0.832031,-1.95703125 -1.828125,-2.1796875 z m 0,0"
         style="fill:#ffffff;fill-opacity:1;fill-rule:nonzero;stroke:none" />
    </g>
    <path
       id="path30"
       d="m 18.42546,-148.99777 c 0,10.17624 -8.24924,18.42546 -18.42546,18.42546 -10.17622,0 -18.42546,-8.24922 -18.42546,-18.42546 0,-10.17624 8.24924,-18.42548 18.42546,-18.42548 10.17622,0 18.42546,8.24924 18.42546,18.42548 z"
       style="fill:#595959;fill-opacity:1;fill-rule:nonzero;stroke:#000000;stroke-width:0.79701;stroke-linecap:butt;stroke-linejoin:miter;stroke-miterlimit:10;stroke-dasharray:none;stroke-opacity:1"
       transform="matrix(1.3333333,0,0,-1.3333333,144.792,43.996)" />
    <g
       id="g30"
       aria-label="12&#10;C"
       transform="matrix(1.3333333,0,0,1.3333333,134.49733,243.24267)">
      <path
         id="path31"
         d="m 2.3311016,-4.4300469 c 0,-0.1875 -0.011719,-0.1992187 -0.2109375,-0.1992187 -0.4453125,0.4335937 -1.078125,0.4453125 -1.35937504,0.4453125 v 0.2460937 c 0.1640625,0 0.62109374,0 1.00781254,-0.1875 v 3.55078128 c 0,0.234375 0,0.328125 -0.6914063,0.328125 H 0.80766406 V -3.59375e-4 C 0.93657031,-0.01207812 1.7920391,-0.02379687 2.0498516,-0.02379687 c 0.2109375,0 1.0898437,0.01171875 1.2421875,0.023437495 V -0.24645312 H 3.0342266 c -0.703125,0 -0.703125,-0.09375 -0.703125,-0.328125 z m 5.15625,3.1640625 h -0.234375 c -0.023437,0.1523438 -0.082031,0.56250003 -0.1757813,0.63281253 -0.058594,0.0351563 -0.5976562,0.0351563 -0.6914062,0.0351563 H 5.0967266 c 0.7382812,-0.64453123 0.984375,-0.84374993 1.3945312,-1.17187493 0.515625,-0.4101563 0.9960938,-0.84375 0.9960938,-1.5 0,-0.84375 -0.7382813,-1.359375 -1.6289063,-1.359375 -0.8671875,0 -1.453125,0.609375 -1.453125,1.2421875 0,0.3632812 0.3046875,0.3984375 0.375,0.3984375 0.1640625,0 0.375,-0.1171875 0.375,-0.375 0,-0.1289063 -0.058594,-0.3632813 -0.421875,-0.3632813 0.2226563,-0.5039062 0.6914063,-0.65625 1.0195313,-0.65625 0.703125,0 1.0664062,0.5507812 1.0664062,1.1132812 0,0.609375 -0.4335937,1.0898437 -0.65625,1.3359375 l -1.6875,1.66406253 c -0.070312,0.0585938 -0.070312,0.0703125 -0.070312,0.269531245 h 2.8828125 z m 0,0"
         style="fill:#ffffff;fill-opacity:1;fill-rule:nonzero;stroke:none" />
      <path
         id="path32"
         d="M 14.8145,2.1851875 C 14.8145,2.114875 14.744188,2.068 14.709031,2.068 c -0.246093,0 -0.527343,0.6445313 -1.933593,0.6445313 -1.757813,0 -2.25,-1.0664063 -2.25,-2.5664063 0,-1.4765625 0.539062,-2.5546875 2.167968,-2.5546875 0.890625,0 1.359375,0.3398438 1.628907,0.5625 0.05859,0.046875 0.08203,0.09375 0.152343,0.09375 0.04687,0 0.09375,-0.046875 0.105469,-0.09375 l 0.199219,-1.1015625 c 0,-0.046875 0,-0.082031 -0.08203,-0.1171875 C 14.111375,-3.27575 13.502,-3.416375 12.728563,-3.416375 c -2.4375,0 -3.679688,1.1835938 -3.679688,3.55078125 0,2.44921875 1.265625,3.58593755 3.679688,3.58593755 0.855468,0 1.382812,-0.1289063 2.109375,-0.5742188 0.08203,-0.046875 0.05859,-0.1171875 0.05859,-0.1171875 z m 0,0"
         style="fill:#ffffff;fill-opacity:1;fill-rule:nonzero;stroke:none" />
    </g>
    <path
       id="path33"
       d="m 73.08167,-148.99777 c 0,10.17624 -8.24924,18.42546 -18.42547,18.42546 -10.17623,0 -18.42547,-8.24922 -18.42547,-18.42546 0,-10.17624 8.24924,-18.42548 18.42547,-18.42548 10.17623,0 18.42547,8.24924 18.42547,18.42548 z"
       style="fill:#dfbb03;fill-opacity:1;fill-rule:nonzero;stroke:#000000;stroke-width:0.79701;stroke-linecap:butt;stroke-linejoin:miter;stroke-miterlimit:10;stroke-dasharray:none;stroke-opacity:1"
       transform="matrix(1.3333333,0,0,-1.3333333,144.792,43.996)" />
    <g
       id="g33"
       aria-label="32&#10;S"
       transform="matrix(1.3333333,0,0,1.3333333,207.98,243.24267)">
      <path
         id="path34"
         d="m 1.8987891,-2.3323906 c 0.5507812,0 0.9375,0.375 0.9375,1.125 0,0.86718748 -0.5039063,1.12499998 -0.9023438,1.12499998 -0.28125,0 -0.890625,-0.08203125 -1.18359374,-0.4921875 0.32812504,-0.0117188 0.39843754,-0.24609375 0.39843754,-0.38671875 0,-0.22265623 -0.16406254,-0.38671873 -0.38671879,-0.38671873 -0.1875,0 -0.38671875,0.1171875 -0.38671875,0.41015623 0,0.65625 0.72656254,1.078125 1.57031254,1.078125 0.9726562,0 1.640625,-0.64453125 1.640625,-1.34765623 0,-0.5390625 -0.4453125,-1.0898438 -1.21875,-1.2421875 0.7382812,-0.2695313 0.9960937,-0.796875 0.9960937,-1.21875 0,-0.5507813 -0.6328125,-0.9609375 -1.40625,-0.9609375 -0.7734375,0 -1.35937499,0.375 -1.35937499,0.9375 0,0.234375 0.15234375,0.3632812 0.36328125,0.3632812 0.21093754,0 0.35156254,-0.1640625 0.35156254,-0.3515625 0,-0.1992187 -0.140625,-0.3515625 -0.35156254,-0.3632812 0.23437504,-0.3046875 0.71484374,-0.3867188 0.97265624,-0.3867188 0.3164063,0 0.7617188,0.1523438 0.7617188,0.7617188 0,0.2929687 -0.1054688,0.609375 -0.28125,0.8320312 -0.234375,0.2578125 -0.421875,0.28125 -0.7734375,0.2929688 -0.1757813,0.023437 -0.1875,0.023437 -0.2226563,0.023437 -0.011719,0 -0.070312,0.011719 -0.070312,0.09375 0,0.09375 0.058594,0.09375 0.1757813,0.09375 z m 5.5898437,1.0664062 h -0.234375 c -0.023437,0.1523438 -0.082031,0.56250003 -0.1757812,0.63281253 -0.058594,0.0351563 -0.5976563,0.0351563 -0.6914063,0.0351563 H 5.0980078 c 0.7382813,-0.64453133 0.984375,-0.84374993 1.3945313,-1.17187493 0.515625,-0.4101564 0.9960937,-0.8437501 0.9960937,-1.5000001 0,-0.8437499 -0.7382812,-1.3593749 -1.6289062,-1.3593749 -0.8671875,0 -1.453125,0.609375 -1.453125,1.2421875 0,0.3632812 0.3046875,0.3984375 0.375,0.3984375 0.1640625,0 0.375,-0.1171875 0.375,-0.375 0,-0.1289063 -0.058594,-0.3632813 -0.421875,-0.3632813 0.2226562,-0.5039062 0.6914062,-0.65625 1.0195312,-0.65625 0.703125,0 1.0664063,0.5507812 1.0664063,1.1132812 0,0.609375 -0.4335938,1.0898437 -0.65625,1.3359375 l -1.6875,1.66406253 c -0.070312,0.0585938 -0.070312,0.0703125 -0.070312,0.269531245 h 2.8828125 z m 0,0"
         style="fill:#ffffff;fill-opacity:1;fill-rule:nonzero;stroke:none" />
      <path
         id="path35"
         d="m 11.136094,-0.77965625 c -0.222656,-0.046875 -0.84375,-0.28124995 -0.84375,-0.84374995 0,-0.84375 0.84375,-0.8671875 1.183594,-0.8671875 0.5625,0 1.054687,0.1289062 1.546875,0.609375 0.164062,0.1523437 0.164062,0.1523437 0.210937,0.1523437 0.05859,0 0.105469,-0.023437 0.140625,-0.1757812 l 0.152344,-0.8671875 c 0.01172,-0.082031 0.01172,-0.09375 0.01172,-0.1289063 0,-0.082031 -0.01172,-0.09375 -0.257813,-0.2226562 -0.703125,-0.3398438 -1.289062,-0.3984375 -1.804687,-0.3984375 -0.878907,0 -2.4257817,0.2109375 -2.4257817,2.0742187 0,0.71484375 0.3632812,1.171875 0.5507812,1.37109375 0.5156255,0.515625 0.9843755,0.609375 1.7578125,0.796875 0.5625,0.12890625 0.773438,0.17578125 0.996094,0.37500005 0.105469,0.09375 0.304687,0.3046875 0.304687,0.6914062 0,0.9257813 -0.855468,0.9609375 -1.183593,0.9609375 -0.832032,0 -1.5585942,-0.3398437 -2.0625005,-0.7851562 C 9.29625,1.8453438 9.2728125,1.8453438 9.2376563,1.8453438 c -0.058594,0 -0.1054688,0.023437 -0.140625,0.1757812 L 8.9446875,2.8883125 c -0.011719,0.082031 -0.011719,0.09375 -0.011719,0.1289063 0,0.2109375 1.03125,0.5625 1.0781255,0.5859375 0.667969,0.2109375 1.207031,0.234375 1.464844,0.234375 1.5,0 2.4375,-0.6679688 2.4375,-2.2148438 0,-1.11328125 -0.832032,-1.95703125 -1.828125,-2.1796875 z m 0,0"
         style="fill:#ffffff;fill-opacity:1;fill-rule:nonzero;stroke:none" />
    </g>
    <path
       id="path36"
       d="M -18.82396,-145.5963 H -35.83223"
       style="fill:none;stroke:#a6a6a6;stroke-width:1.49442;stroke-linecap:butt;stroke-linejoin:miter;stroke-miterlimit:10;stroke-dasharray:none;stroke-opacity:1"
       transform="matrix(1.3333333,0,0,-1.3333333,144.792,43.996)" />
    <path
       id="path37"
       d="M -18.82396,-152.39925 H -35.83223"
       style="fill:none;stroke:#a6a6a6;stroke-width:1.49442;stroke-linecap:butt;stroke-linejoin:miter;stroke-miterlimit:10;stroke-dasharray:none;stroke-opacity:1"
       transform="matrix(1.3333333,0,0,-1.3333333,144.792,43.996)" />
    <path
       id="path38"
       d="M 18.82396,-145.5963 H 35.83223"
       style="fill:none;stroke:#a6a6a6;stroke-width:1.49442;stroke-linecap:butt;stroke-linejoin:miter;stroke-miterlimit:10;stroke-dasharray:none;stroke-opacity:1"
       transform="matrix(1.3333333,0,0,-1.3333333,144.792,43.996)" />
    <path
       id="path39"
       d="M 18.82396,-152.39925 H 35.83223"
       style="fill:none;stroke:#a6a6a6;stroke-width:1.49442;stroke-linecap:butt;stroke-linejoin:miter;stroke-miterlimit:10;stroke-dasharray:none;stroke-opacity:1"
       transform="matrix(1.3333333,0,0,-1.3333333,144.792,43.996)" />
    <path
       id="path40"
       d="m -73.48016,0 c -20.54319,-20.54317 -20.54319,-53.9557 0,-74.49889"
       style="fill:none;stroke:#ff8000;stroke-width:0.79701;stroke-linecap:butt;stroke-linejoin:miter;stroke-miterlimit:10;stroke-dasharray:2.98883, 2.98883;stroke-dashoffset:0;stroke-opacity:1"
       transform="matrix(1.3333333,0,0,-1.3333333,144.792,43.996)" />
    <path
       id="path41"
       d="m 73.48016,-74.49889 c 20.54319,-20.54318 20.54319,-53.9557 0,-74.49888"
       style="fill:none;stroke:#ff8000;stroke-width:0.79701;stroke-linecap:butt;stroke-linejoin:miter;stroke-miterlimit:10;stroke-dasharray:2.98883, 2.98883;stroke-dashoffset:0;stroke-opacity:1"
       transform="matrix(1.3333333,0,0,-1.3333333,144.792,43.996)" />
  </g>
</svg>
