<?xml version="1.0" encoding="UTF-8" standalone="no"?>
<!-- Created with Inkscape (http://www.inkscape.org/) -->

<svg
   version="1.1"
   id="svg1"
   width="462.19601"
   height="162.43201"
   viewBox="0 0 462.19601 162.43201"
   sodipodi:docname="ie.pdf"
   xmlns:inkscape="http://www.inkscape.org/namespaces/inkscape"
   xmlns:sodipodi="http://sodipodi.sourceforge.net/DTD/sodipodi-0.dtd"
   xmlns="http://www.w3.org/2000/svg"
   xmlns:svg="http://www.w3.org/2000/svg">
  <defs
     id="defs1" />
  <sodipodi:namedview
     id="namedview1"
     pagecolor="#ffffff"
     bordercolor="#000000"
     borderopacity="0.25"
     inkscape:showpageshadow="2"
     inkscape:pageopacity="0.0"
     inkscape:pagecheckerboard="0"
     inkscape:deskcolor="#d1d1d1">
    <inkscape:page
       x="0"
       y="0"
       inkscape:label="1"
       id="page1"
       width="462.19601"
       height="162.43201"
       margin="0"
       bleed="0" />
  </sodipodi:namedview>
  <g
     id="g1"
     inkscape:groupmode="layer"
     inkscape:label="1">
    <path
       id="path1"
       d="m 26.35425,12.75597 h -52.7085 c -1.10048,0 -1.99255,-0.89208 -1.99255,-1.99256 v -21.52682 c 0,-1.10048 0.89207,-1.99256 1.99255,-1.99256 h 52.7085 c 1.10048,0 1.99255,0.89208 1.99255,1.99256 v 21.52682 c 0,1.10048 -0.89207,1.99256 -1.99255,1.99256 z"
       style="fill:#35b779;fill-opacity:1;fill-rule:nonzero;stroke:#b3b3b3;stroke-width:0.79701;stroke-linecap:butt;stroke-linejoin:miter;stroke-miterlimit:10;stroke-dasharray:none;stroke-opacity:1"
       transform="matrix(1.3333333,0,0,-1.3333333,70.569333,88.897333)" />
    <path
       id="path2"
       d="m 1.7797891,-2.3213125 h 2.7539062 l 0.1171875,-0.5625 H 1.8969766 L 2.2485391,-4.5127188 H 5.1196328 L 5.2368203,-5.0869375 H 1.7094766 L 0.63135156,-0.001 H 4.2758828 L 4.3930703,-0.57521875 H 1.4047891 Z M 9.4086953,-7.2724844 H 8.8227578 l -0.7734375,3.65625 H 8.6352578 Z M 9.7133828,-8.7021719 H 9.1274453 l -0.1523437,0.7265625 h 0.5859375 z m 3.6123052,2.4492188 c 0.03516,-0.140625 0.03516,-0.2109375 0.03516,-0.2929688 0,-0.4921875 -0.457031,-0.8320312 -1.136719,-0.8320312 -0.492187,0 -0.925781,0.1523437 -1.207031,0.421875 -0.257813,0.2460937 -0.421875,0.609375 -0.421875,0.9375 0,0.421875 0.246094,0.6210937 0.960937,0.8085937 l 0.515625,0.140625 c 0.234375,0.058594 0.339844,0.1054688 0.398438,0.1757813 0.04687,0.058594 0.09375,0.1640625 0.09375,0.234375 0,0.1171875 -0.117188,0.3398437 -0.222656,0.4335937 -0.175782,0.140625 -0.480469,0.234375 -0.773438,0.234375 -0.480469,0 -0.75,-0.1875 -0.75,-0.5390625 0,-0.046875 0,-0.1054687 0.01172,-0.1757812 H 10.2085 c -0.03516,0.1640625 -0.04687,0.2460937 -0.04687,0.3632812 0,0.5507813 0.492188,0.890625 1.300781,0.890625 1.042969,0 1.710938,-0.5390625 1.710938,-1.3710937 0,-0.421875 -0.222656,-0.6445313 -0.84375,-0.796875 l -0.527344,-0.140625 c -0.386719,-0.09375 -0.585937,-0.234375 -0.585937,-0.4101563 0,-0.140625 0.08203,-0.3164062 0.199218,-0.4335937 0.175782,-0.1640625 0.386719,-0.234375 0.691407,-0.234375 0.410156,0 0.632812,0.1640625 0.632812,0.4335937 0,0.046875 0,0.09375 0,0.1523438 z m 2.774414,-1.125 c -0.644532,0 -1.21875,0.2929687 -1.570313,0.8085937 -0.316406,0.4453125 -0.539062,1.21875 -0.539062,1.8046875 0,0.7734375 0.527343,1.3125 1.3125,1.3125 0.667968,0 1.195312,-0.28125 1.59375,-0.8085937 0.316406,-0.4453125 0.550781,-1.2070313 0.550781,-1.8046875 0,-0.375 -0.140625,-0.7265625 -0.386719,-0.9726563 -0.234375,-0.2226562 -0.550781,-0.3398437 -0.960937,-0.3398437 z m -0.08203,0.5390625 c 0.515625,0 0.808594,0.3398437 0.808594,0.9023437 0,0.4101563 -0.117187,0.8671875 -0.304687,1.2070313 -0.257813,0.4804687 -0.644532,0.7382812 -1.125,0.7382812 -0.492188,0 -0.796875,-0.3515625 -0.796875,-0.9023437 0,-0.3984375 0.117187,-0.8671875 0.304687,-1.2070313 0.257813,-0.4804687 0.644531,-0.7382812 1.113281,-0.7382812 z M 10.48975,0.70505469 V 0.59958594 c 0.01172,-0.10546875 0.02344,-0.17578125 0.02344,-0.19921875 0,-0.234375 -0.128907,-0.515625 -0.316407,-0.703125 -0.2109372,-0.22265625 -0.4921872,-0.328125 -0.8906247,-0.328125 -0.6328125,0 -1.1953125,0.26953125 -1.5703125,0.75 -0.328125,0.421875 -0.5625,1.18359371 -0.5625,1.82812501 0,0.328125 0.1171875,0.6679687 0.3046875,0.9140625 0.2460937,0.2929687 0.5507812,0.4335937 0.9960937,0.4335937 0.5742188,0 1.0546875,-0.2109375 1.3828125,-0.5859375 C 10.032719,2.4980234 10.149906,2.2636484 10.255375,1.8769297 H 9.6694375 C 9.4585,2.4511484 9.0835,2.7558359 8.5795938,2.7558359 c -0.4804688,0 -0.7851563,-0.3398437 -0.7851563,-0.890625 0,-0.4453125 0.140625,-0.97265621 0.375,-1.33593746 0.2578125,-0.41015625 0.5976563,-0.62109375 1.03125,-0.62109375 0.4335938,0 0.703125,0.24609375 0.703125,0.64453125 0,0.0351563 0,0.09375 0,0.15234375 z m 3.855469,2.07421871 c -0.05859,0.011719 -0.08203,0.011719 -0.117188,0.011719 -0.175781,0 -0.257812,-0.070312 -0.257812,-0.1992188 0,-0.035156 0,-0.058594 0,-0.070312 l 0.445312,-2.09765621 c 0.04687,-0.19921875 0.04687,-0.19921875 0.04687,-0.2578125 0,-0.48046875 -0.480468,-0.796875 -1.21875,-0.796875 -0.960937,0 -1.558593,0.41015625 -1.6875,1.18359375 h 0.585938 c 0.05859,-0.1875 0.105469,-0.29296875 0.210937,-0.38671875 0.152344,-0.15234375 0.445313,-0.2578125 0.738282,-0.2578125 0.421875,0 0.738281,0.1875 0.738281,0.4453125 0,0.0351563 0,0.0820313 -0.01172,0.12890625 l -0.02344,0.12890625 c -0.05859,0.29296875 -0.1875,0.36328125 -0.703125,0.41015621 -0.925782,0.082031 -1.21875,0.1523438 -1.570313,0.375 -0.351562,0.2226563 -0.5625,0.5976563 -0.5625,1.0078125 0,0.5507813 0.375,0.890625 0.996094,0.890625 0.246094,0 0.539062,-0.046875 0.796875,-0.140625 0.222656,-0.082031 0.328125,-0.1523437 0.609375,-0.3984375 v 0.070312 c 0,0.2929688 0.199219,0.46875 0.527344,0.46875 0.08203,0 0.105468,0 0.269531,-0.046875 0.02344,0 0.05859,-0.011719 0.105469,-0.023437 z m -0.84375,-0.796875 c -0.08203,0.4335938 -0.703125,0.8085938 -1.3125,0.8085938 -0.398438,0 -0.621094,-0.1640625 -0.621094,-0.4570313 0,-0.234375 0.128906,-0.46875 0.339844,-0.5859375 0.164062,-0.1054687 0.375,-0.1640625 0.714844,-0.2109375 0.65625,-0.09375 0.714843,-0.1054687 1.019531,-0.2109375 z m 3.035156,-3.9375 h -0.585937 l -1.089844,5.0859375 h 0.585937 z m 3.84668,2.66015629 V 0.59958594 c 0.01172,-0.10546875 0.02344,-0.17578125 0.02344,-0.19921875 0,-0.234375 -0.128906,-0.515625 -0.316406,-0.703125 -0.210938,-0.22265625 -0.492188,-0.328125 -0.890625,-0.328125 -0.632813,0 -1.195313,0.26953125 -1.570313,0.75 -0.328125,0.421875 -0.5625,1.18359371 -0.5625,1.82812501 0,0.328125 0.117188,0.6679687 0.304688,0.9140625 0.246094,0.2929687 0.550781,0.4335937 0.996094,0.4335937 0.574218,0 1.054687,-0.2109375 1.382812,-0.5859375 0.175781,-0.2109375 0.292969,-0.4453125 0.398438,-0.8320312 h -0.585938 c -0.210937,0.5742187 -0.585937,0.8789062 -1.089844,0.8789062 -0.480468,0 -0.785156,-0.3398437 -0.785156,-0.890625 0,-0.4453125 0.140625,-0.97265621 0.375,-1.33593746 0.257813,-0.41015625 0.597656,-0.62109375 1.03125,-0.62109375 0.433594,0 0.703125,0.24609375 0.703125,0.64453125 0,0.0351563 0,0.09375 0,0.15234375 z m 0,0"
       style="fill:#000000;fill-opacity:1;fill-rule:nonzero;stroke:none"
       aria-label="E&#10;iso&#10;calc"
       transform="matrix(1.3333333,0,0,1.3333333,56.638667,92.501333)" />
    <path
       id="path3"
       d="M 11.026734,-5.5182969 H 6.7611094 v -4.2773437 h -1.453125 v 4.2773437 H 1.0306406 v 1.453125 h 4.2773438 v 4.27734377 h 1.453125 V -4.0651719 h 4.2656246 z m 0,0"
       style="fill:#000000;fill-opacity:1;fill-rule:nonzero;stroke:none"
       aria-label="+"
       transform="matrix(1.3333333,0,0,1.3333333,117.368,95.818667)" />
    <path
       id="path4"
       d="M 108.62122,12.75597 H 55.9127 c -1.10047,0 -1.99255,-0.89208 -1.99255,-1.99256 v -21.52682 c 0,-1.10048 0.89208,-1.99256 1.99255,-1.99256 h 52.70852 c 1.10046,0 1.99255,0.89208 1.99255,1.99256 v 21.52682 c 0,1.10048 -0.89209,1.99256 -1.99255,1.99256 z"
       style="fill:#ff991c;fill-opacity:1;fill-rule:nonzero;stroke:#b3b3b3;stroke-width:0.79701;stroke-linecap:butt;stroke-linejoin:miter;stroke-miterlimit:10;stroke-dasharray:none;stroke-opacity:1"
       transform="matrix(1.3333333,0,0,-1.3333333,70.569333,88.897333)" />
    <path
       id="path5"
       d="m 1.7805234,-2.3202969 h 2.7539063 l 0.1171875,-0.5625 H 1.8977109 L 2.2492734,-4.5117031 H 5.1203672 L 5.2375547,-5.0859219 H 1.7102109 L 0.63208594,1.5625e-5 H 4.2766172 L 4.3938047,-0.57420312 H 1.4055234 Z m 7.0751953,-4.9511718 -0.7734375,3.65625 h 0.5859375 l 0.4921875,-2.296875 c 0.1054688,-0.5273438 0.5859375,-0.9609375 1.0546878,-0.9609375 0.339843,0 0.574218,0.1992187 0.574218,0.4804687 0,0.082031 -0.01172,0.1640625 -0.03516,0.2578125 l -0.539062,2.5195313 h 0.585937 l 0.492188,-2.296875 c 0.105468,-0.5390625 0.597656,-0.9609375 1.089843,-0.9609375 0.328125,0 0.539063,0.1992187 0.539063,0.5390625 0,0.1054687 0,0.1054687 -0.07031,0.3398437 l -0.503906,2.3789063 h 0.585938 l 0.550781,-2.6015625 c 0.02344,-0.070312 0.04687,-0.3046875 0.04687,-0.3867188 0,-0.1757812 -0.08203,-0.375 -0.222656,-0.5273437 C 13.1565,-7.306625 12.969,-7.3769375 12.640875,-7.3769375 c -0.445313,0 -0.84375,0.1875 -1.253906,0.5859375 -0.117188,-0.3984375 -0.386719,-0.5859375 -0.84375,-0.5859375 -0.480469,0 -0.7968753,0.140625 -1.2421878,0.5625 l 0.09375,-0.4570312 z m 8.5283203,3.3046875 c -0.05859,0.011719 -0.08203,0.011719 -0.117187,0.011719 -0.175782,0 -0.257813,-0.070313 -0.257813,-0.1992187 0,-0.035156 0,-0.058594 0,-0.070312 L 17.454352,-6.32225 c 0.04687,-0.1992187 0.04687,-0.1992187 0.04687,-0.2578125 0,-0.4804687 -0.480469,-0.796875 -1.21875,-0.796875 -0.960938,0 -1.558594,0.4101563 -1.6875,1.1835938 h 0.585937 c 0.05859,-0.1875 0.105469,-0.2929688 0.210938,-0.3867188 0.152343,-0.1523437 0.445312,-0.2578125 0.738281,-0.2578125 0.421875,0 0.738281,0.1875 0.738281,0.4453125 0,0.035156 0,0.082031 -0.01172,0.1289063 l -0.02344,0.1289062 c -0.05859,0.2929688 -0.1875,0.3632813 -0.703125,0.4101563 -0.925781,0.082031 -1.21875,0.1523437 -1.570313,0.375 -0.351562,0.2226562 -0.5625,0.5976562 -0.5625,1.0078125 0,0.5507812 0.375,0.890625 0.996094,0.890625 0.246094,0 0.539063,-0.046875 0.796875,-0.140625 0.222656,-0.082031 0.328125,-0.1523438 0.609375,-0.3984375 v 0.070312 c 0,0.2929687 0.199219,0.46875 0.527344,0.46875 0.08203,0 0.105469,0 0.269531,-0.046875 0.02344,0 0.05859,-0.011719 0.105469,-0.023437 z m -0.84375,-0.796875 c -0.08203,0.4335937 -0.703125,0.8085937 -1.3125,0.8085937 -0.398437,0 -0.621094,-0.1640625 -0.621094,-0.4570312 0,-0.234375 0.128907,-0.46875 0.339844,-0.5859375 0.164063,-0.1054688 0.375,-0.1640625 0.714844,-0.2109375 0.65625,-0.09375 0.714844,-0.1054688 1.019531,-0.2109375 z m 2.712891,-2.5078125 h -0.585938 l -0.773437,3.65625 h 0.585937 z m 0.304687,-1.4296875 H 18.97193 l -0.152344,0.7265625 h 0.585937 z m 1.294922,1.4296875 -0.773437,3.65625 h 0.585937 l 0.421875,-2.015625 c 0.164063,-0.7617188 0.65625,-1.2421875 1.277344,-1.2421875 0.351562,0 0.609375,0.2460937 0.609375,0.5625 0,0.046875 -0.01172,0.1523437 -0.03516,0.2578125 l -0.515625,2.4375 h 0.585937 l 0.550781,-2.625 c 0.02344,-0.082031 0.03516,-0.1757813 0.03516,-0.2578125 0,-0.5390625 -0.375,-0.8789063 -0.949219,-0.8789063 -0.539063,0 -0.996094,0.1875 -1.359375,0.5625 l 0.09375,-0.4570312 z m -10.283203,8.10644526 0.02344,-0.1171875 c 0.05859,-0.33984375 0.09375,-0.6328125 0.09375,-0.8203125 0,-0.66796875 -0.574218,-1.19531246 -1.3359371,-1.19531246 -0.5976562,0 -1.1835937,0.2929687 -1.5351562,0.76171871 -0.328125,0.43359375 -0.5859375,1.23046875 -0.5859375,1.79296879 0,0.375 0.1640625,0.7617187 0.4335937,1.0195312 0.2460938,0.234375 0.5507813,0.3515625 0.9492188,0.3515625 0.8320312,0 1.5468753,-0.515625 1.7695313,-1.2773437 H 9.7961484 C 9.5500547,1.8310703 9.1750547,2.0888828 8.7063047,2.0888828 c -0.5507813,0 -0.8671875,-0.3398437 -0.8671875,-0.9375 0,-0.140625 0.011719,-0.21093749 0.035156,-0.31640624 z M 8.0031797,0.33107031 c 0.1757812,-0.64453125 0.703125,-1.08984375 1.265625,-1.08984375 0.4921875,0 0.8085933,0.33984375 0.8085933,0.85546875 0,0.0703125 -0.01172,0.1171875 -0.02344,0.234375 z M 12.898687,0.60060156 14.527594,-1.1923672 H 13.847906 L 12.68775,0.14357031 12.066656,-1.1923672 h -0.644531 l 0.820312,1.79296876 -1.664062,1.86328124 h 0.679687 l 1.21875,-1.3945312 0.632813,1.3945312 h 0.644531 z m 1.749024,3.35156254 h 0.585937 l 0.421875,-1.9570313 c 0.210938,0.4453125 0.503907,0.6328125 0.996094,0.6328125 0.539063,0 1.066406,-0.2578125 1.417969,-0.6914062 0.375,-0.4570313 0.621094,-1.18359379 0.621094,-1.87500004 0,-0.83203125 -0.46875,-1.35937496 -1.21875,-1.35937496 -0.304688,0 -0.609375,0.09375 -0.890625,0.2695312 -0.222657,0.14062501 -0.304688,0.23437501 -0.398438,0.42187501 l 0.128906,-0.58593751 h -0.5625 z m 2.601562,-4.71093754 c 0.515625,0 0.820313,0.36328125 0.820313,0.9609375 0,0.375 -0.117188,0.83203124 -0.304688,1.18359374 -0.257812,0.46875 -0.609375,0.703125 -1.054687,0.703125 -0.515625,0 -0.832031,-0.3515625 -0.832031,-0.9023437 0,-0.42187504 0.117187,-0.87890629 0.328125,-1.24218754 0.257812,-0.46875 0.609375,-0.703125 1.042968,-0.703125 z m 0,0"
       style="fill:#000000;fill-opacity:1;fill-rule:nonzero;stroke:none"
       aria-label="E&#10;main&#10;exp"
       transform="matrix(1.3333333,0,0,1.3333333,164.208,92.054667)" />
    <path
       id="path6"
       d="m 13.616203,-4.7452266 c 0.351563,0 0.726563,0 0.726563,-0.421875 0,-0.4101562 -0.375,-0.4101562 -0.726563,-0.4101562 H 2.4365156 c -0.3515625,0 -0.7265625,0 -0.7265625,0.4101562 0,0.421875 0.375,0.421875 0.7265625,0.421875 z m 0,0"
       style="fill:#000000;fill-opacity:1;fill-rule:nonzero;stroke:none"
       aria-label="−"
       transform="matrix(1.3333333,0,0,1.3333333,227.056,95.784)" />
    <path
       id="path7"
       d="m 194.89229,12.75597 h -52.70851 c -1.10047,0 -1.99256,-0.89208 -1.99256,-1.99256 v -21.52682 c 0,-1.10048 0.89209,-1.99256 1.99256,-1.99256 h 52.70851 c 1.10048,0 1.99255,0.89208 1.99255,1.99256 v 21.52682 c 0,1.10048 -0.89207,1.99256 -1.99255,1.99256 z"
       style="fill:#35b779;fill-opacity:1;fill-rule:nonzero;stroke:#b3b3b3;stroke-width:0.79701;stroke-linecap:butt;stroke-linejoin:miter;stroke-miterlimit:10;stroke-dasharray:none;stroke-opacity:1"
       transform="matrix(1.3333333,0,0,-1.3333333,70.569333,88.897333)" />
    <path
       id="path8"
       d="m 1.7810313,-2.3213125 h 2.7539062 l 0.1171875,-0.5625 H 1.8982188 L 2.2497813,-4.5127188 H 5.120875 L 5.2380625,-5.0869375 H 1.7107188 L 0.63259375,-0.001 H 4.277125 L 4.3943125,-0.57521875 H 1.4060313 Z m 7.0751953,-4.9511719 -0.7734375,3.65625 h 0.5859375 l 0.4921875,-2.296875 c 0.1054687,-0.5273437 0.5859375,-0.9609375 1.0546879,-0.9609375 0.339843,0 0.574218,0.1992188 0.574218,0.4804688 0,0.082031 -0.01172,0.1640625 -0.03516,0.2578125 l -0.539062,2.5195312 h 0.585937 l 0.492188,-2.296875 c 0.105468,-0.5390625 0.597656,-0.9609375 1.089843,-0.9609375 0.328125,0 0.539063,0.1992188 0.539063,0.5390625 0,0.1054688 0,0.1054688 -0.07031,0.3398438 l -0.503906,2.3789062 h 0.585938 l 0.550781,-2.6015625 c 0.02344,-0.070312 0.04687,-0.3046875 0.04687,-0.3867187 0,-0.1757813 -0.08203,-0.375 -0.222656,-0.5273438 -0.152344,-0.1757812 -0.339844,-0.2460937 -0.667969,-0.2460937 -0.445313,0 -0.84375,0.1875 -1.253906,0.5859375 -0.117188,-0.3984375 -0.386719,-0.5859375 -0.84375,-0.5859375 -0.480469,0 -0.7968754,0.140625 -1.2421879,0.5625 l 0.09375,-0.4570313 z m 8.5283204,3.3046875 c -0.05859,0.011719 -0.08203,0.011719 -0.117188,0.011719 -0.175781,0 -0.257812,-0.070312 -0.257812,-0.1992188 0,-0.035156 0,-0.058594 0,-0.070312 l 0.445312,-2.0976562 c 0.04687,-0.1992188 0.04687,-0.1992188 0.04687,-0.2578125 0,-0.4804688 -0.480468,-0.796875 -1.21875,-0.796875 -0.960937,0 -1.558593,0.4101562 -1.6875,1.1835937 h 0.585938 c 0.05859,-0.1875 0.105469,-0.2929687 0.210937,-0.3867187 0.152344,-0.1523438 0.445313,-0.2578125 0.738282,-0.2578125 0.421875,0 0.738281,0.1875 0.738281,0.4453125 0,0.035156 0,0.082031 -0.01172,0.1289062 l -0.02344,0.1289063 c -0.05859,0.2929687 -0.1875,0.3632812 -0.703125,0.4101562 -0.925782,0.082031 -1.21875,0.1523438 -1.570313,0.375 -0.351562,0.2226563 -0.5625,0.5976563 -0.5625,1.0078125 0,0.5507813 0.375,0.890625 0.996094,0.890625 0.246094,0 0.539062,-0.046875 0.796875,-0.140625 0.222656,-0.082031 0.328125,-0.1523437 0.609375,-0.3984375 v 0.070312 c 0,0.2929688 0.199219,0.46875 0.527344,0.46875 0.08203,0 0.105468,0 0.269531,-0.046875 0.02344,0 0.05859,-0.011719 0.105469,-0.023437 z m -0.84375,-0.796875 c -0.08203,0.4335938 -0.703125,0.8085938 -1.3125,0.8085938 -0.398438,0 -0.621094,-0.1640625 -0.621094,-0.4570313 0,-0.234375 0.128906,-0.46875 0.339844,-0.5859375 0.164062,-0.1054687 0.375,-0.1640625 0.714844,-0.2109375 0.65625,-0.09375 0.714843,-0.1054687 1.019531,-0.2109375 z m 2.712891,-2.5078125 H 18.66775 l -0.773437,3.65625 h 0.585937 z m 0.304687,-1.4296875 h -0.585937 l -0.152344,0.7265625 h 0.585937 z m 1.291992,1.4296875 -0.773437,3.65625 h 0.585937 l 0.421875,-2.015625 c 0.164063,-0.7617187 0.65625,-1.2421875 1.277344,-1.2421875 0.351562,0 0.609375,0.2460938 0.609375,0.5625 0,0.046875 -0.01172,0.1523438 -0.03516,0.2578125 l -0.515625,2.4375 h 0.585937 l 0.550781,-2.625 c 0.02344,-0.082031 0.03516,-0.1757812 0.03516,-0.2578125 0,-0.5390625 -0.375,-0.8789062 -0.949219,-0.8789062 -0.539063,0 -0.996094,0.1875 -1.359375,0.5625 l 0.09375,-0.4570313 z M 10.488063,0.70505469 V 0.59958594 c 0.01172,-0.10546875 0.02344,-0.17578125 0.02344,-0.19921875 0,-0.234375 -0.128906,-0.515625 -0.316406,-0.703125 -0.2109377,-0.22265625 -0.4921877,-0.328125 -0.8906252,-0.328125 -0.6328125,0 -1.1953125,0.26953125 -1.5703125,0.75 -0.328125,0.421875 -0.5625,1.18359371 -0.5625,1.82812501 0,0.328125 0.1171875,0.6679687 0.3046875,0.9140625 0.2460937,0.2929687 0.5507812,0.4335937 0.9960937,0.4335937 0.5742188,0 1.0546875,-0.2109375 1.3828125,-0.5859375 0.175781,-0.2109375 0.292969,-0.4453125 0.398438,-0.8320312 H 9.66775 C 9.4568125,2.4511484 9.0818125,2.7558359 8.5779063,2.7558359 c -0.4804688,0 -0.7851563,-0.3398437 -0.7851563,-0.890625 0,-0.4453125 0.140625,-0.97265621 0.375,-1.33593746 0.2578125,-0.41015625 0.5976563,-0.62109375 1.03125,-0.62109375 0.4335938,0 0.703125,0.24609375 0.703125,0.64453125 0,0.0351563 0,0.09375 0,0.15234375 z m 3.849609,2.07421871 c -0.05859,0.011719 -0.08203,0.011719 -0.117188,0.011719 -0.175781,0 -0.257812,-0.070312 -0.257812,-0.1992188 0,-0.035156 0,-0.058594 0,-0.070312 l 0.445312,-2.09765621 c 0.04687,-0.19921875 0.04687,-0.19921875 0.04687,-0.2578125 0,-0.48046875 -0.480468,-0.796875 -1.21875,-0.796875 -0.960937,0 -1.558593,0.41015625 -1.6875,1.18359375 h 0.585938 c 0.05859,-0.1875 0.105469,-0.29296875 0.210937,-0.38671875 0.152344,-0.15234375 0.445313,-0.2578125 0.738282,-0.2578125 0.421875,0 0.738281,0.1875 0.738281,0.4453125 0,0.0351563 0,0.0820313 -0.01172,0.12890625 l -0.02344,0.12890625 c -0.05859,0.29296875 -0.1875,0.36328125 -0.703125,0.41015621 -0.925782,0.082031 -1.21875,0.1523438 -1.570313,0.375 -0.351562,0.2226563 -0.5625,0.5976563 -0.5625,1.0078125 0,0.5507813 0.375,0.890625 0.996094,0.890625 0.246094,0 0.539062,-0.046875 0.796875,-0.140625 0.222656,-0.082031 0.328125,-0.1523437 0.609375,-0.3984375 v 0.070312 c 0,0.2929688 0.199219,0.46875 0.527344,0.46875 0.08203,0 0.105468,0 0.269531,-0.046875 0.02344,0 0.05859,-0.011719 0.105469,-0.023437 z m -0.84375,-0.796875 c -0.08203,0.4335938 -0.703125,0.8085938 -1.3125,0.8085938 -0.398438,0 -0.621094,-0.1640625 -0.621094,-0.4570313 0,-0.234375 0.128906,-0.46875 0.339844,-0.5859375 0.164062,-0.1054687 0.375,-0.1640625 0.714844,-0.2109375 0.65625,-0.09375 0.714843,-0.1054687 1.019531,-0.2109375 z m 3.043945,-3.9375 H 15.95193 l -1.089844,5.0859375 h 0.585937 z m 3.84668,2.66015629 V 0.59958594 c 0.01172,-0.10546875 0.02344,-0.17578125 0.02344,-0.19921875 0,-0.234375 -0.128906,-0.515625 -0.316406,-0.703125 -0.210937,-0.22265625 -0.492187,-0.328125 -0.890625,-0.328125 -0.632812,0 -1.195312,0.26953125 -1.570312,0.75 -0.328125,0.421875 -0.5625,1.18359371 -0.5625,1.82812501 0,0.328125 0.117187,0.6679687 0.304687,0.9140625 0.246094,0.2929687 0.550781,0.4335937 0.996094,0.4335937 0.574219,0 1.054687,-0.2109375 1.382812,-0.5859375 0.175782,-0.2109375 0.292969,-0.4453125 0.398438,-0.8320312 H 19.564237 C 19.3533,2.4511484 18.9783,2.7558359 18.474394,2.7558359 c -0.480469,0 -0.785157,-0.3398437 -0.785157,-0.890625 0,-0.4453125 0.140625,-0.97265621 0.375,-1.33593746 0.257813,-0.41015625 0.597657,-0.62109375 1.03125,-0.62109375 0.433594,0 0.703125,0.24609375 0.703125,0.64453125 0,0.0351563 0,0.09375 0,0.15234375 z m 0,0"
       style="fill:#000000;fill-opacity:1;fill-rule:nonzero;stroke:none"
       aria-label="E&#10;main&#10;calc"
       transform="matrix(1.3333333,0,0,1.3333333,279.23467,92.501333)" />
    <path
       id="path9"
       d="M 11.026867,-7.2889141 H 1.0307734 v 1.4414063 h 9.9960936 z m 0,3.5507813 H 1.0307734 v 1.4414062 h 9.9960936 z m 0,0"
       style="fill:#000000;fill-opacity:1;fill-rule:nonzero;stroke:none"
       aria-label="="
       transform="matrix(1.3333333,0,0,1.3333333,342.08267,94.269333)" />
    <path
       id="path10"
       d="m 277.15926,12.75597 h -52.70852 c -1.10047,0 -1.99255,-0.89208 -1.99255,-1.99256 v -21.52682 c 0,-1.10048 0.89208,-1.99256 1.99255,-1.99256 h 52.70852 c 1.10046,0 1.99255,0.89208 1.99255,1.99256 v 21.52682 c 0,1.10048 -0.89209,1.99256 -1.99255,1.99256 z"
       style="fill:#31688e;fill-opacity:1;fill-rule:nonzero;stroke:#b3b3b3;stroke-width:0.79701;stroke-linecap:butt;stroke-linejoin:miter;stroke-miterlimit:10;stroke-dasharray:none;stroke-opacity:1"
       transform="matrix(1.3333333,0,0,-1.3333333,70.569333,88.897333)" />
    <path
       id="path11"
       d="m 1.7798828,-2.3197188 h 2.7539063 l 0.1171875,-0.5625 H 1.8970703 L 2.2486328,-4.511125 H 5.1197266 L 5.2369141,-5.0853438 H 1.7095703 L 0.63144531,5.9375e-4 H 4.2759766 L 4.3931641,-0.573625 H 1.4048828 Z M 9.4087891,-7.2708906 H 8.8228516 l -0.7734375,3.65625 H 8.6353516 Z M 9.7134766,-8.7005781 H 9.1275391 l -0.1523438,0.7265625 h 0.5859375 z m 3.6123044,2.4492187 c 0.03516,-0.140625 0.03516,-0.2109375 0.03516,-0.2929687 0,-0.4921875 -0.457031,-0.8320313 -1.136718,-0.8320313 -0.492188,0 -0.925782,0.1523438 -1.207032,0.421875 -0.257812,0.2460938 -0.421875,0.609375 -0.421875,0.9375 0,0.421875 0.246094,0.6210938 0.960938,0.8085938 l 0.515625,0.140625 c 0.234375,0.058594 0.339844,0.1054687 0.398437,0.1757812 0.04687,0.058594 0.09375,0.1640625 0.09375,0.234375 0,0.1171875 -0.117187,0.3398438 -0.222656,0.4335938 -0.175781,0.140625 -0.480469,0.234375 -0.773437,0.234375 -0.480469,0 -0.75,-0.1875 -0.75,-0.5390625 0,-0.046875 0,-0.1054688 0.01172,-0.1757813 H 10.2086 c -0.03516,0.1640625 -0.04687,0.2460938 -0.04687,0.3632813 0,0.5507812 0.492187,0.890625 1.300781,0.890625 1.042969,0 1.710937,-0.5390625 1.710937,-1.3710938 0,-0.421875 -0.222656,-0.6445312 -0.84375,-0.796875 l -0.527343,-0.140625 c -0.386719,-0.09375 -0.585938,-0.234375 -0.585938,-0.4101562 0,-0.140625 0.08203,-0.3164063 0.199219,-0.4335938 0.175781,-0.1640625 0.386719,-0.234375 0.691406,-0.234375 0.410156,0 0.632813,0.1640625 0.632813,0.4335938 0,0.046875 0,0.09375 0,0.1523437 z m 2.774414,-1.125 c -0.644531,0 -1.21875,0.2929688 -1.570312,0.8085938 -0.316406,0.4453125 -0.539063,1.21875 -0.539063,1.8046875 0,0.7734375 0.527344,1.3125 1.3125,1.3125 0.667969,0 1.195313,-0.28125 1.59375,-0.8085938 0.316407,-0.4453125 0.550782,-1.2070312 0.550782,-1.8046875 0,-0.375 -0.140625,-0.7265625 -0.386719,-0.9726562 -0.234375,-0.2226563 -0.550781,-0.3398438 -0.960938,-0.3398438 z m -0.08203,0.5390625 c 0.515625,0 0.808594,0.3398438 0.808594,0.9023438 0,0.4101562 -0.117188,0.8671875 -0.304688,1.2070312 -0.257812,0.4804688 -0.644531,0.7382813 -1.125,0.7382813 -0.492187,0 -0.796875,-0.3515625 -0.796875,-0.9023438 0,-0.3984375 0.117188,-0.8671875 0.304688,-1.2070312 0.257812,-0.4804688 0.644531,-0.7382813 1.113281,-0.7382813 z m -6.9345703,4.8837891 h -0.65625 L 7.3492187,3.1324297 H 7.99375 Z M 10.80332,0.81211719 h 2.753907 l 0.117187,-0.5625 H 10.920508 L 11.27207,-1.3792891 h 2.871094 l 0.117188,-0.5742187 H 10.733008 L 9.6548828,3.1324297 H 13.299414 L 13.416602,2.5582109 H 10.42832 Z m 0,0"
       style="fill:#000000;fill-opacity:1;fill-rule:nonzero;stroke:none"
       aria-label="E&#10;iso&#10;IE"
       transform="matrix(1.3333333,0,0,1.3333333,392.96667,92.577333)" />
    <path
       id="path12"
       d="M 7.9096328,-6.0129844 C 7.5697891,-7.9231406 6.4682266,-8.8606406 4.5580703,-8.8606406 c -1.171875,0 -2.1210937,0.375 -2.765625,1.0898437 -0.7851562,0.8554688 -1.21874999,2.109375 -1.21874999,3.515625 0,1.4296875 0.44531249,2.6601563 1.26562499,3.51562502 0.6679688,0.69140625 1.5351563,1.0078125 2.671875,1.0078125 2.1210938,0 3.3164063,-1.13671875 3.5859375,-3.44531252 H 6.9486953 c -0.1054687,0.5976563 -0.2226562,0.9960938 -0.3984375,1.3476563 -0.3632812,0.7148437 -1.1015625,1.12499997 -2.0273437,1.12499997 -1.734375,0 -2.8359375,-1.39453127 -2.8359375,-3.56249997 0,-2.2382813 1.0546875,-3.609375 2.7304687,-3.609375 0.7148438,0 1.3710938,0.2109375 1.7226563,0.5507812 0.328125,0.2929688 0.5039062,0.6679688 0.6328125,1.3125 z m 7.1191402,5.42578127 c -0.105468,0.0234375 -0.164062,0.0234375 -0.222656,0.0234375 -0.339844,0 -0.539062,-0.17578125 -0.539062,-0.49218747 v -3.6796875 c 0,-1.1132813 -0.808594,-1.7109375 -2.34375,-1.7109375 -0.914063,0 -1.664063,0.2695312 -2.0859378,0.7265625 -0.28125,0.328125 -0.4101563,0.6914062 -0.4335938,1.3125 h 1.0078126 c 0.08203,-0.7734375 0.539062,-1.1132813 1.464844,-1.1132813 0.902343,0 1.40625,0.328125 1.40625,0.9257813 v 0.2695312 c 0,0.4101563 -0.257813,0.5976563 -1.042969,0.6914063 -1.40625,0.1757812 -1.628906,0.2226562 -2.003906,0.3867187 -0.7382816,0.2929688 -1.1015628,0.8554688 -1.1015628,1.6640625 0,1.13671877 0.7851562,1.85156252 2.0507808,1.85156252 0.796875,0 1.429688,-0.26953125 2.132813,-0.9140625 0.07031,0.6328125 0.375,0.9140625 1.03125,0.9140625 0.199219,0 0.351562,-0.0234375 0.679687,-0.10546875 z M 13.28268,-1.9700156 c 0,0.328125 -0.09375,0.5390625 -0.398438,0.8085937 -0.410156,0.37500002 -0.890625,0.56250002 -1.476562,0.56250002 -0.785157,0 -1.230469,-0.375 -1.230469,-1.00781252 0,-0.65625 0.433594,-0.984375 1.5,-1.1484375 1.054687,-0.140625 1.265625,-0.1875 1.605469,-0.3398437 z m 3.811523,-6.75 h -1.007812 v 8.71874997 h 1.007812 z m 6.462891,4.5585937 c -0.04687,-0.609375 -0.175782,-1.0078125 -0.410157,-1.3476562 -0.433593,-0.5859375 -1.183593,-0.9375 -2.0625,-0.9375 -1.6875,0 -2.777343,1.3359375 -2.777343,3.421875 0,2.015625 1.066406,3.29296872 2.765625,3.29296872 1.5,0 2.4375,-0.890625 2.566406,-2.42578122 h -1.007813 c -0.164062,1.0078125 -0.679687,1.51171872 -1.535156,1.51171872 -1.101562,0 -1.757812,-0.90234372 -1.757812,-2.37890622 0,-1.5703125 0.644531,-2.4960938 1.734375,-2.4960938 0.84375,0 1.371093,0.4921875 1.488281,1.359375 z m 6.120117,4.16015627 V -6.2590781 h -0.996094 v 3.5390625 c 0,1.2890625 -0.667969,2.12109372 -1.710937,2.12109372 -0.785157,0 -1.289063,-0.48046872 -1.289063,-1.23046872 v -4.4296875 h -0.996094 v 4.828125 c 0,1.03124997 0.785157,1.69921872 2.003907,1.69921872 0.914062,0 1.5,-0.31640625 2.085937,-1.13671875 v 0.8671875 z m 2.695312,-8.71874997 h -1.007812 v 8.71874997 h 1.007812 z m 7.236329,8.13281247 c -0.105469,0.0234375 -0.164063,0.0234375 -0.222657,0.0234375 -0.339843,0 -0.539062,-0.17578125 -0.539062,-0.49218747 v -3.6796875 c 0,-1.1132813 -0.808594,-1.7109375 -2.34375,-1.7109375 -0.914063,0 -1.664063,0.2695312 -2.085938,0.7265625 -0.28125,0.328125 -0.410156,0.6914062 -0.433593,1.3125 h 1.007812 c 0.08203,-0.7734375 0.539063,-1.1132813 1.464844,-1.1132813 0.902344,0 1.40625,0.328125 1.40625,0.9257813 v 0.2695312 c 0,0.4101563 -0.257813,0.5976563 -1.042969,0.6914063 -1.40625,0.1757812 -1.628906,0.2226562 -2.003906,0.3867187 -0.738281,0.2929688 -1.101563,0.8554688 -1.101563,1.6640625 0,1.13671877 0.785157,1.85156252 2.050782,1.85156252 0.796875,0 1.429687,-0.26953125 2.132812,-0.9140625 0.07031,0.6328125 0.375,0.9140625 1.03125,0.9140625 0.199219,0 0.351563,-0.0234375 0.679688,-0.10546875 z M 37.862758,-1.9700156 c 0,0.328125 -0.09375,0.5390625 -0.398438,0.8085937 -0.410156,0.37500002 -0.890625,0.56250002 -1.476562,0.56250002 -0.785156,0 -1.230469,-0.375 -1.230469,-1.00781252 0,-0.65625 0.433594,-0.984375 1.5,-1.1484375 1.054688,-0.140625 1.265625,-0.1875 1.605469,-0.3398437 z m 5.030273,-4.2890625 h -1.03125 v -1.7226563 h -0.984375 v 1.7226563 h -0.855469 v 0.8085937 h 0.855469 v 4.73437502 c 0,0.6328125 0.421875,0.984375 1.207031,0.984375 0.234375,0 0.480469,-0.0234375 0.808594,-0.0820312 v -0.83203125 c -0.128906,0.0351563 -0.28125,0.046875 -0.480469,0.046875 -0.421875,0 -0.550781,-0.1171875 -0.550781,-0.56249997 v -4.2890625 h 1.03125 z m 6.418946,3.4570312 c 0,-0.9492187 -0.07031,-1.5234375 -0.246094,-1.9921875 -0.410156,-1.03125 -1.359375,-1.6523437 -2.53125,-1.6523437 -1.746094,0 -2.871094,1.3359375 -2.871094,3.3984375 0,2.05078122 1.089844,3.31640622 2.847656,3.31640622 1.429688,0 2.425782,-0.80859375 2.671875,-2.16796872 h -1.007812 c -0.269531,0.8203125 -0.832031,1.25390622 -1.628906,1.25390622 -0.632813,0 -1.171875,-0.29296875 -1.511719,-0.80859372 -0.234375,-0.3632813 -0.316406,-0.7265625 -0.328125,-1.3476563 z m -4.582032,-0.8085937 c 0.08203,-1.1601563 0.785157,-1.9101563 1.792969,-1.9101563 0.972656,0 1.722656,0.8085938 1.722656,1.8398438 0,0.023437 0,0.046875 -0.01172,0.070312 z M 55.7485,-8.7200156 h -0.996094 v 3.2460937 c -0.410156,-0.6328125 -1.089844,-0.9726562 -1.921875,-0.9726562 -1.628906,0 -2.683594,1.3007812 -2.683594,3.3046875 0,2.109375 1.03125,3.41015622 2.71875,3.41015622 0.867188,0 1.464844,-0.31640625 1.992188,-1.08984375 v 0.8203125 H 55.7485 Z m -2.753906,3.2109375 c 1.078125,0 1.757812,0.9492187 1.757812,2.4492187 0,1.4414063 -0.691406,2.40234377 -1.746094,2.40234377 -1.101562,0 -1.828125,-0.97265627 -1.828125,-2.42578127 0,-1.4648437 0.726563,-2.4257812 1.816407,-2.4257812 z M -3.8618516,7.6891641 h -0.9960937 v 6.2578129 h 0.9960937 z m 0,-2.4609375 h -1.0078125 v 1.265625 h 1.0078125 z m 6.0996094,4.1953125 c -0.011719,-1.2304688 -0.8320312,-1.921875 -2.27343749,-1.921875 -1.45312501,0 -2.40234371,0.75 -2.40234371,1.9101562 0,0.9843747 0.5039062,1.4531247 1.98046871,1.8046877 l 0.9375,0.234375 c 0.69140629,0.164062 0.96093749,0.421875 0.96093749,0.867187 0,0.585938 -0.58593749,0.984375 -1.45312499,0.984375 -0.5390625,0 -0.99609371,-0.152343 -1.24218751,-0.421875 -0.1523437,-0.175781 -0.2226562,-0.351562 -0.2929687,-0.796875 h -1.0429688 c 0.046875,1.441407 0.8554688,2.132813 2.49609376,2.132813 1.58203124,0 2.57812504,-0.773438 2.57812504,-1.980469 0,-0.925781 -0.5273438,-1.441406 -1.76953129,-1.746094 L -0.23489844,10.267289 C -1.0552109,10.079789 -1.3950547,9.8102578 -1.3950547,9.3649453 c 0,-0.5742187 0.51562501,-0.9375 1.32421876,-0.9375 0.796875,0 1.23046874,0.3398438 1.25390624,0.9960938 z m 3.984375,-1.921875 c -1.7460937,0 -2.8125,1.2539062 -2.8125,3.3632809 0,2.097657 1.0429688,3.351563 2.8242188,3.351563 1.7578125,0 2.8359375,-1.253906 2.8359375,-3.304688 0,-2.1679684 -1.0429688,-3.4101559 -2.8476563,-3.4101559 z m 0.011719,0.9257812 c 1.125,0 1.7929687,0.9140625 1.7929687,2.4726567 0,1.464843 -0.6914062,2.402343 -1.7929687,2.402343 -1.1015625,0 -1.7929688,-0.925781 -1.7929688,-2.4375 0,-1.5117184 0.6914063,-2.4374997 1.7929688,-2.4374997 z M 12.658656,7.6891641 h -1.03125 V 5.9665078 H 10.643031 V 7.6891641 H 9.7875625 v 0.8085937 h 0.8554685 v 4.7343752 c 0,0.632812 0.421875,0.984375 1.207032,0.984375 0.234375,0 0.480468,-0.02344 0.808593,-0.08203 v -0.832032 c -0.128906,0.03516 -0.28125,0.04687 -0.480468,0.04687 -0.421875,0 -0.550782,-0.117187 -0.550782,-0.5625 V 8.4977578 h 1.03125 z m 3.536133,-0.1875 c -1.746094,0 -2.8125,1.2539062 -2.8125,3.3632809 0,2.097657 1.042969,3.351563 2.824219,3.351563 1.757812,0 2.835937,-1.253906 2.835937,-3.304688 0,-2.1679684 -1.042968,-3.4101559 -2.847656,-3.4101559 z m 0.01172,0.9257812 c 1.125,0 1.792969,0.9140625 1.792969,2.4726567 0,1.464843 -0.691407,2.402343 -1.792969,2.402343 -1.101563,0 -1.792969,-0.925781 -1.792969,-2.4375 0,-1.5117184 0.691406,-2.4374997 1.792969,-2.4374997 z m 4.03125,8.1210937 h 1.007812 v -3.257812 c 0.527344,0.644531 1.113282,0.925781 1.921875,0.925781 1.617188,0 2.671875,-1.300781 2.671875,-3.292969 0,-2.1093749 -1.019531,-3.4218749 -2.683593,-3.4218749 -0.84375,0 -1.535157,0.3867187 -1.992188,1.125 v -0.9375 h -0.925781 z m 2.753906,-8.1093749 c 1.101563,0 1.816406,0.9609375 1.816406,2.4609379 0,1.417968 -0.726562,2.390625 -1.816406,2.390625 -1.054687,0 -1.746094,-0.960938 -1.746094,-2.425782 0,-1.4765622 0.691407,-2.4257809 1.746094,-2.4257809 z m 6.495117,-0.9375 c -1.746094,0 -2.8125,1.2539062 -2.8125,3.3632809 0,2.097657 1.042969,3.351563 2.824219,3.351563 1.757812,0 2.835937,-1.253906 2.835937,-3.304688 0,-2.1679684 -1.042968,-3.4101559 -2.847656,-3.4101559 z m 0.01172,0.9257812 c 1.125,0 1.792969,0.9140625 1.792969,2.4726567 0,1.464843 -0.691407,2.402343 -1.792969,2.402343 -1.101563,0 -1.792969,-0.925781 -1.792969,-2.4375 0,-1.5117184 0.691406,-2.4374997 1.792969,-2.4374997 z m 5.206055,-3.1992187 h -1.007813 v 8.7187504 h 1.007813 z m 4.083984,2.2734375 c -1.746094,0 -2.8125,1.2539062 -2.8125,3.3632809 0,2.097657 1.042969,3.351563 2.824219,3.351563 1.757812,0 2.835937,-1.253906 2.835937,-3.304688 0,-2.1679684 -1.042968,-3.4101559 -2.847656,-3.4101559 z m 0.01172,0.9257812 c 1.125,0 1.792969,0.9140625 1.792969,2.4726567 0,1.464843 -0.691407,2.402343 -1.792969,2.402343 -1.101563,0 -1.792969,-0.925781 -1.792969,-2.4375 0,-1.5117184 0.691406,-2.4374997 1.792969,-2.4374997 z m 8.31152,-0.7382812 V 8.5915078 C 46.607875,7.8532266 45.9985,7.5016641 45.201625,7.5016641 c -1.59375,0 -2.660156,1.3945312 -2.660156,3.4218749 0,1.03125 0.269531,1.863281 0.785156,2.460938 0.46875,0.527343 1.136719,0.832031 1.792969,0.832031 0.785156,0 1.335937,-0.328125 1.898437,-1.113281 v 0.316406 c 0,0.855469 -0.105469,1.359375 -0.363281,1.710937 -0.257813,0.375 -0.773438,0.585938 -1.382813,0.585938 -0.457031,0 -0.855468,-0.117188 -1.136718,-0.339844 -0.222657,-0.175781 -0.316407,-0.339844 -0.375,-0.714844 h -1.019532 c 0.105469,1.183594 1.03125,1.886719 2.496094,1.886719 0.9375,0 1.734375,-0.292969 2.144531,-0.796875 0.46875,-0.574219 0.65625,-1.359375 0.65625,-2.835937 V 7.6891641 Z m -1.804687,0.7382812 c 1.078125,0 1.710937,0.9023438 1.710937,2.4726567 0,1.488281 -0.644531,2.402343 -1.699219,2.402343 -1.089843,0 -1.746093,-0.925781 -1.746093,-2.4375 0,-1.5117184 0.667968,-2.4374997 1.734375,-2.4374997 z m 9.295898,5.5195317 V 7.6891641 h -0.996094 v 3.5390629 c 0,1.289062 -0.667968,2.121093 -1.710937,2.121093 -0.785156,0 -1.289063,-0.480468 -1.289063,-1.230468 V 7.6891641 h -0.996093 v 4.8281249 c 0,1.03125 0.785156,1.699219 2.003906,1.699219 0.914062,0 1.5,-0.316406 2.085937,-1.136719 v 0.867188 z m 7.010742,-2.800782 c 0,-0.949218 -0.07031,-1.5234372 -0.246093,-1.9921872 -0.410157,-1.03125 -1.359375,-1.6523437 -2.53125,-1.6523437 -1.746094,0 -2.871094,1.3359375 -2.871094,3.3984379 0,2.050781 1.089844,3.316406 2.847656,3.316406 1.429688,0 2.425781,-0.808594 2.671875,-2.167969 h -1.007812 c -0.269532,0.820313 -0.832032,1.253906 -1.628907,1.253906 -0.632812,0 -1.171875,-0.292968 -1.511718,-0.808593 -0.234375,-0.363282 -0.316407,-0.726563 -0.328125,-1.347657 z m -4.582031,-0.808593 c 0.08203,-1.1601567 0.785156,-1.9101567 1.792969,-1.9101567 0.972656,0 1.722656,0.8085938 1.722656,1.8398437 0,0.02344 0,0.04687 -0.01172,0.07031 z m 0,0"
       style="fill:#000000;fill-opacity:1;fill-rule:nonzero;stroke:none"
       aria-label="Calculated&#10;isotopologue"
       transform="matrix(1.3333333,0,0,1.3333333,32.918667,35.072)" />
    <path
       id="path13"
       d="M 2.1920156,-3.9730547 H 6.9381094 V -4.9457109 H 2.1920156 v -2.7890625 h 4.921875 v -0.984375 H 1.0787344 V -3.984375e-4 H 7.3248281 V -0.98477344 H 2.1920156 Z m 9.2753904,0.7382813 2.097656,-3.0234375 h -1.125 l -1.5,2.2617187 -1.5117183,-2.2617187 h -1.125 L 10.389281,-3.1878984 8.1744375,-3.984375e-4 H 9.3111562 L 10.904906,-2.4027422 12.475219,-3.984375e-4 h 1.148437 z m 3.128906,5.8359375 h 1.007813 v -3.25781254 c 0.527344,0.64453125 1.113281,0.92578125 1.921875,0.92578125 1.617187,0 2.671875,-1.30078121 2.671875,-3.29296871 0,-2.109375 -1.019531,-3.421875 -2.683594,-3.421875 -0.84375,0 -1.535156,0.3867187 -1.992187,1.125 v -0.9375 h -0.925782 z m 2.753907,-8.109375 c 1.101562,0 1.816406,0.9609375 1.816406,2.4609375 0,1.4179687 -0.726563,2.39062496 -1.816406,2.39062496 -1.054688,0 -1.746094,-0.96093746 -1.746094,-2.42578126 0,-1.4765625 0.691406,-2.4257812 1.746094,-2.4257812 z m 9.377929,2.7070312 c 0,-0.9492187 -0.07031,-1.5234375 -0.246093,-1.9921875 -0.410157,-1.03125 -1.359375,-1.6523437 -2.53125,-1.6523437 -1.746094,0 -2.871094,1.3359375 -2.871094,3.3984375 0,2.05078121 1.089844,3.31640621 2.847656,3.31640621 1.429688,0 2.425781,-0.80859375 2.671875,-2.16796871 H 25.59143 c -0.269532,0.8203125 -0.832032,1.25390621 -1.628907,1.25390621 -0.632812,0 -1.171875,-0.29296875 -1.511718,-0.80859371 -0.234375,-0.3632813 -0.316407,-0.7265625 -0.328125,-1.3476563 z m -4.582031,-0.8085937 c 0.08203,-1.1601563 0.785156,-1.9101563 1.792969,-1.9101563 0.972656,0 1.722656,0.8085938 1.722656,1.8398438 0,0.023437 0,0.046875 -0.01172,0.070312 z m 5.920899,-2.6484375 v 6.2578124625 h 1.007812 V -3.2464922 c 0,-0.9023437 0.222656,-1.4882812 0.703125,-1.8398437 0.316406,-0.2226563 0.609375,-0.2929688 1.300781,-0.3046875 v -1.0195313 c -0.164062,-0.023437 -0.246093,-0.035156 -0.375,-0.035156 -0.644531,0 -1.136718,0.3867187 -1.710937,1.3125 v -1.125 z m 5.132812,0 h -0.996094 v 6.2578124625 h 0.996094 z m 0,-2.4609375 h -1.007812 v 1.265625 h 1.007812 z m 1.693359,2.4609375 V -3.984375e-4 H 35.901 V -3.9378984 c 0,-0.9023438 0.65625,-1.6289063 1.476562,-1.6289063 0.738282,0 1.148438,0.4453125 1.148438,1.2539063 v 4.3124999625 h 1.007812 V -3.9378984 c 0,-0.9023438 0.65625,-1.6289063 1.476563,-1.6289063 0.726562,0 1.160156,0.4570313 1.160156,1.2539063 v 4.3124999625 h 0.996094 V -4.6996172 c 0,-1.125 -0.644531,-1.7460937 -1.816406,-1.7460937 -0.832032,0 -1.335938,0.2578125 -1.921875,0.9609375 -0.375,-0.6679688 -0.867188,-0.9609375 -1.6875,-0.9609375 -0.832032,0 -1.382813,0.3164062 -1.921875,1.0664062 v -0.8789062 z m 15.254883,3.4570312 c 0,-0.9492187 -0.07031,-1.5234375 -0.246093,-1.9921875 -0.410157,-1.03125 -1.359375,-1.6523437 -2.53125,-1.6523437 -1.746094,0 -2.871094,1.3359375 -2.871094,3.3984375 0,2.05078121 1.089844,3.31640621 2.847656,3.31640621 1.429688,0 2.425781,-0.80859375 2.671875,-2.16796871 h -1.007812 c -0.269532,0.8203125 -0.832032,1.25390621 -1.628907,1.25390621 -0.632812,0 -1.171875,-0.29296875 -1.511718,-0.80859371 -0.234375,-0.3632813 -0.316407,-0.7265625 -0.328125,-1.3476563 z m -4.582031,-0.8085937 c 0.08203,-1.1601563 0.785156,-1.9101563 1.792969,-1.9101563 0.972656,0 1.722656,0.8085938 1.722656,1.8398438 0,0.023437 0,0.046875 -0.01172,0.070312 z m 5.932617,-2.6484375 v 6.2578124625 h 1.007813 V -3.4574297 c 0,-1.2773437 0.667968,-2.109375 1.699218,-2.109375 0.785157,0 1.289063,0.46875 1.289063,1.2304688 v 4.3359374625 h 0.996094 V -4.7347734 c 0,-1.0429688 -0.785157,-1.7109375 -1.992188,-1.7109375 -0.925781,0 -1.523437,0.3632812 -2.074219,1.2304687 v -1.0429687 z m 8.850586,0 h -1.03125 v -1.7226563 h -0.984375 v 1.7226563 h -0.855469 v 0.8085937 h 0.855469 v 4.73437501 c 0,0.6328125 0.421875,0.984375 1.207031,0.984375 0.234375,0 0.480469,-0.0234375 0.808594,-0.0820313 v -0.83203125 c -0.128906,0.0351563 -0.28125,0.046875 -0.480469,0.046875 -0.421875,0 -0.550781,-0.1171875 -0.550781,-0.56249996 v -4.2890625 h 1.03125 z m 6.685547,5.67187496 c -0.105469,0.0234375 -0.164062,0.0234375 -0.222656,0.0234375 -0.339844,0 -0.539063,-0.17578125 -0.539063,-0.49218746 v -3.6796875 c 0,-1.1132813 -0.808593,-1.7109375 -2.34375,-1.7109375 -0.914062,0 -1.664062,0.2695312 -2.085937,0.7265625 -0.28125,0.328125 -0.410156,0.6914062 -0.433594,1.3125 h 1.007813 c 0.08203,-0.7734375 0.539062,-1.1132813 1.464843,-1.1132813 0.902344,0 1.40625,0.328125 1.40625,0.9257813 v 0.2695312 c 0,0.4101563 -0.257812,0.5976563 -1.042968,0.6914063 -1.40625,0.1757812 -1.628907,0.2226562 -2.003907,0.3867187 -0.738281,0.2929688 -1.101562,0.8554688 -1.101562,1.6640625 0,1.13671876 0.785156,1.85156251 2.050781,1.85156251 0.796875,0 1.429688,-0.2695312475 2.132813,-0.9140625 0.07031,0.6328125 0.375,0.9140625 1.03125,0.9140625 0.199218,0 0.351562,-0.0234375 0.679687,-0.10546875 z M 65.288695,-1.9691484 c 0,0.328125 -0.09375,0.5390625 -0.398437,0.8085937 -0.410156,0.37500001 -0.890625,0.56250001 -1.476563,0.56250001 -0.785156,0 -1.230468,-0.375 -1.230468,-1.00781251 0,-0.65625 0.433593,-0.984375 1.5,-1.1484375 1.054687,-0.140625 1.265625,-0.1875 1.605468,-0.3398437 z m 3.811524,-6.75 h -1.007813 v 8.7187499625 h 1.007813 z M 22.846312,7.6900312 v 6.2578128 h 1.007813 v -3.9375 c 0,-0.902344 0.65625,-1.6289065 1.476562,-1.6289065 0.738282,0 1.148438,0.4453125 1.148438,1.2539062 v 4.3125003 h 1.007812 v -3.9375 c 0,-0.902344 0.65625,-1.6289065 1.476563,-1.6289065 0.726562,0 1.160156,0.4570312 1.160156,1.2539062 V 13.947844 H 31.11975 V 9.248625 c 0,-1.125 -0.644531,-1.7460938 -1.816406,-1.7460938 -0.832032,0 -1.335938,0.2578125 -1.921875,0.9609375 -0.375,-0.6679687 -0.867188,-0.9609375 -1.6875,-0.9609375 -0.832032,0 -1.382813,0.3164063 -1.921875,1.0664063 V 7.6900312 Z m 15.524415,5.6718748 c -0.105469,0.02344 -0.164063,0.02344 -0.222657,0.02344 -0.339843,0 -0.539062,-0.175782 -0.539062,-0.492188 V 9.2134687 c 0,-1.1132812 -0.808594,-1.7109375 -2.34375,-1.7109375 -0.914063,0 -1.664063,0.2695313 -2.085938,0.7265625 -0.28125,0.328125 -0.410156,0.6914063 -0.433593,1.3125 h 1.007812 c 0.08203,-0.7734375 0.539063,-1.1132812 1.464844,-1.1132812 0.902344,0 1.40625,0.328125 1.40625,0.9257812 V 9.623625 c 0,0.410156 -0.257813,0.597656 -1.042969,0.691406 -1.40625,0.175781 -1.628906,0.222656 -2.003906,0.386719 -0.738281,0.292969 -1.101563,0.855469 -1.101563,1.664062 0,1.136719 0.785157,1.851563 2.050782,1.851563 0.796875,0 1.429687,-0.269531 2.132812,-0.914063 0.07031,0.632813 0.375,0.914063 1.03125,0.914063 0.199219,0 0.351563,-0.02344 0.679688,-0.105469 z m -1.746094,-1.382812 c 0,0.328125 -0.09375,0.539062 -0.398438,0.808593 -0.410156,0.375 -0.890625,0.5625 -1.476562,0.5625 -0.785156,0 -1.230469,-0.375 -1.230469,-1.007812 0,-0.65625 0.433594,-0.984375 1.5,-1.148438 1.054688,-0.140625 1.265625,-0.1875 1.605469,-0.339843 z m 3.788086,-4.2890628 h -0.996094 v 6.2578128 h 0.996094 z m 0,-2.4609375 h -1.007813 v 1.265625 h 1.007813 z m 1.693359,2.4609375 v 6.2578128 h 1.007813 v -3.457032 c 0,-1.2773433 0.667968,-2.1093745 1.699218,-2.1093745 0.785157,0 1.289063,0.46875 1.289063,1.2304687 v 4.3359378 h 0.996094 V 9.2134687 c 0,-1.0429687 -0.785157,-1.7109375 -1.992188,-1.7109375 -0.925781,0 -1.523437,0.3632813 -2.074219,1.2304688 V 7.6900312 Z m 0,0"
       style="fill:#000000;fill-opacity:1;fill-rule:nonzero;stroke:none"
       aria-label="Experimental&#10;main"
       transform="matrix(1.3333333,0,0,1.3333333,133.632,38.356)" />
    <path
       id="path14"
       d="M 7.9097656,-6.0121172 C 7.5699219,-7.9222734 6.4683594,-8.8597734 4.5582031,-8.8597734 c -1.171875,0 -2.1210937,0.375 -2.765625,1.0898437 -0.7851562,0.8554688 -1.21874997,2.109375 -1.21874997,3.515625 0,1.4296875 0.44531247,2.6601563 1.26562497,3.51562501 0.6679688,0.69140625 1.5351563,1.0078125 2.671875,1.0078125 2.1210938,0 3.3164063,-1.13671875 3.5859375,-3.44531251 H 6.9488281 c -0.1054687,0.5976563 -0.2226562,0.9960938 -0.3984375,1.3476563 -0.3632812,0.7148437 -1.1015625,1.12499996 -2.0273437,1.12499996 -1.734375,0 -2.8359375,-1.39453126 -2.8359375,-3.56249996 0,-2.2382813 1.0546875,-3.609375 2.7304687,-3.609375 0.7148438,0 1.3710938,0.2109375 1.7226563,0.5507812 0.328125,0.2929688 0.5039062,0.6679688 0.6328125,1.3125 z m 7.1191404,5.42578126 c -0.105468,0.0234375 -0.164062,0.0234375 -0.222656,0.0234375 -0.339844,0 -0.539062,-0.17578125 -0.539062,-0.49218746 v -3.6796875 c 0,-1.1132813 -0.808594,-1.7109375 -2.34375,-1.7109375 -0.914063,0 -1.664063,0.2695312 -2.085938,0.7265625 -0.28125,0.328125 -0.4101562,0.6914062 -0.4335937,1.3125 h 1.0078127 c 0.08203,-0.7734375 0.539062,-1.1132813 1.464844,-1.1132813 0.902343,0 1.40625,0.328125 1.40625,0.9257813 v 0.2695312 c 0,0.4101563 -0.257813,0.5976563 -1.042969,0.6914063 -1.40625,0.1757812 -1.628906,0.2226562 -2.003906,0.3867187 -0.7382817,0.2929688 -1.101563,0.8554688 -1.101563,1.6640625 0,1.13671876 0.7851563,1.85156251 2.050781,1.85156251 0.796875,0 1.429688,-0.2695312475 2.132813,-0.9140625 0.07031,0.6328125 0.375,0.9140625 1.03125,0.9140625 0.199219,0 0.351562,-0.0234375 0.679687,-0.10546875 z M 13.282813,-1.9691484 c 0,0.328125 -0.09375,0.5390625 -0.398438,0.8085937 -0.410156,0.37500001 -0.890625,0.56250001 -1.476562,0.56250001 -0.785157,0 -1.230469,-0.375 -1.230469,-1.00781251 0,-0.65625 0.433594,-0.984375 1.5,-1.1484375 1.054687,-0.140625 1.265625,-0.1875 1.605469,-0.3398437 z m 3.811523,-6.75 h -1.007813 v 8.7187499625 h 1.007813 z m 6.462891,4.5585937 c -0.04687,-0.609375 -0.175782,-1.0078125 -0.410157,-1.3476562 -0.433593,-0.5859375 -1.183593,-0.9375 -2.0625,-0.9375 -1.6875,0 -2.777343,1.3359375 -2.777343,3.421875 0,2.015625 1.066406,3.29296871 2.765625,3.29296871 1.5,0 2.4375,-0.890625 2.566406,-2.42578121 h -1.007813 c -0.164062,1.0078125 -0.679687,1.51171871 -1.535156,1.51171871 -1.101562,0 -1.757812,-0.90234371 -1.757812,-2.37890621 0,-1.5703125 0.644531,-2.4960938 1.734375,-2.4960938 0.84375,0 1.371093,0.4921875 1.488281,1.359375 z m 6.120117,4.1601562625 V -6.2582109 H 28.68125 v 3.5390625 c 0,1.2890625 -0.667969,2.12109371 -1.710937,2.12109371 -0.785157,0 -1.289063,-0.48046871 -1.289063,-1.23046871 v -4.4296875 h -0.996094 v 4.828125 c 0,1.03124996 0.785157,1.69921871 2.003907,1.69921871 0.914062,0 1.5,-0.31640625 2.085937,-1.13671875 V -3.984375e-4 Z M 32.372656,-8.7191484 h -1.007812 v 8.7187499625 h 1.007812 z m 7.236328,8.13281246 c -0.105468,0.0234375 -0.164062,0.0234375 -0.222656,0.0234375 -0.339844,0 -0.539062,-0.17578125 -0.539062,-0.49218746 v -3.6796875 c 0,-1.1132813 -0.808594,-1.7109375 -2.34375,-1.7109375 -0.914063,0 -1.664063,0.2695312 -2.085938,0.7265625 -0.28125,0.328125 -0.410156,0.6914062 -0.433594,1.3125 h 1.007813 c 0.08203,-0.7734375 0.539062,-1.1132813 1.464844,-1.1132813 0.902343,0 1.40625,0.328125 1.40625,0.9257813 v 0.2695312 c 0,0.4101563 -0.257813,0.5976563 -1.042969,0.6914063 -1.40625,0.1757812 -1.628906,0.2226562 -2.003906,0.3867187 -0.738282,0.2929688 -1.101563,0.8554688 -1.101563,1.6640625 0,1.13671876 0.785156,1.85156251 2.050781,1.85156251 0.796875,0 1.429688,-0.2695312475 2.132813,-0.9140625 0.07031,0.6328125 0.375,0.9140625 1.03125,0.9140625 0.199219,0 0.351562,-0.0234375 0.679687,-0.10546875 z M 37.862891,-1.9691484 c 0,0.328125 -0.09375,0.5390625 -0.398438,0.8085937 -0.410156,0.37500001 -0.890625,0.56250001 -1.476562,0.56250001 -0.785157,0 -1.230469,-0.375 -1.230469,-1.00781251 0,-0.65625 0.433594,-0.984375 1.5,-1.1484375 1.054687,-0.140625 1.265625,-0.1875 1.605469,-0.3398437 z m 5.030273,-4.2890625 h -1.03125 v -1.7226563 h -0.984375 v 1.7226563 H 40.02207 v 0.8085937 h 0.855469 v 4.73437501 c 0,0.6328125 0.421875,0.984375 1.207031,0.984375 0.234375,0 0.480469,-0.0234375 0.808594,-0.0820313 v -0.83203125 c -0.128906,0.0351563 -0.28125,0.046875 -0.480469,0.046875 -0.421875,0 -0.550781,-0.1171875 -0.550781,-0.56249996 v -4.2890625 h 1.03125 z m 6.418945,3.4570312 c 0,-0.9492187 -0.07031,-1.5234375 -0.246093,-1.9921875 -0.410157,-1.03125 -1.359375,-1.6523437 -2.53125,-1.6523437 -1.746094,0 -2.871094,1.3359375 -2.871094,3.3984375 0,2.05078121 1.089844,3.31640621 2.847656,3.31640621 1.429688,0 2.425781,-0.80859375 2.671875,-2.16796871 h -1.007812 c -0.269532,0.8203125 -0.832032,1.25390621 -1.628907,1.25390621 -0.632812,0 -1.171875,-0.29296875 -1.511718,-0.80859371 -0.234375,-0.3632813 -0.316407,-0.7265625 -0.328125,-1.3476563 z m -4.582031,-0.8085937 c 0.08203,-1.1601563 0.785156,-1.9101563 1.792969,-1.9101563 0.972656,0 1.722656,0.8085938 1.722656,1.8398438 0,0.023437 0,0.046875 -0.01172,0.070312 z m 11.018555,-5.109375 h -0.996094 v 3.2460937 c -0.410156,-0.6328125 -1.089844,-0.9726562 -1.921875,-0.9726562 -1.628906,0 -2.683594,1.3007812 -2.683594,3.3046875 0,2.109375 1.03125,3.41015621 2.71875,3.41015621 0.867188,0 1.464844,-0.31640625 1.992188,-1.08984375 v 0.8203125025 h 0.890625 z m -2.753906,3.2109375 c 1.078125,0 1.757812,0.9492187 1.757812,2.4492187 0,1.4414063 -0.691406,2.40234376 -1.746094,2.40234376 -1.101562,0 -1.828125,-0.97265626 -1.828125,-2.42578126 0,-1.4648437 0.726563,-2.4257812 1.816407,-2.4257812 z M 16.11582,7.6900312 v 6.2578128 h 1.007813 v -3.9375 c 0,-0.902344 0.65625,-1.6289065 1.476562,-1.6289065 0.738282,0 1.148438,0.4453125 1.148438,1.2539062 v 4.3125003 h 1.007812 v -3.9375 c 0,-0.902344 0.65625,-1.6289065 1.476563,-1.6289065 0.726562,0 1.160156,0.4570312 1.160156,1.2539062 v 4.3125003 h 0.996094 V 9.248625 c 0,-1.125 -0.644531,-1.7460938 -1.816406,-1.7460938 -0.832032,0 -1.335938,0.2578125 -1.921875,0.9609375 -0.375,-0.6679687 -0.867188,-0.9609375 -1.6875,-0.9609375 -0.832032,0 -1.382813,0.3164063 -1.921875,1.0664063 V 7.6900312 Z m 15.524414,5.6718748 c -0.105468,0.02344 -0.164062,0.02344 -0.222656,0.02344 -0.339844,0 -0.539062,-0.175782 -0.539062,-0.492188 V 9.2134687 c 0,-1.1132812 -0.808594,-1.7109375 -2.34375,-1.7109375 -0.914063,0 -1.664063,0.2695313 -2.085938,0.7265625 -0.28125,0.328125 -0.410156,0.6914063 -0.433594,1.3125 h 1.007813 c 0.08203,-0.7734375 0.539062,-1.1132812 1.464844,-1.1132812 0.902343,0 1.40625,0.328125 1.40625,0.9257812 V 9.623625 c 0,0.410156 -0.257813,0.597656 -1.042969,0.691406 -1.40625,0.175781 -1.628906,0.222656 -2.003906,0.386719 -0.738282,0.292969 -1.101563,0.855469 -1.101563,1.664062 0,1.136719 0.785156,1.851563 2.050781,1.851563 0.796875,0 1.429688,-0.269531 2.132813,-0.914063 0.07031,0.632813 0.375,0.914063 1.03125,0.914063 0.199219,0 0.351562,-0.02344 0.679687,-0.105469 z m -1.746093,-1.382812 c 0,0.328125 -0.09375,0.539062 -0.398438,0.808593 -0.410156,0.375 -0.890625,0.5625 -1.476562,0.5625 -0.785157,0 -1.230469,-0.375 -1.230469,-1.007812 0,-0.65625 0.433594,-0.984375 1.5,-1.148438 1.054687,-0.140625 1.265625,-0.1875 1.605469,-0.339843 z m 3.788086,-4.2890628 h -0.996094 v 6.2578128 h 0.996094 z m 0,-2.4609375 h -1.007813 v 1.265625 h 1.007813 z m 1.693359,2.4609375 v 6.2578128 h 1.007812 v -3.457032 c 0,-1.2773433 0.667969,-2.1093745 1.699219,-2.1093745 0.785156,0 1.289063,0.46875 1.289063,1.2304687 v 4.3359378 h 0.996093 V 9.2134687 c 0,-1.0429687 -0.785156,-1.7109375 -1.992187,-1.7109375 -0.925781,0 -1.523438,0.3632813 -2.074219,1.2304688 V 7.6900312 Z m 0,0"
       style="fill:#000000;fill-opacity:1;fill-rule:nonzero;stroke:none"
       aria-label="Calculated&#10;main"
       transform="matrix(1.3333333,0,0,1.3333333,257.63333,38.356)" />
    <path
       id="path15"
       d="m 53.52164,-18.82375 c 0.59774,-1.19555 1.99255,-1.99255 3.9851,-1.99255 h 63.91065 c 1.99255,0 3.38736,-0.79701 3.98511,-1.99255 0.59774,1.19554 1.99255,1.99255 3.9851,1.99255 h 63.91063 c 1.99256,0 3.38738,0.797 3.98511,1.99255"
       style="fill:none;stroke:#4040ff;stroke-width:0.79701;stroke-linecap:butt;stroke-linejoin:miter;stroke-miterlimit:10;stroke-dasharray:none;stroke-opacity:1"
       transform="matrix(1.3333333,0,0,-1.3333333,70.569333,88.897333)" />
    <path
       id="path16"
       d="M 2.1901719,-3.9717891 H 6.9362656 V -4.9444453 H 2.1901719 v -2.7890625 h 4.921875 v -0.984375 H 1.0768906 V 8.671875e-4 H 7.3229844 V -0.98350781 H 2.1901719 Z M 8.8054063,-6.2569453 V 8.671875e-4 H 9.8132188 V -3.9366328 c 0,-0.9023438 0.6562502,-1.6289063 1.4765622,-1.6289063 0.738282,0 1.148438,0.4453125 1.148438,1.2539063 V 8.671875e-4 h 1.007812 V -3.9366328 c 0,-0.9023438 0.65625,-1.6289063 1.476563,-1.6289063 0.726562,0 1.160156,0.4570313 1.160156,1.2539063 V 8.671875e-4 h 0.996094 V -4.6983516 c 0,-1.125 -0.644531,-1.7460937 -1.816406,-1.7460937 -0.832032,0 -1.335938,0.2578125 -1.921875,0.9609375 -0.375,-0.6679688 -0.867188,-0.9609375 -1.6875,-0.9609375 -0.832032,0 -1.382813,0.3164062 -1.9218755,1.0664062 v -0.8789062 z m 9.7705077,8.859375 h 1.007813 v -3.25781251 c 0.527343,0.64453125 1.113281,0.92578125 1.921875,0.92578125 1.617187,0 2.671875,-1.30078124 2.671875,-3.29296874 0,-2.109375 -1.019532,-3.421875 -2.683594,-3.421875 -0.84375,0 -1.535156,0.3867187 -1.992188,1.125 v -0.9375 h -0.925781 z m 2.753906,-8.109375 c 1.101563,0 1.816407,0.9609375 1.816407,2.4609375 0,1.4179687 -0.726563,2.39062499 -1.816407,2.39062499 -1.054687,0 -1.746093,-0.96093749 -1.746093,-2.42578129 0,-1.4765625 0.691406,-2.4257812 1.746093,-2.4257812 z m 5.041993,-0.75 H 25.375719 V 8.671875e-4 h 0.996094 z m 0,-2.4609375 H 25.364 v 1.265625 h 1.007813 z m 1.68164,2.4609375 V 8.671875e-4 h 1.007813 V -3.2452266 c 0,-0.9023437 0.222656,-1.4882812 0.703125,-1.8398437 0.316406,-0.2226563 0.609375,-0.2929688 1.300781,-0.3046875 v -1.0195313 c -0.164063,-0.023437 -0.246094,-0.035156 -0.375,-0.035156 -0.644531,0 -1.136719,0.3867187 -1.710938,1.3125 v -1.125 z m 5.132813,0 H 32.190172 V 8.671875e-4 h 0.996094 z m 0,-2.4609375 h -1.007813 v 1.265625 h 1.007813 z m 6.486328,4.5585937 c -0.04687,-0.609375 -0.175781,-1.0078125 -0.410156,-1.3476562 -0.433594,-0.5859375 -1.183594,-0.9375 -2.0625,-0.9375 -1.6875,0 -2.777344,1.3359375 -2.777344,3.421875 0,2.015625 1.066406,3.29296874 2.765625,3.29296874 1.5,0 2.4375,-0.890625 2.566406,-2.42578124 h -1.007812 c -0.164063,1.0078125 -0.679688,1.51171874 -1.535157,1.51171874 -1.101562,0 -1.757812,-0.90234374 -1.757812,-2.37890624 0,-1.5703125 0.644531,-2.4960938 1.734375,-2.4960938 0.84375,0 1.371094,0.4921875 1.488281,1.359375 z m 6.752929,3.57421879 c -0.105468,0.0234375 -0.164062,0.0234375 -0.222656,0.0234375 -0.339844,0 -0.539062,-0.17578125 -0.539062,-0.49218749 v -3.6796875 c 0,-1.1132813 -0.808594,-1.7109375 -2.34375,-1.7109375 -0.914063,0 -1.664063,0.2695312 -2.085938,0.7265625 -0.28125,0.328125 -0.410156,0.6914062 -0.433594,1.3125 h 1.007813 c 0.08203,-0.7734375 0.539062,-1.1132813 1.464844,-1.1132813 0.902343,0 1.40625,0.328125 1.40625,0.9257813 v 0.2695312 c 0,0.4101563 -0.257813,0.5976563 -1.042969,0.6914063 -1.40625,0.1757812 -1.628906,0.2226562 -2.003906,0.3867187 -0.738282,0.2929688 -1.101563,0.8554688 -1.101563,1.6640625 0,1.13671879 0.785156,1.85156254 2.050781,1.85156254 0.796875,0 1.429688,-0.2695312525 2.132813,-0.9140625 0.07031,0.6328125 0.375,0.9140625 1.03125,0.9140625 0.199219,0 0.351562,-0.0234375 0.679687,-0.10546875 z M 44.67943,-1.9678828 c 0,0.328125 -0.09375,0.5390625 -0.398438,0.8085937 -0.410156,0.37500004 -0.890625,0.56250004 -1.476562,0.56250004 -0.785157,0 -1.230469,-0.375 -1.230469,-1.00781254 0,-0.65625 0.433594,-0.984375 1.5,-1.1484375 1.054687,-0.140625 1.265625,-0.1875 1.605469,-0.3398437 z m 3.811523,-6.75 H 47.483141 V 8.671875e-4 h 1.007812 z m 9.785156,4.5585937 c -0.04687,-0.609375 -0.175781,-1.0078125 -0.410156,-1.3476562 -0.433594,-0.5859375 -1.183594,-0.9375 -2.0625,-0.9375 -1.6875,0 -2.777344,1.3359375 -2.777344,3.421875 0,2.015625 1.066407,3.29296874 2.765625,3.29296874 1.5,0 2.4375,-0.890625 2.566407,-2.42578124 h -1.007813 c -0.164062,1.0078125 -0.679687,1.51171874 -1.535156,1.51171874 -1.101563,0 -1.757813,-0.90234374 -1.757813,-2.37890624 0,-1.5703125 0.644532,-2.4960938 1.734375,-2.4960938 0.84375,0 1.371094,0.4921875 1.488282,1.359375 z m 3.597657,-2.2851562 c -1.746094,0 -2.8125,1.2539062 -2.8125,3.3632812 0,2.09765629 1.042968,3.35156254 2.824218,3.35156254 1.757813,0 2.835938,-1.25390625 2.835938,-3.30468754 0,-2.1679687 -1.042969,-3.4101562 -2.847656,-3.4101562 z m 0.01172,0.9257812 c 1.125,0 1.792969,0.9140625 1.792969,2.4726563 0,1.4648437 -0.691406,2.40234374 -1.792969,2.40234374 -1.101562,0 -1.792968,-0.92578124 -1.792968,-2.43750004 0,-1.5117187 0.691406,-2.4375 1.792968,-2.4375 z m 4.209961,-0.7382812 V 8.671875e-4 H 67.10326 V -3.2452266 c 0,-0.9023437 0.222656,-1.4882812 0.703125,-1.8398437 0.316406,-0.2226563 0.609375,-0.2929688 1.300781,-0.3046875 v -1.0195313 c -0.164062,-0.023437 -0.246094,-0.035156 -0.375,-0.035156 -0.644531,0 -1.136719,0.3867187 -1.710937,1.3125 v -1.125 z m 3.981446,0 V 8.671875e-4 h 1.007812 V -3.2452266 c 0,-0.9023437 0.222656,-1.4882812 0.703125,-1.8398437 0.316406,-0.2226563 0.609375,-0.2929688 1.300781,-0.3046875 v -1.0195313 c -0.164062,-0.023437 -0.246093,-0.035156 -0.375,-0.035156 -0.644531,0 -1.136718,0.3867187 -1.710937,1.3125 v -1.125 z m 9.290039,3.4570312 c 0,-0.9492187 -0.07031,-1.5234375 -0.246094,-1.9921875 -0.410156,-1.03125 -1.359375,-1.6523437 -2.53125,-1.6523437 -1.746094,0 -2.871094,1.3359375 -2.871094,3.3984375 0,2.05078124 1.089844,3.31640624 2.847656,3.31640624 1.429688,0 2.425782,-0.80859375 2.671875,-2.16796874 h -1.007812 c -0.269531,0.8203125 -0.832031,1.25390624 -1.628906,1.25390624 -0.632813,0 -1.171875,-0.29296875 -1.511719,-0.80859374 -0.234375,-0.3632813 -0.316406,-0.7265625 -0.328125,-1.3476563 z M 74.7849,-3.6085078 c 0.08203,-1.1601563 0.785157,-1.9101563 1.792969,-1.9101563 0.972656,0 1.722656,0.8085938 1.722656,1.8398438 0,0.023437 0,0.046875 -0.01172,0.070312 z m 10.725586,-0.5507813 c -0.04687,-0.609375 -0.175781,-1.0078125 -0.410156,-1.3476562 -0.433594,-0.5859375 -1.183594,-0.9375 -2.0625,-0.9375 -1.6875,0 -2.777344,1.3359375 -2.777344,3.421875 0,2.015625 1.066407,3.29296874 2.765625,3.29296874 1.5,0 2.4375,-0.890625 2.566407,-2.42578124 h -1.007813 c -0.164062,1.0078125 -0.679687,1.51171874 -1.535156,1.51171874 -1.101563,0 -1.757813,-0.90234374 -1.757813,-2.37890624 0,-1.5703125 0.644532,-2.4960938 1.734375,-2.4960938 0.84375,0 1.371094,0.4921875 1.488282,1.359375 z m 3.386719,-2.0976562 h -1.03125 V -7.9796016 H 86.88158 v 1.7226563 h -0.855469 v 0.8085937 h 0.855469 v 4.73437504 c 0,0.6328125 0.421875,0.984375 1.207031,0.984375 0.234375,0 0.480469,-0.0234375 0.808594,-0.0820313 v -0.83203125 c -0.128906,0.0351563 -0.28125,0.046875 -0.480469,0.046875 -0.421875,0 -0.550781,-0.1171875 -0.550781,-0.56249999 v -4.2890625 h 1.03125 z m 2.083008,0 H 89.984117 V 8.671875e-4 h 0.996094 z m 0,-2.4609375 H 89.9724 v 1.265625 h 1.007813 z m 4.104492,2.2734375 c -1.746094,0 -2.8125,1.2539062 -2.8125,3.3632812 0,2.09765629 1.042969,3.35156254 2.824219,3.35156254 1.757812,0 2.835937,-1.25390625 2.835937,-3.30468754 0,-2.1679687 -1.042968,-3.4101562 -2.847656,-3.4101562 z m 0.01172,0.9257812 c 1.125,0 1.792969,0.9140625 1.792969,2.4726563 0,1.4648437 -0.691407,2.40234374 -1.792969,2.40234374 -1.101563,0 -1.792969,-0.92578124 -1.792969,-2.43750004 0,-1.5117187 0.691406,-2.4375 1.792969,-2.4375 z m 4.22168,-0.7382812 V 8.671875e-4 h 1.007805 V -3.4561641 c 0,-1.2773437 0.66797,-2.109375 1.69922,-2.109375 0.78516,0 1.28907,0.46875 1.28907,1.2304688 V 8.671875e-4 h 0.99609 V -4.7335078 c 0,-1.0429688 -0.78516,-1.7109375 -1.99219,-1.7109375 -0.92578,0 -1.52344,0.3632812 -2.07422,1.2304687 v -1.0429687 z m 0,0"
       style="fill:#4040ff;fill-opacity:1;fill-rule:nonzero;stroke:none"
       aria-label="Empiricalcorrection"
       transform="matrix(1.3333333,0,0,1.3333333,167.68133,135.784)" />
  </g>
</svg>
