<?xml version="1.0" encoding="UTF-8" standalone="no"?>
<!-- Created with Inkscape (http://www.inkscape.org/) -->

<svg
   version="1.1"
   id="svg1"
   width="484.98932"
   height="125.10267"
   viewBox="0 0 484.98932 125.10267"
   sodipodi:docname="ie_ml.pdf"
   xmlns:inkscape="http://www.inkscape.org/namespaces/inkscape"
   xmlns:sodipodi="http://sodipodi.sourceforge.net/DTD/sodipodi-0.dtd"
   xmlns="http://www.w3.org/2000/svg"
   xmlns:svg="http://www.w3.org/2000/svg">
  <defs
     id="defs1" />
  <sodipodi:namedview
     id="namedview1"
     pagecolor="#ffffff"
     bordercolor="#000000"
     borderopacity="0.25"
     inkscape:showpageshadow="2"
     inkscape:pageopacity="0.0"
     inkscape:pagecheckerboard="0"
     inkscape:deskcolor="#d1d1d1">
    <inkscape:page
       x="0"
       y="0"
       inkscape:label="1"
       id="page1"
       width="484.98932"
       height="125.10267"
       margin="0"
       bleed="0" />
  </sodipodi:namedview>
  <g
     id="g1"
     inkscape:groupmode="layer"
     inkscape:label="1">
    <path
       id="path1"
       d="m 26.35425,12.75597 h -52.7085 c -1.10048,0 -1.99255,-0.89208 -1.99255,-1.99256 v -21.52682 c 0,-1.10048 0.89207,-1.99256 1.99255,-1.99256 h 52.7085 c 1.10048,0 1.99255,0.89208 1.99255,1.99256 v 21.52682 c 0,1.10048 -0.89207,1.99256 -1.99255,1.99256 z"
       style="fill:#35b779;fill-opacity:1;fill-rule:nonzero;stroke:#b3b3b3;stroke-width:0.79701;stroke-linecap:butt;stroke-linejoin:miter;stroke-miterlimit:10;stroke-dasharray:none;stroke-opacity:1"
       transform="matrix(1.3333333,0,0,-1.3333333,75.293333,88.665333)" />
    <path
       id="path2"
       d="m 1.7801094,-2.3201484 h 2.7539062 l 0.1171875,-0.5625 H 1.8972969 L 2.2488594,-4.5115547 H 5.1199531 L 5.2371406,-5.0857734 H 1.7097969 L 0.63167188,1.640625e-4 H 4.2762031 L 4.3933906,-0.57405469 H 1.4051094 Z M 9.4060859,-7.2713203 H 8.8201484 l -0.7734375,3.65625 H 8.6326484 Z M 9.7107734,-8.7010078 H 9.1248359 l -0.1523437,0.7265625 h 0.5859375 z m 3.6152346,2.4492187 c 0.03516,-0.140625 0.03516,-0.2109375 0.03516,-0.2929687 0,-0.4921875 -0.457031,-0.8320313 -1.136719,-0.8320313 -0.492187,0 -0.925781,0.1523438 -1.207031,0.421875 -0.257812,0.2460938 -0.421875,0.609375 -0.421875,0.9375 0,0.421875 0.246094,0.6210938 0.960938,0.8085938 l 0.515625,0.140625 c 0.234375,0.058594 0.339843,0.1054687 0.398437,0.1757812 0.04687,0.058594 0.09375,0.1640625 0.09375,0.234375 0,0.1171875 -0.117187,0.3398438 -0.222656,0.4335938 -0.175781,0.140625 -0.480469,0.234375 -0.773438,0.234375 -0.480468,0 -0.75,-0.1875 -0.75,-0.5390625 0,-0.046875 0,-0.1054688 0.01172,-0.1757813 H 10.20882 c -0.03516,0.1640625 -0.04687,0.2460938 -0.04687,0.3632813 0,0.5507812 0.492188,0.890625 1.300782,0.890625 1.042968,0 1.710937,-0.5390625 1.710937,-1.3710938 0,-0.421875 -0.222656,-0.6445312 -0.84375,-0.796875 l -0.527344,-0.140625 c -0.386718,-0.09375 -0.585937,-0.234375 -0.585937,-0.4101562 0,-0.140625 0.08203,-0.3164063 0.199219,-0.4335938 0.175781,-0.1640625 0.386718,-0.234375 0.691406,-0.234375 0.410156,0 0.632812,0.1640625 0.632812,0.4335938 0,0.046875 0,0.09375 0,0.1523437 z m 2.774414,-1.125 c -0.644531,0 -1.21875,0.2929688 -1.570313,0.8085938 -0.316406,0.4453125 -0.539062,1.21875 -0.539062,1.8046875 0,0.7734375 0.527344,1.3125 1.3125,1.3125 0.667969,0 1.195312,-0.28125 1.59375,-0.8085938 0.316406,-0.4453125 0.550781,-1.2070312 0.550781,-1.8046875 0,-0.375 -0.140625,-0.7265625 -0.386719,-0.9726562 -0.234375,-0.2226563 -0.550781,-0.3398438 -0.960937,-0.3398438 z m -0.08203,0.5390625 c 0.515625,0 0.808593,0.3398438 0.808593,0.9023438 0,0.4101562 -0.117187,0.8671875 -0.304687,1.2070312 -0.257813,0.4804688 -0.644531,0.7382813 -1.125,0.7382813 -0.492188,0 -0.796875,-0.3515625 -0.796875,-0.9023438 0,-0.3984375 0.117187,-0.8671875 0.304687,-1.2070312 0.257813,-0.4804688 0.644532,-0.7382813 1.113282,-0.7382813 z m -5.446289,7.6728516 0.02344,-0.1171875 c 0.05859,-0.33984375 0.09375,-0.6328125 0.09375,-0.8203125 0,-0.66796875 -0.574219,-1.1953125 -1.3359374,-1.1953125 -0.5976563,0 -1.1835938,0.2929688 -1.5351563,0.76171875 C 7.4900703,-0.102375 7.2322578,0.6945 7.2322578,1.257 c 0,0.375 0.1640625,0.7617188 0.4335938,1.0195313 0.2460937,0.234375 0.5507812,0.3515625 0.9492187,0.3515625 0.8320313,0 1.5468747,-0.515625 1.7695317,-1.2773438 H 9.7986641 C 9.5525703,1.8312188 9.1775703,2.0890313 8.7088203,2.0890313 c -0.5507812,0 -0.8671875,-0.3398438 -0.8671875,-0.9375 0,-0.140625 0.011719,-0.21093755 0.035156,-0.3164063 z M 8.0056953,0.33121875 C 8.1814766,-0.3133125 8.7088203,-0.758625 9.2713203,-0.758625 c 0.4921875,0 0.8085937,0.33984375 0.8085937,0.85546875 0,0.0703125 -0.01172,0.1171875 -0.02344,0.234375 z M 12.898273,0.60075 14.52718,-1.1922187 H 13.847492 L 12.687336,0.14371875 12.066242,-1.1922187 H 11.421711 L 12.242023,0.60075 10.577961,2.4640313 h 0.679687 L 12.476398,1.0695 13.109211,2.4640313 h 0.644531 z m 1.751954,3.3515625 h 0.585937 l 0.421875,-1.9570312 c 0.210938,0.4453125 0.503906,0.6328125 0.996094,0.6328125 0.539062,0 1.066406,-0.2578125 1.417969,-0.6914063 0.375,-0.4570312 0.621093,-1.18359375 0.621093,-1.875 0,-0.83203125 -0.46875,-1.359375 -1.21875,-1.359375 -0.304687,0 -0.609375,0.09375 -0.890625,0.2695313 -0.222656,0.14062495 -0.304687,0.23437495 -0.398437,0.42187495 l 0.128906,-0.58593745 h -0.5625 z m 2.601562,-4.7109375 c 0.515625,0 0.820313,0.36328125 0.820313,0.9609375 0,0.375 -0.117188,0.8320313 -0.304688,1.1835938 -0.257812,0.46875 -0.609375,0.703125 -1.054687,0.703125 -0.515625,0 -0.832032,-0.3515625 -0.832032,-0.9023438 0,-0.421875 0.117188,-0.87890625 0.328125,-1.2421875 0.257813,-0.46875 0.609375,-0.703125 1.042969,-0.703125 z m 0,0"
       style="fill:#000000;fill-opacity:1;fill-rule:nonzero;stroke:none"
       aria-label="E&#10;iso&#10;exp"
       transform="matrix(1.3333333,0,0,1.3333333,62.509333,91.824)" />
    <path
       id="path3"
       d="m 13.6175,-4.7450781 c 0.351563,0 0.726563,0 0.726563,-0.421875 0,-0.4101563 -0.375,-0.4101563 -0.726563,-0.4101563 H 2.4378125 c -0.3515625,0 -0.7265625,0 -0.7265625,0.4101563 0,0.421875 0.375,0.421875 0.7265625,0.421875 z m 0,0"
       style="fill:#000000;fill-opacity:1;fill-rule:nonzero;stroke:none"
       aria-label="−"
       transform="matrix(1.3333333,0,0,1.3333333,122.09333,95.553333)" />
    <path
       id="path4"
       d="M 112.62532,12.75597 H 59.91681 c -1.10046,0 -1.99255,-0.89208 -1.99255,-1.99256 v -21.52682 c 0,-1.10048 0.89209,-1.99256 1.99255,-1.99256 h 52.70851 c 1.10048,0 1.99255,0.89208 1.99255,1.99256 v 21.52682 c 0,1.10048 -0.89207,1.99256 -1.99255,1.99256 z"
       style="fill:#31688e;fill-opacity:1;fill-rule:nonzero;stroke:#b3b3b3;stroke-width:0.79701;stroke-linecap:butt;stroke-linejoin:miter;stroke-miterlimit:10;stroke-dasharray:none;stroke-opacity:1"
       transform="matrix(1.3333333,0,0,-1.3333333,75.293333,88.665333)" />
    <path
       id="path5"
       d="m 1.7815547,-2.3195703 h 2.7539062 l 0.1171875,-0.5625 H 1.8987422 L 2.2503047,-4.5109766 H 5.1213984 L 5.2385859,-5.0851953 H 1.7112422 L 0.63311719,7.421875e-4 H 4.2776484 L 4.3948359,-0.57347656 H 1.4065547 Z M 9.4075313,-7.2707422 H 8.8215938 l -0.7734375,3.65625 H 8.6340938 Z M 9.7122188,-8.7004297 H 9.1262813 L 8.9739375,-7.9738672 H 9.559875 Z m 3.6123042,2.4492188 c 0.03516,-0.140625 0.03516,-0.2109375 0.03516,-0.2929688 0,-0.4921875 -0.457032,-0.8320312 -1.136719,-0.8320312 -0.492188,0 -0.925781,0.1523437 -1.207031,0.421875 -0.257813,0.2460937 -0.421875,0.609375 -0.421875,0.9375 0,0.421875 0.246093,0.6210937 0.960937,0.8085937 l 0.515625,0.140625 c 0.234375,0.058594 0.339844,0.1054688 0.398438,0.1757813 0.04687,0.058594 0.09375,0.1640625 0.09375,0.234375 0,0.1171875 -0.117188,0.3398437 -0.222657,0.4335937 -0.175781,0.140625 -0.480468,0.234375 -0.773437,0.234375 -0.480469,0 -0.75,-0.1875 -0.75,-0.5390625 0,-0.046875 0,-0.1054687 0.01172,-0.1757812 H 10.20734 c -0.03516,0.1640625 -0.04687,0.2460937 -0.04687,0.3632812 0,0.5507813 0.492187,0.890625 1.300781,0.890625 1.042969,0 1.710938,-0.5390625 1.710938,-1.3710937 0,-0.421875 -0.222657,-0.6445313 -0.84375,-0.796875 l -0.527344,-0.140625 c -0.386719,-0.09375 -0.585938,-0.234375 -0.585938,-0.4101563 0,-0.140625 0.08203,-0.3164062 0.199219,-0.4335937 0.175781,-0.1640625 0.386719,-0.234375 0.691406,-0.234375 0.410157,0 0.632813,0.1640625 0.632813,0.4335937 0,0.046875 0,0.09375 0,0.1523438 z m 2.774415,-1.125 c -0.644532,0 -1.21875,0.2929687 -1.570313,0.8085937 -0.316406,0.4453125 -0.539062,1.21875 -0.539062,1.8046875 0,0.7734375 0.527343,1.3125 1.3125,1.3125 0.667968,0 1.195312,-0.28125 1.59375,-0.8085937 0.316406,-0.4453125 0.550781,-1.2070313 0.550781,-1.8046875 0,-0.375 -0.140625,-0.7265625 -0.386719,-0.9726563 -0.234375,-0.2226562 -0.550781,-0.3398437 -0.960937,-0.3398437 z m -0.08203,0.5390625 c 0.515625,0 0.808594,0.3398437 0.808594,0.9023437 0,0.4101563 -0.117187,0.8671875 -0.304687,1.2070313 -0.257813,0.4804687 -0.644532,0.7382812 -1.125,0.7382812 -0.492188,0 -0.796875,-0.3515625 -0.796875,-0.9023437 0,-0.3984375 0.117187,-0.8671875 0.304687,-1.2070313 0.257813,-0.4804687 0.644531,-0.7382812 1.113281,-0.7382812 z m -6.9345701,4.883789 h -0.65625 L 7.3479629,3.1325781 H 7.9924942 Z M 10.804994,0.81226563 H 13.5589 l 0.117188,-0.5625 H 10.92218 l 0.351562,-1.62890623 h 2.871094 l 0.117187,-0.5742188 H 10.73468 L 9.6565547,3.1325781 h 3.6445313 l 0.117187,-0.5742187 h -2.988281 z m 0,0"
       style="fill:#000000;fill-opacity:1;fill-rule:nonzero;stroke:none"
       aria-label="E&#10;iso&#10;IE"
       transform="matrix(1.3333333,0,0,1.3333333,178.316,92.346667)" />
    <path
       id="path6"
       d="M 11.028164,-7.2877656 H 1.0320703 v 1.4414062 h 9.9960937 z m 0,3.5507812 H 1.0320703 v 1.4414063 h 9.9960937 z m 0,0"
       style="fill:#000000;fill-opacity:1;fill-rule:nonzero;stroke:none"
       aria-label="="
       transform="matrix(1.3333333,0,0,1.3333333,237.12,94.037333)" />
    <path
       id="path7"
       d="m 194.89229,12.75597 h -52.70851 c -1.10047,0 -1.99256,-0.89208 -1.99256,-1.99256 v -21.52682 c 0,-1.10048 0.89209,-1.99256 1.99256,-1.99256 h 52.70851 c 1.10048,0 1.99255,0.89208 1.99255,1.99256 v 21.52682 c 0,1.10048 -0.89207,1.99256 -1.99255,1.99256 z"
       style="fill:#ff991c;fill-opacity:1;fill-rule:nonzero;stroke:#b3b3b3;stroke-width:0.79701;stroke-linecap:butt;stroke-linejoin:miter;stroke-miterlimit:10;stroke-dasharray:none;stroke-opacity:1"
       transform="matrix(1.3333333,0,0,-1.3333333,75.293333,88.665333)" />
    <g
       id="g7"
       aria-label="∆E&#10;IE"
       transform="matrix(1.3333333,0,0,1.3333333,284.58267,92.393333)">
      <path
         id="path8"
         d="m 6.1518672,-6.8897266 c -0.046875,-0.1992187 -0.058594,-0.2460937 -0.234375,-0.2460937 -0.09375,0 -0.1757813,0 -0.3046875,0.1992187 l -5.05078126,6.73828129 c -0.0703125,0.09375 -0.0703125,0.1171875 -0.0703125,0.140625 0,0.046875 0.0117188,0.0585937475 0.2109375,0.0585937475 H 7.5815547 c 0.1640625,0 0.2578125,0 0.2578125,-0.1054687475 0,-0.0351563 -0.011719,-0.09375 -0.023437,-0.12890625 z m -0.75,0.6914063 1.359375,5.48437499 H 1.3003047 Z m 0,0"
         style="fill:#000000;fill-opacity:1;fill-rule:nonzero;stroke:none" />
      <path
         id="path9"
         d="m 10.083508,-2.3194141 h 2.753906 l 0.117188,-0.5625 h -2.753907 l 0.351563,-1.6289062 h 2.871094 l 0.117187,-0.5742188 H 10.013195 L 8.9350703,8.984375e-4 H 12.579602 L 12.696789,-0.57332031 H 9.7085078 Z m 7.300781,-1.1601562 h -0.65625 l -1.078125,5.0859375 h 0.644531 z m 1.722656,2.76562499 h 2.753907 l 0.117187,-0.56249999 h -2.753906 l 0.351562,-1.6289063 h 2.871094 l 0.117188,-0.5742187 h -3.527344 l -1.078125,5.0859375 h 3.644531 l 0.117188,-0.5742188 h -2.988282 z m 0,0"
         style="fill:#000000;fill-opacity:1;fill-rule:nonzero;stroke:none" />
    </g>
    <path
       id="path10"
       d="M 11.028789,-7.2877656 H 1.0326953 v 1.4414062 h 9.9960937 z m 0,3.5507812 H 1.0326953 v 1.4414063 h 9.9960937 z m 0,0"
       style="fill:#000000;fill-opacity:1;fill-rule:nonzero;stroke:none"
       aria-label="="
       transform="matrix(1.3333333,0,0,1.3333333,346.80667,94.037333)" />
    <path
       id="path11"
       d="m 277.15926,12.75597 h -52.70852 c -1.10047,0 -1.99255,-0.89208 -1.99255,-1.99256 v -21.52682 c 0,-1.10048 0.89208,-1.99256 1.99255,-1.99256 h 52.70852 c 1.10046,0 1.99255,0.89208 1.99255,1.99256 v 21.52682 c 0,1.10048 -0.89209,1.99256 -1.99255,1.99256 z"
       style="fill:#440154;fill-opacity:1;fill-rule:nonzero;stroke:#b3b3b3;stroke-width:0.79701;stroke-linecap:butt;stroke-linejoin:miter;stroke-miterlimit:10;stroke-dasharray:none;stroke-opacity:1"
       transform="matrix(1.3333333,0,0,-1.3333333,75.293333,88.665333)" />
    <path
       id="path12"
       d="m 1.7824219,-2.3194141 h 2.7539062 l 0.1171875,-0.5625 H 1.8996094 L 2.2511719,-4.5108203 H 5.1222656 L 5.2394531,-5.0850391 H 1.7121094 L 0.63398438,8.984375e-4 H 4.2785156 L 4.3957031,-0.57332031 H 1.4074219 Z m 8.1210937,3.9257813 2.3320314,-4.21875 -0.902344,4.21875 h 0.621094 l 1.078125,-5.0859375 H 12.118359 L 9.7042969,0.89152344 9.1535156,-3.4795703 H 8.2511719 l -1.078125,5.0859375 h 0.6210937 l 0.890625,-4.21875 0.5390625,4.21875 z m 5.4111324,-5.0859375 h -0.65625 l -1.078125,5.0859375 h 3.164063 l 0.117187,-0.5742188 h -2.507812 z m 0,0"
       style="fill:#000000;fill-opacity:1;fill-rule:nonzero;stroke:none"
       aria-label="E&#10;ML"
       transform="matrix(1.3333333,0,0,1.3333333,398.1,92.393333)" />
    <path
       id="path13"
       d="m 4.6509844,-8.859625 c -2.4960938,0 -4.19531252,1.8398438 -4.19531252,4.5703125 0,2.71875 1.69921872,4.55859375 4.20703122,4.55859375 1.0546875,0 1.9921875,-0.31640625 2.6953125,-0.9140625 C 8.3072344,-1.4416562 8.8697344,-2.8010312 8.8697344,-4.219 c 0,-2.8125 -1.6640625,-4.640625 -4.21875,-4.640625 z m 0,0.984375 c 1.8867187,0 3.1054687,1.4296875 3.1054687,3.6328125 0,2.0976563 -1.2539062,3.5390625 -3.09375,3.5390625 -1.8515625,0 -3.09375,-1.4414062 -3.09375,-3.5859375 0,-2.15625 1.2421875,-3.5859375 3.0820313,-3.5859375 z m 5.4697266,1.6171875 V -2.5e-4 h 1.007812 v -3.2460937 c 0,-0.9023438 0.222657,-1.4882813 0.703125,-1.8398438 0.316407,-0.2226562 0.609375,-0.2929687 1.300782,-0.3046875 v -1.0195312 c -0.164063,-0.023437 -0.246094,-0.035156 -0.375,-0.035156 -0.644532,0 -1.136719,0.3867188 -1.710938,1.3125 v -1.125 z m 5.132812,0 H 14.25743 V -2.5e-4 h 0.996093 z m 0,-2.4609375 h -1.007812 v 1.265625 h 1.007812 z m 5.783204,2.4609375 v 0.9023438 C 20.53282,-6.094 19.923445,-6.4455625 19.12657,-6.4455625 c -1.59375,0 -2.660156,1.3945313 -2.660156,3.421875 0,1.03125 0.269531,1.8632813 0.785156,2.4609375 0.46875,0.52734375 1.136719,0.83203125 1.792969,0.83203125 0.785156,0 1.335938,-0.328125 1.898438,-1.11328125 v 0.31640625 c 0,0.85546875 -0.105469,1.359375 -0.363282,1.71093755 -0.257812,0.375 -0.773437,0.5859375 -1.382812,0.5859375 -0.457031,0 -0.855469,-0.1171875 -1.136719,-0.3398438 -0.222656,-0.1757812 -0.316406,-0.3398437 -0.375,-0.71484375 h -1.019531 c 0.105469,1.18359375 1.03125,1.88671875 2.496094,1.88671875 0.9375,0 1.734375,-0.2929687 2.144531,-0.796875 0.46875,-0.5742187 0.65625,-1.359375 0.65625,-2.8359375 v -5.2265625 z m -1.804688,0.7382813 c 1.078125,0 1.710938,0.9023437 1.710938,2.4726562 0,1.4882813 -0.644532,2.40234375 -1.699219,2.40234375 -1.089844,0 -1.746094,-0.92578125 -1.746094,-2.43749995 0,-1.5117188 0.667969,-2.4375 1.734375,-2.4375 z m 5.323242,-0.7382813 H 23.559188 V -2.5e-4 h 0.996093 z m 0,-2.4609375 h -1.007812 v 1.265625 h 1.007812 z m 1.69336,2.4609375 V -2.5e-4 h 1.007812 v -3.4570312 c 0,-1.2773438 0.667969,-2.109375 1.699219,-2.109375 0.785156,0 1.289062,0.46875 1.289062,1.2304687 V -2.5e-4 h 0.996094 v -4.734375 c 0,-1.0429687 -0.785156,-1.7109375 -1.992187,-1.7109375 -0.925782,0 -1.523438,0.3632813 -2.074219,1.2304688 v -1.0429688 z m 12.213867,5.671875 C 38.357039,-0.56275 38.298445,-0.56275 38.239852,-0.56275 c -0.339844,0 -0.539063,-0.17578125 -0.539063,-0.4921875 V -4.734625 c 0,-1.1132812 -0.808594,-1.7109375 -2.34375,-1.7109375 -0.914062,0 -1.664062,0.2695313 -2.085937,0.7265625 -0.28125,0.328125 -0.410157,0.6914063 -0.433594,1.3125 h 1.007812 c 0.08203,-0.7734375 0.539063,-1.1132812 1.464844,-1.1132812 0.902344,0 1.40625,0.328125 1.40625,0.9257812 v 0.2695313 c 0,0.4101562 -0.257812,0.5976562 -1.042969,0.6914062 -1.40625,0.1757813 -1.628906,0.2226563 -2.003906,0.3867188 -0.738281,0.2929687 -1.101562,0.8554687 -1.101562,1.6640625 0,1.1367187 0.785156,1.85156245 2.050781,1.85156245 0.796875,0 1.429687,-0.26953125 2.132812,-0.9140625 0.07031,0.6328125 0.375,0.9140625 1.03125,0.9140625 0.199219,0 0.351563,-0.0234375 0.679688,-0.10546875 z M 36.716414,-1.969 c 0,0.328125 -0.09375,0.5390625 -0.398437,0.8085938 -0.410157,0.37499995 -0.890625,0.56249995 -1.476563,0.56249995 -0.785156,0 -1.230469,-0.375 -1.230469,-1.00781245 0,-0.65625 0.433594,-0.984375 1.5,-1.1484375 1.054688,-0.140625 1.265625,-0.1875 1.605469,-0.3398438 z m 3.811524,-6.75 h -1.007813 v 8.71875 h 1.007813 z M -4.5746016,5.2292422 h -1.125 v 8.7187498 h 1.125 z m 3.1962891,4.7460937 H 3.3677813 V 9.0026797 H -1.3783125 V 6.2136172 h 4.921875 V 5.2292422 H -2.4915937 V 13.947992 H 3.7545 V 12.963617 H -1.3783125 Z M 13.97325,13.947992 16.422469,6.6472109 v 7.3007811 h 1.054687 V 5.2292422 H 15.942 L 13.399031,12.822992 10.820906,5.2292422 H 9.28575 v 8.7187498 h 1.042969 V 6.6472109 l 2.472656,7.3007811 z m 10.5,-2.800781 c 0,-0.949219 -0.07031,-1.5234376 -0.246094,-1.9921876 -0.410156,-1.03125 -1.359375,-1.6523437 -2.53125,-1.6523437 -1.746093,0 -2.871093,1.3359375 -2.871093,3.3984373 0,2.050781 1.089843,3.316406 2.847656,3.316406 1.429687,0 2.425781,-0.808593 2.671875,-2.167968 h -1.007813 c -0.269531,0.820312 -0.832031,1.253906 -1.628906,1.253906 -0.632812,0 -1.171875,-0.292969 -1.511719,-0.808594 -0.234375,-0.363281 -0.316406,-0.726562 -0.328125,-1.347656 z m -4.582031,-0.808594 c 0.08203,-1.1601561 0.785156,-1.9101561 1.792969,-1.9101561 0.972656,0 1.722656,0.8085938 1.722656,1.8398441 0,0.02344 0,0.04687 -0.01172,0.07031 z m 8.135742,-2.6484373 h -1.03125 V 5.9675234 h -0.984375 v 1.7226563 h -0.855469 v 0.8085937 h 0.855469 v 4.7343746 c 0,0.632813 0.421875,0.984375 1.207031,0.984375 0.234375,0 0.480469,-0.02344 0.808594,-0.08203 v -0.832031 c -0.128906,0.03516 -0.28125,0.04687 -0.480469,0.04687 -0.421875,0 -0.550781,-0.117188 -0.550781,-0.5625 V 8.4987734 h 1.03125 z m 1.119141,-2.4609375 v 8.7187498 h 0.996093 v -3.457031 c 0,-1.2773438 0.667969,-2.1093751 1.699219,-2.1093751 0.316406,0 0.644531,0.1054688 0.878906,0.28125 0.292969,0.1992188 0.410157,0.5039063 0.410157,0.9492188 V 13.947992 H 34.12657 V 9.2136172 c 0,-1.0546875 -0.761718,-1.7109375 -1.980468,-1.7109375 -0.878907,0 -1.417969,0.28125 -2.003907,1.0429687 V 5.2292422 Z m 9.061523,2.2734375 c -1.746094,0 -2.8125,1.2539062 -2.8125,3.3632813 0,2.097656 1.042969,3.351562 2.824219,3.351562 1.757812,0 2.835937,-1.253906 2.835937,-3.304687 0,-2.1679688 -1.042968,-3.4101563 -2.847656,-3.4101563 z m 0.01172,0.9257812 c 1.125,0 1.792969,0.9140625 1.792969,2.4726561 0,1.464844 -0.691407,2.402344 -1.792969,2.402344 -1.101563,0 -1.792969,-0.925781 -1.792969,-2.4375 0,-1.5117188 0.691406,-2.4375001 1.792969,-2.4375001 z M 47.526961,5.2292422 H 46.530867 V 8.4753359 C 46.120711,7.8425234 45.441023,7.5026797 44.608992,7.5026797 c -1.628906,0 -2.683594,1.3007812 -2.683594,3.3046873 0,2.109375 1.03125,3.410156 2.71875,3.410156 0.867188,0 1.464844,-0.316406 1.992188,-1.089843 v 0.820312 h 0.890625 z m -2.753906,3.2109375 c 1.078125,0 1.757812,0.9492187 1.757812,2.4492183 0,1.441407 -0.691406,2.402344 -1.746094,2.402344 -1.101562,0 -1.828125,-0.972656 -1.828125,-2.425781 0,-1.4648438 0.726563,-2.4257813 1.816407,-2.4257813 z m 0,0"
       style="fill:#000000;fill-opacity:1;fill-rule:nonzero;stroke:none"
       aria-label="Original&#10;IEMethod"
       transform="matrix(1.3333333,0,0,1.3333333,162.744,38.125333)" />
    <path
       id="path14"
       d="M 2.1903828,-3.9737734 H 6.9364766 V -4.9464297 H 2.1903828 v -2.7890625 h 4.921875 v -0.984375 H 1.0771016 v 8.71875001 h 6.2460937 v -0.984375 H 2.1903828 Z m 9.2753902,0.7382812 2.097657,-3.0234375 h -1.125 l -1.5,2.2617188 -1.5117191,-2.2617188 h -1.125 l 2.0859371,3.0703125 -2.2148433,3.18750001 h 1.1367187 l 1.5937496,-2.40234371 1.570313,2.40234371 h 1.148437 z m 3.131836,5.8359375 h 1.007813 v -3.25781249 c 0.527344,0.64453125 1.113281,0.92578125 1.921875,0.92578125 1.617187,0 2.671875,-1.30078126 2.671875,-3.29296876 0,-2.109375 -1.019531,-3.421875 -2.683594,-3.421875 -0.84375,0 -1.535156,0.3867188 -1.992187,1.125 v -0.9375 h -0.925782 z m 2.753907,-8.109375 c 1.101562,0 1.816406,0.9609375 1.816406,2.4609375 0,1.4179688 -0.726563,2.39062501 -1.816406,2.39062501 -1.054688,0 -1.746094,-0.96093751 -1.746094,-2.42578121 0,-1.4765625 0.691406,-2.4257813 1.746094,-2.4257813 z m 9.375,2.7070313 c 0,-0.9492188 -0.07031,-1.5234375 -0.246094,-1.9921875 -0.410156,-1.03125 -1.359375,-1.6523438 -2.53125,-1.6523438 -1.746094,0 -2.871094,1.3359375 -2.871094,3.3984375 0,2.05078126 1.089844,3.31640626 2.847656,3.31640626 1.429688,0 2.425782,-0.80859375 2.671875,-2.16796876 h -1.007812 c -0.269531,0.8203125 -0.832031,1.25390626 -1.628906,1.25390626 -0.632813,0 -1.171875,-0.29296875 -1.511719,-0.80859376 -0.234375,-0.3632812 -0.316406,-0.7265625 -0.328125,-1.3476562 z m -4.582032,-0.8085938 c 0.08203,-1.1601562 0.785157,-1.9101562 1.792969,-1.9101562 0.972656,0 1.722656,0.8085937 1.722656,1.8398437 0,0.023437 0,0.046875 -0.01172,0.070312 z m 5.920899,-2.6484375 v 6.25781251 h 1.007812 V -3.2472109 c 0,-0.9023438 0.222657,-1.4882813 0.703125,-1.8398438 0.316407,-0.2226562 0.609375,-0.2929687 1.300782,-0.3046875 v -1.0195312 c -0.164063,-0.023437 -0.246094,-0.035156 -0.375,-0.035156 -0.644532,0 -1.136719,0.3867188 -1.710938,1.3125 v -1.125 z m 5.132812,0 h -0.996093 v 6.25781251 h 0.996093 z m 0,-2.4609375 h -1.007812 v 1.265625 h 1.007812 z m 1.69336,2.4609375 v 6.25781251 h 1.007812 V -3.9386172 c 0,-0.9023437 0.65625,-1.6289062 1.476563,-1.6289062 0.738281,0 1.148437,0.4453125 1.148437,1.2539062 v 4.31250001 H 39.53218 V -3.9386172 c 0,-0.9023437 0.65625,-1.6289062 1.476562,-1.6289062 0.726563,0 1.160156,0.4570312 1.160156,1.2539062 v 4.31250001 h 0.996094 V -4.7003359 c 0,-1.125 -0.644531,-1.7460938 -1.816406,-1.7460938 -0.832031,0 -1.335938,0.2578125 -1.921875,0.9609375 -0.375,-0.6679687 -0.867188,-0.9609375 -1.6875,-0.9609375 -0.832031,0 -1.382813,0.3164063 -1.921875,1.0664063 v -0.8789063 z m 15.257812,3.4570313 c 0,-0.9492188 -0.07031,-1.5234375 -0.246094,-1.9921875 -0.410156,-1.03125 -1.359375,-1.6523438 -2.53125,-1.6523438 -1.746093,0 -2.871093,1.3359375 -2.871093,3.3984375 0,2.05078126 1.089843,3.31640626 2.847656,3.31640626 1.429687,0 2.425781,-0.80859375 2.671875,-2.16796876 h -1.007813 c -0.269531,0.8203125 -0.832031,1.25390626 -1.628906,1.25390626 -0.632812,0 -1.171875,-0.29296875 -1.511719,-0.80859376 -0.234375,-0.3632812 -0.316406,-0.7265625 -0.328125,-1.3476562 z m -4.582031,-0.8085938 c 0.08203,-1.1601562 0.785156,-1.9101562 1.792969,-1.9101562 0.972656,0 1.722656,0.8085937 1.722656,1.8398437 0,0.023437 0,0.046875 -0.01172,0.070312 z m 5.929687,-2.6484375 v 6.25781251 h 1.007813 V -3.4581484 c 0,-1.2773438 0.667969,-2.109375 1.699219,-2.109375 0.785156,0 1.289062,0.46875 1.289062,1.2304687 v 4.33593751 h 0.996094 V -4.7354922 c 0,-1.0429687 -0.785156,-1.7109375 -1.992188,-1.7109375 -0.925781,0 -1.523437,0.3632813 -2.074218,1.2304688 v -1.0429688 z m 8.850586,0 h -1.03125 v -1.7226562 h -0.984375 v 1.7226562 h -0.855468 v 0.8085938 h 0.855468 v 4.73437496 c 0,0.6328125 0.421875,0.984375 1.207032,0.984375 0.234375,0 0.480468,-0.0234375 0.808593,-0.0820313 v -0.83203125 c -0.128906,0.0351563 -0.28125,0.046875 -0.480468,0.046875 -0.421875,0 -0.550782,-0.1171875 -0.550782,-0.56249991 v -4.2890625 h 1.03125 z m 6.688477,5.67187501 c -0.105469,0.0234375 -0.164063,0.0234375 -0.222656,0.0234375 -0.339844,0 -0.539063,-0.17578125 -0.539063,-0.49218751 v -3.6796875 c 0,-1.1132812 -0.808594,-1.7109375 -2.34375,-1.7109375 -0.914062,0 -1.664062,0.2695313 -2.085937,0.7265625 -0.28125,0.328125 -0.410157,0.6914063 -0.433594,1.3125 h 1.007812 c 0.08203,-0.7734375 0.539063,-1.1132812 1.464844,-1.1132812 0.902344,0 1.40625,0.328125 1.40625,0.9257812 v 0.2695313 c 0,0.4101562 -0.257812,0.5976562 -1.042969,0.6914062 -1.40625,0.1757813 -1.628906,0.2226563 -2.003906,0.3867188 -0.738281,0.2929687 -1.101562,0.8554687 -1.101562,1.6640625 0,1.13671871 0.785156,1.85156246 2.050781,1.85156246 0.796875,0 1.429687,-0.26953125 2.132812,-0.9140625 0.07031,0.6328125 0.375,0.9140625 1.03125,0.9140625 0.199219,0 0.351563,-0.0234375 0.679688,-0.10546875 z M 65.289992,-1.9698672 c 0,0.328125 -0.09375,0.5390625 -0.398437,0.8085938 -0.410157,0.37499996 -0.890625,0.56249996 -1.476563,0.56249996 -0.785156,0 -1.230469,-0.375 -1.230469,-1.00781246 0,-0.65625 0.433594,-0.984375 1.5,-1.1484375 1.054688,-0.140625 1.265625,-0.1875 1.605469,-0.3398438 z m 3.811524,-6.75 h -1.007813 v 8.71875001 h 1.007813 z M 2.8700703,7.6893125 H 1.8739766 v 6.2578125 h 0.9960937 z m 0,-2.4609375 H 1.8622578 V 6.494 H 2.8700703 Z M 8.9696797,9.4236875 C 8.9579609,8.1932187 8.1376484,7.5018125 6.6962422,7.5018125 c -1.453125,0 -2.4023438,0.75 -2.4023438,1.9101562 0,0.9843753 0.5039063,1.4531253 1.9804688,1.8046873 l 0.9375,0.234375 c 0.6914062,0.164063 0.9609375,0.421875 0.9609375,0.867188 0,0.585937 -0.5859375,0.984375 -1.453125,0.984375 -0.5390625,0 -0.9960938,-0.152344 -1.2421875,-0.421875 C 5.3251484,12.704937 5.2548359,12.529156 5.1845234,12.083844 H 4.1415547 c 0.046875,1.441406 0.8554687,2.132812 2.4960937,2.132812 1.5820313,0 2.578125,-0.773437 2.578125,-1.980469 0,-0.925781 -0.5273437,-1.441406 -1.7695312,-1.746093 L 6.4970234,10.267437 C 5.6767109,10.079937 5.3368672,9.8104062 5.3368672,9.3650937 c 0,-0.5742187 0.515625,-0.9375 1.3242187,-0.9375 0.796875,0 1.2304688,0.3398438 1.2539063,0.9960938 z m 3.9843753,-1.921875 c -1.746094,0 -2.8125,1.2539062 -2.8125,3.3632815 0,2.097656 1.042968,3.351562 2.824218,3.351562 1.757813,0 2.835938,-1.253906 2.835938,-3.304687 0,-2.167969 -1.042969,-3.4101565 -2.847656,-3.4101565 z m 0.01172,0.9257812 c 1.125,0 1.792969,0.9140625 1.792969,2.4726563 0,1.464844 -0.691406,2.402344 -1.792969,2.402344 -1.101562,0 -1.792968,-0.925782 -1.792968,-2.4375 0,-1.511719 0.691406,-2.4375003 1.792968,-2.4375003 z M 19.39058,7.6893125 H 18.35933 V 5.9666562 h -0.984375 v 1.7226563 h -0.855469 v 0.8085937 h 0.855469 v 4.7343748 c 0,0.632813 0.421875,0.984375 1.207031,0.984375 0.234375,0 0.480469,-0.02344 0.808594,-0.08203 v -0.832031 c -0.128906,0.03516 -0.28125,0.04687 -0.480469,0.04687 -0.421875,0 -0.550781,-0.117188 -0.550781,-0.5625 V 8.4979062 h 1.03125 z m 3.533203,-0.1875 c -1.746093,0 -2.8125,1.2539062 -2.8125,3.3632815 0,2.097656 1.042969,3.351562 2.824219,3.351562 1.757813,0 2.835938,-1.253906 2.835938,-3.304687 0,-2.167969 -1.042969,-3.4101565 -2.847657,-3.4101565 z m 0.01172,0.9257812 c 1.125,0 1.792969,0.9140625 1.792969,2.4726563 0,1.464844 -0.691406,2.402344 -1.792969,2.402344 -1.101562,0 -1.792969,-0.925782 -1.792969,-2.4375 0,-1.511719 0.691407,-2.4375003 1.792969,-2.4375003 z m 4.03418,8.1210933 h 1.007812 v -3.257812 c 0.527344,0.644531 1.113281,0.925781 1.921875,0.925781 1.617188,0 2.671875,-1.300781 2.671875,-3.292969 0,-2.1093745 -1.019531,-3.4218745 -2.683594,-3.4218745 -0.84375,0 -1.535156,0.3867187 -1.992187,1.125 v -0.9375 H 26.96968 Z m 2.753906,-8.1093745 c 1.101562,0 1.816406,0.9609375 1.816406,2.4609375 0,1.417969 -0.726562,2.390625 -1.816406,2.390625 -1.054688,0 -1.746094,-0.960938 -1.746094,-2.425781 0,-1.4765628 0.691406,-2.4257815 1.746094,-2.4257815 z m 6.495117,-0.9375 c -1.746094,0 -2.8125,1.2539062 -2.8125,3.3632815 0,2.097656 1.042969,3.351562 2.824219,3.351562 1.757812,0 2.835937,-1.253906 2.835937,-3.304687 0,-2.167969 -1.042968,-3.4101565 -2.847656,-3.4101565 z m 0.01172,0.9257812 c 1.125,0 1.792969,0.9140625 1.792969,2.4726563 0,1.464844 -0.691407,2.402344 -1.792969,2.402344 -1.101563,0 -1.792969,-0.925782 -1.792969,-2.4375 0,-1.511719 0.691406,-2.4375003 1.792969,-2.4375003 z M 41.436477,5.228375 h -1.007813 v 8.71875 h 1.007813 z m 4.083984,2.2734375 c -1.746094,0 -2.8125,1.2539062 -2.8125,3.3632815 0,2.097656 1.042969,3.351562 2.824219,3.351562 1.757812,0 2.835937,-1.253906 2.835937,-3.304687 0,-2.167969 -1.042969,-3.4101565 -2.847656,-3.4101565 z m 0.01172,0.9257812 c 1.125,0 1.792968,0.9140625 1.792968,2.4726563 0,1.464844 -0.691406,2.402344 -1.792968,2.402344 -1.101563,0 -1.792969,-0.925782 -1.792969,-2.4375 0,-1.511719 0.691406,-2.4375003 1.792969,-2.4375003 z M 53.843703,7.6893125 V 8.5916562 C 53.339797,7.853375 52.730422,7.5018125 51.933547,7.5018125 c -1.59375,0 -2.660156,1.3945312 -2.660156,3.4218745 0,1.03125 0.269531,1.863282 0.785156,2.460938 0.46875,0.527344 1.136719,0.832031 1.792969,0.832031 0.785156,0 1.335937,-0.328125 1.898437,-1.113281 v 0.316406 c 0,0.855469 -0.105469,1.359375 -0.363281,1.710938 -0.257813,0.375 -0.773438,0.585937 -1.382813,0.585937 -0.457031,0 -0.855468,-0.117187 -1.136718,-0.339844 -0.222657,-0.175781 -0.316407,-0.339843 -0.375,-0.714843 h -1.019532 c 0.105469,1.183593 1.03125,1.886718 2.496094,1.886718 0.9375,0 1.734375,-0.292968 2.144531,-0.796875 0.46875,-0.574218 0.65625,-1.359375 0.65625,-2.835937 V 7.6893125 Z m -1.804687,0.7382812 c 1.078125,0 1.710937,0.9023438 1.710937,2.4726563 0,1.488281 -0.644531,2.402344 -1.699219,2.402344 -1.089843,0 -1.746093,-0.925782 -1.746093,-2.4375 0,-1.511719 0.667968,-2.4375003 1.734375,-2.4375003 z m 9.292968,5.5195313 V 7.6893125 h -0.996093 v 3.5390625 c 0,1.289062 -0.667969,2.121094 -1.710938,2.121094 -0.785156,0 -1.289062,-0.480469 -1.289062,-1.230469 V 7.6893125 h -0.996094 v 4.8281245 c 0,1.03125 0.785156,1.699219 2.003906,1.699219 0.914063,0 1.5,-0.316406 2.085938,-1.136719 v 0.867188 z m 7.010743,-2.800781 c 0,-0.949219 -0.07031,-1.5234378 -0.246094,-1.9921878 -0.410156,-1.03125 -1.359375,-1.6523437 -2.53125,-1.6523437 -1.746094,0 -2.871094,1.3359375 -2.871094,3.3984375 0,2.050781 1.089844,3.316406 2.847656,3.316406 1.429688,0 2.425782,-0.808594 2.671875,-2.167969 h -1.007812 c -0.269531,0.820313 -0.832031,1.253907 -1.628906,1.253907 -0.632813,0 -1.171875,-0.292969 -1.511719,-0.808594 -0.234375,-0.363281 -0.316406,-0.726563 -0.328125,-1.347656 z M 63.760695,10.33775 c 0.08203,-1.1601563 0.785157,-1.9101563 1.792969,-1.9101563 0.972656,0 1.722656,0.8085938 1.722656,1.8398433 0,0.02344 0,0.04687 -0.01172,0.07031 z m 0,0"
       style="fill:#000000;fill-opacity:1;fill-rule:nonzero;stroke:none"
       aria-label="Experimental&#10;isotopologue"
       transform="matrix(1.3333333,0,0,1.3333333,28.669333,34.841333)" />
    <path
       id="path15"
       d="m 2.3207344,-8.719 h -1.125 v 8.71875 h 1.125 z m 3.1933594,4.7460938 H 10.260188 V -4.9455625 H 5.5140938 V -7.734625 H 10.435969 V -8.719 H 4.4008125 V -2.5e-4 H 10.646906 V -0.984625 H 5.5140938 Z M -15.377508,10.197992 h 2.871094 c 0.984375,0 1.429687,0.480469 1.429687,1.546875 l -0.01172,0.785156 c 0,0.539063 0.09375,1.054688 0.246093,1.417969 h 1.3593754 v -0.269531 c -0.421875,-0.292969 -0.5039062,-0.597656 -0.5273434,-1.757813 -0.01172,-1.441406 -0.246094,-1.875 -1.183594,-2.2734371 0.972656,-0.4804687 1.3710937,-1.0898437 1.3710937,-2.0859375 0,-1.5 -0.9492187,-2.3320312 -2.6484377,-2.3320312 h -4.019531 v 8.7187498 h 1.113281 z m 0,-0.9843748 v -3 h 2.683594 c 0.621094,0 0.984375,0.09375 1.253906,0.3398437 0.304688,0.2460938 0.457031,0.6445313 0.457031,1.171875 0,1.0195313 -0.527343,1.4882813 -1.710937,1.4882813 z m 12.5332033,1.9335938 c 0,-0.949219 -0.070312,-1.5234376 -0.2460937,-1.9921876 -0.4101563,-1.03125 -1.359375,-1.6523437 -2.53125,-1.6523437 -1.7460938,0 -2.8710938,1.3359375 -2.8710938,3.3984373 0,2.050781 1.0898438,3.316406 2.8476563,3.316406 1.4296875,0 2.4257812,-0.808593 2.671875,-2.167968 h -1.0078125 c -0.2695313,0.820312 -0.8320313,1.253906 -1.6289063,1.253906 -0.6328125,0 -1.171875,-0.292969 -1.5117187,-0.808594 -0.234375,-0.363281 -0.3164063,-0.726562 -0.328125,-1.347656 z m -4.5820312,-0.808594 c 0.082031,-1.1601561 0.7851562,-1.9101561 1.7929687,-1.9101561 0.9726563,0 1.7226563,0.8085938 1.7226563,1.8398441 0,0.02344 0,0.04687 -0.011719,0.07031 z M 2.9125313,9.4245547 C 2.9008125,8.1940859 2.0805,7.5026797 0.63909375,7.5026797 c -1.453125,0 -2.40234375,0.75 -2.40234375,1.9101562 0,0.9843751 0.5039063,1.4531251 1.98046875,1.8046871 l 0.93750005,0.234375 c 0.6914062,0.164063 0.9609375,0.421875 0.9609375,0.867188 0,0.585937 -0.5859375,0.984375 -1.45312505,0.984375 -0.5390625,0 -0.99609375,-0.152344 -1.2421875,-0.421875 C -0.732,12.705805 -0.8023125,12.530023 -0.872625,12.084711 h -1.0429687 c 0.046875,1.441406 0.8554687,2.132812 2.4960937,2.132812 1.5820313,0 2.578125,-0.773437 2.578125,-1.980468 0,-0.925782 -0.5273437,-1.441407 -1.7695312,-1.746094 L 0.439875,10.268305 c -0.8203125,-0.1875 -1.16015625,-0.4570316 -1.16015625,-0.9023441 0,-0.5742187 0.515625,-0.9375 1.32421875,-0.9375 0.796875,0 1.2304688,0.3398438 1.2539063,0.9960938 z M 5.4467109,7.6901797 H 4.4506172 v 6.2578123 h 0.9960937 z m 0,-2.4609375 H 4.4388984 v 1.265625 h 1.0078125 z m 6.7763671,0 H 11.226984 V 8.4753359 C 10.816828,7.8425234 10.137141,7.5026797 9.3051094,7.5026797 c -1.6289063,0 -2.6835938,1.3007812 -2.6835938,3.3046873 0,2.109375 1.03125,3.410156 2.71875,3.410156 0.8671874,0 1.4648434,-0.316406 1.9921874,-1.089843 v 0.820312 h 0.890625 z M 9.4691719,8.4401797 c 1.0781251,0 1.7578121,0.9492187 1.7578121,2.4492183 0,1.441407 -0.691406,2.402344 -1.7460934,2.402344 -1.1015625,0 -1.828125,-0.972656 -1.828125,-2.425781 0,-1.4648438 0.7265625,-2.4257813 1.8164063,-2.4257813 z M 18.718195,13.947992 V 7.6901797 h -0.996093 v 3.5390623 c 0,1.289063 -0.667969,2.121094 -1.710938,2.121094 -0.785156,0 -1.289062,-0.480469 -1.289062,-1.230469 V 7.6901797 h -0.996094 v 4.8281253 c 0,1.03125 0.785156,1.699218 2.003906,1.699218 0.914063,0 1.5,-0.316406 2.085938,-1.136718 v 0.867187 z m 7.280274,-0.585937 c -0.105469,0.02344 -0.164063,0.02344 -0.222657,0.02344 -0.339843,0 -0.539062,-0.175781 -0.539062,-0.492187 V 9.2136172 c 0,-1.1132813 -0.808594,-1.7109375 -2.34375,-1.7109375 -0.914063,0 -1.664063,0.2695312 -2.085938,0.7265625 -0.28125,0.328125 -0.410156,0.6914062 -0.433593,1.3125 h 1.007812 c 0.08203,-0.7734375 0.539063,-1.1132813 1.464844,-1.1132813 0.902344,0 1.40625,0.328125 1.40625,0.9257813 v 0.2695312 c 0,0.4101566 -0.257813,0.5976566 -1.042969,0.6914066 -1.40625,0.175781 -1.628906,0.222656 -2.003906,0.386718 -0.738281,0.292969 -1.101563,0.855469 -1.101563,1.664063 0,1.136719 0.785157,1.851562 2.050782,1.851562 0.796875,0 1.429687,-0.269531 2.132812,-0.914062 0.07031,0.632812 0.375,0.914062 1.03125,0.914062 0.199219,0 0.351563,-0.02344 0.679688,-0.105468 z m -1.746094,-1.382813 c 0,0.328125 -0.09375,0.539063 -0.398438,0.808594 -0.410156,0.375 -0.890625,0.5625 -1.476562,0.5625 -0.785156,0 -1.230469,-0.375 -1.230469,-1.007813 0,-0.65625 0.433594,-0.984375 1.5,-1.148437 1.054688,-0.140625 1.265625,-0.1875 1.605469,-0.339844 z m 3.811523,-6.7499998 h -1.007812 v 8.7187498 h 1.007812 z m 0,0"
       style="fill:#000000;fill-opacity:1;fill-rule:nonzero;stroke:none"
       aria-label="IE&#10;Residual"
       transform="matrix(1.3333333,0,0,1.3333333,292.476,38.125333)" />
    <path
       id="path16"
       d="M 5.5903594,-2.5e-4 8.0395781,-7.3010312 V -2.5e-4 H 9.0942656 V -8.719 H 7.5591094 L 5.0161406,-1.12525 2.4380156,-8.719 H 0.90285937 V -2.5e-4 H 1.9458281 V -7.3010312 L 4.4184844,-2.5e-4 Z M 12.021023,-8.719 h -1.101562 v 8.71875 h 5.414062 v -0.984375 h -4.3125 z m 10.769532,5.0273438 h 2.730468 c 0.679688,0 1.21875,-0.2109375 1.6875,-0.6210938 0.527344,-0.4804687 0.75,-1.0429687 0.75,-1.8398437 0,-1.640625 -0.960937,-2.5664063 -2.683593,-2.5664063 h -3.597657 v 8.71875 h 1.113282 z m 0,-0.984375 V -7.734625 h 2.320312 c 1.054688,0 1.6875,0.5742188 1.6875,1.5351563 0,0.9492187 -0.632812,1.5234375 -1.6875,1.5234375 z m 6.591797,-1.5820313 V -2.5e-4 h 1.007812 v -3.2460937 c 0,-0.9023438 0.222656,-1.4882813 0.703125,-1.8398438 0.316406,-0.2226562 0.609375,-0.2929687 1.300781,-0.3046875 v -1.0195312 c -0.164062,-0.023437 -0.246093,-0.035156 -0.375,-0.035156 -0.644531,0 -1.136718,0.3867188 -1.710937,1.3125 v -1.125 z m 9.290039,3.4570313 c 0,-0.9492188 -0.07031,-1.5234375 -0.246094,-1.9921875 -0.410156,-1.03125 -1.359375,-1.6523438 -2.53125,-1.6523438 -1.746094,0 -2.871094,1.3359375 -2.871094,3.3984375 0,2.05078125 1.089844,3.31640625 2.847656,3.31640625 1.429688,0 2.425782,-0.80859375 2.671875,-2.16796875 h -1.007812 c -0.269531,0.8203125 -0.832031,1.25390625 -1.628906,1.25390625 -0.632813,0 -1.171875,-0.29296875 -1.511719,-0.80859375 -0.234375,-0.3632812 -0.316406,-0.7265625 -0.328125,-1.3476562 z M 34.090359,-3.609625 c 0.08203,-1.1601562 0.785157,-1.9101562 1.792969,-1.9101562 0.972656,0 1.722656,0.8085937 1.722656,1.8398437 0,0.023437 0,0.046875 -0.01172,0.070312 z M 45.105984,-8.719 h -0.996093 v 3.2460938 c -0.410157,-0.6328125 -1.089844,-0.9726563 -1.921875,-0.9726563 -1.628907,0 -2.683594,1.3007813 -2.683594,3.3046875 0,2.109375 1.03125,3.41015625 2.71875,3.41015625 0.867187,0 1.464844,-0.31640625 1.992187,-1.08984375 V -2.5e-4 h 0.890625 z m -2.753906,3.2109375 c 1.078125,0 1.757813,0.9492188 1.757813,2.4492188 0,1.4414062 -0.691407,2.4023437 -1.746094,2.4023437 -1.101563,0 -1.828125,-0.9726562 -1.828125,-2.4257812 0,-1.4648438 0.726562,-2.4257813 1.816406,-2.4257813 z m 5.276367,-0.75 H 46.632352 V -2.5e-4 h 0.996093 z m 0,-2.4609375 h -1.007812 v 1.265625 h 1.007812 z m 6.486328,4.5585938 c -0.04687,-0.609375 -0.175781,-1.0078125 -0.410156,-1.3476563 -0.433594,-0.5859375 -1.183594,-0.9375 -2.0625,-0.9375 -1.6875,0 -2.777344,1.3359375 -2.777344,3.421875 0,2.015625 1.066407,3.29296875 2.765625,3.29296875 1.5,0 2.4375,-0.890625 2.566407,-2.42578125 h -1.007813 c -0.164062,1.0078125 -0.679687,1.51171875 -1.535156,1.51171875 -1.101563,0 -1.757813,-0.90234375 -1.757813,-2.37890625 0,-1.5703125 0.644532,-2.4960937 1.734375,-2.4960937 0.84375,0 1.371094,0.4921875 1.488282,1.359375 z m 3.389649,-2.0976563 h -1.03125 v -1.7226562 h -0.984375 v 1.7226562 h -0.855469 v 0.8085938 h 0.855469 v 4.73437495 c 0,0.6328125 0.421875,0.984375 1.207031,0.984375 0.234375,0 0.480469,-0.0234375 0.808594,-0.0820313 V -0.6447813 c -0.128906,0.0351563 -0.28125,0.046875 -0.480469,0.046875 -0.421875,0 -0.550781,-0.1171875 -0.550781,-0.5624999 v -4.2890625 h 1.03125 z m 6.416015,3.4570313 c 0,-0.9492188 -0.07031,-1.5234375 -0.246093,-1.9921875 -0.410157,-1.03125 -1.359375,-1.6523438 -2.53125,-1.6523438 -1.746094,0 -2.871094,1.3359375 -2.871094,3.3984375 0,2.05078125 1.089844,3.31640625 2.847656,3.31640625 1.429688,0 2.425781,-0.80859375 2.671875,-2.16796875 h -1.007812 c -0.269532,0.8203125 -0.832032,1.25390625 -1.628907,1.25390625 -0.632812,0 -1.171875,-0.29296875 -1.511718,-0.80859375 -0.234375,-0.3632812 -0.316407,-0.7265625 -0.328125,-1.3476562 z M 59.338406,-3.609625 c 0.08203,-1.1601562 0.785156,-1.9101562 1.792969,-1.9101562 0.972656,0 1.722656,0.8085937 1.722656,1.8398437 0,0.023437 0,0.046875 -0.01172,0.070312 z M 70.356961,-8.719 h -0.996094 v 3.2460938 c -0.410156,-0.6328125 -1.089844,-0.9726563 -1.921875,-0.9726563 -1.628906,0 -2.683594,1.3007813 -2.683594,3.3046875 0,2.109375 1.03125,3.41015625 2.71875,3.41015625 0.867188,0 1.464844,-0.31640625 1.992188,-1.08984375 V -2.5e-4 h 0.890625 z m -2.753906,3.2109375 c 1.078125,0 1.757812,0.9492188 1.757812,2.4492188 0,1.4414062 -0.691406,2.4023437 -1.746094,2.4023437 -1.101562,0 -1.828125,-0.9726562 -1.828125,-2.4257812 0,-1.4648438 0.726563,-2.4257813 1.816407,-2.4257813 z M 15.885281,7.9362734 C 15.545437,6.0261172 14.443875,5.0886172 12.533719,5.0886172 c -1.171875,0 -2.121094,0.375 -2.7656253,1.0898437 -0.7851562,0.8554688 -1.21875,2.109375 -1.21875,3.515625 0,1.4296871 0.4453125,2.6601561 1.265625,3.5156251 0.6679683,0.691406 1.5351563,1.007812 2.6718753,1.007812 2.121093,0 3.316406,-1.136718 3.585937,-3.445312 h -1.148437 c -0.105469,0.597656 -0.222657,0.996094 -0.398438,1.347656 -0.363281,0.714844 -1.101562,1.125 -2.027344,1.125 -1.734375,0 -2.835937,-1.394531 -2.835937,-3.5624998 0,-2.2382813 1.054687,-3.609375 2.730469,-3.609375 0.714843,0 1.371093,0.2109375 1.722656,0.5507812 0.328125,0.2929688 0.503906,0.6679688 0.632812,1.3125 z m 3.969727,-0.4335937 c -1.746094,0 -2.8125,1.2539062 -2.8125,3.3632813 0,2.097656 1.042969,3.351562 2.824219,3.351562 1.757812,0 2.835937,-1.253906 2.835937,-3.304687 0,-2.1679688 -1.042969,-3.4101563 -2.847656,-3.4101563 z m 0.01172,0.9257812 c 1.125,0 1.792968,0.9140625 1.792968,2.4726561 0,1.464844 -0.691406,2.402344 -1.792968,2.402344 -1.101563,0 -1.792969,-0.925781 -1.792969,-2.4375 0,-1.5117188 0.691406,-2.4375001 1.792969,-2.4375001 z m 4.207031,-0.7382812 v 6.2578123 h 1.007812 v -3.246094 c 0,-0.9023433 0.222657,-1.4882808 0.703125,-1.8398433 0.316407,-0.2226563 0.609375,-0.2929688 1.300782,-0.3046875 V 7.5378359 c -0.164063,-0.023437 -0.246094,-0.035156 -0.375,-0.035156 -0.644532,0 -1.136719,0.3867187 -1.710938,1.3125 v -1.125 z m 3.981445,0 v 6.2578123 h 1.007813 v -3.246094 c 0,-0.9023433 0.222656,-1.4882808 0.703125,-1.8398433 0.316406,-0.2226563 0.609375,-0.2929688 1.300781,-0.3046875 V 7.5378359 c -0.164063,-0.023437 -0.246094,-0.035156 -0.375,-0.035156 -0.644531,0 -1.136719,0.3867187 -1.710938,1.3125 v -1.125 z m 9.290039,3.4570313 c 0,-0.949219 -0.07031,-1.5234376 -0.246094,-1.9921876 -0.410156,-1.03125 -1.359375,-1.6523437 -2.53125,-1.6523437 -1.746093,0 -2.871093,1.3359375 -2.871093,3.3984373 0,2.050781 1.089843,3.316406 2.847656,3.316406 1.429687,0 2.425781,-0.808593 2.671875,-2.167968 h -1.007813 c -0.269531,0.820312 -0.832031,1.253906 -1.628906,1.253906 -0.632812,0 -1.171875,-0.292969 -1.511719,-0.808594 -0.234375,-0.363281 -0.316406,-0.726562 -0.328125,-1.347656 z m -4.582031,-0.808594 c 0.08203,-1.1601561 0.785156,-1.9101561 1.792969,-1.9101561 0.972656,0 1.722656,0.8085938 1.722656,1.8398441 0,0.02344 0,0.04687 -0.01172,0.07031 z M 43.488797,9.7878359 c -0.04687,-0.609375 -0.175781,-1.0078125 -0.410156,-1.3476562 -0.433594,-0.5859375 -1.183594,-0.9375 -2.0625,-0.9375 -1.6875,0 -2.777344,1.3359375 -2.777344,3.4218753 0,2.015625 1.066406,3.292968 2.765625,3.292968 1.5,0 2.4375,-0.890625 2.566406,-2.425781 h -1.007812 c -0.164063,1.007813 -0.679688,1.511719 -1.535157,1.511719 -1.101562,0 -1.757812,-0.902344 -1.757812,-2.378906 0,-1.5703128 0.644531,-2.4960941 1.734375,-2.4960941 0.84375,0 1.371094,0.4921875 1.488281,1.359375 z m 3.386719,-2.0976562 h -1.03125 V 5.9675234 h -0.984375 v 1.7226563 h -0.855469 v 0.8085937 h 0.855469 v 4.7343746 c 0,0.632813 0.421875,0.984375 1.207031,0.984375 0.234375,0 0.480469,-0.02344 0.808594,-0.08203 v -0.832031 c -0.128907,0.03516 -0.28125,0.04687 -0.480469,0.04687 -0.421875,0 -0.550781,-0.117188 -0.550781,-0.5625 V 8.4987734 h 1.03125 z m 2.083007,0 H 47.96243 v 6.2578123 h 0.996093 z m 0,-2.4609375 h -1.007812 v 1.265625 h 1.007812 z m 4.107422,2.2734375 c -1.746093,0 -2.8125,1.2539062 -2.8125,3.3632813 0,2.097656 1.042969,3.351562 2.824219,3.351562 1.757813,0 2.835938,-1.253906 2.835938,-3.304687 0,-2.1679688 -1.042969,-3.4101563 -2.847657,-3.4101563 z m 0.01172,0.9257812 c 1.125,0 1.792969,0.9140625 1.792969,2.4726561 0,1.464844 -0.691406,2.402344 -1.792969,2.402344 -1.101562,0 -1.792969,-0.925781 -1.792969,-2.4375 0,-1.5117188 0.691407,-2.4375001 1.792969,-2.4375001 z m 4.22168,-0.7382812 v 6.2578123 h 1.007812 v -3.457031 c 0,-1.2773438 0.667969,-2.1093751 1.699219,-2.1093751 0.785156,0 1.289062,0.46875 1.289062,1.2304688 v 4.3359373 h 0.996094 V 9.2136172 c 0,-1.0429688 -0.785156,-1.7109375 -1.992187,-1.7109375 -0.925782,0 -1.523438,0.3632812 -2.074219,1.2304687 V 7.6901797 Z m 0,0"
       style="fill:#000000;fill-opacity:1;fill-rule:nonzero;stroke:none"
       aria-label="MLPredicted&#10;Correction"
       transform="matrix(1.3333333,0,0,1.3333333,362.304,38.125333)" />
  </g>
</svg>
